<?xml version="1.0" encoding="UTF-8"?>
<svg width="2055px" height="340px" viewBox="0 0 2055 340" version="1.1" xmlns="http://www.w3.org/2000/svg" xmlns:xlink="http://www.w3.org/1999/xlink">
    <title>Group</title>
    <defs>
        <polygon id="path-1" points="0 169.373329 169.386662 169.373329 169.386662 0 0 0"></polygon>
        <polygon id="path-3" points="0 169.373329 169.386662 169.373329 169.386662 -3.03164893e-13 0 -3.03164893e-13"></polygon>
        <polygon id="path-5" points="-3.03164893e-13 169.373329 169.373329 169.373329 169.373329 -3.03164893e-13 -3.03164893e-13 -3.03164893e-13"></polygon>
    </defs>
    <g id="Page-11" stroke="none" stroke-width="1" fill="none" fill-rule="evenodd">
        <g id="Group" transform="translate(0.986612, 0.653296)">
            <path d="M448.559589,197.201462 C448.559589,205.021462 441.660922,211.001461 433.150256,211.001461 L393.824923,211.001461 L386.69559,178.802796 L427.860923,178.802796 C443.730256,178.802796 448.559589,188.232129 448.559589,197.201462 M437.980922,135.106797 C437.980922,143.845463 431.540923,150.05613 421.191589,150.05613 L380.25559,150.05613 L372.666257,115.098797 L414.982256,115.098797 C429.700923,115.098797 437.980922,124.297464 437.980922,135.106797 M333.568925,86.3507978 L367.376924,239.748127 L441.890256,239.748127 C468.567588,239.748127 483.516921,222.500128 483.516921,202.950795 C483.516921,182.482795 467.187588,164.774796 448.559589,162.934796 C462.818255,159.254796 470.638255,145.45613 470.638255,132.117463 C470.638255,110.498797 455.688922,86.3507978 417.282256,86.3507978 L333.568925,86.3507978 Z" id="path22" fill="#303030" fill-rule="nonzero" transform="translate(408.542923, 163.049463) scale(-1, 1) rotate(-180.000000) translate(-408.542923, -163.049463) "></path>
            <path d="M555.271186,154.884929 L558.260519,168.454262 C553.891186,174.892929 544.23252,179.032929 533.19252,179.032929 C520.313854,179.032929 512.035187,171.214262 512.035187,160.404929 C512.035187,150.746263 519.855187,145.686263 532.043187,145.686263 C542.161853,145.686263 549.751186,149.36493 555.271186,154.884929 M549.521853,128.667597 L551.821853,139.93693 C543.541853,131.427597 532.963187,125.907597 518.70452,125.907597 C499.845854,125.907597 482.137855,136.486263 482.137855,158.104929 C482.137855,183.403595 501.225854,198.580928 523.303187,198.580928 C539.403187,198.580928 551.361853,193.982262 561.480519,183.632929 L564.469853,196.282262 C564.700519,197.200928 564.931186,199.962262 564.931186,201.571595 C564.931186,211.690261 554.121853,218.359595 538.943187,218.359595 C527.443187,218.359595 517.095187,214.450261 508.125854,207.780928 L501.225854,228.939594 C514.10452,238.138261 529.283187,242.507594 545.15252,242.507594 C571.369852,242.507594 594.827185,232.618261 594.827185,207.320928 C594.827185,204.791595 594.137855,198.351595 593.448518,195.360928 L578.729852,128.667597 L549.521853,128.667597 Z" id="path26" fill="#303030" fill-rule="nonzero" transform="translate(538.482520, 184.207595) scale(-1, 1) rotate(-180.000000) translate(-538.482520, -184.207595) "></path>
            <path d="M606.558252,110.039331 C606.558252,112.568664 606.787585,115.328664 607.248918,118.088664 L634.846251,242.508661 L664.05425,242.508661 L638.295584,125.90733 C638.064917,124.297997 637.835584,122.917997 637.835584,121.077997 C637.835584,115.788664 642.204917,112.339331 648.644917,112.339331 C651.864917,112.339331 655.544917,113.488664 656.923584,114.63933 L657.843584,91.1806644 C654.623584,88.6513311 647.95425,86.3499978 639.675584,86.3499978 C618.747585,86.3499978 606.558252,95.0899976 606.558252,110.039331" id="path30" fill="#303030" fill-rule="nonzero" transform="translate(635.306251, 164.429329) scale(-1, 1) rotate(-180.000000) translate(-635.306251, -164.429329) "></path>
            <path d="M669.34145,176.503729 C669.34145,213.070395 697.629449,242.507727 733.966782,242.507727 C756.734781,242.507727 771.453447,233.309061 779.041447,220.659728 L757.194781,203.871728 C752.593448,211.690395 744.085448,216.521061 733.966782,216.521061 C713.037449,216.521061 699.008116,198.811728 699.008116,178.114396 C699.008116,161.325063 711.426782,151.89573 726.836115,151.89573 C736.265448,151.89573 744.544115,156.495729 750.064115,162.934396 L765.932114,143.61573 C757.653448,134.646397 743.394781,125.90773 723.846782,125.90773 C690.729449,125.90773 669.34145,146.146396 669.34145,176.503729" id="path34" fill="#303030" fill-rule="nonzero" transform="translate(724.191449, 184.207729) scale(-1, 1) rotate(-180.000000) translate(-724.191449, -184.207729) "></path>
            <path d="M868.275045,190.532395 C868.275045,206.631062 858.615045,216.520395 842.517712,216.520395 C822.969713,216.520395 809.40038,197.892395 809.40038,177.884396 C809.40038,161.784396 819.289713,151.895063 835.387046,151.895063 C854.935045,151.895063 868.275045,170.524396 868.275045,190.532395 M779.272381,176.504396 C779.272381,211.001728 805.949713,242.508394 843.436379,242.508394 C878.855045,242.508394 898.632378,221.119061 898.632378,191.912395 C898.632378,157.415063 871.955045,125.907064 834.237712,125.907064 C798.82038,125.907064 779.272381,147.296396 779.272381,176.504396" id="path38" fill="#303030" fill-rule="nonzero" transform="translate(838.952379, 184.207729) scale(-1, 1) rotate(-180.000000) translate(-838.952379, -184.207729) "></path>
            <path d="M977.745042,125.90773 L992.694375,193.291729 C993.154375,195.362395 993.614375,197.661062 993.614375,199.731728 C993.614375,209.850395 985.334375,213.761061 974.526376,213.761061 C964.637043,213.761061 954.977043,207.090395 948.538376,200.881062 L931.97971,125.90773 L902.773044,125.90773 L927.381043,236.989061 L956.587709,236.989061 L953.367709,222.729061 C962.106376,231.009061 974.065042,239.747727 990.394375,239.747727 C1011.78237,239.747727 1025.12104,228.709061 1025.12104,211.461061 C1025.12104,209.390395 1024.43171,204.561062 1023.97171,202.261062 L1007.18237,125.90773 L977.745042,125.90773 Z" id="path42" fill="#303030" fill-rule="nonzero" transform="translate(963.947043, 182.827729) scale(-1, 1) rotate(-180.000000) translate(-963.947043, -182.827729) "></path>
            <path d="M1022.82317,147.98413 L1040.07117,167.301462 C1047.20051,157.413463 1062.60984,152.582796 1076.17784,152.582796 C1095.03651,152.582796 1103.77651,163.162796 1107.91517,181.101462 L1110.44584,192.600129 C1101.01651,184.321462 1090.20717,175.812129 1073.41784,175.812129 C1053.86984,175.812129 1038.69117,185.240129 1038.69117,204.098795 C1038.69117,206.169462 1038.92051,208.698795 1039.84184,213.298795 L1055.94051,284.822793 L1085.14717,284.822793 L1071.11917,222.268128 C1070.65917,219.737461 1070.42851,216.978795 1070.42851,215.828128 C1070.42851,204.560128 1079.62851,201.798795 1089.28717,201.798795 C1099.63517,201.798795 1108.83517,208.238795 1115.27517,214.678795 L1130.91251,284.822793 L1160.12184,284.822793 L1137.12317,181.101462 C1130.22317,150.513463 1111.36451,128.666797 1076.63784,128.666797 C1053.63917,128.666797 1035.70051,134.414797 1022.82317,147.98413" id="path46" fill="#303030" fill-rule="nonzero" transform="translate(1091.472506, 206.744795) scale(-1, 1) rotate(-180.000000) translate(-1091.472506, -206.744795) "></path>
            <path d="M1167.94037,152.585863 C1167.94037,206.861861 1209.56837,242.508527 1257.1737,242.508527 C1294.66037,242.508527 1316.27903,222.269861 1325.24703,199.041862 L1293.9697,188.463195 C1287.99103,204.791195 1273.27237,213.529861 1255.56437,213.529861 C1226.5857,213.529861 1202.20837,188.463195 1202.20837,154.655196 C1202.20837,130.737863 1218.76704,112.799197 1245.2137,112.799197 C1258.32304,112.799197 1272.5817,119.697864 1281.3217,130.507197 L1306.61903,113.48853 C1288.91103,90.9511977 1263.38304,83.8205312 1243.37504,83.8205312 C1201.0577,83.8205312 1167.94037,110.728531 1167.94037,152.585863" id="path50" fill="#303030" fill-rule="nonzero" transform="translate(1246.593702, 163.164529) scale(-1, 1) rotate(-180.000000) translate(-1246.593702, -163.164529) "></path>
            <path d="M1318.81023,110.039331 C1318.81023,112.568664 1319.03957,115.328664 1319.5009,118.088664 L1347.0969,242.508661 L1376.3049,242.508661 L1350.54757,125.90733 C1350.3169,124.297997 1350.08757,122.917997 1350.08757,121.077997 C1350.08757,115.788664 1354.45557,112.339331 1360.89557,112.339331 C1364.11557,112.339331 1367.79557,113.488664 1369.17423,114.63933 L1370.09557,91.1806644 C1366.87557,88.6513311 1360.20623,86.3499978 1351.92757,86.3499978 C1330.99957,86.3499978 1318.81023,95.0899976 1318.81023,110.039331" id="path54" fill="#303030" fill-rule="nonzero" transform="translate(1347.557566, 164.429329) scale(-1, 1) rotate(-180.000000) translate(-1347.557566, -164.429329) "></path>
            <path d="M1469.44423,194.901328 C1469.6749,195.361328 1469.6749,196.741328 1469.6749,197.201328 C1469.6749,208.470661 1461.3949,218.589328 1443.91623,218.589328 C1428.04823,218.589328 1416.3189,207.090661 1414.02023,194.901328 L1469.2149,194.901328 L1469.44423,194.901328 Z M1381.5909,175.813329 C1381.5909,211.919995 1408.72956,242.507994 1445.75623,242.507994 C1474.27356,242.507994 1495.66156,224.109328 1495.66156,193.061329 C1495.66156,186.391995 1494.2829,178.113329 1493.36156,174.662662 L1410.80023,174.662662 L1410.80023,171.902662 C1410.80023,162.474663 1420.68956,149.82533 1441.3869,149.82533 C1451.27623,149.82533 1462.54423,152.58533 1469.44423,157.874663 L1478.4149,137.406664 C1467.60423,130.046663 1452.88556,125.906664 1439.0869,125.906664 C1404.1309,125.906664 1381.5909,144.76533 1381.5909,175.813329" id="path58" fill="#303030" fill-rule="nonzero" transform="translate(1438.626231, 184.207329) scale(-1, 1) rotate(-180.000000) translate(-1438.626231, -184.207329) "></path>
            <path d="M1574.31543,154.884929 L1577.30476,168.454262 C1572.93543,174.892929 1563.27676,179.032929 1552.23676,179.032929 C1539.35809,179.032929 1531.07943,171.214262 1531.07943,160.404929 C1531.07943,150.746263 1538.89943,145.686263 1551.08743,145.686263 C1561.20609,145.686263 1568.79543,149.36493 1574.31543,154.884929 M1568.56609,128.667597 L1570.86609,139.93693 C1562.58609,131.427597 1552.00876,125.907597 1537.74876,125.907597 C1518.89143,125.907597 1501.18076,136.486263 1501.18076,158.104929 C1501.18076,183.403595 1520.2701,198.580928 1542.34743,198.580928 C1558.44743,198.580928 1570.40609,193.982262 1580.52476,183.632929 L1583.51409,196.282262 C1583.74476,197.200928 1583.97409,199.962262 1583.97409,201.571595 C1583.97409,211.690261 1573.16609,218.359595 1557.98743,218.359595 C1546.48743,218.359595 1536.13809,214.450261 1527.1701,207.780928 L1520.2701,228.939594 C1533.14876,238.138261 1548.32876,242.507594 1564.19676,242.507594 C1590.41409,242.507594 1613.87276,232.618261 1613.87276,207.320928 C1613.87276,204.791595 1613.18209,198.351595 1612.49276,195.360928 L1597.77409,128.667597 L1568.56609,128.667597 Z" id="path62" fill="#303030" fill-rule="nonzero" transform="translate(1557.526761, 184.207595) scale(-1, 1) rotate(-180.000000) translate(-1557.526761, -184.207595) "></path>
            <path d="M1695.05756,125.90773 L1710.00689,193.291729 C1710.46689,195.362395 1710.92689,197.661062 1710.92689,199.731728 C1710.92689,209.850395 1702.64689,213.761061 1691.83889,213.761061 C1681.94956,213.761061 1672.28956,207.090395 1665.85089,200.881062 L1649.29223,125.90773 L1620.08556,125.90773 L1644.69356,236.989061 L1673.90022,236.989061 L1670.68022,222.729061 C1679.41889,231.009061 1691.37756,239.747727 1707.70689,239.747727 C1729.09489,239.747727 1742.43356,228.709061 1742.43356,211.461061 C1742.43356,209.390395 1741.74422,204.561062 1741.28422,202.261062 L1724.49489,125.90773 L1695.05756,125.90773 Z" id="path66" fill="#303030" fill-rule="nonzero" transform="translate(1681.259558, 182.827729) scale(-1, 1) rotate(-180.000000) translate(-1681.259558, -182.827729) "></path>
            <path d="M1840.86489,194.901328 C1841.09555,195.361328 1841.09555,196.741328 1841.09555,197.201328 C1841.09555,208.470661 1832.81555,218.589328 1815.33689,218.589328 C1799.46889,218.589328 1787.73956,207.090661 1785.44089,194.901328 L1840.63555,194.901328 L1840.86489,194.901328 Z M1753.01289,175.813329 C1753.01289,211.919995 1780.15022,242.507994 1817.17689,242.507994 C1845.69422,242.507994 1867.08355,224.109328 1867.08355,193.061329 C1867.08355,186.391995 1865.70355,178.113329 1864.78222,174.662662 L1782.22089,174.662662 L1782.22089,171.902662 C1782.22089,162.474663 1792.11022,149.82533 1812.80755,149.82533 C1822.69689,149.82533 1833.96622,152.58533 1840.86489,157.874663 L1849.83555,137.406664 C1839.02489,130.046663 1824.30622,125.906664 1810.50755,125.906664 C1775.55156,125.906664 1753.01289,144.76533 1753.01289,175.813329" id="path70" fill="#303030" fill-rule="nonzero" transform="translate(1810.048221, 184.207329) scale(-1, 1) rotate(-180.000000) translate(-1810.048221, -184.207329) "></path>
            <path d="M1871.22422,125.90773 L1895.83089,236.989061 L1925.03889,236.989061 L1921.81889,222.499728 C1931.47755,233.078394 1943.43755,239.747727 1961.14555,239.747727 L1954.70555,210.770395 C1952.86688,211.230395 1948.72688,212.150395 1944.12822,212.150395 C1933.31755,212.150395 1922.96955,206.170395 1916.52955,198.811728 L1900.43089,125.90773 L1871.22422,125.90773 Z" id="path74" fill="#303030" fill-rule="nonzero" transform="translate(1916.184885, 182.827729) scale(-1, 1) rotate(-180.000000) translate(-1916.184885, -182.827729) "></path>
            <path d="M1945.50422,145.916396 L1961.83222,166.384396 C1968.50288,158.564396 1984.60022,148.90573 2000.69888,148.90573 C2010.58822,148.90573 2016.79888,154.195063 2016.79888,160.404396 C2016.79888,175.353729 1960.22288,171.673729 1960.22288,205.021728 C1960.22288,224.339061 1976.32155,242.508394 2005.98822,242.508394 C2024.84822,242.508394 2042.55622,235.379061 2053.13622,224.569728 L2037.95622,205.021728 C2032.66688,211.920395 2018.86688,219.509728 2005.30022,219.509728 C1994.94955,219.509728 1989.20022,214.911061 1989.20022,209.161728 C1989.20022,195.592395 2045.77622,198.581728 2045.77622,164.775063 C2045.77622,143.616396 2028.06688,125.907064 1997.70955,125.907064 C1977.47222,125.907064 1957.92288,132.807063 1945.50422,145.916396" id="path78" fill="#303030" fill-rule="nonzero" transform="translate(1999.320217, 184.207729) scale(-1, 1) rotate(-180.000000) translate(-1999.320217, -184.207729) "></path>
            <g id="g92-Clipped" transform="translate(169.373329, 84.686665) scale(-1, 1) rotate(-180.000000) translate(-169.373329, -84.686665) translate(84.679998, 0.000000)">
                <mask id="mask-2" fill="white">
                    <use xlink:href="#path-1"></use>
                </mask>
                <g id="path84"></g>
                <g id="g92" opacity="0.80000299" mask="url(#mask-2)">
                    <g transform="translate(0.006933, 0.002000)" id="g90">
                        <g transform="translate(0.000000, 0.000000)">
                            <path d="M84.4279979,49.0519988 C64.8733317,49.0519988 49.0226654,64.9039984 49.0226654,84.4573312 C49.0226654,104.011997 64.8733317,119.862664 84.4279979,119.862664 C103.982664,119.862664 119.83333,104.011997 119.83333,84.4573312 C119.83333,64.9039984 103.982664,49.0519988 84.4279979,49.0519988 M84.6879979,169.375996 C37.9159991,169.375996 0,131.459997 0,84.6879979 C0,37.9159991 37.9159991,0 84.6879979,0 C131.458663,0 169.374662,37.9159991 169.374662,84.6879979 C169.374662,131.459997 131.458663,169.375996 84.6879979,169.375996" id="path88" fill="#58A0C3" fill-rule="nonzero"></path>
                        </g>
                    </g>
                </g>
            </g>
            <g id="g108-Clipped" transform="translate(169.373329, 254.059994) scale(-1, 1) rotate(-180.000000) translate(-169.373329, -254.059994) translate(84.679998, 169.373329)">
                <mask id="mask-4" fill="white">
                    <use xlink:href="#path-3"></use>
                </mask>
                <g id="path100"></g>
                <g id="g108" opacity="0.80000299" mask="url(#mask-4)">
                    <g transform="translate(0.006933, 0.000400)" id="g106">
                        <path d="M84.4279979,49.0519988 C64.8733317,49.0519988 49.0226654,64.9039984 49.0226654,84.4573312 C49.0226654,104.011997 64.8733317,119.862664 84.4279979,119.862664 C103.982664,119.862664 119.83333,104.011997 119.83333,84.4573312 C119.83333,64.9039984 103.982664,49.0519988 84.4279979,49.0519988 M84.6879979,169.375996 C37.9159991,169.375996 0,131.459997 0,84.6879979 C0,37.9159991 37.9159991,0 84.6879979,0 C131.458663,0 169.374662,37.9159991 169.374662,84.6879979 C169.374662,131.459997 131.458663,169.375996 84.6879979,169.375996" id="path104" fill="#58A0C3" fill-rule="nonzero"></path>
                    </g>
                </g>
            </g>
            <g id="g124-Clipped" transform="translate(84.686665, 169.366662) scale(-1, 1) rotate(-180.000000) translate(-84.686665, -169.366662) translate(-0.000000, 84.679998)">
                <mask id="mask-6" fill="white">
                    <use xlink:href="#path-5"></use>
                </mask>
                <g id="path116"></g>
                <g id="g124" opacity="0.80000299" mask="url(#mask-6)">
                    <g transform="translate(-0.001200, -0.005467)" id="g122">
                        <g transform="translate(0.000000, 0.000000)">
                            <path d="M84.4279979,49.0519988 C64.8733317,49.0519988 49.0226654,64.9039984 49.0226654,84.4573312 C49.0226654,104.011997 64.8733317,119.862664 84.4279979,119.862664 C103.982664,119.862664 119.83333,104.011997 119.83333,84.4573312 C119.83333,64.9039984 103.982664,49.0519988 84.4279979,49.0519988 M84.6879979,169.375996 C37.9159991,169.375996 0,131.459997 0,84.6879979 C0,37.9159991 37.9159991,0 84.6879979,0 C131.459997,0 169.374662,37.9159991 169.374662,84.6879979 C169.374662,131.459997 131.459997,169.375996 84.6879979,169.375996" id="path120" fill="#58A0C3" fill-rule="nonzero"></path>
                        </g>
                    </g>
                </g>
            </g>
        </g>
    </g>
</svg>