<?xml version="1.0" encoding="UTF-8"?>
<svg width="199px" height="230px" viewBox="0 0 199 230" version="1.1" xmlns="http://www.w3.org/2000/svg" xmlns:xlink="http://www.w3.org/1999/xlink">
    <title>bracket</title>
    <g id="landing" stroke="none" stroke-width="1" fill="none" fill-rule="evenodd">
        <g id="bracket">
            <g id="Group-14">
                <rect id="Rectangle" fill="#FFFFFF" x="0" y="0" width="199" height="230" rx="14.4"></rect>
                <g id="Select-bracket-type" transform="translate(47.330053, 19.087032)" fill="#1B2125" fill-rule="nonzero">
                    <path d="M3.408,8.268 C5.556,8.268 6.612,7.164 6.612,5.7 C6.612,2.712 2.016,3.564 2.016,2.304 C2.016,1.824 2.424,1.512 3.144,1.512 C3.96,1.512 4.824,1.788 5.472,2.388 L6.42,1.116 C5.628,0.384 4.572,0 3.3,0 C1.416,0 0.264,1.104 0.264,2.436 C0.264,5.448 4.872,4.476 4.872,5.868 C4.872,6.336 4.428,6.756 3.48,6.756 C2.376,6.756 1.5,6.252 0.936,5.664 L0,6.996 C0.756,7.752 1.86,8.268 3.408,8.268 Z" id="Path"></path>
                    <path d="M10.44,8.268 C11.34,8.268 12.252,7.992 12.828,7.464 L12.144,6.456 C11.772,6.816 11.1,7.02 10.608,7.02 C9.624,7.02 9.048,6.432 8.94,5.724 L13.248,5.724 L13.248,5.364 C13.248,3.48 12.084,2.184 10.344,2.184 C8.592,2.184 7.344,3.54 7.344,5.22 C7.344,7.08 8.676,8.268 10.44,8.268 Z M11.784,4.668 L8.928,4.668 C8.988,4.092 9.396,3.432 10.344,3.432 C11.352,3.432 11.736,4.116 11.784,4.668 Z" id="Shape"></path>
                    <polygon id="Path" points="15.876 8.124 15.876 0.12 14.352 0.12 14.352 8.124"></polygon>
                    <path d="M20.112,8.268 C21.012,8.268 21.924,7.992 22.5,7.464 L21.816,6.456 C21.444,6.816 20.772,7.02 20.28,7.02 C19.296,7.02 18.72,6.432 18.612,5.724 L22.92,5.724 L22.92,5.364 C22.92,3.48 21.756,2.184 20.016,2.184 C18.264,2.184 17.016,3.54 17.016,5.22 C17.016,7.08 18.348,8.268 20.112,8.268 Z M21.456,4.668 L18.6,4.668 C18.66,4.092 19.068,3.432 20.016,3.432 C21.024,3.432 21.408,4.116 21.456,4.668 Z" id="Shape"></path>
                    <path d="M26.724,8.268 C27.912,8.268 28.632,7.74 29.016,7.212 L28.02,6.276 C27.744,6.672 27.324,6.912 26.796,6.912 C25.872,6.912 25.224,6.228 25.224,5.22 C25.224,4.212 25.872,3.54 26.796,3.54 C27.324,3.54 27.744,3.756 28.02,4.164 L29.016,3.228 C28.632,2.7 27.912,2.184 26.724,2.184 C24.948,2.184 23.652,3.444 23.652,5.22 C23.652,7.008 24.948,8.268 26.724,8.268 Z" id="Path"></path>
                    <path d="M31.956,8.268 C32.592,8.268 33,8.1 33.228,7.896 L32.904,6.732 C32.82,6.828 32.604,6.912 32.376,6.912 C32.04,6.912 31.848,6.636 31.848,6.264 L31.848,3.66 L33.024,3.66 L33.024,2.328 L31.848,2.328 L31.848,0.744 L30.324,0.744 L30.324,2.328 L29.364,2.328 L29.364,3.66 L30.324,3.66 L30.324,6.672 C30.324,7.716 30.888,8.268 31.956,8.268 Z" id="Path"></path>
                    <path d="M38.676,6.264 L38.676,4.212 C38.94,3.828 39.492,3.54 39.996,3.54 C40.872,3.54 41.46,4.224 41.46,5.22 C41.46,6.228 40.872,6.912 39.996,6.912 C39.492,6.912 38.94,6.636 38.676,6.264 Z M38.676,8.124 L38.676,7.38 C39.132,7.956 39.768,8.268 40.464,8.268 C41.928,8.268 43.032,7.164 43.032,5.22 C43.032,3.336 41.94,2.184 40.464,2.184 C39.78,2.184 39.132,2.472 38.676,3.072 L38.676,0.12 L37.152,0.12 L37.152,8.124 L38.676,8.124 Z" id="Shape"></path>
                    <path d="M45.708,8.124 L45.708,4.296 C45.96,3.924 46.632,3.636 47.136,3.636 C47.316,3.636 47.448,3.648 47.556,3.672 L47.556,2.184 C46.836,2.184 46.128,2.604 45.708,3.108 L45.708,2.328 L44.184,2.328 L44.184,8.124 L45.708,8.124 Z" id="Path"></path>
                    <path d="M53.52,8.124 L53.52,4.38 C53.52,2.712 52.308,2.184 50.976,2.184 C50.064,2.184 49.152,2.46 48.444,3.096 L49.044,4.164 C49.524,3.72 50.1,3.48 50.712,3.48 C51.48,3.48 51.984,3.864 51.984,4.452 L51.984,5.184 C51.6,4.728 50.928,4.476 50.148,4.476 C49.224,4.476 48.144,4.98 48.144,6.348 C48.144,7.644 49.224,8.268 50.148,8.268 C50.904,8.268 51.588,7.992 51.984,7.512 L51.984,8.124 L53.52,8.124 Z M50.76,7.236 C50.16,7.236 49.668,6.924 49.668,6.372 C49.668,5.82 50.16,5.496 50.76,5.496 C51.252,5.496 51.732,5.676 51.984,6.012 L51.984,6.732 C51.732,7.068 51.252,7.236 50.76,7.236 Z" id="Shape"></path>
                    <path d="M57.72,8.268 C58.908,8.268 59.628,7.74 60.012,7.212 L59.016,6.276 C58.74,6.672 58.32,6.912 57.792,6.912 C56.868,6.912 56.22,6.228 56.22,5.22 C56.22,4.212 56.868,3.54 57.792,3.54 C58.32,3.54 58.74,3.756 59.016,4.164 L60.012,3.228 C59.628,2.7 58.908,2.184 57.72,2.184 C55.944,2.184 54.648,3.444 54.648,5.22 C54.648,7.008 55.944,8.268 57.72,8.268 Z" id="Path"></path>
                    <polygon id="Path" points="66.672 8.124 64.308 4.956 66.6 2.328 64.728 2.328 62.532 4.908 62.532 0.12 61.008 0.12 61.008 8.124 62.532 8.124 62.532 6.636 63.228 5.892 64.764 8.124"></polygon>
                    <path d="M70.164,8.268 C71.064,8.268 71.976,7.992 72.552,7.464 L71.868,6.456 C71.496,6.816 70.824,7.02 70.332,7.02 C69.348,7.02 68.772,6.432 68.664,5.724 L72.972,5.724 L72.972,5.364 C72.972,3.48 71.808,2.184 70.068,2.184 C68.316,2.184 67.068,3.54 67.068,5.22 C67.068,7.08 68.4,8.268 70.164,8.268 Z M71.508,4.668 L68.652,4.668 C68.712,4.092 69.12,3.432 70.068,3.432 C71.076,3.432 71.46,4.116 71.508,4.668 Z" id="Shape"></path>
                    <path d="M76.02,8.268 C76.656,8.268 77.064,8.1 77.292,7.896 L76.968,6.732 C76.884,6.828 76.668,6.912 76.44,6.912 C76.104,6.912 75.912,6.636 75.912,6.264 L75.912,3.66 L77.088,3.66 L77.088,2.328 L75.912,2.328 L75.912,0.744 L74.388,0.744 L74.388,2.328 L73.428,2.328 L73.428,3.66 L74.388,3.66 L74.388,6.672 C74.388,7.716 74.952,8.268 76.02,8.268 Z" id="Path"></path>
                    <path d="M83.16,8.268 C83.796,8.268 84.204,8.1 84.432,7.896 L84.108,6.732 C84.024,6.828 83.808,6.912 83.58,6.912 C83.244,6.912 83.052,6.636 83.052,6.264 L83.052,3.66 L84.228,3.66 L84.228,2.328 L83.052,2.328 L83.052,0.744 L81.528,0.744 L81.528,2.328 L80.568,2.328 L80.568,3.66 L81.528,3.66 L81.528,6.672 C81.528,7.716 82.092,8.268 83.16,8.268 Z" id="Path"></path>
                    <path d="M85.08,10.38 C85.26,10.44 85.656,10.476 85.824,10.476 C86.82,10.452 87.588,10.164 88.02,9.072 L90.744,2.328 L89.112,2.328 L87.588,6.36 L86.076,2.328 L84.444,2.328 L86.796,8.196 L86.58,8.7 C86.436,9.012 86.172,9.12 85.776,9.12 C85.632,9.12 85.428,9.084 85.296,9.024 L85.08,10.38 Z" id="Path"></path>
                    <path d="M94.74,8.268 C96.228,8.268 97.308,7.152 97.308,5.22 C97.308,3.288 96.228,2.184 94.74,2.184 C94.032,2.184 93.396,2.496 92.952,3.06 L92.952,2.328 L91.428,2.328 L91.428,10.332 L92.952,10.332 L92.952,7.38 C93.432,7.98 94.056,8.268 94.74,8.268 Z M94.26,6.912 C93.768,6.912 93.204,6.612 92.952,6.24 L92.952,4.2 C93.216,3.816 93.768,3.54 94.26,3.54 C95.136,3.54 95.736,4.224 95.736,5.22 C95.736,6.228 95.136,6.912 94.26,6.912 Z" id="Shape"></path>
                    <path d="M101.148,8.268 C102.048,8.268 102.96,7.992 103.536,7.464 L102.852,6.456 C102.48,6.816 101.808,7.02 101.316,7.02 C100.332,7.02 99.756,6.432 99.648,5.724 L103.956,5.724 L103.956,5.364 C103.956,3.48 102.792,2.184 101.052,2.184 C99.3,2.184 98.052,3.54 98.052,5.22 C98.052,7.08 99.384,8.268 101.148,8.268 Z M102.492,4.668 L99.636,4.668 C99.696,4.092 100.104,3.432 101.052,3.432 C102.06,3.432 102.444,4.116 102.492,4.668 Z" id="Shape"></path>
                </g>
                <g id="Group-7" transform="translate(16.804611, 48.379300)">
                    <path d="M70.8562665,68.145967 C72.6788062,68.145967 74.3288062,68.8846972 75.5231713,70.0790623 C76.7175364,71.2734273 77.4562665,72.9234273 77.4562665,74.745967 L77.4562665,119.186009 C77.4562665,121.008549 76.7175364,122.658549 75.5231713,123.852914 C74.3288062,125.047279 72.6788062,125.786009 70.8562665,125.786009 L7.2,125.786009 C5.37746033,125.786009 3.72746033,125.047279 2.53309524,123.852914 C1.33873016,122.658549 0.6,121.008549 0.6,119.186009 L0.6,74.745967 C0.6,72.9234273 1.33873016,71.2734273 2.53309524,70.0790623 C3.72746033,68.8846972 5.37746033,68.145967 7.2,68.145967 Z" id="Rectangle" stroke="#5AC8FA" stroke-width="1.2" fill-opacity="0.2" fill="#5AC8FA"></path>
                    <g id="Full-Motion" transform="translate(17.252633, 108.008642)" fill="#5AC8FA" fill-rule="nonzero">
                        <polygon id="Path" points="1.053 6.048 1.053 3.447 4.05 3.447 4.05 2.52 1.053 2.52 1.053 0.972 4.113 0.972 4.113 0.045 0 0.045 0 6.048"></polygon>
                        <path d="M8.919,6.048 L8.919,1.701 L7.974,1.701 L7.974,4.752 C7.758,5.04 7.344,5.319 6.867,5.319 C6.327,5.319 5.985,5.103 5.985,4.428 L5.985,1.701 L5.04,1.701 L5.04,4.779 C5.04,5.661 5.508,6.156 6.444,6.156 C7.128,6.156 7.668,5.814 7.974,5.472 L7.974,6.048 L8.919,6.048 Z" id="Path"></path>
                        <polygon id="Path" points="11.088 6.048 11.088 0.045 10.143 0.045 10.143 6.048"></polygon>
                        <polygon id="Path" points="13.257 6.048 13.257 0.045 12.312 0.045 12.312 6.048"></polygon>
                        <polygon id="Path" points="23.067 6.048 23.067 0.045 21.582 0.045 19.953 4.167 18.315 0.045 16.83 0.045 16.83 6.048 17.883 6.048 17.883 1.413 19.728 6.048 20.178 6.048 22.014 1.413 22.014 6.048"></polygon>
                        <path d="M26.289,6.156 C27.675,6.156 28.521,5.112 28.521,3.87 C28.521,2.619 27.675,1.593 26.289,1.593 C24.903,1.593 24.057,2.619 24.057,3.87 C24.057,5.112 24.903,6.156 26.289,6.156 Z M26.289,5.319 C25.488,5.319 25.038,4.644 25.038,3.87 C25.038,3.105 25.488,2.43 26.289,2.43 C27.099,2.43 27.54,3.105 27.54,3.87 C27.54,4.644 27.099,5.319 26.289,5.319 Z" id="Shape"></path>
                        <path d="M30.798,6.156 C31.23,6.156 31.509,6.03 31.68,5.877 L31.455,5.157 C31.383,5.238 31.221,5.319 31.041,5.319 C30.771,5.319 30.627,5.094 30.627,4.797 L30.627,2.52 L31.509,2.52 L31.509,1.701 L30.627,1.701 L30.627,0.513 L29.682,0.513 L29.682,1.701 L28.962,1.701 L28.962,2.52 L29.682,2.52 L29.682,5.031 C29.682,5.76 30.06,6.156 30.798,6.156 Z" id="Path"></path>
                        <path d="M32.832,1.17 C33.156,1.17 33.417,0.909 33.417,0.585 C33.417,0.261 33.156,0 32.832,0 C32.508,0 32.247,0.261 32.247,0.585 C32.247,0.909 32.508,1.17 32.832,1.17 Z M33.3,6.048 L33.3,1.701 L32.355,1.701 L32.355,6.048 L33.3,6.048 Z" id="Shape"></path>
                        <path d="M36.495,6.156 C37.881,6.156 38.727,5.112 38.727,3.87 C38.727,2.619 37.881,1.593 36.495,1.593 C35.109,1.593 34.263,2.619 34.263,3.87 C34.263,5.112 35.109,6.156 36.495,6.156 Z M36.495,5.319 C35.694,5.319 35.244,4.644 35.244,3.87 C35.244,3.105 35.694,2.43 36.495,2.43 C37.305,2.43 37.746,3.105 37.746,3.87 C37.746,4.644 37.305,5.319 36.495,5.319 Z" id="Shape"></path>
                        <path d="M43.578,6.048 L43.578,2.988 C43.578,2.097 43.11,1.593 42.174,1.593 C41.49,1.593 40.923,1.944 40.635,2.286 L40.635,1.701 L39.69,1.701 L39.69,6.048 L40.635,6.048 L40.635,3.006 C40.86,2.718 41.274,2.43 41.751,2.43 C42.282,2.43 42.633,2.646 42.633,3.33 L42.633,6.048 L43.578,6.048 Z" id="Path"></path>
                    </g>
                    <path d="M72.0562665,0.6 C73.5474353,0.6 74.8974353,1.20441559 75.8746431,2.18162338 C76.8518509,3.15883118 77.4562665,4.50883118 77.4562665,6 L77.4562665,52.8400424 C77.4562665,54.3312112 76.8518509,55.6812112 75.8746431,56.658419 C74.8974353,57.6356268 73.5474353,58.2400424 72.0562665,58.2400424 L6,58.2400424 C4.50883118,58.2400424 3.15883118,57.6356268 2.18162338,56.658419 C1.20441559,55.6812112 0.6,54.3312112 0.6,52.8400424 L0.6,6 C0.6,4.50883118 1.20441559,3.15883118 2.18162338,2.18162338 C3.15883118,1.20441559 4.50883118,0.6 6,0.6 L72.0562665,0.6 Z" id="Rectangle" stroke="#E2E2E2" stroke-width="1.2" fill="#FFFFFF"></path>
                    <g id="Group" transform="translate(24.103832, 7.552098)" fill="#D8D8D8">
                        <path d="M1.5130907,1.96643412 L28.028204,0.0033817665 C28.8638609,-0.0584862808 29.5412947,0.735946083 29.5412947,1.77779612 L29.5412947,20.1031779 C29.5412947,21.1450279 28.8638609,21.9394603 28.028204,21.8775922 L1.5130907,19.9145399 C0.677433783,19.8526718 0,19.1251114 0,18.2894882 L0,3.59148579 C0,2.75586258 0.677433783,2.02830216 1.5130907,1.96643412 Z" id="Rectangle"></path>
                        <path d="M2.87062706,3.31671627 L26.6273854,1.64903487 C27.3761093,1.5964758 27.98307,2.27137379 27.98307,3.15646171 L27.98307,18.7245123 C27.98307,19.6096002 27.3761093,20.2844982 26.6273854,20.2319391 L2.87062706,18.5642577 C2.12190314,18.5116987 1.51494248,17.8936107 1.51494248,17.1837197 L1.51494248,4.6972543 C1.51494248,3.98736326 2.12190314,3.36927533 2.87062706,3.31671627 Z" id="Rectangle" stroke="#FFFFFF" stroke-width="0.648" stroke-linejoin="bevel"></path>
                    </g>
                    <g id="Fixed" transform="translate(28.771979, 40.507675)" fill="#1B2125" fill-rule="nonzero">
                        <polygon id="Path" points="0.747 6.003 0.747 3.267 3.87 3.267 3.87 2.601 0.747 2.601 0.747 0.666 3.933 0.666 3.933 0 0 0 0 6.003"></polygon>
                        <path d="M5.274,1.035 C5.526,1.035 5.724,0.837 5.724,0.585 C5.724,0.333 5.526,0.126 5.274,0.126 C5.022,0.126 4.815,0.333 4.815,0.585 C4.815,0.837 5.022,1.035 5.274,1.035 Z M5.607,6.003 L5.607,1.656 L4.932,1.656 L4.932,6.003 L5.607,6.003 Z" id="Shape"></path>
                        <polygon id="Path" points="10.557 6.003 8.883 3.771 10.458 1.656 9.684 1.656 8.469 3.312 7.263 1.656 6.48 1.656 8.055 3.771 6.39 6.003 7.164 6.003 8.469 4.221 9.783 6.003"></polygon>
                        <path d="M13.311,6.111 C14.013,6.111 14.598,5.868 15.039,5.436 L14.715,4.995 C14.364,5.355 13.869,5.553 13.365,5.553 C12.429,5.553 11.862,4.869 11.808,4.05 L15.318,4.05 L15.318,3.879 C15.318,2.574 14.544,1.548 13.23,1.548 C11.988,1.548 11.088,2.565 11.088,3.825 C11.088,5.184 12.015,6.111 13.311,6.111 Z M14.652,3.546 L11.799,3.546 C11.835,2.889 12.294,2.106 13.221,2.106 C14.211,2.106 14.643,2.907 14.652,3.546 Z" id="Shape"></path>
                        <path d="M20.232,6.003 L20.232,0 L19.557,0 L19.557,2.313 C19.206,1.836 18.675,1.548 18.09,1.548 C16.956,1.548 16.155,2.439 16.155,3.834 C16.155,5.247 16.956,6.111 18.09,6.111 C18.702,6.111 19.233,5.796 19.557,5.355 L19.557,6.003 L20.232,6.003 Z M18.261,5.508 C17.379,5.508 16.857,4.797 16.857,3.834 C16.857,2.871 17.379,2.151 18.261,2.151 C18.792,2.151 19.323,2.475 19.557,2.853 L19.557,4.815 C19.323,5.193 18.792,5.508 18.261,5.508 Z" id="Shape"></path>
                    </g>
                    <path d="M158.518593,0.6 C160.009761,0.6 161.359761,1.20441559 162.336969,2.18162338 C163.314177,3.15883118 163.918593,4.50883118 163.918593,6 L163.918593,52.8400424 C163.918593,54.3312112 163.314177,55.6812112 162.336969,56.658419 C161.359761,57.6356268 160.009761,58.2400424 158.518593,58.2400424 L92.462326,58.2400424 C90.9711572,58.2400424 89.6211572,57.6356268 88.6439494,56.658419 C87.6667416,55.6812112 87.062326,54.3312112 87.062326,52.8400424 L87.062326,6 C87.062326,4.50883118 87.6667416,3.15883118 88.6439494,2.18162338 C89.6211572,1.20441559 90.9711572,0.6 92.462326,0.6 Z" id="Rectangle" stroke="#E2E2E2" stroke-width="1.2" fill="#FFFFFF"></path>
                    <g id="Tilting" transform="translate(113.627805, 40.507675)" fill="#1B2125" fill-rule="nonzero">
                        <polygon id="Path" points="2.646 6.003 2.646 0.666 4.554 0.666 4.554 0 0 0 0 0.666 1.899 0.666 1.899 6.003"></polygon>
                        <path d="M5.859,1.035 C6.111,1.035 6.309,0.837 6.309,0.585 C6.309,0.333 6.111,0.126 5.859,0.126 C5.607,0.126 5.4,0.333 5.4,0.585 C5.4,0.837 5.607,1.035 5.859,1.035 Z M6.192,6.003 L6.192,1.656 L5.517,1.656 L5.517,6.003 L6.192,6.003 Z" id="Shape"></path>
                        <polygon id="Path" points="8.217 6.003 8.217 0 7.542 0 7.542 6.003"></polygon>
                        <path d="M10.674,6.111 C11.061,6.111 11.304,5.994 11.475,5.832 L11.277,5.319 C11.187,5.418 11.016,5.508 10.818,5.508 C10.53,5.508 10.386,5.274 10.386,4.95 L10.386,2.25 L11.268,2.25 L11.268,1.656 L10.386,1.656 L10.386,0.468 L9.702,0.468 L9.702,1.656 L8.982,1.656 L8.982,2.25 L9.702,2.25 L9.702,5.094 C9.702,5.742 10.026,6.111 10.674,6.111 Z" id="Path"></path>
                        <path d="M12.555,1.035 C12.807,1.035 13.005,0.837 13.005,0.585 C13.005,0.333 12.807,0.126 12.555,0.126 C12.303,0.126 12.096,0.333 12.096,0.585 C12.096,0.837 12.303,1.035 12.555,1.035 Z M12.888,6.003 L12.888,1.656 L12.213,1.656 L12.213,6.003 L12.888,6.003 Z" id="Shape"></path>
                        <path d="M17.847,6.003 L17.847,2.952 C17.847,2.007 17.37,1.548 16.47,1.548 C15.813,1.548 15.219,1.917 14.913,2.286 L14.913,1.656 L14.238,1.656 L14.238,6.003 L14.913,6.003 L14.913,2.826 C15.174,2.475 15.669,2.151 16.2,2.151 C16.785,2.151 17.181,2.385 17.181,3.159 L17.181,6.003 L17.847,6.003 Z" id="Path"></path>
                        <path d="M20.952,7.767 C22.014,7.767 23.031,7.317 23.031,5.94 L23.031,1.656 L22.356,1.656 L22.356,2.313 C22.005,1.836 21.474,1.548 20.889,1.548 C19.746,1.548 18.954,2.412 18.954,3.807 C18.954,5.211 19.755,6.057 20.889,6.057 C21.501,6.057 22.032,5.724 22.356,5.283 L22.356,5.94 C22.356,6.858 21.672,7.209 20.952,7.209 C20.331,7.209 19.899,7.047 19.539,6.624 L19.197,7.11 C19.719,7.623 20.223,7.767 20.952,7.767 Z M21.06,5.454 C20.178,5.454 19.656,4.761 19.656,3.807 C19.656,2.844 20.178,2.151 21.06,2.151 C21.591,2.151 22.113,2.475 22.356,2.844 L22.356,4.752 C22.113,5.13 21.591,5.454 21.06,5.454 Z" id="Shape"></path>
                    </g>
                    <g id="Group" transform="translate(110.719812, 7.556354)">
                        <g id="Curved-Line-+-Triangle" transform="translate(15.814426, 6.142104) rotate(-90.000000) translate(-15.814426, -6.142104) translate(9.667818, 3.643443)" stroke-width="0.864">
                            <path d="M0,1.05793659e-13 C0,5.30597887 12.2932164,4.99386247 12.2932164,4.99386247" id="Line" stroke="#FF0000" transform="translate(6.146608, 2.498660) scale(-1, 1) translate(-6.146608, -2.498660) "></path>
                            <path d="M0,1.05793659e-13 C0,5.30597887 12.2932164,4.99386247 12.2932164,4.99386247" id="Line" stroke="#494545" transform="translate(6.146608, 2.498660) scale(-1, 1) translate(-6.146608, -2.498660) "></path>
                        </g>
                        <g id="Curved-Line-+-Triangle" transform="translate(15.814426, 16.273353) scale(1, -1) rotate(-90.000000) translate(-15.814426, -16.273353) translate(9.667818, 13.774693)" stroke-width="0.864">
                            <path d="M0,-1.05661599e-13 C0,5.30597887 12.2932164,4.99386247 12.2932164,4.99386247" id="Line" stroke="#FF0000" transform="translate(6.146608, 2.498660) scale(-1, 1) translate(-6.146608, -2.498660) "></path>
                            <path d="M0,-1.05661599e-13 C0,5.30597887 12.2932164,4.99386247 12.2932164,4.99386247" id="Line" stroke="#494545" transform="translate(6.146608, 2.498660) scale(-1, 1) translate(-6.146608, -2.498660) "></path>
                        </g>
                        <path d="M1.5130907,2.50517355 L28.028204,0.542121194 C28.8638609,0.480253147 29.5412947,1.27468551 29.5412947,2.31653554 L29.5412947,20.6419173 C29.5412947,21.6837673 28.8638609,22.4781997 28.028204,22.4163317 L1.5130907,20.4532793 C0.677433783,20.3914113 0,19.6638508 0,18.8282276 L0,4.13022522 C0,3.29460201 0.677433783,2.56704159 1.5130907,2.50517355 Z" id="Rectangle" fill="#D8D8D8"></path>
                        <path d="M2.87062706,3.85545569 L26.6273854,2.18777429 C27.3761093,2.13521523 27.98307,2.81011322 27.98307,3.69520113 L27.98307,19.2632517 C27.98307,20.1483396 27.3761093,20.8232376 26.6273854,20.7706786 L2.87062706,19.1029972 C2.12190314,19.0504381 1.51494248,18.4323502 1.51494248,17.7224591 L1.51494248,5.23599373 C1.51494248,4.52610269 2.12190314,3.90801476 2.87062706,3.85545569 Z" id="Rectangle" stroke="#FFFFFF" stroke-width="0.648" fill="#D8D8D8" stroke-linejoin="bevel"></path>
                        <g id="Curved-Line-+-Triangle" transform="translate(10.409703, 6.311930) rotate(90.000000) translate(-10.409703, -6.311930) translate(4.093263, 3.406084)" stroke="#494545" stroke-width="0.864">
                            <g transform="translate(0.000000, 0.000000)">
                                <path d="M0,1.05040168e-13 C0,4.79793347 11.339119,4.51570209 11.339119,4.51570209" id="Line"></path>
                                <path d="" id="Triangle"></path>
                            </g>
                        </g>
                        <g id="Curved-Line-+-Triangle" transform="translate(11.048855, 18.420992) rotate(90.000000) translate(-11.048855, -18.420992) translate(7.049972, 16.154273)" stroke-width="0.864">
                            <path d="M0,1.05924975e-13 C0,4.813444 7.99776515,4.53030024 7.99776515,4.53030024" id="Line" stroke="#FF0000" transform="translate(3.998883, 2.266719) scale(-1, 1) translate(-3.998883, -2.266719) "></path>
                            <path d="M0,1.05924975e-13 C0,4.813444 7.99776515,4.53030024 7.99776515,4.53030024" id="Line" stroke="#494545" transform="translate(3.998883, 2.266719) scale(-1, 1) translate(-3.998883, -2.266719) "></path>
                        </g>
                    </g>
                    <path d="M158.518593,68.145967 C160.009761,68.145967 161.359761,68.7503826 162.336969,69.7275904 C163.314177,70.7047982 163.918593,72.0547982 163.918593,73.545967 L163.918593,120.386009 C163.918593,121.877178 163.314177,123.227178 162.336969,124.204386 C161.359761,125.181594 160.009761,125.786009 158.518593,125.786009 L92.462326,125.786009 C90.9711572,125.786009 89.6211572,125.181594 88.6439494,124.204386 C87.6667416,123.227178 87.062326,121.877178 87.062326,120.386009 L87.062326,73.545967 C87.062326,72.0547982 87.6667416,70.7047982 88.6439494,69.7275904 C89.6211572,68.7503826 90.9711572,68.145967 92.462326,68.145967 Z" id="Rectangle" stroke="#E2E2E2" stroke-width="1.2" fill="#FFFFFF"></path>
                    <g id="None" transform="translate(115.414959, 93.462988)" fill="#1B2125" fill-rule="nonzero">
                        <polygon id="Path" points="4.968 6.003 4.968 -1.13686838e-13 4.221 -1.13686838e-13 4.221 4.689 0.765 -1.13686838e-13 0 -1.13686838e-13 0 6.003 0.747 6.003 0.747 1.215 4.248 6.003"></polygon>
                        <path d="M8.244,6.111 C9.567,6.111 10.395,5.085 10.395,3.825 C10.395,2.565 9.567,1.548 8.244,1.548 C6.921,1.548 6.093,2.565 6.093,3.825 C6.093,5.085 6.921,6.111 8.244,6.111 Z M8.244,5.508 C7.317,5.508 6.804,4.716 6.804,3.825 C6.804,2.943 7.317,2.151 8.244,2.151 C9.171,2.151 9.684,2.943 9.684,3.825 C9.684,4.716 9.171,5.508 8.244,5.508 Z" id="Shape"></path>
                        <path d="M15.102,6.003 L15.102,2.952 C15.102,2.007 14.625,1.548 13.725,1.548 C13.068,1.548 12.474,1.917 12.168,2.286 L12.168,1.656 L11.493,1.656 L11.493,6.003 L12.168,6.003 L12.168,2.826 C12.429,2.475 12.924,2.151 13.455,2.151 C14.04,2.151 14.436,2.385 14.436,3.159 L14.436,6.003 L15.102,6.003 Z" id="Path"></path>
                        <path d="M18.432,6.111 C19.134,6.111 19.719,5.868 20.16,5.436 L19.836,4.995 C19.485,5.355 18.99,5.553 18.486,5.553 C17.55,5.553 16.983,4.869 16.929,4.05 L20.439,4.05 L20.439,3.879 C20.439,2.574 19.665,1.548 18.351,1.548 C17.109,1.548 16.209,2.565 16.209,3.825 C16.209,5.184 17.136,6.111 18.432,6.111 Z M19.773,3.546 L16.92,3.546 C16.956,2.889 17.415,2.106 18.342,2.106 C19.332,2.106 19.764,2.907 19.773,3.546 Z" id="Shape"></path>
                    </g>
                    <g id="Group" transform="translate(22.557060, 75.102321)">
                        <g id="Curved-Line-+-Triangle" transform="translate(24.274298, 9.504189) scale(1, -1) translate(-24.274298, -9.504189) translate(15.606450, 7.005529)" stroke-width="0.864">
                            <path d="M0,0 C0,5.30597887 17.3356964,4.99386247 17.3356964,4.99386247" id="Line" stroke="#FF0000" transform="translate(8.667848, 2.498660) scale(-1, 1) translate(-8.667848, -2.498660) "></path>
                            <path d="M0,0 C0,5.30597887 17.3356964,4.99386247 17.3356964,4.99386247" id="Line" stroke="#494545" transform="translate(8.667848, 2.498660) scale(-1, 1) translate(-8.667848, -2.498660) "></path>
                        </g>
                        <g id="Curved-Line-+-Triangle" transform="translate(8.667848, 9.504189) scale(-1, -1) translate(-8.667848, -9.504189) translate(0.000000, 7.005529)" stroke-width="0.864">
                            <path d="M0,0 C0,5.30597887 17.3356964,4.99386247 17.3356964,4.99386247" id="Line" stroke="#FF0000" transform="translate(8.667848, 2.498660) scale(-1, 1) translate(-8.667848, -2.498660) "></path>
                            <path d="M0,0 C0,5.30597887 17.3356964,4.99386247 17.3356964,4.99386247" id="Line" stroke="#494545" transform="translate(8.667848, 2.498660) scale(-1, 1) translate(-8.667848, -2.498660) "></path>
                        </g>
                        <g id="Curved-Line-+-Triangle" transform="translate(17.768008, 6.142104) rotate(-90.000000) translate(-17.768008, -6.142104) translate(11.621400, 3.643443)" stroke-width="0.864">
                            <path d="M0,1.0993685e-13 C0,5.30597887 12.2932164,4.99386247 12.2932164,4.99386247" id="Line" stroke="#FF0000" transform="translate(6.146608, 2.498660) scale(-1, 1) translate(-6.146608, -2.498660) "></path>
                            <path d="M0,1.0993685e-13 C0,5.30597887 12.2932164,4.99386247 12.2932164,4.99386247" id="Line" stroke="#494545" transform="translate(6.146608, 2.498660) scale(-1, 1) translate(-6.146608, -2.498660) "></path>
                        </g>
                        <g id="Curved-Line-+-Triangle" transform="translate(17.768008, 16.273353) scale(1, -1) rotate(-90.000000) translate(-17.768008, -16.273353) translate(11.621400, 13.774693)" stroke-width="0.864">
                            <path d="M0,-1.0980479e-13 C0,5.30597887 12.2932164,4.99386247 12.2932164,4.99386247" id="Line" stroke="#FF0000" transform="translate(6.146608, 2.498660) scale(-1, 1) translate(-6.146608, -2.498660) "></path>
                            <path d="M0,-1.0980479e-13 C0,5.30597887 12.2932164,4.99386247 12.2932164,4.99386247" id="Line" stroke="#494545" transform="translate(6.146608, 2.498660) scale(-1, 1) translate(-6.146608, -2.498660) "></path>
                        </g>
                        <path d="M3.46667223,2.50517355 L29.9817855,0.542121194 C30.8174425,0.480253147 31.4948762,1.27468551 31.4948762,2.31653554 L31.4948762,20.6419173 C31.4948762,21.6837673 30.8174425,22.4781997 29.9817855,22.4163317 L3.46667223,20.4532793 C2.63101531,20.3914113 1.95358153,19.6638508 1.95358153,18.8282276 L1.95358153,4.13022522 C1.95358153,3.29460201 2.63101531,2.56704159 3.46667223,2.50517355 Z" id="Rectangle" fill="#D8D8D8"></path>
                        <path d="M4.82420859,3.85545569 L28.5809669,2.18777429 C29.3296909,2.13521523 29.9366515,2.81011322 29.9366515,3.69520113 L29.9366515,19.2632517 C29.9366515,20.1483396 29.3296909,20.8232376 28.5809669,20.7706786 L4.82420859,19.1029972 C4.07548467,19.0504381 3.46852401,18.4323502 3.46852401,17.7224591 L3.46852401,5.23599373 C3.46852401,4.52610269 4.07548467,3.90801476 4.82420859,3.85545569 Z" id="Rectangle" stroke="#FFFFFF" stroke-width="0.648" fill="#D8D8D8" stroke-linejoin="bevel"></path>
                        <g id="Curved-Line-+-Triangle" transform="translate(12.363285, 6.311930) rotate(90.000000) translate(-12.363285, -6.311930) translate(6.046845, 3.406084)" stroke="#494545" stroke-width="0.864">
                            <g transform="translate(0.000000, 0.000000)">
                                <path d="M0,1.09183358e-13 C0,4.79793347 11.339119,4.51570209 11.339119,4.51570209" id="Line"></path>
                                <path d="" id="Triangle"></path>
                            </g>
                        </g>
                        <g id="Curved-Line-+-Triangle" transform="translate(13.002437, 18.420992) rotate(90.000000) translate(-13.002437, -18.420992) translate(9.003554, 16.154273)" stroke-width="0.864">
                            <path d="M0,1.10068166e-13 C0,4.813444 7.99776515,4.53030024 7.99776515,4.53030024" id="Line" stroke="#FF0000" transform="translate(3.998883, 2.266719) scale(-1, 1) translate(-3.998883, -2.266719) "></path>
                            <path d="M0,1.10068166e-13 C0,4.813444 7.99776515,4.53030024 7.99776515,4.53030024" id="Line" stroke="#494545" transform="translate(3.998883, 2.266719) scale(-1, 1) translate(-3.998883, -2.266719) "></path>
                        </g>
                        <g id="Curved-Line-+-Triangle" transform="translate(23.857482, 14.908695) scale(-1, 1) translate(-23.857482, -14.908695) translate(14.772818, 12.002850)" stroke="#494545" stroke-width="0.864">
                            <g>
                                <path d="M0,0 C0,4.79793347 16.4723011,4.51570209 16.4723011,4.51570209" id="Line"></path>
                                <path d="" id="Triangle"></path>
                            </g>
                        </g>
                        <g id="Curved-Line-+-Triangle" transform="translate(6.592752, 14.269568) scale(-1, 1) translate(-6.592752, -14.269568) translate(0.000000, 12.002850)" stroke="#494545" stroke-width="0.864">
                            <path d="M0,0 C0,4.813444 13.1855047,4.53030024 13.1855047,4.53030024" id="Line" transform="translate(6.592752, 2.266719) scale(-1, 1) translate(-6.592752, -2.266719) "></path>
                        </g>
                    </g>
                </g>
            </g>
            <g id="Group-9" transform="translate(16.998420, 185.674022)">
                <g id="Group-2" fill="#5AC8FA">
                    <path d="M7.2,0 L156.117727,0 C160.094177,0 163.317727,3.2235498 163.317727,7.2 L163.317727,17.4167524 C163.317727,21.3932026 160.094177,24.6167524 156.117727,24.6167524 L7.2,24.6167524 C3.2235498,24.6167524 1.77635684e-15,21.3932026 0,17.4167524 L0,7.2 C-1.77635684e-15,3.2235498 3.2235498,1.77635684e-15 7.2,0 Z" id="Rectangle-4"></path>
                </g>
                <rect id="Rectangle" fill-opacity="0.5" fill="#FFFFFF" x="46.5935868" y="8.64588378" width="71.0312025" height="7.56514831" rx="2.52"></rect>
            </g>
        </g>
    </g>
</svg>