<?xml version="1.0" encoding="UTF-8"?>
<svg width="151px" height="28px" viewBox="0 0 151 28" version="1.1" xmlns="http://www.w3.org/2000/svg" xmlns:xlink="http://www.w3.org/1999/xlink">
    <title>64af11a7c5ff1c88e593cce4_casabella-green</title>
    <g id="logos" stroke="none" stroke-width="1" fill="none" fill-rule="evenodd">
        <g id="Artboard-Copy" transform="translate(-153.000000, -42.000000)" fill="#357575" fill-rule="nonzero">
            <g id="64af11a7c5ff1c88e593cce4_casabella-green" transform="translate(153.000000, 42.000000)">
                <path d="M9.3310153,28 C7.57582967,28 5.98838557,27.6307469 4.56873007,26.8921646 C3.14906672,26.1281298 2.02624442,25.0330587 1.20025534,23.6068754 C0.400086159,22.1552396 0,20.3979442 0,18.3350652 C0,16.2721862 0.451710281,14.5149668 1.35512927,13.0633309 C2.2585514,11.6116951 3.45880675,10.5038597 4.95590314,9.73982481 C6.47881316,8.9503373 8.14368246,8.55555556 9.95055809,8.55555556 C11.4218252,8.55555556 12.6736921,8.79754552 13.7061588,9.28137349 C14.7386256,9.76527744 15.5258942,10.3892089 16.0679648,11.1532437 C16.6100353,11.891826 16.8810313,12.6813135 16.8810313,13.5217063 C16.8810313,14.2348359 16.6616312,14.7824094 16.2228308,15.1643509 C15.8098285,15.5463683 15.2678364,15.737377 14.5966977,15.737377 C13.8739631,15.737377 13.2802967,15.4826987 12.8156984,14.9733421 C12.3768981,14.4640615 12.1187618,13.8146015 12.0412895,13.025114 C12.0154916,12.5157574 12.0154916,12.0828347 12.0412895,11.7262699 C12.0929638,11.3697051 12.0929638,11.0259046 12.0412895,10.6948684 C11.9380193,10.2618697 11.7573553,9.96905047 11.499219,9.81618271 C11.2669591,9.66339093 10.9313505,9.58703303 10.4925502,9.58703303 C8.86641703,9.58703303 7.61454227,10.2364171 6.73693377,11.5352612 C5.8851389,12.8086526 5.45923754,14.8842199 5.45923754,17.762039 C5.45923754,20.2323881 5.93676616,22.129711 6.8918077,23.4540837 C7.84688846,24.7783804 9.3310153,25.4405288 11.3443529,25.4405288 C12.5317642,25.4405288 13.5125566,25.2240674 14.2869655,24.7910687 C15.061296,24.3326934 15.7711708,23.6832333 16.4164331,22.8428406 L17.0358974,23.3012159 C16.3906351,24.8292857 15.3969045,26.0007906 14.0546271,26.8157307 C12.7382262,27.6052183 11.1636889,28 9.3310153,28 Z" id="Path"></path>
                <path d="M23.6098861,28 C22.2057708,28 21.0110417,27.5925299 20.0256989,26.7775898 C19.0649765,25.937121 18.5846154,24.7401635 18.5846154,23.1866411 C18.5846154,21.9642309 19.1511856,20.8436312 20.2843261,19.824918 C21.4420871,18.7807522 23.2527022,18.0167173 25.7160966,17.5328894 C26.1348692,17.4310028 26.6152303,17.3418806 27.1571801,17.2654468 C27.7237503,17.1635603 28.2780478,17.0617497 28.8199975,16.9598632 L28.8199975,14.2475242 C28.8199975,12.5157574 28.6106113,11.3187998 28.1918387,10.6566515 C27.7730661,9.9945031 27.1079392,9.66339093 26.1964578,9.66339093 L26.0856282,9.66339093 C25.519058,9.66339093 25.0633173,9.85439965 24.7184061,10.2364171 C24.3981903,10.5929819 24.188804,11.1914607 24.0902473,12.0318535 L23.9794178,12.5285217 C23.9054815,13.5472349 23.6468543,14.2985054 23.2034612,14.7824094 C22.7600682,15.2407847 22.2057708,15.4700104 21.5406438,15.4700104 C20.9248326,15.4700104 20.4075033,15.2790017 19.9887308,14.8969842 C19.5945787,14.4895142 19.39754,13.9673933 19.39754,13.3306975 C19.39754,12.2865317 19.7423763,11.407922 20.4321238,10.6948684 C21.1218712,9.98173879 22.0333526,9.44692958 23.1664931,9.09036477 C24.3242541,8.73387595 25.5682989,8.55555556 26.8985529,8.55555556 C29.0909724,8.55555556 30.7660627,9.10312908 31.9238236,10.1982001 C33.0816594,11.2933472 33.6605025,13.0760193 33.6605025,15.5463683 L33.6605025,24.0652508 C33.6605025,25.1603978 34.165559,25.7078954 35.1755222,25.7078954 L36.025415,25.7078954 L36.3948718,26.1281298 C35.9514788,26.7139202 35.4588448,27.1596072 34.916895,27.4651908 C34.3749452,27.796227 33.635882,27.9617831 32.6997802,27.9617831 C31.6405759,27.9617831 30.7906831,27.7071048 30.1501766,27.1977482 C29.5343655,26.662939 29.1278657,25.9625737 28.9308271,25.0967283 C28.1425229,25.9625737 27.3665664,26.662939 26.6029575,27.1977482 C25.8392738,27.7325574 24.8415834,28 23.6098861,28 Z M25.7530647,25.5551036 C26.2456987,25.5551036 26.7137871,25.4405288 27.1571801,25.2113031 C27.6005731,24.9820774 28.1548706,24.60006 28.8199975,24.0652508 L28.8199975,17.9530478 C28.179491,18.0549343 27.5267117,18.1822734 26.8615847,18.3350652 C25.8023057,18.5897435 24.9401401,19.0608831 24.2750131,19.7485601 C23.6345066,20.4361611 23.3142908,21.3657521 23.3142908,22.537257 C23.3142908,23.5558942 23.5360247,24.3199291 23.9794178,24.8292857 C24.4474313,25.3131896 25.0386968,25.5551036 25.7530647,25.5551036 Z" id="Shape"></path>
                <path d="M43.4747478,28 C42.2291892,28 41.1004535,27.8598965 40.0884618,27.5797656 C39.1024045,27.3250873 38.1552881,26.9558342 37.2471127,26.4719302 L37.2471127,21.9642309 L38.2980453,21.9642309 L39.465722,24.1416847 C39.9587112,25.083964 40.5166546,25.7843293 41.1393945,26.2427806 C41.7880687,26.7011559 42.6055133,26.9303816 43.5914918,26.9303816 C44.811116,26.9303816 45.7841668,26.6757033 46.5107229,26.1663467 C47.237279,25.6315375 47.6005965,24.9184079 47.6005965,24.0271098 C47.6005965,23.2120937 47.3280887,22.5499453 46.7831519,22.0405888 C46.2382939,21.5312322 45.2651643,21.0600925 43.8639996,20.6271698 L42.1513862,20.0923606 C40.620392,19.6339093 39.4008467,18.9463083 38.4926712,18.0294816 C37.6104301,17.0872024 37.1692308,15.9156974 37.1692308,14.5149668 C37.1692308,13.4198957 37.4676729,12.4266352 38.0644784,11.5352612 C38.661284,10.6184345 39.5305973,9.89261659 40.6723396,9.35780737 C41.8140819,8.82299815 43.2023188,8.55555556 44.8370504,8.55555556 C45.9009108,8.55555556 46.8740404,8.6828947 47.7562814,8.93757299 C48.6644569,9.16679865 49.546698,9.49783484 50.4030047,9.93083353 L50.1694378,14.0183745 L49.1574461,14.0183745 L47.9509074,11.8408447 C47.5357212,11.0259046 47.1075284,10.4656427 46.6664078,10.1600592 C46.2512217,9.82894701 45.6025474,9.66339093 44.7203064,9.66339093 C43.7861177,9.66339093 42.9557454,9.90538089 42.2291892,10.3892089 C41.5286463,10.8476602 41.1783354,11.4970442 41.1783354,12.337513 C41.1783354,13.1270005 41.4766988,13.7763846 42.0735043,14.2857411 C42.6703886,14.7696451 43.6304328,15.2280204 44.9537944,15.6610191 L46.6274669,16.1576114 C48.5216997,16.7434019 49.8710745,17.5201251 50.6754337,18.487857 C51.4798717,19.4556649 51.8820513,20.6144055 51.8820513,21.9642309 C51.8820513,23.7724315 51.1425674,25.2367557 49.663442,26.3573554 C48.2103297,27.4524265 46.1474842,28 43.4747478,28 Z" id="Path"></path>
                <path d="M59.2304527,28 C57.8263432,28 56.6316191,27.5925299 55.6462056,26.7775898 C54.6854874,25.937121 54.2051282,24.7401635 54.2051282,23.1866411 C54.2051282,21.9642309 54.7716961,20.8436312 55.9049066,19.824918 C57.0626627,18.7807522 58.8732702,18.0167173 61.3366543,17.5328894 C61.7554251,17.4310028 62.2357842,17.3418806 62.7777317,17.2654468 C63.3442996,17.1635603 63.8985199,17.0617497 64.4404673,16.9598632 L64.4404673,14.2475242 C64.4404673,12.5157574 64.2310819,11.3187998 63.8123111,10.6566515 C63.3935403,9.9945031 62.7284162,9.66339093 61.8170134,9.66339093 L61.7061095,9.66339093 C61.1395417,9.66339093 60.6838777,9.85439965 60.338968,10.2364171 C60.0187535,10.5929819 59.8093681,11.1914607 59.7108118,12.0318535 L59.5999827,12.5285217 C59.5260468,13.5472349 59.2674207,14.2985054 58.8240295,14.7824094 C58.3805635,15.2407847 57.8263432,15.4700104 57.161219,15.4700104 C56.5453356,15.4700104 56.0280833,15.2790017 55.6093125,14.8969842 C55.2151621,14.4895142 55.0180494,13.9673933 55.0180494,13.3306975 C55.0180494,12.2865317 55.3629591,11.407922 56.0527037,10.6948684 C56.7424482,9.98173879 57.6538509,9.44692958 58.7870615,9.09036477 C59.9448176,8.73387595 61.1888572,8.55555556 62.5190308,8.55555556 C64.7114411,8.55555556 66.3865991,9.10312908 67.5443552,10.1982001 C68.7021113,11.2933472 69.2810268,13.0760193 69.2810268,15.5463683 L69.2810268,24.0652508 C69.2810268,25.1603978 69.7860063,25.7078954 70.7960402,25.7078954 L71.6458546,25.7078954 L72.0153846,26.1281298 C71.5719934,26.7139202 71.0792867,27.1596072 70.5373392,27.4651908 C69.9953917,27.796227 69.2564064,27.9617831 68.3203085,27.9617831 C67.2610339,27.9617831 66.4112195,27.7071048 65.7707157,27.1977482 C65.1549071,26.662939 64.7484091,25.9625737 64.5513713,25.0967283 C63.7630704,25.9625737 62.9871171,26.662939 62.2234366,27.1977482 C61.459831,27.7325574 60.4621447,28 59.2304527,28 Z M61.3736223,25.5551036 C61.8662542,25.5551036 62.3343406,25.4405288 62.7777317,25.2113031 C63.2211229,24.9820774 63.775418,24.60006 64.4404673,24.0652508 L64.4404673,17.9530478 C63.8000384,18.0549343 63.147187,18.1822734 62.4821376,18.3350652 C61.422863,18.5897435 60.560701,19.0608831 59.8955769,19.7485601 C59.255073,20.4361611 58.9348586,21.3657521 58.9348586,22.537257 C58.9348586,23.5558942 59.1565167,24.3199291 59.5999827,24.8292857 C60.0679943,25.3131896 60.6591825,25.5551036 61.3736223,25.5551036 Z" id="Shape"></path>
                <path d="M78.8027454,27.1841867 L72.7897436,26.6899522 L72.7897436,25.9675802 L73.1564181,25.8915093 C74.1097125,25.6633719 74.5863597,25.0297747 74.5863597,23.9905664 L74.5863597,4.22020818 C74.5863597,3.71327747 74.4885649,3.32040031 74.2930497,3.04159182 C74.1218904,2.76277577 73.7919724,2.56000802 73.3030731,2.43327346 L72.8264259,2.31921235 L72.8264259,1.63485324 L79.0960553,0 L79.5727768,0.342178796 L79.4264931,5.70297994 L79.4264931,9.69504321 C81.1618482,8.47843673 83.0316061,7.87009568 85.0357668,7.87009568 C87.0889362,7.87009568 88.7879061,8.65583488 90.1326764,10.2273133 C91.4767041,11.7734599 92.1487179,14.168713 92.1487179,17.4130725 C92.1487179,19.5675602 91.8063993,21.379804 91.1225045,22.8499552 C90.4378672,24.2946991 89.5215522,25.384571 88.3728169,26.1196466 C87.223339,26.8547222 85.9528244,27.2222222 84.5590454,27.2222222 C83.6301069,27.2222222 82.7019109,27.0954877 81.7729724,26.8420185 C80.8685383,26.5885494 80.0613791,26.1957176 79.35298,25.6633719 L78.8027454,27.1841867 Z M82.8363137,25.549341 C83.6427303,25.549341 84.351872,25.3085756 84.9622537,24.8269691 C85.5733779,24.3453627 86.0500993,23.521588 86.392418,22.3556451 C86.7347367,21.1897022 86.9055247,19.592892 86.9055247,17.5651389 C86.9055247,15.5374614 86.7466176,13.9532793 86.4295458,12.8126682 C86.1117315,11.6721327 85.646891,10.8736898 85.0357668,10.4174151 C84.449147,9.96121605 83.7407478,9.7330787 82.9090843,9.7330787 C81.8093577,9.7330787 80.6851268,10.0626188 79.5363915,10.7216235 L79.5363915,24.5988318 C80.5381005,25.2325046 81.6385697,25.549341 82.8363137,25.549341 Z" id="Shape"></path>
                <path d="M103.051353,8.55555556 C104.648589,8.55555556 106.017868,8.88666773 107.158421,9.54881609 C108.298974,10.2109645 109.173834,11.1277911 109.782231,12.2992961 C110.416043,13.4453484 110.733333,14.7696451 110.733333,16.2721862 C110.733333,16.6032984 110.720241,16.9216463 110.694827,17.2272298 C110.669413,17.5073607 110.618585,17.7748033 110.543113,18.0294816 L99.0967703,18.0294816 C99.1221844,20.6526225 99.6042816,22.537257 100.542292,23.6832333 C101.504946,24.8292857 102.899639,25.4023118 104.724831,25.4023118 C105.992454,25.4023118 107.019029,25.1985388 107.805325,24.7910687 C108.59085,24.358146 109.313226,23.7596672 109.972452,22.9956323 L110.580849,23.5686585 C109.820737,24.9693891 108.781071,26.0644602 107.46262,26.8539477 C106.169583,27.6179826 104.623175,28 102.823397,28 C101.023619,28 99.4394752,27.6179826 98.070196,26.8539477 C96.7016869,26.0899128 95.6242844,24.9948417 94.8379885,23.5686585 C94.0778768,22.1170226 93.6974359,20.3852558 93.6974359,18.3732821 C93.6974359,16.2849505 94.1410269,14.5149668 95.028209,13.0633309 C95.9408051,11.6116951 97.1067717,10.5038597 98.5268791,9.73982481 C99.9716304,8.9503373 101.480302,8.55555556 103.051353,8.55555556 Z M102.861903,9.66339093 C102.126435,9.66339093 101.480302,9.87985228 100.921963,10.312851 C100.389807,10.720321 99.9585383,11.4588273 99.6296956,12.5285217 C99.3254969,13.5726875 99.1475985,15.049776 99.0967703,16.9598632 L105.90389,16.9598632 C106.182675,14.3876277 106.081019,12.5285217 105.599691,11.3824694 C105.117594,10.2364171 104.204998,9.66339093 102.861903,9.66339093 Z" id="Shape"></path>
                <path d="M113.05641,27.2222222 L113.05641,26.5064951 L113.604284,26.3558275 C114.409065,26.0795911 114.811085,25.4517471 114.811085,24.4722955 C114.811085,23.6184127 114.811085,22.7646048 114.811085,21.910722 C114.835518,21.0317404 114.847364,20.1653456 114.847364,19.3114628 L114.847364,4.99682949 C114.847364,4.46945552 114.762221,4.08019224 114.591936,3.82905464 C114.420911,3.55281078 114.092187,3.3519007 113.604284,3.22633939 L113.05641,3.07565683 L113.05641,2.35992217 L119.453941,0.777777778 L119.929258,1.11680904 L119.782665,6.42829881 L119.782665,24.4722955 C119.807097,24.9745707 119.904826,25.3889627 120.075111,25.7153966 C120.270569,26.0168067 120.599293,26.2302587 121.062023,26.3558275 L121.574359,26.5064951 L121.574359,27.2222222 L113.05641,27.2222222 Z" id="Path"></path>
                <path d="M123.123077,27.2222222 L123.123077,26.5064951 L123.671691,26.3558275 C124.475732,26.0795911 124.877752,25.4517471 124.877752,24.4722955 C124.877752,23.6184127 124.877752,22.7646048 124.877752,21.910722 C124.902184,21.0317404 124.91403,20.1653456 124.91403,19.3114628 L124.91403,4.99682949 C124.91403,4.46945552 124.828888,4.08019224 124.658603,3.82905464 C124.487578,3.55281078 124.158854,3.3519007 123.671691,3.22633939 L123.123077,3.07565683 L123.123077,2.35992217 L129.520608,0.777777778 L129.995925,1.11680904 L129.849332,6.42829881 L129.849332,24.4722955 C129.873764,24.9745707 129.971493,25.3889627 130.141778,25.7153966 C130.337235,26.0168067 130.665959,26.2302587 131.12869,26.3558275 L131.641026,26.5064951 L131.641026,27.2222222 L123.123077,27.2222222 Z" id="Path"></path>
                <path d="M138.215529,28 C136.810913,28 135.616578,27.5925299 134.631027,26.7775898 C133.670172,25.937121 133.189744,24.7401635 133.189744,23.1866411 C133.189744,21.9642309 133.756229,20.8436312 134.88995,19.824918 C136.047616,18.7807522 137.857827,18.0167173 140.321329,17.5328894 C140.740394,17.4310028 141.220822,17.3418806 141.762613,17.2654468 C142.329099,17.1635603 142.883612,17.0617497 143.425403,16.9598632 L143.425403,14.2475242 C143.425403,12.5157574 143.21587,11.3187998 142.796805,10.6566515 C142.378489,9.9945031 141.713223,9.66339093 140.801757,9.66339093 L140.691005,9.66339093 C140.124519,9.66339093 139.668786,9.85439965 139.323805,10.2364171 C139.00352,10.5929819 138.793988,11.1914607 138.695208,12.0318535 L138.584455,12.5285217 C138.511119,13.5472349 138.252197,14.2985054 137.808437,14.7824094 C137.365426,15.2407847 136.810913,15.4700104 136.145647,15.4700104 C135.53052,15.4700104 135.012676,15.2790017 134.594359,14.8969842 C134.199989,14.4895142 134.003178,13.9673933 134.003178,13.3306975 C134.003178,12.2865317 134.34741,11.407922 135.037371,10.6948684 C135.727331,9.98173879 136.638797,9.44692958 137.771769,9.09036477 C138.929435,8.73387595 140.173908,8.55555556 141.503691,8.55555556 C143.696298,8.55555556 145.371061,9.10312908 146.528728,10.1982001 C147.687143,11.2933472 148.265602,13.0760193 148.265602,15.5463683 L148.265602,24.0652508 C148.265602,25.1603978 148.770725,25.7078954 149.78097,25.7078954 L150.630325,25.7078954 L151,26.1281298 C150.55624,26.7139202 150.063839,27.1596072 149.522048,27.4651908 C148.980257,27.796227 148.240907,27.9617831 147.304746,27.9617831 C146.245859,27.9617831 145.395756,27.7071048 144.755185,27.1977482 C144.13931,26.662939 143.732966,25.9625737 143.536156,25.0967283 C142.748164,25.9625737 141.972146,26.662939 141.208101,27.1977482 C140.444804,27.7325574 139.446532,28 138.215529,28 Z M140.357998,25.5551036 C140.851147,25.5551036 141.318853,25.4405288 141.762613,25.2113031 C142.205625,24.9820774 142.760137,24.60006 143.425403,24.0652508 L143.425403,17.9530478 C142.784832,18.0549343 142.132288,18.1822734 141.467023,18.3350652 C140.407387,18.5897435 139.545311,19.0608831 138.880046,19.7485601 C138.240223,20.4361611 137.919938,21.3657521 137.919938,22.537257 C137.919938,23.5558942 138.141444,24.3199291 138.584455,24.8292857 C139.05291,25.3131896 139.644091,25.5551036 140.357998,25.5551036 Z" id="Shape"></path>
            </g>
        </g>
    </g>
</svg>