<?xml version="1.0" encoding="UTF-8"?>
<svg width="472px" height="280px" viewBox="0 0 472 280" version="1.1" xmlns="http://www.w3.org/2000/svg" xmlns:xlink="http://www.w3.org/1999/xlink">
    <title>credit-card-capture-3-good copy</title>
    <defs>
        <rect id="path-1" x="40.5" y="51" width="391" height="178" rx="5.6"></rect>
        <filter x="-12.3%" y="-23.6%" width="124.6%" height="153.9%" filterUnits="objectBoundingBox" id="filter-2">
            <feMorphology radius="4.5" operator="dilate" in="SourceAlpha" result="shadowSpreadOuter1"></feMorphology>
            <feOffset dx="0" dy="6" in="shadowSpreadOuter1" result="shadowOffsetOuter1"></feOffset>
            <feGaussianBlur stdDeviation="10.5" in="shadowOffsetOuter1" result="shadowBlurOuter1"></feGaussianBlur>
            <feColorMatrix values="0 0 0 0 0   0 0 0 0 0   0 0 0 0 0  0 0 0 0.101781031 0" type="matrix" in="shadowBlurOuter1"></feColorMatrix>
        </filter>
        <rect id="path-3" x="0" y="0" width="353.499429" height="45.4449463" rx="5"></rect>
        <filter x="-0.8%" y="-6.6%" width="101.7%" height="113.2%" filterUnits="objectBoundingBox" id="filter-4">
            <feMorphology radius="1" operator="dilate" in="SourceAlpha" result="shadowSpreadOuter1"></feMorphology>
            <feOffset dx="0" dy="0" in="shadowSpreadOuter1" result="shadowOffsetOuter1"></feOffset>
            <feComposite in="shadowOffsetOuter1" in2="SourceAlpha" operator="out" result="shadowOffsetOuter1"></feComposite>
            <feColorMatrix values="0 0 0 0 0.352941176   0 0 0 0 0.784313725   0 0 0 0 0.980392157  0 0 0 0.2 0" type="matrix" in="shadowOffsetOuter1"></feColorMatrix>
        </filter>
    </defs>
    <g id="credit-card-capture-3-good-copy" stroke="none" stroke-width="1" fill="none" fill-rule="evenodd">
        <g id="Rectangle">
            <use fill="black" fill-opacity="1" filter="url(#filter-2)" xlink:href="#path-1"></use>
            <use fill="#FFFFFF" fill-rule="evenodd" xlink:href="#path-1"></use>
        </g>
        <rect id="Rectangle-9" fill="#5AC8FA" x="59.1426963" y="163.2" width="356" height="45" rx="5"></rect>
        <g id="Group-2" transform="translate(58.894180, 92.700000)">
            <g id="Rectangle">
                <use fill="black" fill-opacity="1" filter="url(#filter-4)" xlink:href="#path-3"></use>
                <rect stroke="#5AC8FA" stroke-width="1.51301256" stroke-linejoin="square" fill="#FFFFFF" fill-rule="evenodd" x="0.756506279" y="0.756506279" width="351.986416" height="43.9319337" rx="5"></rect>
            </g>
            <path d="M60.4240741,24.9415423 C61.5741731,24.9415423 62.4166875,24.0990279 62.4166875,22.9489289 L62.4166875,22.9221824 C62.4166875,21.7720833 61.5741731,20.9295689 60.4240741,20.9295689 L52.8815642,20.9295689 C51.7314652,20.9295689 50.8889508,21.7720833 50.8889508,22.9221824 L50.8889508,22.9489289 C50.8889508,24.0990279 51.7314652,24.9415423 52.8815642,24.9415423 L60.4240741,24.9415423 Z M67.9398375,24.9415423 C69.0899365,24.9415423 69.9324509,24.0990279 69.9324509,22.9489289 L69.9324509,22.9221824 C69.9324509,21.7720833 69.0899365,20.9295689 67.9398375,20.9295689 L60.3973276,20.9295689 C59.2472286,20.9295689 58.4047142,21.7720833 58.4047142,22.9221824 L58.4047142,22.9489289 C58.4047142,24.0990279 59.2472286,24.9415423 60.3973276,24.9415423 L67.9398375,24.9415423 Z M75.4556009,24.9415423 C76.6056999,24.9415423 77.4482143,24.0990279 77.4482143,22.9489289 L77.4482143,22.9221824 C77.4482143,21.7720833 76.6056999,20.9295689 75.4556009,20.9295689 L67.913091,20.9295689 C66.762992,20.9295689 65.9204776,21.7720833 65.9204776,22.9221824 L65.9204776,22.9489289 C65.9204776,24.0990279 66.762992,24.9415423 67.913091,24.9415423 L75.4556009,24.9415423 Z M82.9713642,24.9415423 C84.1214633,24.9415423 84.9639777,24.0990279 84.9639777,22.9489289 L84.9639777,22.9221824 C84.9639777,21.7720833 84.1214633,20.9295689 82.9713642,20.9295689 L75.4288544,20.9295689 C74.2787553,20.9295689 73.4362409,21.7720833 73.4362409,22.9221824 L73.4362409,22.9489289 C73.4362409,24.0990279 74.2787553,24.9415423 75.4288544,24.9415423 L82.9713642,24.9415423 Z M98.5110743,24.9415423 C99.6611733,24.9415423 100.503688,24.0990279 100.503688,22.9489289 L100.503688,22.9221824 C100.503688,21.7720833 99.6611733,20.9295689 98.5110743,20.9295689 L90.9685644,20.9295689 C89.8184654,20.9295689 88.975951,21.7720833 88.975951,22.9221824 L88.975951,22.9489289 C88.975951,24.0990279 89.8184654,24.9415423 90.9685644,24.9415423 L98.5110743,24.9415423 Z M106.026838,24.9415423 C107.176937,24.9415423 108.019451,24.0990279 108.019451,22.9489289 L108.019451,22.9221824 C108.019451,21.7720833 107.176937,20.9295689 106.026838,20.9295689 L98.4843278,20.9295689 C97.3342288,20.9295689 96.4917144,21.7720833 96.4917144,22.9221824 L96.4917144,22.9489289 C96.4917144,24.0990279 97.3342288,24.9415423 98.4843278,24.9415423 L106.026838,24.9415423 Z M113.542601,24.9415423 C114.6927,24.9415423 115.535215,24.0990279 115.535215,22.9489289 L115.535215,22.9221824 C115.535215,21.7720833 114.6927,20.9295689 113.542601,20.9295689 L106.000091,20.9295689 C104.849992,20.9295689 104.007478,21.7720833 104.007478,22.9221824 L104.007478,22.9489289 C104.007478,24.0990279 104.849992,24.9415423 106.000091,24.9415423 L113.542601,24.9415423 Z M121.058364,24.9415423 C122.208463,24.9415423 123.050978,24.0990279 123.050978,22.9489289 L123.050978,22.9221824 C123.050978,21.7720833 122.208463,20.9295689 121.058364,20.9295689 L113.515855,20.9295689 C112.365756,20.9295689 111.523241,21.7720833 111.523241,22.9221824 L111.523241,22.9489289 C111.523241,24.0990279 112.365756,24.9415423 113.515855,24.9415423 L121.058364,24.9415423 Z M136.598075,24.9415423 C137.748174,24.9415423 138.590688,24.0990279 138.590688,22.9489289 L138.590688,22.9221824 C138.590688,21.7720833 137.748174,20.9295689 136.598075,20.9295689 L129.055565,20.9295689 C127.905466,20.9295689 127.062951,21.7720833 127.062951,22.9221824 L127.062951,22.9489289 C127.062951,24.0990279 127.905466,24.9415423 129.055565,24.9415423 L136.598075,24.9415423 Z M144.113838,24.9415423 C145.263937,24.9415423 146.106451,24.0990279 146.106451,22.9489289 L146.106451,22.9221824 C146.106451,21.7720833 145.263937,20.9295689 144.113838,20.9295689 L136.571328,20.9295689 C135.421229,20.9295689 134.578715,21.7720833 134.578715,22.9221824 L134.578715,22.9489289 C134.578715,24.0990279 135.421229,24.9415423 136.571328,24.9415423 L144.113838,24.9415423 Z M151.629601,24.9415423 C152.7797,24.9415423 153.622215,24.0990279 153.622215,22.9489289 L153.622215,22.9221824 C153.622215,21.7720833 152.7797,20.9295689 151.629601,20.9295689 L144.087091,20.9295689 C142.936992,20.9295689 142.094478,21.7720833 142.094478,22.9221824 L142.094478,22.9489289 C142.094478,24.0990279 142.936992,24.9415423 144.087091,24.9415423 L151.629601,24.9415423 Z M159.145365,24.9415423 C160.295464,24.9415423 161.137978,24.0990279 161.137978,22.9489289 L161.137978,22.9221824 C161.137978,21.7720833 160.295464,20.9295689 159.145365,20.9295689 L151.602855,20.9295689 C150.452756,20.9295689 149.610241,21.7720833 149.610241,22.9221824 L149.610241,22.9489289 C149.610241,24.0990279 150.452756,24.9415423 151.602855,24.9415423 L159.145365,24.9415423 Z M174.685075,24.9415423 C175.835174,24.9415423 176.677688,24.0990279 176.677688,22.9489289 L176.677688,22.9221824 C176.677688,21.7720833 175.835174,20.9295689 174.685075,20.9295689 L167.142565,20.9295689 C165.992466,20.9295689 165.149951,21.7720833 165.149951,22.9221824 L165.149951,22.9489289 C165.149951,24.0990279 165.992466,24.9415423 167.142565,24.9415423 L174.685075,24.9415423 Z M182.200838,24.9415423 C183.350937,24.9415423 184.193452,24.0990279 184.193452,22.9489289 L184.193452,22.9221824 C184.193452,21.7720833 183.350937,20.9295689 182.200838,20.9295689 L174.658328,20.9295689 C173.508229,20.9295689 172.665715,21.7720833 172.665715,22.9221824 L172.665715,22.9489289 C172.665715,24.0990279 173.508229,24.9415423 174.658328,24.9415423 L182.200838,24.9415423 Z M189.716602,24.9415423 C190.866701,24.9415423 191.709215,24.0990279 191.709215,22.9489289 L191.709215,22.9221824 C191.709215,21.7720833 190.866701,20.9295689 189.716602,20.9295689 L182.174092,20.9295689 C181.023993,20.9295689 180.181478,21.7720833 180.181478,22.9221824 L180.181478,22.9489289 C180.181478,24.0990279 181.023993,24.9415423 182.174092,24.9415423 L189.716602,24.9415423 Z M197.232365,24.9415423 C198.382464,24.9415423 199.224978,24.0990279 199.224978,22.9489289 L199.224978,22.9221824 C199.224978,21.7720833 198.382464,20.9295689 197.232365,20.9295689 L189.689855,20.9295689 C188.539756,20.9295689 187.697242,21.7720833 187.697242,22.9221824 L187.697242,22.9489289 C187.697242,24.0990279 188.539756,24.9415423 189.689855,24.9415423 L197.232365,24.9415423 Z" id="4242424242424242" fill="#DFE3E8" fill-rule="nonzero"></path>
            <path d="M242.430113,24.9415423 C243.580212,24.9415423 244.422726,24.0990279 244.422726,22.9489289 L244.422726,22.9221824 C244.422726,21.7720833 243.580212,20.9295689 242.430113,20.9295689 L234.887603,20.9295689 C233.737504,20.9295689 232.89499,21.7720833 232.89499,22.9221824 L232.89499,22.9489289 C232.89499,24.0990279 233.737504,24.9415423 234.887603,24.9415423 L242.430113,24.9415423 Z M249.945876,24.9415423 C251.095975,24.9415423 251.93849,24.0990279 251.93849,22.9489289 L251.93849,22.9221824 C251.93849,21.7720833 251.095975,20.9295689 249.945876,20.9295689 L242.403366,20.9295689 C241.253267,20.9295689 240.410753,21.7720833 240.410753,22.9221824 L240.410753,22.9489289 C240.410753,24.0990279 241.253267,24.9415423 242.403366,24.9415423 L249.945876,24.9415423 Z M253.770624,24.9415423 C254.920723,24.9415423 255.763238,24.0990279 255.763238,22.9489289 L255.763238,22.9221824 C255.763238,21.7720833 254.920723,20.9295689 253.770624,20.9295689 L249.91913,20.9295689 C248.769031,20.9295689 247.926516,21.7720833 247.926516,22.9221824 L247.926516,22.9489289 C247.926516,24.0990279 248.769031,24.9415423 249.91913,24.9415423 L253.770624,24.9415423 Z M261.286388,24.9415423 C262.436487,24.9415423 263.279001,24.0990279 263.279001,22.9489289 L263.279001,22.9221824 C263.279001,21.7720833 262.436487,20.9295689 261.286388,20.9295689 L253.743878,20.9295689 C252.593779,20.9295689 251.751264,21.7720833 251.751264,22.9221824 L251.751264,22.9489289 C251.751264,24.0990279 252.593779,24.9415423 253.743878,24.9415423 L261.286388,24.9415423 Z M268.802151,24.9415423 C269.95225,24.9415423 270.794764,24.0990279 270.794764,22.9489289 L270.794764,22.9221824 C270.794764,21.7720833 269.95225,20.9295689 268.802151,20.9295689 L261.259641,20.9295689 C260.109542,20.9295689 259.267028,21.7720833 259.267028,22.9221824 L259.267028,22.9489289 C259.267028,24.0990279 260.109542,24.9415423 261.259641,24.9415423 L268.802151,24.9415423 Z" id="08/26" fill="#DFE3E8" fill-rule="nonzero"></path>
            <path d="M312.311294,27.3754728 C313.889337,27.3754728 314.959197,26.6265711 315.708098,25.5968313 L314.771971,25.088648 C314.263788,25.8375497 313.327661,26.3858527 312.311294,26.3858527 C310.358801,26.3858527 308.874371,24.8746761 308.874371,22.7617034 C308.874371,20.6219843 310.358801,19.1375542 312.311294,19.1375542 C313.327661,19.1375542 314.263788,19.672484 314.771971,20.4347589 L315.694725,19.9132024 C314.985943,18.8968358 313.889337,18.1479341 312.311294,18.1479341 C309.743631,18.1479341 307.724271,20.0201883 307.724271,22.7617034 C307.724271,25.5032185 309.743631,27.3754728 312.311294,27.3754728 Z M321.177755,27.2149938 L324.761785,18.2950398 L323.491327,18.2950398 L320.482347,25.9980286 L317.473367,18.2950398 L316.202908,18.2950398 L319.800311,27.2149938 L321.177755,27.2149938 Z M330.151202,27.3754728 C331.729245,27.3754728 332.799105,26.6265711 333.548007,25.5968313 L332.611879,25.088648 C332.103696,25.8375497 331.167569,26.3858527 330.151202,26.3858527 C328.198709,26.3858527 326.714279,24.8746761 326.714279,22.7617034 C326.714279,20.6219843 328.198709,19.1375542 330.151202,19.1375542 C331.167569,19.1375542 332.103696,19.672484 332.611879,20.4347589 L333.534633,19.9132024 C332.825851,18.8968358 331.729245,18.1479341 330.151202,18.1479341 C327.58354,18.1479341 325.56418,20.0201883 325.56418,22.7617034 C325.56418,25.5032185 327.58354,27.3754728 330.151202,27.3754728 Z" id="CVC" fill="#919EAB" fill-rule="nonzero"></path>
            <g id="visa-zen" transform="translate(10.429988, 12.664985)" fill-rule="nonzero">
                <path d="M30.1920696,0 L2.58789168,0 C1.12141973,0 0,1.12991533 0,2.60749692 L0,18.2524784 C0,19.73006 1.20768278,20.8599753 2.58789168,20.8599753 L30.1920696,20.8599753 C31.6585415,20.8599753 32.7799612,19.73006 32.7799612,18.2524784 L32.7799612,2.60749692 C32.7799612,1.12991533 31.5722785,0 30.1920696,0 Z" id="Shape" fill="#000000" opacity="0.07"></path>
                <path d="M30.2966308,0.744999119 C31.252713,0.744999119 32.0349621,1.53740727 32.0349621,2.50590613 L32.0349621,18.3540692 C32.0349621,19.3225681 31.252713,20.1149762 30.2966308,20.1149762 L2.4833304,20.1149762 C1.52724819,20.1149762 0.744999119,19.3225681 0.744999119,18.3540692 L0.744999119,2.50590613 C0.744999119,1.53740727 1.52724819,0.744999119 2.4833304,0.744999119 L30.2966308,0.744999119" id="Shape" fill="#FFFFFF"></path>
                <g id="Group" transform="translate(4.469995, 6.704992)" fill="#142688">
                    <path d="M19.9301061,1.76006042 L19.6734953,1.76006042 C19.3313475,2.59818443 19.0747367,3.01724643 18.8181259,4.27443245 L20.4433277,4.27443245 C20.1867169,3.01724643 20.1867169,2.43055963 19.9301061,1.76006042 L19.9301061,1.76006042 Z M22.4106772,6.70499207 L20.9565493,6.70499207 C20.8710124,6.70499207 20.8710124,6.70499207 20.7854754,6.62117967 L20.6144015,5.86686806 L20.5288646,5.69924326 L18.4759782,5.69924326 C18.3904412,5.69924326 18.3049043,5.69924326 18.3049043,5.86686806 L18.0482935,6.62117967 C18.0482935,6.70499207 17.9627565,6.70499207 17.9627565,6.70499207 L16.1664809,6.70499207 L16.3375548,6.28593007 L18.8181259,0.586686806 C18.8181259,0.167624802 19.0747367,0 19.5024214,0 L20.7854754,0 C20.8710124,0 20.9565493,0 20.9565493,0.167624802 L22.1540664,5.61543086 C22.2396033,5.95068046 22.3251403,6.20211767 22.3251403,6.53736727 C22.4106772,6.62117967 22.4106772,6.62117967 22.4106772,6.70499207 Z M10.9487278,6.45355487 L11.2908755,4.94493165 C11.3764125,4.94493165 11.4619494,5.02874405 11.4619494,5.02874405 C12.060708,5.28018126 12.6594665,5.44780606 13.2582251,5.36399366 C13.4292989,5.36399366 13.6859097,5.28018126 13.8569836,5.19636886 C14.2846683,5.02874405 14.2846683,4.60968205 13.9425206,4.27443245 C13.7714467,4.10680764 13.5148359,4.02299524 13.2582251,3.85537044 C12.9160773,3.68774564 12.5739296,3.52012084 12.3173188,3.26868363 C11.2908755,2.43055963 11.6330233,1.25718601 12.2317818,0.670499207 C12.7450034,0.335249604 13.0016143,4.4408921e-16 13.6859097,4.4408921e-16 C14.712353,4.4408921e-16 15.8243331,4.4408921e-16 16.3375548,0.167624802 L16.4230917,0.167624802 C16.3375548,0.670499207 16.2520178,1.08956121 16.0809439,1.59243562 C15.6532593,1.42481082 15.2255746,1.25718601 14.7978899,1.25718601 C14.5412791,1.25718601 14.2846683,1.25718601 14.0280575,1.34099841 C13.8569836,1.34099841 13.7714467,1.42481082 13.6859097,1.50862322 C13.5148359,1.67624802 13.5148359,1.92768522 13.6859097,2.09531002 L14.1135944,2.43055963 C14.4557422,2.59818443 14.7978899,2.76580923 15.0545007,2.93343403 C15.4821854,3.18487123 15.9098701,3.60393324 15.995407,4.10680764 C16.1664809,4.86111925 15.9098701,5.53161846 15.2255746,6.03449286 C14.7978899,6.36974247 14.626816,6.53736727 14.0280575,6.53736727 C12.8305404,6.53736727 11.8896341,6.62117967 11.1198017,6.36974247 C11.0342647,6.53736727 11.0342647,6.53736727 10.9487278,6.45355487 L10.9487278,6.45355487 Z M7.95493504,6.70499207 C8.04047197,6.11830527 8.04047197,6.11830527 8.12600891,5.86686806 C8.55369359,4.02299524 8.98137827,2.09531002 9.32352601,0.251437203 C9.40906295,0.0838124009 9.40906295,4.4408921e-16 9.58013682,4.4408921e-16 L11.1198017,4.4408921e-16 C10.9487278,1.00574881 10.7776539,1.76006042 10.5210431,2.68199683 C10.2644323,3.93918284 10.0078215,5.19636886 9.66567376,6.45355487 C9.66567376,6.62117967 9.58013682,6.62117967 9.40906295,6.62117967 L7.95493504,6.70499207 Z M0,0.167624802 C0,0.0838124009 0.171073872,0 0.256610808,0 L3.16486663,0 C3.59255131,0 3.93469905,0.251437203 4.02023599,0.670499207 L4.79006841,4.35824485 C4.79006841,4.44205725 4.79006841,4.44205725 4.87560535,4.52586965 C4.87560535,4.44205725 4.96114228,4.44205725 4.96114228,4.44205725 L6.75741794,0.167624802 C6.671881,0.0838124009 6.75741794,0 6.84295487,0 L8.63923053,0 C8.63923053,0.0838124009 8.63923053,0.0838124009 8.55369359,0.167624802 L5.90204858,6.28593007 C5.81651164,6.45355487 5.81651164,6.53736727 5.7309747,6.62117967 C5.64543777,6.70499207 5.4743639,6.62117967 5.30329003,6.62117967 L4.02023599,6.62117967 C3.93469905,6.62117967 3.84916212,6.62117967 3.84916212,6.45355487 L2.48057114,1.25718601 C2.30949727,1.08956121 2.05288646,0.838124009 1.71073872,0.754311608 C1.1975171,0.502874405 0.256610808,0.335249604 0.0855369359,0.335249604 L0,0.167624802 Z" id="Shape"></path>
                </g>
            </g>
        </g>
        <rect id="Rectangle" fill="#FFFFFF" opacity="0.653994606" x="149.904601" y="180.843915" width="174.26455" height="9.09206349" rx="1.51534392"></rect>
        <path d="M63.8614772,79.7271969 C65.5935153,79.7271969 66.6982011,78.8679969 67.4210201,77.8042255 L66.261782,77.1905112 C65.7844487,77.9542445 64.8843344,78.5134064 63.8614772,78.5134064 C61.965782,78.5134064 60.5474201,77.0541302 60.5474201,75.0220541 C60.5474201,72.9763398 61.965782,71.5307017 63.8614772,71.5307017 C64.8843344,71.5307017 65.7844487,72.0898636 66.261782,72.8535969 L67.4210201,72.2398826 C66.7118392,71.1761112 65.5935153,70.3169112 63.8614772,70.3169112 C61.2156868,70.3169112 59.1426963,72.2262445 59.1426963,75.0220541 C59.1426963,77.8178636 61.2156868,79.7271969 63.8614772,79.7271969 Z M69.984982,79.5635398 L69.984982,74.9811398 C70.271382,74.4901683 71.1033058,74.0264731 71.7170201,74.0264731 C71.8806772,74.0264731 72.0170582,74.0401112 72.1398011,74.0673874 L72.1398011,72.8263207 C71.266963,72.8263207 70.4895915,73.3309302 69.984982,73.9855588 L69.984982,72.9763398 L68.7575534,72.9763398 L68.7575534,79.5635398 L69.984982,79.5635398 Z M76.3676106,79.7271969 C77.431382,79.7271969 78.3587725,79.3862445 79.0134011,78.7452541 L78.4406011,77.9406064 C77.9496296,78.445216 77.1858963,78.7179779 76.4903534,78.7179779 C75.1674582,78.7179779 74.3491725,77.7905874 74.2537058,76.6722636 L79.4634582,76.6722636 L79.4634582,76.3722255 C79.4634582,74.3537874 78.2360296,72.8126826 76.2585058,72.8126826 C74.3355344,72.8126826 72.9580868,74.3537874 72.9580868,76.2631207 C72.9580868,78.3361112 74.4037249,79.7271969 76.3676106,79.7271969 Z M78.2633058,75.7857874 L74.2400677,75.7857874 C74.3082582,74.8856731 74.9356106,73.8219017 76.2585058,73.8219017 C77.6495915,73.8219017 78.2360296,74.9129493 78.2633058,75.7857874 Z M83.5412487,79.7271969 C84.4140868,79.7271969 85.2050963,79.2771398 85.6960677,78.6225112 L85.6960677,79.5635398 L86.9234963,79.5635398 L86.9234963,70.4669302 L85.6960677,70.4669302 L85.6960677,73.9310064 C85.164182,73.2218255 84.3868106,72.8126826 83.5412487,72.8126826 C81.8228487,72.8126826 80.5954201,74.1628541 80.5954201,76.2767588 C80.5954201,78.4315779 81.8228487,79.7271969 83.5412487,79.7271969 Z M83.868563,78.6361493 C82.6411344,78.6361493 81.8774011,77.6405683 81.8774011,76.2767588 C81.8774011,74.8993112 82.6411344,73.9037302 83.868563,73.9037302 C84.6186582,73.9037302 85.3551153,74.3401493 85.6960677,74.872035 L85.6960677,77.6814826 C85.3551153,78.2133683 84.6186582,78.6361493 83.868563,78.6361493 Z M89.4874582,72.1035017 C89.9238772,72.1035017 90.2784677,71.7489112 90.2784677,71.3124922 C90.2784677,70.8760731 89.9238772,70.5351207 89.4874582,70.5351207 C89.0646772,70.5351207 88.6964487,70.8760731 88.6964487,71.3124922 C88.6964487,71.7489112 89.0646772,72.1035017 89.4874582,72.1035017 Z M90.1148106,79.5635398 L90.1148106,72.9763398 L88.887382,72.9763398 L88.887382,79.5635398 L90.1148106,79.5635398 Z M93.8789249,79.7271969 C94.5199153,79.7271969 94.901782,79.5499017 95.1609058,79.304416 L94.8472296,78.3770255 C94.7244868,78.5134064 94.465363,78.6361493 94.178963,78.6361493 C93.756182,78.6361493 93.5379725,78.2951969 93.5379725,77.8315017 L93.5379725,74.0537493 L94.8745058,74.0537493 L94.8745058,72.9763398 L93.5379725,72.9763398 L93.5379725,71.1761112 L92.3105439,71.1761112 L92.3105439,72.9763398 L91.2194963,72.9763398 L91.2194963,74.0537493 L92.3105439,74.0537493 L92.3105439,78.1042636 C92.3105439,79.1407588 92.8424296,79.7271969 93.8789249,79.7271969 Z M104.121134,79.7271969 C105.853172,79.7271969 106.957858,78.8679969 107.680677,77.8042255 L106.521439,77.1905112 C106.044106,77.9542445 105.143992,78.5134064 104.121134,78.5134064 C102.225439,78.5134064 100.807077,77.0541302 100.807077,75.0220541 C100.807077,72.9763398 102.225439,71.5307017 104.121134,71.5307017 C105.143992,71.5307017 106.044106,72.0898636 106.521439,72.8535969 L107.680677,72.2398826 C106.971496,71.1761112 105.853172,70.3169112 104.121134,70.3169112 C101.475344,70.3169112 99.4023534,72.2262445 99.4023534,75.0220541 C99.4023534,77.8178636 101.475344,79.7271969 104.121134,79.7271969 Z M110.926544,79.7271969 C111.81302,79.7271969 112.563115,79.4135207 113.081363,78.8407207 L113.081363,79.5635398 L114.308792,79.5635398 L114.308792,75.1175207 C114.308792,73.440035 113.095001,72.8126826 111.663001,72.8126826 C110.59923,72.8126826 109.699115,73.1672731 108.962658,73.8900922 L109.494544,74.7356541 C110.080982,74.149216 110.721972,73.862816 111.472068,73.862816 C112.413096,73.862816 113.081363,74.3537874 113.081363,75.1720731 L113.081363,76.2631207 C112.576753,75.6766826 111.81302,75.3902826 110.926544,75.3902826 C109.821858,75.3902826 108.635344,76.0449112 108.635344,77.5451017 C108.635344,78.9907398 109.835496,79.7271969 110.926544,79.7271969 Z M111.390239,78.8679969 C110.503763,78.8679969 109.876411,78.3361112 109.876411,77.5587398 C109.876411,76.7813683 110.503763,76.2494826 111.390239,76.2494826 C112.072144,76.2494826 112.713134,76.5086064 113.081363,76.9995779 L113.081363,78.1179017 C112.713134,78.6088731 112.072144,78.8679969 111.390239,78.8679969 Z M117.500106,79.5635398 L117.500106,74.9811398 C117.786506,74.4901683 118.61843,74.0264731 119.232144,74.0264731 C119.395801,74.0264731 119.532182,74.0401112 119.654925,74.0673874 L119.654925,72.8263207 C118.782087,72.8263207 118.004715,73.3309302 117.500106,73.9855588 L117.500106,72.9763398 L116.272677,72.9763398 L116.272677,79.5635398 L117.500106,79.5635398 Z M123.419039,79.7271969 C124.291877,79.7271969 125.082887,79.2771398 125.573858,78.6225112 L125.573858,79.5635398 L126.801287,79.5635398 L126.801287,70.4669302 L125.573858,70.4669302 L125.573858,73.9310064 C125.041972,73.2218255 124.264601,72.8126826 123.419039,72.8126826 C121.700639,72.8126826 120.473211,74.1628541 120.473211,76.2767588 C120.473211,78.4315779 121.700639,79.7271969 123.419039,79.7271969 Z M123.746353,78.6361493 C122.518925,78.6361493 121.755192,77.6405683 121.755192,76.2767588 C121.755192,74.8993112 122.518925,73.9037302 123.746353,73.9037302 C124.496449,73.9037302 125.232906,74.3401493 125.573858,74.872035 L125.573858,77.6814826 C125.232906,78.2133683 124.496449,78.6361493 123.746353,78.6361493 Z" id="CreditCard" fill="#212B36" fill-rule="nonzero"></path>
        <line x1="363.794872" y1="104.464957" x2="363.794872" y2="127.2" id="Line-4" stroke="#5AC8FA" stroke-linecap="square"></line>
    </g>
</svg>