<?xml version="1.0" encoding="UTF-8"?>
<svg width="291px" height="192px" viewBox="0 0 291 192" version="1.1" xmlns="http://www.w3.org/2000/svg" xmlns:xlink="http://www.w3.org/1999/xlink">
    <title>date</title>
    <g id="landing" stroke="none" stroke-width="1" fill="none" fill-rule="evenodd">
        <g id="date">
            <rect id="Rectangle" fill="#FFFFFF" x="0" y="0" width="291" height="192" rx="14"></rect>
            <g id="Group-6" transform="translate(31.178571, 22.612800)">
                <g id="Group-3" transform="translate(0.000000, 20.587200)">
                    <g id="day-selector" transform="translate(18.493504, 0.000000)">
                        <rect id="Rectangle-7" stroke="#E9E9EA" stroke-width="0.8" fill="#C9CEEB" opacity="0.508510045" x="0.4" y="0.4" width="49.7781992" height="49.7679012"></rect>
                        <g id="Sep" transform="translate(16.501663, 32.842785)" fill="#7881C0" fill-rule="nonzero">
                            <path d="M0,1.31855802 L0,1.33625679 C0,2.0973037 0.557511111,2.65481481 1.31855802,2.65481481 L6.30960988,2.65481481 C7.07065679,2.65481481 7.6281679,2.0973037 7.6281679,1.33625679 L7.6281679,1.31855802 C7.6281679,0.557511111 7.07065679,0 6.30960988,0 L1.31855802,0 C0.557511111,0 0,0.557511111 0,1.31855802 Z" id="Path"></path>
                            <path d="M4.97335309,1.31855802 L4.97335309,1.33625679 C4.97335309,2.0973037 5.5308642,2.65481481 6.29191111,2.65481481 L11.282963,2.65481481 C12.0440099,2.65481481 12.601521,2.0973037 12.601521,1.33625679 L12.601521,1.31855802 C12.601521,0.557511111 12.0440099,0 11.282963,0 L6.29191111,0 C5.5308642,0 4.97335309,0.557511111 4.97335309,1.31855802 Z" id="Path"></path>
                            <path d="M9.94670617,1.31855802 L9.94670617,1.33625679 C9.94670617,2.0973037 10.5042173,2.65481481 11.2652642,2.65481481 L16.256316,2.65481481 C17.017363,2.65481481 17.5748741,2.0973037 17.5748741,1.33625679 L17.5748741,1.31855802 C17.5748741,0.557511111 17.017363,0 16.256316,0 L11.2652642,0 C10.5042173,0 9.94670617,0.557511111 9.94670617,1.31855802 Z" id="Path"></path>
                        </g>
                        <g id="Mon" transform="translate(14.279100, 14.205877)" fill="#3D4BA2" fill-rule="nonzero">
                            <polygon id="Path" points="8.316 8.004 8.316 0 6.336 0 4.164 5.496 1.98 0 0 0 0 8.004 1.404 8.004 1.404 1.824 3.864 8.004 4.464 8.004 6.912 1.824 6.912 8.004"></polygon>
                            <path d="M12.612,8.148 C14.46,8.148 15.588,6.756 15.588,5.1 C15.588,3.432 14.46,2.064 12.612,2.064 C10.764,2.064 9.636,3.432 9.636,5.1 C9.636,6.756 10.764,8.148 12.612,8.148 Z M12.612,7.032 C11.544,7.032 10.944,6.132 10.944,5.1 C10.944,4.08 11.544,3.18 12.612,3.18 C13.692,3.18 14.28,4.08 14.28,5.1 C14.28,6.132 13.692,7.032 12.612,7.032 Z" id="Shape"></path>
                            <path d="M22.056,8.004 L22.056,3.924 C22.056,2.736 21.432,2.064 20.184,2.064 C19.272,2.064 18.516,2.532 18.132,2.988 L18.132,2.208 L16.872,2.208 L16.872,8.004 L18.132,8.004 L18.132,3.948 C18.432,3.564 18.984,3.18 19.62,3.18 C20.328,3.18 20.796,3.468 20.796,4.38 L20.796,8.004 L22.056,8.004 Z" id="Path"></path>
                        </g>
                    </g>
                    <g id="day-selector" transform="translate(67.553355, 0.000000)">
                        <rect id="Rectangle-7" stroke="#E9E9EA" stroke-width="0.8" fill="#FFFFFF" x="0.4" y="0.4" width="49.7781992" height="49.7679012"></rect>
                        <g id="Sep" transform="translate(16.501663, 32.842785)" fill="#E6E6E6" fill-rule="nonzero">
                            <path d="M0,1.31855802 L0,1.33625679 C0,2.0973037 0.557511111,2.65481481 1.31855802,2.65481481 L6.30960988,2.65481481 C7.07065679,2.65481481 7.6281679,2.0973037 7.6281679,1.33625679 L7.6281679,1.31855802 C7.6281679,0.557511111 7.07065679,0 6.30960988,0 L1.31855802,0 C0.557511111,0 0,0.557511111 0,1.31855802 Z" id="Path"></path>
                            <path d="M4.97335309,1.31855802 L4.97335309,1.33625679 C4.97335309,2.0973037 5.5308642,2.65481481 6.29191111,2.65481481 L11.282963,2.65481481 C12.0440099,2.65481481 12.601521,2.0973037 12.601521,1.33625679 L12.601521,1.31855802 C12.601521,0.557511111 12.0440099,0 11.282963,0 L6.29191111,0 C5.5308642,0 4.97335309,0.557511111 4.97335309,1.31855802 Z" id="Path"></path>
                            <path d="M9.94670617,1.31855802 L9.94670617,1.33625679 C9.94670617,2.0973037 10.5042173,2.65481481 11.2652642,2.65481481 L16.256316,2.65481481 C17.017363,2.65481481 17.5748741,2.0973037 17.5748741,1.33625679 L17.5748741,1.31855802 C17.5748741,0.557511111 17.017363,0 16.256316,0 L11.2652642,0 C10.5042173,0 9.94670617,0.557511111 9.94670617,1.31855802 Z" id="Path"></path>
                        </g>
                        <g id="Mon" transform="translate(15.419100, 14.205877)" fill="#212B36" fill-rule="nonzero">
                            <polygon id="Path" points="3.828 8.004 3.828 1.236 6.252 1.236 6.252 0 0 0 0 1.236 2.424 1.236 2.424 8.004"></polygon>
                            <path d="M12.576,8.004 L12.576,2.208 L11.316,2.208 L11.316,6.276 C11.028,6.66 10.476,7.032 9.84,7.032 C9.12,7.032 8.664,6.744 8.664,5.844 L8.664,2.208 L7.404,2.208 L7.404,6.312 C7.404,7.488 8.028,8.148 9.276,8.148 C10.188,8.148 10.908,7.692 11.316,7.236 L11.316,8.004 L12.576,8.004 Z" id="Path"></path>
                            <path d="M16.896,8.148 C17.808,8.148 18.66,7.848 19.248,7.296 L18.672,6.468 C18.252,6.888 17.592,7.116 17.016,7.116 C15.924,7.116 15.276,6.384 15.18,5.52 L19.644,5.52 L19.644,5.208 C19.644,3.384 18.54,2.064 16.8,2.064 C15.084,2.064 13.86,3.42 13.86,5.1 C13.86,6.936 15.144,8.148 16.896,8.148 Z M18.432,4.62 L15.168,4.62 C15.216,3.924 15.72,3.096 16.788,3.096 C17.928,3.096 18.396,3.936 18.432,4.62 Z" id="Shape"></path>
                        </g>
                    </g>
                    <g id="day-selector" transform="translate(117.231873, 0.000000)">
                        <rect id="Rectangle-7" stroke="#E9E9EA" stroke-width="0.8" fill="#FFFFFF" x="0.4" y="0.4" width="49.7781992" height="49.7679012"></rect>
                        <g id="Sep" transform="translate(16.501663, 32.842785)" fill="#E6E6E6" fill-rule="nonzero">
                            <path d="M0,1.31855802 L0,1.33625679 C0,2.0973037 0.557511111,2.65481481 1.31855802,2.65481481 L6.30960988,2.65481481 C7.07065679,2.65481481 7.6281679,2.0973037 7.6281679,1.33625679 L7.6281679,1.31855802 C7.6281679,0.557511111 7.07065679,0 6.30960988,0 L1.31855802,0 C0.557511111,0 0,0.557511111 0,1.31855802 Z" id="Path"></path>
                            <path d="M4.97335309,1.31855802 L4.97335309,1.33625679 C4.97335309,2.0973037 5.5308642,2.65481481 6.29191111,2.65481481 L11.282963,2.65481481 C12.0440099,2.65481481 12.601521,2.0973037 12.601521,1.33625679 L12.601521,1.31855802 C12.601521,0.557511111 12.0440099,0 11.282963,0 L6.29191111,0 C5.5308642,0 4.97335309,0.557511111 4.97335309,1.31855802 Z" id="Path"></path>
                            <path d="M9.94670617,1.31855802 L9.94670617,1.33625679 C9.94670617,2.0973037 10.5042173,2.65481481 11.2652642,2.65481481 L16.256316,2.65481481 C17.017363,2.65481481 17.5748741,2.0973037 17.5748741,1.33625679 L17.5748741,1.31855802 C17.5748741,0.557511111 17.017363,0 16.256316,0 L11.2652642,0 C10.5042173,0 9.94670617,0.557511111 9.94670617,1.31855802 Z" id="Path"></path>
                        </g>
                        <g id="Wed" transform="translate(13.127100, 14.205877)" fill="#212B36" fill-rule="nonzero">
                            <polygon id="Path" points="8.388 8.004 10.68 0 9.108 0 7.548 6.156 5.892 0 4.776 0 3.12 6.156 1.56 0 0 0 2.28 8.004 3.78 8.004 5.34 2.088 6.888 8.004"></polygon>
                            <path d="M14.256,8.148 C15.168,8.148 16.02,7.848 16.608,7.296 L16.032,6.468 C15.612,6.888 14.952,7.116 14.376,7.116 C13.284,7.116 12.636,6.384 12.54,5.52 L17.004,5.52 L17.004,5.208 C17.004,3.384 15.9,2.064 14.16,2.064 C12.444,2.064 11.22,3.42 11.22,5.1 C11.22,6.936 12.504,8.148 14.256,8.148 Z M15.792,4.62 L12.528,4.62 C12.576,3.924 13.08,3.096 14.148,3.096 C15.288,3.096 15.756,3.936 15.792,4.62 Z" id="Shape"></path>
                            <path d="M23.592,8.004 L23.592,0 L22.332,0 L22.332,3.012 C21.876,2.388 21.204,2.064 20.472,2.064 C18.984,2.064 17.904,3.228 17.904,5.1 C17.904,7.02 18.996,8.148 20.472,8.148 C21.228,8.148 21.888,7.788 22.332,7.212 L22.332,8.004 L23.592,8.004 Z M20.844,7.032 C19.836,7.032 19.2,6.228 19.2,5.1 C19.2,3.984 19.836,3.18 20.844,3.18 C21.432,3.18 22.056,3.528 22.332,3.96 L22.332,6.252 C22.056,6.684 21.432,7.032 20.844,7.032 Z" id="Shape"></path>
                        </g>
                    </g>
                    <g id="day-selector" transform="translate(165.998357, 0.000000)">
                        <rect id="Rectangle-7" stroke="#E9E9EA" stroke-width="0.8" fill="#FFFFFF" x="0.4" y="0.4" width="49.7781992" height="49.7679012"></rect>
                        <g id="Sep" transform="translate(16.501663, 32.842785)" fill="#E6E6E6" fill-rule="nonzero">
                            <path d="M0,1.31855802 L0,1.33625679 C0,2.0973037 0.557511111,2.65481481 1.31855802,2.65481481 L6.30960988,2.65481481 C7.07065679,2.65481481 7.6281679,2.0973037 7.6281679,1.33625679 L7.6281679,1.31855802 C7.6281679,0.557511111 7.07065679,0 6.30960988,0 L1.31855802,0 C0.557511111,0 0,0.557511111 0,1.31855802 Z" id="Path"></path>
                            <path d="M4.97335309,1.31855802 L4.97335309,1.33625679 C4.97335309,2.0973037 5.5308642,2.65481481 6.29191111,2.65481481 L11.282963,2.65481481 C12.0440099,2.65481481 12.601521,2.0973037 12.601521,1.33625679 L12.601521,1.31855802 C12.601521,0.557511111 12.0440099,0 11.282963,0 L6.29191111,0 C5.5308642,0 4.97335309,0.557511111 4.97335309,1.31855802 Z" id="Path"></path>
                            <path d="M9.94670617,1.31855802 L9.94670617,1.33625679 C9.94670617,2.0973037 10.5042173,2.65481481 11.2652642,2.65481481 L16.256316,2.65481481 C17.017363,2.65481481 17.5748741,2.0973037 17.5748741,1.33625679 L17.5748741,1.31855802 C17.5748741,0.557511111 17.017363,0 16.256316,0 L11.2652642,0 C10.5042173,0 9.94670617,0.557511111 9.94670617,1.31855802 Z" id="Path"></path>
                        </g>
                        <g id="Thu" transform="translate(15.353100, 14.205877)" fill="#212B36" fill-rule="nonzero">
                            <polygon id="Path" points="3.828 8.004 3.828 1.236 6.252 1.236 6.252 0 0 0 0 1.236 2.424 1.236 2.424 8.004"></polygon>
                            <path d="M12.588,8.004 L12.588,3.9 C12.588,2.712 11.964,2.064 10.716,2.064 C9.804,2.064 9.06,2.532 8.676,2.988 L8.676,0 L7.416,0 L7.416,8.004 L8.676,8.004 L8.676,3.948 C8.964,3.564 9.516,3.18 10.164,3.18 C10.872,3.18 11.328,3.444 11.328,4.356 L11.328,8.004 L12.588,8.004 Z" id="Path"></path>
                            <path d="M19.392,8.004 L19.392,2.208 L18.132,2.208 L18.132,6.276 C17.844,6.66 17.292,7.032 16.656,7.032 C15.936,7.032 15.48,6.744 15.48,5.844 L15.48,2.208 L14.22,2.208 L14.22,6.312 C14.22,7.488 14.844,8.148 16.092,8.148 C17.004,8.148 17.724,7.692 18.132,7.236 L18.132,8.004 L19.392,8.004 Z" id="Path"></path>
                        </g>
                    </g>
                    <g id="Group">
                        <path d="M19.1990522,0.4 L19.1990522,50.1679012 L6.4,50.1679012 C4.74314575,50.1679012 3.24314575,49.4963284 2.15735931,48.4105419 C1.07157288,47.3247555 0.4,45.8247555 0.4,44.1679012 L0.4,6.4 C0.4,4.74314575 1.07157288,3.24314575 2.15735931,2.15735931 C3.24314575,1.07157288 4.74314575,0.4 6.4,0.4 L19.1990522,0.4 Z" id="Rectangle-7" stroke="#E9E9EA" stroke-width="0.8" fill="#FFFFFF"></path>
                        <polyline id="Fill-302" fill="#D7D7D7" transform="translate(9.188741, 25.600000) rotate(90.000000) translate(-9.188741, -25.600000) " points="5.1224978 22.3171024 9.1887412 26.3753132 13.2549846 22.3171024 14.504092 23.5664643 9.1887412 28.8828976 3.87339035 23.5664643 5.1224978 22.3171024"></polyline>
                    </g>
                    <g id="Group" transform="translate(221.241683, 25.283951) scale(-1, 1) translate(-221.241683, -25.283951) translate(211.442157, 0.000000)">
                        <path d="M19.1990522,0.4 L19.1990522,50.1679012 L6.4,50.1679012 C4.74314575,50.1679012 3.24314575,49.4963284 2.15735931,48.4105419 C1.07157288,47.3247555 0.4,45.8247555 0.4,44.1679012 L0.4,6.4 C0.4,4.74314575 1.07157288,3.24314575 2.15735931,2.15735931 C3.24314575,1.07157288 4.74314575,0.4 6.4,0.4 L19.1990522,0.4 Z" id="Rectangle-7" stroke="#E9E9EA" stroke-width="0.8" fill="#FFFFFF"></path>
                        <polyline id="Fill-302" fill="#3D4BA2" transform="translate(9.188741, 25.600000) rotate(90.000000) translate(-9.188741, -25.600000) " points="5.1224978 22.3171024 9.1887412 26.3753132 13.2549846 22.3171024 14.504092 23.5664643 9.1887412 28.8828976 3.87339035 23.5664643 5.1224978 22.3171024"></polyline>
                    </g>
                </g>
                <g id="Pick-a-date-&amp;-time" transform="translate(0.672167, 0.000000)" fill="#1B2125" fill-rule="nonzero">
                    <path d="M1.5904,7.6832 L1.5904,5.0176 L3.4944,5.0176 C5.1072,5.0176 6.0032,3.92 6.0032,2.6208 C6.0032,1.3104 5.1184,0.2128 3.4944,0.2128 L0,0.2128 L0,7.6832 L1.5904,7.6832 Z M3.2704,3.6176 L1.5904,3.6176 L1.5904,1.6128 L3.2704,1.6128 C3.8976,1.6128 4.3792,1.9936 4.3792,2.6208 C4.3792,3.2368 3.8976,3.6176 3.2704,3.6176 Z" id="Shape"></path>
                    <path d="M7.672,1.6912 C8.1424,1.6912 8.5232,1.3104 8.5232,0.84 C8.5232,0.3696 8.1424,0 7.672,0 C7.2128,0 6.832,0.3696 6.832,0.84 C6.832,1.3104 7.2128,1.6912 7.672,1.6912 Z M8.3888,7.6832 L8.3888,2.2736 L6.9664,2.2736 L6.9664,7.6832 L8.3888,7.6832 Z" id="Shape"></path>
                    <path d="M12.32,7.8176 C13.4288,7.8176 14.1008,7.3248 14.4592,6.832 L13.5296,5.9584 C13.272,6.328 12.88,6.552 12.3872,6.552 C11.5248,6.552 10.92,5.9136 10.92,4.9728 C10.92,4.032 11.5248,3.4048 12.3872,3.4048 C12.88,3.4048 13.272,3.6064 13.5296,3.9872 L14.4592,3.1136 C14.1008,2.6208 13.4288,2.1392 12.32,2.1392 C10.6624,2.1392 9.4528,3.3152 9.4528,4.9728 C9.4528,6.6416 10.6624,7.8176 12.32,7.8176 Z" id="Path"></path>
                    <polygon id="Path" points="20.6752 7.6832 18.4688 4.7264 20.608 2.2736 18.8608 2.2736 16.8112 4.6816 16.8112 0.2128 15.3888 0.2128 15.3888 7.6832 16.8112 7.6832 16.8112 6.2944 17.4608 5.6 18.8944 7.6832"></polygon>
                    <path d="M28.952,7.6832 L28.952,4.1888 C28.952,2.632 27.8208,2.1392 26.5776,2.1392 C25.7264,2.1392 24.8752,2.3968 24.2144,2.9904 L24.7744,3.9872 C25.2224,3.5728 25.76,3.3488 26.3312,3.3488 C27.048,3.3488 27.5184,3.7072 27.5184,4.256 L27.5184,4.9392 C27.16,4.5136 26.5328,4.2784 25.8048,4.2784 C24.9424,4.2784 23.9344,4.7488 23.9344,6.0256 C23.9344,7.2352 24.9424,7.8176 25.8048,7.8176 C26.5104,7.8176 27.1488,7.56 27.5184,7.112 L27.5184,7.6832 L28.952,7.6832 Z M26.376,6.8544 C25.816,6.8544 25.3568,6.5632 25.3568,6.048 C25.3568,5.5328 25.816,5.2304 26.376,5.2304 C26.8352,5.2304 27.2832,5.3984 27.5184,5.712 L27.5184,6.384 C27.2832,6.6976 26.8352,6.8544 26.376,6.8544 Z" id="Shape"></path>
                    <path d="M38.3824,7.6832 L38.3824,0.2128 L36.9488,0.2128 L36.9488,2.968 C36.5232,2.408 35.9184,2.1392 35.28,2.1392 C33.9024,2.1392 32.8832,3.2144 32.8832,4.9728 C32.8832,6.7872 33.9248,7.8176 35.28,7.8176 C35.9408,7.8176 36.5232,7.5264 36.9488,6.9888 L36.9488,7.6832 L38.3824,7.6832 Z M35.728,6.552 C34.9104,6.552 34.3504,5.9136 34.3504,4.9728 C34.3504,4.0432 34.9104,3.4048 35.728,3.4048 C36.1984,3.4048 36.7136,3.6624 36.9488,4.0208 L36.9488,5.936 C36.7136,6.2944 36.1984,6.552 35.728,6.552 Z" id="Shape"></path>
                    <path d="M44.4752,7.6832 L44.4752,4.1888 C44.4752,2.632 43.344,2.1392 42.1008,2.1392 C41.2496,2.1392 40.3984,2.3968 39.7376,2.9904 L40.2976,3.9872 C40.7456,3.5728 41.2832,3.3488 41.8544,3.3488 C42.5712,3.3488 43.0416,3.7072 43.0416,4.256 L43.0416,4.9392 C42.6832,4.5136 42.056,4.2784 41.328,4.2784 C40.4656,4.2784 39.4576,4.7488 39.4576,6.0256 C39.4576,7.2352 40.4656,7.8176 41.328,7.8176 C42.0336,7.8176 42.672,7.56 43.0416,7.112 L43.0416,7.6832 L44.4752,7.6832 Z M41.8992,6.8544 C41.3392,6.8544 40.88,6.5632 40.88,6.048 C40.88,5.5328 41.3392,5.2304 41.8992,5.2304 C42.3584,5.2304 42.8064,5.3984 43.0416,5.712 L43.0416,6.384 C42.8064,6.6976 42.3584,6.8544 41.8992,6.8544 Z" id="Shape"></path>
                    <path d="M47.6896,7.8176 C48.2832,7.8176 48.664,7.6608 48.8768,7.4704 L48.5744,6.384 C48.496,6.4736 48.2944,6.552 48.0816,6.552 C47.768,6.552 47.5888,6.2944 47.5888,5.9472 L47.5888,3.5168 L48.6864,3.5168 L48.6864,2.2736 L47.5888,2.2736 L47.5888,0.7952 L46.1664,0.7952 L46.1664,2.2736 L45.2704,2.2736 L45.2704,3.5168 L46.1664,3.5168 L46.1664,6.328 C46.1664,7.3024 46.6928,7.8176 47.6896,7.8176 Z" id="Path"></path>
                    <path d="M52.2032,7.8176 C53.0432,7.8176 53.8944,7.56 54.432,7.0672 L53.7936,6.1264 C53.4464,6.4624 52.8192,6.6528 52.36,6.6528 C51.4416,6.6528 50.904,6.104 50.8032,5.4432 L54.824,5.4432 L54.824,5.1072 C54.824,3.3488 53.7376,2.1392 52.1136,2.1392 C50.4784,2.1392 49.3136,3.4048 49.3136,4.9728 C49.3136,6.7088 50.5568,7.8176 52.2032,7.8176 Z M53.4576,4.4576 L50.792,4.4576 C50.848,3.92 51.2288,3.304 52.1136,3.304 C53.0544,3.304 53.4128,3.9424 53.4576,4.4576 Z" id="Shape"></path>
                    <path d="M65.1728,7.6832 C64.6576,7.1568 64.176,6.664 63.728,6.1712 C64.1648,5.6112 64.5008,4.9728 64.7696,4.3792 L63.6384,3.8528 C63.504,4.2896 63.2688,4.816 62.9552,5.3088 C62.7424,5.0624 62.5296,4.8048 62.3168,4.536 C62.1264,4.312 61.9024,4.032 61.6784,3.7296 C62.5968,3.304 63.504,2.8224 63.504,1.68 C63.504,0.672 62.5968,0.1008 61.544,0.1008 C60.3008,0.1008 59.416,0.8848 59.416,1.8928 C59.416,2.3968 59.6064,2.9456 59.9088,3.4944 C59.0464,3.9312 58.296,4.5248 58.296,5.656 C58.296,7.1008 59.3936,7.8176 60.76,7.8176 C61.5552,7.8176 62.2384,7.5488 62.7984,7.1232 C63.0112,7.3472 63.2016,7.5376 63.3584,7.6832 L65.1728,7.6832 Z M60.9616,6.6976 C60.3456,6.6976 59.808,6.2496 59.808,5.5216 C59.808,5.0064 60.0656,4.6592 60.4576,4.3792 C60.6928,4.7264 60.9616,5.0624 61.208,5.3648 C61.3872,5.5888 61.7008,5.9472 62.0368,6.3168 C61.712,6.552 61.3424,6.6976 60.9616,6.6976 Z M60.8272,1.9264 C60.8272,1.456 61.1744,1.1312 61.6112,1.1312 C61.9808,1.1312 62.272,1.3664 62.272,1.7584 C62.272,2.3072 61.7792,2.632 61.152,2.9344 C60.9504,2.576 60.8272,2.2288 60.8272,1.9264 Z" id="Shape"></path>
                    <path d="M70.672,7.8176 C71.2656,7.8176 71.6464,7.6608 71.8592,7.4704 L71.5568,6.384 C71.4784,6.4736 71.2768,6.552 71.064,6.552 C70.7504,6.552 70.5712,6.2944 70.5712,5.9472 L70.5712,3.5168 L71.6688,3.5168 L71.6688,2.2736 L70.5712,2.2736 L70.5712,0.7952 L69.1488,0.7952 L69.1488,2.2736 L68.2528,2.2736 L68.2528,3.5168 L69.1488,3.5168 L69.1488,6.328 C69.1488,7.3024 69.6752,7.8176 70.672,7.8176 Z" id="Path"></path>
                    <path d="M73.3488,1.6912 C73.8192,1.6912 74.2,1.3104 74.2,0.84 C74.2,0.3696 73.8192,0 73.3488,0 C72.8896,0 72.5088,0.3696 72.5088,0.84 C72.5088,1.3104 72.8896,1.6912 73.3488,1.6912 Z M74.0656,7.6832 L74.0656,2.2736 L72.6432,2.2736 L72.6432,7.6832 L74.0656,7.6832 Z" id="Shape"></path>
                    <path d="M83.6192,7.6832 L83.6192,3.7744 C83.6192,2.6656 83.0256,2.1392 82.0288,2.1392 C81.2,2.1392 80.4832,2.632 80.1696,3.1136 C79.9792,2.5088 79.464,2.1392 78.6688,2.1392 C77.84,2.1392 77.1344,2.6544 76.8992,2.968 L76.8992,2.2736 L75.4768,2.2736 L75.4768,7.6832 L76.8992,7.6832 L76.8992,4.032 C77.112,3.7408 77.5264,3.4048 78.0192,3.4048 C78.6016,3.4048 78.8256,3.7632 78.8256,4.2672 L78.8256,7.6832 L80.2592,7.6832 L80.2592,4.032 C80.4608,3.7408 80.8752,3.4048 81.3792,3.4048 C81.9616,3.4048 82.1856,3.7632 82.1856,4.2672 L82.1856,7.6832 L83.6192,7.6832 Z" id="Path"></path>
                    <path d="M87.5728,7.8176 C88.4128,7.8176 89.264,7.56 89.8016,7.0672 L89.1632,6.1264 C88.816,6.4624 88.1888,6.6528 87.7296,6.6528 C86.8112,6.6528 86.2736,6.104 86.1728,5.4432 L90.1936,5.4432 L90.1936,5.1072 C90.1936,3.3488 89.1072,2.1392 87.4832,2.1392 C85.848,2.1392 84.6832,3.4048 84.6832,4.9728 C84.6832,6.7088 85.9264,7.8176 87.5728,7.8176 Z M88.8272,4.4576 L86.1616,4.4576 C86.2176,3.92 86.5984,3.304 87.4832,3.304 C88.424,3.304 88.7824,3.9424 88.8272,4.4576 Z" id="Shape"></path>
                </g>
                <rect id="Rectangle" stroke="#3D4BA2" stroke-width="0.8" fill="#E3E6F5" x="0" y="82.1872" width="110.324176" height="27.2" rx="6.4"></rect>
                <g id="1-pm---2-pm" transform="translate(27.610829, 91.827881)" fill="#3D4BA2" fill-rule="nonzero">
                    <polygon id="Path" points="3.0576 7.0408 3.0576 0.104 1.9968 0.104 0 2.1216 0.7072 2.86 1.8408 1.6744 1.8408 7.0408"></polygon>
                    <path d="M8.4344,7.0408 L8.4344,4.4408 L10.2752,4.4408 C11.7208,4.4408 12.532,3.4528 12.532,2.2776 C12.532,1.092 11.7312,0.104 10.2752,0.104 L7.2176,0.104 L7.2176,7.0408 L8.4344,7.0408 Z M10.1088,3.3696 L8.4344,3.3696 L8.4344,1.1752 L10.1088,1.1752 C10.7952,1.1752 11.284,1.612 11.284,2.2776 C11.284,2.9328 10.7952,3.3696 10.1088,3.3696 Z" id="Shape"></path>
                    <polygon id="Path" points="20.7584 7.0408 20.7584 0.104 19.0424 0.104 17.16 4.8672 15.2672 0.104 13.5512 0.104 13.5512 7.0408 14.768 7.0408 14.768 1.6848 16.9 7.0408 17.42 7.0408 19.5416 1.6848 19.5416 7.0408"></polygon>
                    <polygon id="Path" points="26.988 4.992 26.988 4.056 24.492 4.056 24.492 4.992"></polygon>
                    <path d="M35.5264,7.0408 L35.5264,5.9696 L32.4584,5.9696 C34.3096,4.5656 35.4848,3.4216 35.4848,2.132 C35.4848,0.7488 34.32,0 32.9784,0 C32.0008,0 31.0232,0.364 30.4096,1.1128 L31.1168,1.9032 C31.564,1.404 32.1776,1.0816 32.9888,1.0816 C33.6232,1.0816 34.2576,1.404 34.2576,2.132 C34.2576,3.1408 33.1968,4.0352 30.5032,6.0736 L30.5032,7.0408 L35.5264,7.0408 Z" id="Path"></path>
                    <path d="M40.8096,7.0408 L40.8096,4.4408 L42.6504,4.4408 C44.096,4.4408 44.9072,3.4528 44.9072,2.2776 C44.9072,1.092 44.1064,0.104 42.6504,0.104 L39.5928,0.104 L39.5928,7.0408 L40.8096,7.0408 Z M42.484,3.3696 L40.8096,3.3696 L40.8096,1.1752 L42.484,1.1752 C43.1704,1.1752 43.6592,1.612 43.6592,2.2776 C43.6592,2.9328 43.1704,3.3696 42.484,3.3696 Z" id="Shape"></path>
                    <polygon id="Path" points="53.1336 7.0408 53.1336 0.104 51.4176 0.104 49.5352 4.8672 47.6424 0.104 45.9264 0.104 45.9264 7.0408 47.1432 7.0408 47.1432 1.6848 49.2752 7.0408 49.7952 7.0408 51.9168 1.6848 51.9168 7.0408"></polygon>
                </g>
                <g id="9-am---12-pm" transform="translate(141.501862, 91.732681)" fill="#212B36" fill-rule="nonzero">
                    <path d="M2.724,8.268 C5.04,8.268 6.252,6.444 6.252,4.128 C6.252,1.908 5.304,0 2.952,0 C1.164,0 0,1.2 0,2.688 C0,4.392 1.236,5.268 2.676,5.268 C3.624,5.268 4.464,4.692 4.824,4.152 C4.836,4.224 4.836,4.308 4.836,4.38 C4.836,5.688 4.176,7.02 2.724,7.02 C1.956,7.02 1.5,6.756 1.08,6.312 L0.42,7.38 C0.96,7.908 1.728,8.268 2.724,8.268 Z M3.06,4.068 C2.184,4.068 1.416,3.624 1.416,2.64 C1.416,1.992 1.968,1.248 3.024,1.248 C4.26,1.248 4.728,2.256 4.812,3.12 C4.404,3.696 3.744,4.068 3.06,4.068 Z" id="Shape"></path>
                    <path d="M15.468,8.136 L15.468,4.284 C15.468,2.736 14.34,2.196 13.044,2.196 C12.12,2.196 11.28,2.484 10.608,3.132 L11.136,4.008 C11.628,3.504 12.204,3.264 12.852,3.264 C13.644,3.264 14.208,3.672 14.208,4.344 L14.208,5.208 C13.776,4.716 13.116,4.464 12.324,4.464 C11.376,4.464 10.32,5.016 10.32,6.36 C10.32,7.632 11.388,8.28 12.324,8.28 C13.092,8.28 13.776,8.004 14.208,7.5 L14.208,8.136 L15.468,8.136 Z M12.828,7.416 C12.12,7.416 11.58,7.008 11.58,6.372 C11.58,5.748 12.12,5.328 12.828,5.328 C13.368,5.328 13.908,5.532 14.208,5.928 L14.208,6.816 C13.908,7.212 13.368,7.416 12.828,7.416 Z" id="Shape"></path>
                    <path d="M25.476,8.136 L25.476,3.948 C25.476,2.772 24.864,2.196 23.808,2.196 C22.932,2.196 22.164,2.736 21.84,3.252 C21.648,2.628 21.12,2.196 20.256,2.196 C19.368,2.196 18.612,2.772 18.36,3.12 L18.36,2.34 L17.1,2.34 L17.1,8.136 L18.36,8.136 L18.36,4.08 C18.624,3.708 19.14,3.312 19.704,3.312 C20.388,3.312 20.652,3.732 20.652,4.356 L20.652,8.136 L21.912,8.136 L21.912,4.08 C22.164,3.696 22.692,3.312 23.256,3.312 C23.94,3.312 24.216,3.732 24.216,4.356 L24.216,8.136 L25.476,8.136 Z" id="Path"></path>
                    <polygon id="Path" points="32.628 5.772 32.628 4.692 29.748 4.692 29.748 5.772"></polygon>
                    <polygon id="Path" points="39.792 8.136 39.792 0.132 38.568 0.132 36.264 2.46 37.08 3.312 38.388 1.944 38.388 8.136"></polygon>
                    <path d="M47.04,8.136 L47.04,6.9 L43.5,6.9 C45.636,5.28 46.992,3.96 46.992,2.472 C46.992,0.876 45.648,0.012 44.1,0.012 C42.972,0.012 41.844,0.432 41.136,1.296 L41.952,2.208 C42.468,1.632 43.176,1.26 44.112,1.26 C44.844,1.26 45.576,1.632 45.576,2.472 C45.576,3.636 44.352,4.668 41.244,7.02 L41.244,8.136 L47.04,8.136 Z" id="Path"></path>
                    <path d="M54.816,8.28 C56.316,8.28 57.384,7.14 57.384,5.232 C57.384,3.324 56.316,2.196 54.816,2.196 C54.06,2.196 53.388,2.556 52.956,3.132 L52.956,2.34 L51.696,2.34 L51.696,10.344 L52.956,10.344 L52.956,7.332 C53.436,7.944 54.084,8.28 54.816,8.28 Z M54.444,7.164 C53.856,7.164 53.232,6.804 52.956,6.372 L52.956,4.08 C53.244,3.648 53.856,3.312 54.444,3.312 C55.44,3.312 56.088,4.104 56.088,5.232 C56.088,6.36 55.44,7.164 54.444,7.164 Z" id="Shape"></path>
                    <path d="M67.02,8.136 L67.02,3.948 C67.02,2.772 66.408,2.196 65.352,2.196 C64.476,2.196 63.708,2.736 63.384,3.252 C63.192,2.628 62.664,2.196 61.8,2.196 C60.912,2.196 60.156,2.772 59.904,3.12 L59.904,2.34 L58.644,2.34 L58.644,8.136 L59.904,8.136 L59.904,4.08 C60.168,3.708 60.684,3.312 61.248,3.312 C61.932,3.312 62.196,3.732 62.196,4.356 L62.196,8.136 L63.456,8.136 L63.456,4.08 C63.708,3.696 64.236,3.312 64.8,3.312 C65.484,3.312 65.76,3.732 65.76,4.356 L65.76,8.136 L67.02,8.136 Z" id="Path"></path>
                </g>
                <g id="Group-2" transform="translate(119.917582, 82.187200)">
                    <rect id="Rectangle" stroke="#E9E9EA" stroke-width="0.8" fill="#FFFFFF" x="0" y="0" width="110.324176" height="27.2" rx="6.4"></rect>
                    <g id="2-pm---3-pm" transform="translate(27.671879, 9.640681)" fill="#212B36" fill-rule="nonzero">
                        <path d="M5.1168,7.0408 L5.1168,5.9696 L2.0488,5.9696 C3.9,4.5656 5.0752,3.4216 5.0752,2.132 C5.0752,0.7488 3.9104,0 2.5688,0 C1.5912,0 0.6136,0.364 0,1.1128 L0.7072,1.9032 C1.1544,1.404 1.768,1.0816 2.5792,1.0816 C3.2136,1.0816 3.848,1.404 3.848,2.132 C3.848,3.1408 2.7872,4.0352 0.0936,6.0736 L0.0936,7.0408 L5.1168,7.0408 Z" id="Path"></path>
                        <path d="M10.4,7.0408 L10.4,4.4408 L12.2408,4.4408 C13.6864,4.4408 14.4976,3.4528 14.4976,2.2776 C14.4976,1.092 13.6968,0.104 12.2408,0.104 L9.1832,0.104 L9.1832,7.0408 L10.4,7.0408 Z M12.0744,3.3696 L10.4,3.3696 L10.4,1.1752 L12.0744,1.1752 C12.7608,1.1752 13.2496,1.612 13.2496,2.2776 C13.2496,2.9328 12.7608,3.3696 12.0744,3.3696 Z" id="Shape"></path>
                        <polygon id="Path" points="22.724 7.0408 22.724 0.104 21.008 0.104 19.1256 4.8672 17.2328 0.104 15.5168 0.104 15.5168 7.0408 16.7336 7.0408 16.7336 1.6848 18.8656 7.0408 19.3856 7.0408 21.5072 1.6848 21.5072 7.0408"></polygon>
                        <polygon id="Path" points="28.9536 4.992 28.9536 4.056 26.4576 4.056 26.4576 4.992"></polygon>
                        <path d="M34.8192,7.1656 C36.4312,7.1656 37.44,6.3232 37.44,5.1376 C37.44,4.0664 36.4936,3.5256 35.828,3.4528 C36.5352,3.3384 37.3256,2.7976 37.3256,1.8616 C37.3256,0.7072 36.3272,0 34.8296,0 C33.6752,0 32.8328,0.4576 32.292,1.092 L32.916,1.8512 C33.4152,1.3416 33.9976,1.0816 34.7152,1.0816 C35.4848,1.0816 36.1192,1.4144 36.1192,2.0488 C36.1192,2.6832 35.5056,2.964 34.684,2.964 C34.4136,2.964 34.008,2.964 33.8936,2.9536 L33.8936,4.056 C33.9976,4.0456 34.3928,4.0352 34.684,4.0352 C35.6824,4.0352 36.2232,4.3368 36.2232,5.0232 C36.2232,5.6576 35.6928,6.084 34.7776,6.084 C34.0392,6.084 33.3112,5.7616 32.864,5.2416 L32.1984,6.0424 C32.6768,6.6664 33.592,7.1656 34.8192,7.1656 Z" id="Path"></path>
                        <path d="M42.5568,7.0408 L42.5568,4.4408 L44.3976,4.4408 C45.8432,4.4408 46.6544,3.4528 46.6544,2.2776 C46.6544,1.092 45.8536,0.104 44.3976,0.104 L41.34,0.104 L41.34,7.0408 L42.5568,7.0408 Z M44.2312,3.3696 L42.5568,3.3696 L42.5568,1.1752 L44.2312,1.1752 C44.9176,1.1752 45.4064,1.612 45.4064,2.2776 C45.4064,2.9328 44.9176,3.3696 44.2312,3.3696 Z" id="Shape"></path>
                        <polygon id="Path" points="54.8808 7.0408 54.8808 0.104 53.1648 0.104 51.2824 4.8672 49.3896 0.104 47.6736 0.104 47.6736 7.0408 48.8904 7.0408 48.8904 1.6848 51.0224 7.0408 51.5424 7.0408 53.664 1.6848 53.664 7.0408"></polygon>
                    </g>
                </g>
                <g id="Group-2" transform="translate(0.000000, 120.587200)">
                    <rect id="Rectangle" stroke="#E9E9EA" stroke-width="0.8" fill="#FFFFFF" x="0" y="0" width="110.324176" height="27.2" rx="6.4"></rect>
                    <g id="3-pm---4-pm" transform="translate(27.573079, 9.640681)" fill="#212B36" fill-rule="nonzero">
                        <path d="M2.6208,7.1656 C4.2328,7.1656 5.2416,6.3232 5.2416,5.1376 C5.2416,4.0664 4.2952,3.5256 3.6296,3.4528 C4.3368,3.3384 5.1272,2.7976 5.1272,1.8616 C5.1272,0.7072 4.1288,0 2.6312,0 C1.4768,0 0.6344,0.4576 0.0936,1.092 L0.7176,1.8512 C1.2168,1.3416 1.7992,1.0816 2.5168,1.0816 C3.2864,1.0816 3.9208,1.4144 3.9208,2.0488 C3.9208,2.6832 3.3072,2.964 2.4856,2.964 C2.2152,2.964 1.8096,2.964 1.6952,2.9536 L1.6952,4.056 C1.7992,4.0456 2.1944,4.0352 2.4856,4.0352 C3.484,4.0352 4.0248,4.3368 4.0248,5.0232 C4.0248,5.6576 3.4944,6.084 2.5792,6.084 C1.8408,6.084 1.1128,5.7616 0.6656,5.2416 L0,6.0424 C0.4784,6.6664 1.3936,7.1656 2.6208,7.1656 Z" id="Path"></path>
                        <path d="M10.3584,7.0408 L10.3584,4.4408 L12.1992,4.4408 C13.6448,4.4408 14.456,3.4528 14.456,2.2776 C14.456,1.092 13.6552,0.104 12.1992,0.104 L9.1416,0.104 L9.1416,7.0408 L10.3584,7.0408 Z M12.0328,3.3696 L10.3584,3.3696 L10.3584,1.1752 L12.0328,1.1752 C12.7192,1.1752 13.208,1.612 13.208,2.2776 C13.208,2.9328 12.7192,3.3696 12.0328,3.3696 Z" id="Shape"></path>
                        <polygon id="Path" points="22.6824 7.0408 22.6824 0.104 20.9664 0.104 19.084 4.8672 17.1912 0.104 15.4752 0.104 15.4752 7.0408 16.692 7.0408 16.692 1.6848 18.824 7.0408 19.344 7.0408 21.4656 1.6848 21.4656 7.0408"></polygon>
                        <polygon id="Path" points="28.912 4.992 28.912 4.056 26.416 4.056 26.416 4.992"></polygon>
                        <path d="M36.7224,7.0408 L36.7224,5.4704 L37.648,5.4704 L37.648,4.3992 L36.7224,4.3992 L36.7224,0.104 L35.048,0.104 L32.1984,4.4928 L32.1984,5.4704 L35.5056,5.4704 L35.5056,7.0408 L36.7224,7.0408 Z M35.5056,4.3992 L33.3944,4.3992 L35.5056,1.196 L35.5056,4.3992 Z" id="Shape"></path>
                        <path d="M42.5776,7.0408 L42.5776,4.4408 L44.4184,4.4408 C45.864,4.4408 46.6752,3.4528 46.6752,2.2776 C46.6752,1.092 45.8744,0.104 44.4184,0.104 L41.3608,0.104 L41.3608,7.0408 L42.5776,7.0408 Z M44.252,3.3696 L42.5776,3.3696 L42.5776,1.1752 L44.252,1.1752 C44.9384,1.1752 45.4272,1.612 45.4272,2.2776 C45.4272,2.9328 44.9384,3.3696 44.252,3.3696 Z" id="Shape"></path>
                        <polygon id="Path" points="54.9016 7.0408 54.9016 0.104 53.1856 0.104 51.3032 4.8672 49.4104 0.104 47.6944 0.104 47.6944 7.0408 48.9112 7.0408 48.9112 1.6848 51.0432 7.0408 51.5632 7.0408 53.6848 1.6848 53.6848 7.0408"></polygon>
                    </g>
                </g>
                <g id="Group-2" transform="translate(119.917582, 120.587200)">
                    <rect id="Rectangle" stroke="#E9E9EA" stroke-width="0.8" fill="#FFFFFF" x="0" y="0" width="110.324176" height="27.2" rx="6.4"></rect>
                    <g id="4-pm---5-pm" transform="translate(27.479479, 9.744681)" fill="#212B36" fill-rule="nonzero">
                        <path d="M4.524,6.9368 L4.524,5.3664 L5.4496,5.3664 L5.4496,4.2952 L4.524,4.2952 L4.524,0 L2.8496,0 L0,4.3888 L0,5.3664 L3.3072,5.3664 L3.3072,6.9368 L4.524,6.9368 Z M3.3072,4.2952 L1.196,4.2952 L3.3072,1.092 L3.3072,4.2952 Z" id="Shape"></path>
                        <path d="M10.3792,6.9368 L10.3792,4.3368 L12.22,4.3368 C13.6656,4.3368 14.4768,3.3488 14.4768,2.1736 C14.4768,0.988 13.676,0 12.22,0 L9.1624,0 L9.1624,6.9368 L10.3792,6.9368 Z M12.0536,3.2656 L10.3792,3.2656 L10.3792,1.0712 L12.0536,1.0712 C12.74,1.0712 13.2288,1.508 13.2288,2.1736 C13.2288,2.8288 12.74,3.2656 12.0536,3.2656 Z" id="Shape"></path>
                        <polygon id="Path" points="22.7032 6.9368 22.7032 0 20.9872 0 19.1048 4.7632 17.212 0 15.496 0 15.496 6.9368 16.7128 6.9368 16.7128 1.5808 18.8448 6.9368 19.3648 6.9368 21.4864 1.5808 21.4864 6.9368"></polygon>
                        <polygon id="Path" points="28.9328 4.888 28.9328 3.952 26.4368 3.952 26.4368 4.888"></polygon>
                        <path d="M35.0896,7.0616 C36.6392,7.0616 37.7416,6.1464 37.7416,4.7112 C37.7416,3.2864 36.6912,2.4752 35.516,2.4752 C34.8504,2.4752 34.2888,2.7456 33.9456,3.068 L33.9456,1.0712 L37.2736,1.0712 L37.2736,0 L32.7288,0 L32.7288,3.8688 L33.592,4.1184 C34.0392,3.7024 34.528,3.5256 35.1104,3.5256 C35.9632,3.5256 36.504,4.0144 36.504,4.7528 C36.504,5.4392 35.9632,5.98 35.0792,5.98 C34.3096,5.98 33.6752,5.6888 33.2176,5.148 L32.5208,5.9904 C33.0824,6.6456 33.904,7.0616 35.0896,7.0616 Z" id="Path"></path>
                        <path d="M42.8064,6.9368 L42.8064,4.3368 L44.6472,4.3368 C46.0928,4.3368 46.904,3.3488 46.904,2.1736 C46.904,0.988 46.1032,0 44.6472,0 L41.5896,0 L41.5896,6.9368 L42.8064,6.9368 Z M44.4808,3.2656 L42.8064,3.2656 L42.8064,1.0712 L44.4808,1.0712 C45.1672,1.0712 45.656,1.508 45.656,2.1736 C45.656,2.8288 45.1672,3.2656 44.4808,3.2656 Z" id="Shape"></path>
                        <polygon id="Path" points="55.1304 6.9368 55.1304 0 53.4144 0 51.532 4.7632 49.6392 0 47.9232 0 47.9232 6.9368 49.14 6.9368 49.14 1.5808 51.272 6.9368 51.792 6.9368 53.9136 1.5808 53.9136 6.9368"></polygon>
                    </g>
                </g>
            </g>
        </g>
    </g>
</svg>