<?xml version="1.0" encoding="UTF-8"?>
<svg width="173px" height="244px" viewBox="0 0 173 244" version="1.1" xmlns="http://www.w3.org/2000/svg" xmlns:xlink="http://www.w3.org/1999/xlink">
    <title>estimate</title>
    <g id="landing" stroke="none" stroke-width="1" fill="none" fill-rule="evenodd">
        <g id="estimate">
            <g id="Group-3" fill="#FFFFFF">
                <path d="M11.0759841,-2.72050242e-15 L161.924016,0 C165.775377,0 167.171973,0.40100664 168.579973,1.15401328 C169.987973,1.90701992 171.09298,3.01202656 171.845987,4.42002656 C172.598993,5.82802656 173,7.22462311 173,11.0759841 L173,232.924016 C173,236.775377 172.598993,238.171973 171.845987,239.579973 C171.09298,240.987973 169.987973,242.09298 168.579973,242.845987 C167.171973,243.598993 165.775377,244 161.924016,244 L11.0759841,244 C7.22462311,244 5.82802656,243.598993 4.42002656,242.845987 C3.01202656,242.09298 1.90701992,240.987973 1.15401328,239.579973 C0.40100664,238.171973 -1.58069025e-15,236.775377 2.72050242e-15,232.924016 L0,11.0759841 C0,7.22462311 0.40100664,5.82802656 1.15401328,4.42002656 C1.90701992,3.01202656 3.01202656,1.90701992 4.42002656,1.15401328 C5.82802656,0.40100664 7.22462311,1.58069025e-15 11.0759841,-2.72050242e-15 Z" id="Rectangle"></path>
            </g>
            <path d="M19.8784338,184.804734 L153.121566,184.804734 C155.68914,184.804734 156.620205,185.072071 157.558871,185.574076 C158.497538,186.07608 159.234209,186.812751 159.736213,187.751418 C160.238218,188.690085 160.505556,189.621149 160.505556,192.188723 L160.505556,202.446385 C160.505556,205.013959 160.238218,205.945024 159.736213,206.88369 C159.234209,207.822357 158.497538,208.559028 157.558871,209.061033 C156.620205,209.563037 155.68914,209.830375 153.121566,209.830375 L19.8784338,209.830375 C17.3108598,209.830375 16.3797955,209.563037 15.4411288,209.061033 C14.5024622,208.559028 13.7657911,207.822357 13.2637866,206.88369 C12.7617822,205.945024 12.4944444,205.013959 12.4944444,202.446385 L12.4944444,192.188723 C12.4944444,189.621149 12.7617822,188.690085 13.2637866,187.751418 C13.7657911,186.812751 14.5024622,186.07608 15.4411288,185.574076 C16.3797955,185.072071 17.3108598,184.804734 19.8784338,184.804734 Z" id="Rectangle" fill="#000000"></path>
            <g id="Group-5" transform="translate(12.469870, 77.342444)">
                <g id="Estimated" transform="translate(0.638669, 83.361715)" fill="#1B2125" fill-rule="nonzero">
                    <polygon id="Path" points="4.5674496 6.6382848 4.5674496 5.4286848 1.3741056 5.4286848 1.3741056 3.9578112 4.499712 3.9578112 4.499712 2.7482112 1.3741056 2.7482112 1.3741056 1.3934592 4.5674496 1.3934592 4.5674496 0.1838592 0 0.1838592 0 6.6382848"></polygon>
                    <path d="M7.2963072,6.7544064 C8.5929984,6.7544064 9.3284352,6.1254144 9.3284352,5.2641792 C9.3284352,3.3772032 6.5511936,3.9578112 6.5511936,3.2707584 C6.5511936,3.0094848 6.8414976,2.8159488 7.2866304,2.8159488 C7.8575616,2.8159488 8.3897856,3.0675456 8.6704128,3.3578496 L9.1639296,2.4869376 C8.6994432,2.1192192 8.0704512,1.8482688 7.2866304,1.8482688 C6.048,1.8482688 5.370624,2.5353216 5.370624,3.3191424 C5.370624,5.1577344 8.1381888,4.5287424 8.1381888,5.2932096 C8.1381888,5.5835136 7.886592,5.7867264 7.354368,5.7867264 C6.77376,5.7867264 6.0867072,5.467392 5.7383424,5.1383808 L5.2061184,6.0286464 C5.6996352,6.483456 6.483456,6.7544064 7.2963072,6.7544064 Z" id="Path"></path>
                    <path d="M11.7960192,6.7544064 C12.3088896,6.7544064 12.6379008,6.6189312 12.82176,6.4544256 L12.5604864,5.515776 C12.4927488,5.5931904 12.3185664,5.660928 12.1347072,5.660928 C11.8637568,5.660928 11.708928,5.4383616 11.708928,5.1383808 L11.708928,3.0385152 L12.6572544,3.0385152 L12.6572544,1.9643904 L11.708928,1.9643904 L11.708928,0.6870528 L10.4799744,0.6870528 L10.4799744,1.9643904 L9.7058304,1.9643904 L9.7058304,3.0385152 L10.4799744,3.0385152 L10.4799744,5.467392 C10.4799744,6.3092736 10.934784,6.7544064 11.7960192,6.7544064 Z" id="Path"></path>
                    <path d="M14.1087744,1.4611968 C14.5152,1.4611968 14.8442112,1.1321856 14.8442112,0.72576 C14.8442112,0.3193344 14.5152,0 14.1087744,0 C13.7120256,0 13.3830144,0.3193344 13.3830144,0.72576 C13.3830144,1.1321856 13.7120256,1.4611968 14.1087744,1.4611968 Z M14.7280896,6.6382848 L14.7280896,1.9643904 L13.499136,1.9643904 L13.499136,6.6382848 L14.7280896,6.6382848 Z" id="Shape"></path>
                    <path d="M22.9824,6.6382848 L22.9824,3.2610816 C22.9824,2.3030784 22.4695296,1.8482688 21.6082944,1.8482688 C20.8922112,1.8482688 20.272896,2.274048 20.0019456,2.6901504 C19.83744,2.1676032 19.3923072,1.8482688 18.7052544,1.8482688 C17.9891712,1.8482688 17.3795328,2.2934016 17.17632,2.564352 L17.17632,1.9643904 L15.9473664,1.9643904 L15.9473664,6.6382848 L17.17632,6.6382848 L17.17632,3.483648 C17.3601792,3.2320512 17.7182208,2.9417472 18.144,2.9417472 C18.6471936,2.9417472 18.8407296,3.2514048 18.8407296,3.6868608 L18.8407296,6.6382848 L20.07936,6.6382848 L20.07936,3.483648 C20.2535424,3.2320512 20.611584,2.9417472 21.04704,2.9417472 C21.5502336,2.9417472 21.7437696,3.2514048 21.7437696,3.6868608 L21.7437696,6.6382848 L22.9824,6.6382848 Z" id="Path"></path>
                    <path d="M28.2465792,6.6382848 L28.2465792,3.6191232 C28.2465792,2.274048 27.2692224,1.8482688 26.1950976,1.8482688 C25.4596608,1.8482688 24.724224,2.0708352 24.1532928,2.5837056 L24.6371328,3.4449408 C25.0242048,3.0868992 25.4886912,2.8933632 25.982208,2.8933632 C26.6015232,2.8933632 27.0079488,3.2030208 27.0079488,3.677184 L27.0079488,4.2674688 C26.6982912,3.8997504 26.1563904,3.6965376 25.5273984,3.6965376 C24.7822848,3.6965376 23.9113728,4.1029632 23.9113728,5.2061184 C23.9113728,6.2512128 24.7822848,6.7544064 25.5273984,6.7544064 C26.1370368,6.7544064 26.6886144,6.53184 27.0079488,6.144768 L27.0079488,6.6382848 L28.2465792,6.6382848 Z M26.0209152,5.9222016 C25.5370752,5.9222016 25.1403264,5.6706048 25.1403264,5.225472 C25.1403264,4.7803392 25.5370752,4.5190656 26.0209152,4.5190656 C26.417664,4.5190656 26.804736,4.6642176 27.0079488,4.935168 L27.0079488,5.515776 C26.804736,5.7867264 26.417664,5.9222016 26.0209152,5.9222016 Z" id="Shape"></path>
                    <path d="M31.0238208,6.7544064 C31.5366912,6.7544064 31.8657024,6.6189312 32.0495616,6.4544256 L31.788288,5.515776 C31.7205504,5.5931904 31.546368,5.660928 31.3625088,5.660928 C31.0915584,5.660928 30.9367296,5.4383616 30.9367296,5.1383808 L30.9367296,3.0385152 L31.885056,3.0385152 L31.885056,1.9643904 L30.9367296,1.9643904 L30.9367296,0.6870528 L29.707776,0.6870528 L29.707776,1.9643904 L28.933632,1.9643904 L28.933632,3.0385152 L29.707776,3.0385152 L29.707776,5.467392 C29.707776,6.3092736 30.1625856,6.7544064 31.0238208,6.7544064 Z" id="Path"></path>
                    <path d="M34.9235712,6.7544064 C35.6493312,6.7544064 36.384768,6.53184 36.8492544,6.1060608 L36.2976768,5.2932096 C35.997696,5.5835136 35.4557952,5.7480192 35.0590464,5.7480192 C34.2655488,5.7480192 33.8010624,5.273856 33.7139712,4.7029248 L37.1879424,4.7029248 L37.1879424,4.4126208 C37.1879424,2.8933632 36.2492928,1.8482688 34.8461568,1.8482688 C33.433344,1.8482688 32.4269568,2.9417472 32.4269568,4.2964992 C32.4269568,5.7964032 33.5010816,6.7544064 34.9235712,6.7544064 Z M36.0073728,3.8513664 L33.7042944,3.8513664 C33.7526784,3.38688 34.0816896,2.854656 34.8461568,2.854656 C35.659008,2.854656 35.9686656,3.4062336 36.0073728,3.8513664 Z" id="Shape"></path>
                    <path d="M42.529536,6.6382848 L42.529536,0.1838592 L41.2909056,0.1838592 L41.2909056,2.564352 C40.9231872,2.080512 40.40064,1.8482688 39.8490624,1.8482688 C38.658816,1.8482688 37.7782272,2.7772416 37.7782272,4.2964992 C37.7782272,5.8641408 38.6781696,6.7544064 39.8490624,6.7544064 C40.4199936,6.7544064 40.9231872,6.5028096 41.2909056,6.0383232 L41.2909056,6.6382848 L42.529536,6.6382848 Z M40.2361344,5.660928 C39.529728,5.660928 39.045888,5.1093504 39.045888,4.2964992 C39.045888,3.4933248 39.529728,2.9417472 40.2361344,2.9417472 C40.64256,2.9417472 41.0876928,3.1643136 41.2909056,3.4739712 L41.2909056,5.128704 C41.0876928,5.4383616 40.64256,5.660928 40.2361344,5.660928 Z" id="Shape"></path>
                </g>
                <g id="$175" transform="translate(126.752269, 81.632218)" fill="#19AF5E" fill-rule="nonzero">
                    <path d="M2.2934016,8.3994624 L3.2030208,8.3994624 L3.2030208,7.5285504 C4.6255104,7.3833984 5.3319168,6.5511936 5.3319168,5.4770688 C5.3319168,4.1513472 4.209408,3.7642752 3.2030208,3.5126784 L3.2030208,2.17728 C3.6384768,2.2837248 4.064256,2.4869376 4.4126208,2.806272 L5.177088,1.7805312 C4.6545408,1.2966912 3.9868416,1.0063872 3.2030208,0.919296 L3.2030208,0 L2.2934016,0 L2.2934016,0.8999424 C0.9870336,1.0354176 0.2128896,1.8676224 0.2128896,2.8449792 C0.2128896,4.161024 1.2966912,4.5384192 2.2934016,4.7803392 L2.2934016,6.2802432 C1.645056,6.1641216 1.112832,5.8254336 0.7547904,5.4480384 L0,6.5221632 C0.532224,7.0543872 1.2773376,7.4414592 2.2934016,7.5285504 L2.2934016,8.3994624 Z M3.9287808,5.612544 C3.9287808,5.9222016 3.6965376,6.2028288 3.2030208,6.2995968 L3.2030208,5.0029056 C3.6288,5.1383808 3.9287808,5.2932096 3.9287808,5.612544 Z M1.6257024,2.7385344 C1.6257024,2.4095232 1.8676224,2.17728 2.2934016,2.1192192 L2.2934016,3.290112 C1.8966528,3.1643136 1.6257024,3.0191616 1.6257024,2.7385344 Z" id="Shape"></path>
                    <polygon id="Path" points="8.9897472 7.4317824 8.9897472 0.9773568 7.789824 0.9773568 5.757696 3.0191616 6.5415168 3.8416896 7.6156416 2.7482112 7.6156416 7.4317824"></polygon>
                    <polygon id="Path" points="12.3088896 7.4317824 14.708736 1.93536 14.708736 0.9773568 9.8606592 0.9773568 9.8606592 2.1869568 13.112064 2.1869568 10.7993088 7.4317824"></polygon>
                    <path d="M17.8633728,7.547904 C19.4213376,7.547904 20.4470784,6.676992 20.4470784,5.3125632 C20.4470784,4.0061952 19.4697216,3.2223744 18.3762432,3.2223744 C17.7859584,3.2223744 17.2634112,3.4546176 16.9537536,3.7642752 L16.9537536,2.1869568 L20.0116224,2.1869568 L20.0116224,0.9773568 L15.579648,0.9773568 L15.579648,4.6738944 L16.5376512,4.935168 C16.9247232,4.5674496 17.3601792,4.4126208 17.8924032,4.4126208 C18.62784,4.4126208 19.0536192,4.7996928 19.0536192,5.370624 C19.0536192,5.8931712 18.6181632,6.3286272 17.853696,6.3286272 C17.17632,6.3286272 16.5763584,6.0770304 16.1409024,5.6222208 L15.3764352,6.580224 C15.9280128,7.1801856 16.740864,7.547904 17.8633728,7.547904 Z" id="Path"></path>
                </g>
                <g id="Subtotal" transform="translate(0.289454, 41.205807)" fill="#1B2125" fill-rule="nonzero">
                    <path d="M1.6515072,4.451328 C2.8127232,4.451328 3.2385024,3.806208 3.2385024,3.1868928 C3.2385024,1.580544 0.6902784,2.1353472 0.6902784,1.1676672 C0.6902784,0.7612416 1.064448,0.48384 1.5740928,0.48384 C2.0450304,0.48384 2.4966144,0.6386688 2.8191744,0.999936 L3.1417344,0.6064128 C2.7804672,0.225792 2.2708224,0 1.6192512,0 C0.7676928,0 0.1354752,0.4902912 0.1354752,1.1999232 C0.1354752,2.7353088 2.6836992,2.1159936 2.6836992,3.2256 C2.6836992,3.5610624 2.4385536,3.9739392 1.6708608,3.9739392 C1.064448,3.9739392 0.5999616,3.677184 0.32256,3.354624 L0,3.7675008 C0.354816,4.1674752 0.9096192,4.451328 1.6515072,4.451328 Z" id="Path"></path>
                    <path d="M6.6060288,4.3739136 L6.6060288,1.257984 L6.1221888,1.257984 L6.1221888,3.54816 C5.9415552,3.7997568 5.580288,4.0190976 5.2061184,4.0190976 C4.7803392,4.0190976 4.5029376,3.8578176 4.5029376,3.3094656 L4.5029376,1.257984 L4.0190976,1.257984 L4.0190976,3.4578432 C4.0190976,4.128768 4.3610112,4.451328 5.0125824,4.451328 C5.4770688,4.451328 5.8834944,4.2061824 6.1221888,3.935232 L6.1221888,4.3739136 L6.6060288,4.3739136 Z" id="Path"></path>
                    <path d="M8.0575488,3.5288064 L8.0575488,2.1159936 C8.22528,1.8450432 8.6059008,1.6128 8.9929728,1.6128 C9.6187392,1.6128 9.9929088,2.128896 9.9929088,2.8191744 C9.9929088,3.5094528 9.6187392,4.0190976 8.9929728,4.0190976 C8.6059008,4.0190976 8.22528,3.7997568 8.0575488,3.5288064 Z M8.0575488,4.3739136 L8.0575488,3.9094272 C8.289792,4.225536 8.6704128,4.451328 9.1090944,4.451328 C9.9219456,4.451328 10.4961024,3.8320128 10.4961024,2.8191744 C10.4961024,1.8192384 9.9283968,1.1805696 9.1090944,1.1805696 C8.6897664,1.1805696 8.3091456,1.387008 8.0575488,1.7289216 L8.0575488,0.0709632 L7.5737088,0.0709632 L7.5737088,4.3739136 L8.0575488,4.3739136 Z" id="Shape"></path>
                    <path d="M12.0766464,4.451328 C12.354048,4.451328 12.5282304,4.3674624 12.6508032,4.2513408 L12.5088768,3.8836224 C12.4443648,3.9545856 12.321792,4.0190976 12.1798656,4.0190976 C11.9734272,4.0190976 11.870208,3.8513664 11.870208,3.6191232 L11.870208,1.6837632 L12.5024256,1.6837632 L12.5024256,1.257984 L11.870208,1.257984 L11.870208,0.4064256 L11.3799168,0.4064256 L11.3799168,1.257984 L10.8638208,1.257984 L10.8638208,1.6837632 L11.3799168,1.6837632 L11.3799168,3.7223424 C11.3799168,4.1868288 11.61216,4.451328 12.0766464,4.451328 Z" id="Path"></path>
                    <path d="M14.5410048,4.451328 C15.4893312,4.451328 16.0828416,3.7158912 16.0828416,2.8127232 C16.0828416,1.9095552 15.4893312,1.1805696 14.5410048,1.1805696 C13.5926784,1.1805696 12.999168,1.9095552 12.999168,2.8127232 C12.999168,3.7158912 13.5926784,4.451328 14.5410048,4.451328 Z M14.5410048,4.0190976 C13.8765312,4.0190976 13.5088128,3.451392 13.5088128,2.8127232 C13.5088128,2.1805056 13.8765312,1.6128 14.5410048,1.6128 C15.2054784,1.6128 15.5731968,2.1805056 15.5731968,2.8127232 C15.5731968,3.451392 15.2054784,4.0190976 14.5410048,4.0190976 Z" id="Shape"></path>
                    <path d="M17.6633856,4.451328 C17.9407872,4.451328 18.1149696,4.3674624 18.2375424,4.2513408 L18.095616,3.8836224 C18.031104,3.9545856 17.9085312,4.0190976 17.7666048,4.0190976 C17.5601664,4.0190976 17.4569472,3.8513664 17.4569472,3.6191232 L17.4569472,1.6837632 L18.0891648,1.6837632 L18.0891648,1.257984 L17.4569472,1.257984 L17.4569472,0.4064256 L16.966656,0.4064256 L16.966656,1.257984 L16.45056,1.257984 L16.45056,1.6837632 L16.966656,1.6837632 L16.966656,3.7223424 C16.966656,4.1868288 17.1988992,4.451328 17.6633856,4.451328 Z" id="Path"></path>
                    <path d="M21.1986432,4.3739136 L21.1986432,2.2321152 C21.1986432,1.4773248 20.6567424,1.1805696 19.9922688,1.1805696 C19.482624,1.1805696 19.0826496,1.3483008 18.7471872,1.6966656 L18.9729792,2.032128 C19.2503808,1.7289216 19.5535872,1.5998976 19.9277568,1.5998976 C20.3793408,1.5998976 20.7148032,1.838592 20.7148032,2.2514688 L20.7148032,2.8127232 C20.4632064,2.5288704 20.1083904,2.3933952 19.6826112,2.3933952 C19.1536128,2.3933952 18.5988096,2.7159552 18.5988096,3.419136 C18.5988096,4.096512 19.160064,4.451328 19.6826112,4.451328 C20.1019392,4.451328 20.4632064,4.3029504 20.7148032,4.0190976 L20.7148032,4.3739136 L21.1986432,4.3739136 Z M19.8632448,4.1029632 C19.4052096,4.1029632 19.0891008,3.8191104 19.0891008,3.419136 C19.0891008,3.0256128 19.4052096,2.74176 19.8632448,2.74176 C20.1987072,2.74176 20.5277184,2.870784 20.7148032,3.1223808 L20.7148032,3.7158912 C20.5277184,3.9739392 20.1987072,4.1029632 19.8632448,4.1029632 Z" id="Shape"></path>
                    <polygon id="Path" points="22.6566144 4.3739136 22.6566144 0.0709632 22.1727744 0.0709632 22.1727744 4.3739136"></polygon>
                </g>
                <g id="Discount" transform="translate(0.542236, 56.129770)" fill="#1B2125" fill-rule="nonzero">
                    <path d="M1.4708736,4.3029504 C2.8127232,4.3029504 3.677184,3.3804288 3.677184,2.1547008 C3.677184,0.935424 2.8127232,0 1.4708736,0 L0,0 L0,4.3029504 L1.4708736,4.3029504 Z M1.4708736,3.8255616 L0.5354496,3.8255616 L0.5354496,0.4773888 L1.4708736,0.4773888 C2.5353216,0.4773888 3.1223808,1.225728 3.1223808,2.1547008 C3.1223808,3.0772224 2.515968,3.8255616 1.4708736,3.8255616 Z" id="Shape"></path>
                    <path d="M4.741632,0.741888 C4.9222656,0.741888 5.064192,0.5999616 5.064192,0.419328 C5.064192,0.2386944 4.9222656,0.0903168 4.741632,0.0903168 C4.5609984,0.0903168 4.4126208,0.2386944 4.4126208,0.419328 C4.4126208,0.5999616 4.5609984,0.741888 4.741632,0.741888 Z M4.9803264,4.3029504 L4.9803264,1.1870208 L4.4964864,1.1870208 L4.4964864,4.3029504 L4.9803264,4.3029504 Z" id="Shape"></path>
                    <path d="M6.9414912,4.3803648 C7.74144,4.3803648 8.160768,3.9610368 8.160768,3.4384896 C8.160768,2.225664 6.2318592,2.6707968 6.2318592,1.9934208 C6.2318592,1.7160192 6.4963584,1.5031296 6.9221376,1.5031296 C7.3285632,1.5031296 7.6640256,1.6708608 7.8511104,1.8966528 L8.0769024,1.5611904 C7.8317568,1.3095936 7.4575872,1.1096064 6.9221376,1.1096064 C6.1802496,1.1096064 5.7673728,1.516032 5.7673728,2.0063232 C5.7673728,3.161088 7.6962816,2.6966016 7.6962816,3.451392 C7.6962816,3.7610496 7.4317824,3.9868416 6.9543936,3.9868416 C6.5286144,3.9868416 6.1350912,3.7804032 5.9286528,3.5417088 L5.6835072,3.8900736 C5.999616,4.2190848 6.4253952,4.3803648 6.9414912,4.3803648 Z" id="Path"></path>
                    <path d="M10.32192,4.3803648 C10.8896256,4.3803648 11.225088,4.1481216 11.4637824,3.838464 L11.1412224,3.5417088 C10.934784,3.8191104 10.6702848,3.9481344 10.3477248,3.9481344 C9.6897024,3.9481344 9.2703744,3.4320384 9.2703744,2.74176 C9.2703744,2.0514816 9.6897024,1.5418368 10.3477248,1.5418368 C10.6702848,1.5418368 10.934784,1.6579584 11.1412224,1.9418112 L11.4637824,1.6515072 C11.225088,1.3418496 10.8896256,1.1096064 10.32192,1.1096064 C9.3929472,1.1096064 8.7671808,1.8192384 8.7671808,2.74176 C8.7671808,3.6642816 9.3929472,4.3803648 10.32192,4.3803648 Z" id="Path"></path>
                    <path d="M13.5088128,4.3803648 C14.4571392,4.3803648 15.0506496,3.644928 15.0506496,2.74176 C15.0506496,1.838592 14.4571392,1.1096064 13.5088128,1.1096064 C12.5604864,1.1096064 11.966976,1.838592 11.966976,2.74176 C11.966976,3.644928 12.5604864,4.3803648 13.5088128,4.3803648 Z M13.5088128,3.9481344 C12.8443392,3.9481344 12.4766208,3.3804288 12.4766208,2.74176 C12.4766208,2.1095424 12.8443392,1.5418368 13.5088128,1.5418368 C14.1732864,1.5418368 14.5410048,2.1095424 14.5410048,2.74176 C14.5410048,3.3804288 14.1732864,3.9481344 13.5088128,3.9481344 Z" id="Shape"></path>
                    <path d="M18.4246272,4.3029504 L18.4246272,1.1870208 L17.9407872,1.1870208 L17.9407872,3.4771968 C17.7601536,3.7287936 17.3988864,3.9481344 17.0247168,3.9481344 C16.5989376,3.9481344 16.321536,3.7868544 16.321536,3.2385024 L16.321536,1.1870208 L15.837696,1.1870208 L15.837696,3.38688 C15.837696,4.0578048 16.1796096,4.3803648 16.8311808,4.3803648 C17.2956672,4.3803648 17.7020928,4.1352192 17.9407872,3.8642688 L17.9407872,4.3029504 L18.4246272,4.3029504 Z" id="Path"></path>
                    <path d="M21.9792384,4.3029504 L21.9792384,2.1159936 C21.9792384,1.4386176 21.6373248,1.1096064 20.9922048,1.1096064 C20.5212672,1.1096064 20.095488,1.3741056 19.8761472,1.6386048 L19.8761472,1.1870208 L19.3923072,1.1870208 L19.3923072,4.3029504 L19.8761472,4.3029504 L19.8761472,2.0256768 C20.063232,1.77408 20.418048,1.5418368 20.7986688,1.5418368 C21.2179968,1.5418368 21.5018496,1.709568 21.5018496,2.2643712 L21.5018496,4.3029504 L21.9792384,4.3029504 Z" id="Path"></path>
                    <path d="M23.7468672,4.3803648 C24.0242688,4.3803648 24.1984512,4.2964992 24.321024,4.1803776 L24.1790976,3.8126592 C24.1145856,3.8836224 23.9920128,3.9481344 23.8500864,3.9481344 C23.643648,3.9481344 23.5404288,3.7804032 23.5404288,3.54816 L23.5404288,1.6128 L24.1726464,1.6128 L24.1726464,1.1870208 L23.5404288,1.1870208 L23.5404288,0.3354624 L23.0501376,0.3354624 L23.0501376,1.1870208 L22.5340416,1.1870208 L22.5340416,1.6128 L23.0501376,1.6128 L23.0501376,3.6513792 C23.0501376,4.1158656 23.2823808,4.3803648 23.7468672,4.3803648 Z" id="Path"></path>
                </g>
                <line x1="0.0245749082" y1="70.1644592" x2="148.035686" y2="70.1644592" id="Line" stroke="#E2E2E2" stroke-width="0.6" stroke-linecap="square"></line>
                <rect id="Rectangle" fill="#E7E7E7" x="124.271667" y="39.9764021" width="23.6232162" height="7.2257833" rx="1.6128"></rect>
                <rect id="Rectangle" fill="#E7E7E7" x="120.267732" y="55.2308335" width="27.6271512" height="7.2257833" rx="1.6128"></rect>
                <g id="Group-4">
                    <g id="Couch-Removal" transform="translate(0.351748, 10.320860)" fill="#1B2125" fill-rule="nonzero">
                        <path d="M2.52,4.968 C3.4848,4.968 4.0824,4.4568 4.4496,3.8808 L3.7296,3.5208 C3.4992,3.9168 3.0312,4.2192 2.52,4.2192 C1.5696,4.2192 0.864,3.4848 0.864,2.484 C0.864,1.4688 1.5696,0.7488 2.52,0.7488 C3.0312,0.7488 3.4992,1.044 3.7296,1.4472 L4.4424,1.0728 C4.0896,0.4968 3.4848,0 2.52,0 C1.1016,0 0,1.0008 0,2.484 C0,3.96 1.1016,4.968 2.52,4.968 Z" id="Path"></path>
                        <path d="M6.6744,4.968 C7.7832,4.968 8.46,4.1328 8.46,3.1392 C8.46,2.1384 7.7832,1.3176 6.6744,1.3176 C5.5656,1.3176 4.8888,2.1384 4.8888,3.1392 C4.8888,4.1328 5.5656,4.968 6.6744,4.968 Z M6.6744,4.2984 C6.0336,4.2984 5.6736,3.7584 5.6736,3.1392 C5.6736,2.5272 6.0336,1.9872 6.6744,1.9872 C7.3224,1.9872 7.6752,2.5272 7.6752,3.1392 C7.6752,3.7584 7.3224,4.2984 6.6744,4.2984 Z" id="Shape"></path>
                        <path d="M12.3336,4.8816 L12.3336,1.404 L11.5776,1.404 L11.5776,3.8448 C11.4048,4.0752 11.0736,4.2984 10.692,4.2984 C10.26,4.2984 9.9864,4.1256 9.9864,3.5856 L9.9864,1.404 L9.2304,1.404 L9.2304,3.8664 C9.2304,4.572 9.6048,4.968 10.3536,4.968 C10.9008,4.968 11.3328,4.6944 11.5776,4.4208 L11.5776,4.8816 L12.3336,4.8816 Z" id="Path"></path>
                        <path d="M14.8968,4.968 C15.5808,4.968 15.984,4.6728 16.2288,4.3488 L15.732,3.8808 C15.5376,4.1544 15.2712,4.2984 14.9328,4.2984 C14.3064,4.2984 13.8816,3.816 13.8816,3.1392 C13.8816,2.4624 14.3064,1.9872 14.9328,1.9872 C15.2712,1.9872 15.5376,2.1168 15.732,2.3904 L16.2288,1.9368 C15.984,1.6056 15.5808,1.3176 14.8968,1.3176 C13.8456,1.3176 13.104,2.088 13.104,3.1392 C13.104,4.1904 13.8456,4.968 14.8968,4.968 Z" id="Path"></path>
                        <path d="M20.0088,4.8816 L20.0088,2.4192 C20.0088,1.7064 19.6344,1.3176 18.8856,1.3176 C18.3384,1.3176 17.892,1.5984 17.6616,1.872 L17.6616,0.0792 L16.9056,0.0792 L16.9056,4.8816 L17.6616,4.8816 L17.6616,2.448 C17.8344,2.2176 18.1656,1.9872 18.5544,1.9872 C18.9792,1.9872 19.2528,2.1456 19.2528,2.6928 L19.2528,4.8816 L20.0088,4.8816 Z" id="Path"></path>
                        <path d="M26.5896,4.8816 L25.4088,2.9952 C25.992,2.9016 26.5536,2.4336 26.5536,1.584 C26.5536,0.6912 25.9272,0.0792 24.9768,0.0792 L22.8672,0.0792 L22.8672,4.8816 L23.7096,4.8816 L23.7096,3.0888 L24.552,3.0888 L25.6104,4.8816 L26.5896,4.8816 Z M24.8688,2.3472 L23.7096,2.3472 L23.7096,0.8208 L24.8688,0.8208 C25.344,0.8208 25.6896,1.116 25.6896,1.5768 C25.6896,2.0448 25.344,2.3472 24.8688,2.3472 Z" id="Shape"></path>
                        <path d="M28.7712,4.968 C29.3184,4.968 29.8296,4.788 30.1824,4.4568 L29.8368,3.96 C29.5848,4.212 29.1888,4.3488 28.8432,4.3488 C28.188,4.3488 27.7992,3.9096 27.7416,3.3912 L30.42,3.3912 L30.42,3.204 C30.42,2.1096 29.7576,1.3176 28.7136,1.3176 C27.684,1.3176 26.9496,2.1312 26.9496,3.1392 C26.9496,4.2408 27.72,4.968 28.7712,4.968 Z M29.6928,2.8512 L27.7344,2.8512 C27.7632,2.4336 28.0656,1.9368 28.7064,1.9368 C29.3904,1.9368 29.6712,2.4408 29.6928,2.8512 Z" id="Shape"></path>
                        <path d="M36.1944,4.8816 L36.1944,2.3688 C36.1944,1.6632 35.8272,1.3176 35.1936,1.3176 C34.668,1.3176 34.2072,1.6416 34.0128,1.9512 C33.8976,1.5768 33.5808,1.3176 33.0624,1.3176 C32.5296,1.3176 32.076,1.6632 31.9248,1.872 L31.9248,1.404 L31.1688,1.404 L31.1688,4.8816 L31.9248,4.8816 L31.9248,2.448 C32.0832,2.2248 32.3928,1.9872 32.7312,1.9872 C33.1416,1.9872 33.3,2.2392 33.3,2.6136 L33.3,4.8816 L34.056,4.8816 L34.056,2.448 C34.2072,2.2176 34.524,1.9872 34.8624,1.9872 C35.2728,1.9872 35.4384,2.2392 35.4384,2.6136 L35.4384,4.8816 L36.1944,4.8816 Z" id="Path"></path>
                        <path d="M38.7504,4.968 C39.8592,4.968 40.536,4.1328 40.536,3.1392 C40.536,2.1384 39.8592,1.3176 38.7504,1.3176 C37.6416,1.3176 36.9648,2.1384 36.9648,3.1392 C36.9648,4.1328 37.6416,4.968 38.7504,4.968 Z M38.7504,4.2984 C38.1096,4.2984 37.7496,3.7584 37.7496,3.1392 C37.7496,2.5272 38.1096,1.9872 38.7504,1.9872 C39.3984,1.9872 39.7512,2.5272 39.7512,3.1392 C39.7512,3.7584 39.3984,4.2984 38.7504,4.2984 Z" id="Shape"></path>
                        <polygon id="Path" points="43.0344 4.8816 44.4528 1.404 43.6464 1.404 42.6312 4.0104 41.616 1.404 40.8024 1.404 42.2208 4.8816"></polygon>
                        <path d="M47.8152,4.8816 L47.8152,2.5704 C47.8152,1.6416 47.1384,1.3176 46.3608,1.3176 C45.8064,1.3176 45.3024,1.4904 44.8992,1.8792 L45.216,2.4048 C45.5112,2.1024 45.8568,1.9584 46.2456,1.9584 C46.7208,1.9584 47.0592,2.2032 47.0592,2.6064 L47.0592,3.1248 C46.8,2.8296 46.404,2.6784 45.9288,2.6784 C45.36,2.6784 44.7264,3.0096 44.7264,3.816 C44.7264,4.5792 45.3672,4.968 45.9288,4.968 C46.3896,4.968 46.8,4.8024 47.0592,4.5 L47.0592,4.8816 L47.8152,4.8816 Z M46.2312,4.4496 C45.8064,4.4496 45.4824,4.2048 45.4824,3.8232 C45.4824,3.4488 45.8064,3.1968 46.2312,3.1968 C46.5552,3.1968 46.8792,3.3192 47.0592,3.5568 L47.0592,4.0896 C46.8792,4.3272 46.5552,4.4496 46.2312,4.4496 Z" id="Shape"></path>
                        <polygon id="Path" points="49.5504 4.8816 49.5504 0.0792 48.7944 0.0792 48.7944 4.8816"></polygon>
                    </g>
                    <g id="Group-23" transform="translate(0.269628, 18.527798)">
                        <g id="Show-details" fill="#637381" fill-rule="nonzero">
                            <path d="M1.59744,4.3056 C2.72064,4.3056 3.13248,3.6816 3.13248,3.08256 C3.13248,1.5288 0.66768,2.06544 0.66768,1.12944 C0.66768,0.73632 1.0296,0.468 1.52256,0.468 C1.97808,0.468 2.41488,0.61776 2.72688,0.9672 L3.03888,0.58656 C2.68944,0.2184 2.19648,0 1.56624,0 C0.74256,0 0.13104,0.47424 0.13104,1.16064 C0.13104,2.64576 2.59584,2.04672 2.59584,3.12 C2.59584,3.44448 2.35872,3.84384 1.61616,3.84384 C1.0296,3.84384 0.58032,3.5568 0.312,3.2448 L0,3.64416 C0.3432,4.03104 0.87984,4.3056 1.59744,4.3056 Z" id="Path"></path>
                            <path d="M6.396,4.23072 L6.396,2.10288 C6.396,1.44768 6.06528,1.14192 5.43504,1.14192 C4.97952,1.14192 4.56768,1.39776 4.36176,1.6536 L4.36176,0.06864 L3.89376,0.06864 L3.89376,4.23072 L4.36176,4.23072 L4.36176,2.028 C4.53648,1.78464 4.88592,1.56 5.24784,1.56 C5.65968,1.56 5.928,1.70976 5.928,2.2464 L5.928,4.23072 L6.396,4.23072 Z" id="Path"></path>
                            <path d="M8.64864,4.3056 C9.56592,4.3056 10.14,3.59424 10.14,2.72064 C10.14,1.84704 9.56592,1.14192 8.64864,1.14192 C7.73136,1.14192 7.15728,1.84704 7.15728,2.72064 C7.15728,3.59424 7.73136,4.3056 8.64864,4.3056 Z M8.64864,3.88752 C8.00592,3.88752 7.65024,3.3384 7.65024,2.72064 C7.65024,2.10912 8.00592,1.56 8.64864,1.56 C9.29136,1.56 9.64704,2.10912 9.64704,2.72064 C9.64704,3.3384 9.29136,3.88752 8.64864,3.88752 Z" id="Shape"></path>
                            <polygon id="Path" points="13.98384 4.23072 14.9448 1.2168 14.45184 1.2168 13.71552 3.6192 12.92928 1.2168 12.52368 1.2168 11.7312 3.6192 10.99488 1.2168 10.50816 1.2168 11.46912 4.23072 11.93712 4.23072 12.72336 1.8096 13.5096 4.23072"></polygon>
                            <path d="M19.7496,4.23072 L19.7496,0.06864 L19.2816,0.06864 L19.2816,1.67232 C19.03824,1.3416 18.67008,1.14192 18.26448,1.14192 C17.47824,1.14192 16.92288,1.75968 16.92288,2.72688 C16.92288,3.70656 17.47824,4.3056 18.26448,4.3056 C18.6888,4.3056 19.05696,4.0872 19.2816,3.78144 L19.2816,4.23072 L19.7496,4.23072 Z M18.38304,3.88752 C17.77152,3.88752 17.4096,3.39456 17.4096,2.72688 C17.4096,2.0592 17.77152,1.56 18.38304,1.56 C18.7512,1.56 19.11936,1.78464 19.2816,2.04672 L19.2816,3.40704 C19.11936,3.66912 18.7512,3.88752 18.38304,3.88752 Z" id="Shape"></path>
                            <path d="M22.05216,4.3056 C22.53888,4.3056 22.94448,4.13712 23.25024,3.8376 L23.0256,3.53184 C22.78224,3.78144 22.43904,3.91872 22.0896,3.91872 C21.44064,3.91872 21.04752,3.44448 21.01008,2.87664 L23.44368,2.87664 L23.44368,2.75808 C23.44368,1.85328 22.90704,1.14192 21.996,1.14192 C21.13488,1.14192 20.51088,1.84704 20.51088,2.72064 C20.51088,3.66288 21.1536,4.3056 22.05216,4.3056 Z M22.98192,2.5272 L21.00384,2.5272 C21.0288,2.07168 21.34704,1.5288 21.98976,1.5288 C22.67616,1.5288 22.97568,2.08416 22.98192,2.5272 Z" id="Shape"></path>
                            <path d="M24.96624,4.3056 C25.23456,4.3056 25.40304,4.22448 25.5216,4.11216 L25.38432,3.75648 C25.32192,3.82512 25.20336,3.88752 25.06608,3.88752 C24.8664,3.88752 24.76656,3.72528 24.76656,3.50064 L24.76656,1.62864 L25.37808,1.62864 L25.37808,1.2168 L24.76656,1.2168 L24.76656,0.39312 L24.29232,0.39312 L24.29232,1.2168 L23.79312,1.2168 L23.79312,1.62864 L24.29232,1.62864 L24.29232,3.60048 C24.29232,4.04976 24.51696,4.3056 24.96624,4.3056 Z" id="Path"></path>
                            <path d="M28.38576,4.23072 L28.38576,2.15904 C28.38576,1.42896 27.8616,1.14192 27.21888,1.14192 C26.72592,1.14192 26.33904,1.30416 26.01456,1.64112 L26.23296,1.9656 C26.50128,1.67232 26.79456,1.54752 27.15648,1.54752 C27.59328,1.54752 27.91776,1.7784 27.91776,2.17776 L27.91776,2.72064 C27.6744,2.44608 27.3312,2.31504 26.91936,2.31504 C26.40768,2.31504 25.87104,2.62704 25.87104,3.3072 C25.87104,3.9624 26.41392,4.3056 26.91936,4.3056 C27.32496,4.3056 27.6744,4.16208 27.91776,3.88752 L27.91776,4.23072 L28.38576,4.23072 Z M27.09408,3.96864 C26.65104,3.96864 26.34528,3.69408 26.34528,3.3072 C26.34528,2.92656 26.65104,2.652 27.09408,2.652 C27.41856,2.652 27.7368,2.7768 27.91776,3.02016 L27.91776,3.59424 C27.7368,3.84384 27.41856,3.96864 27.09408,3.96864 Z" id="Shape"></path>
                            <path d="M29.56512,0.78624 C29.73984,0.78624 29.87712,0.64896 29.87712,0.47424 C29.87712,0.29952 29.73984,0.156 29.56512,0.156 C29.3904,0.156 29.24688,0.29952 29.24688,0.47424 C29.24688,0.64896 29.3904,0.78624 29.56512,0.78624 Z M29.796,4.23072 L29.796,1.2168 L29.328,1.2168 L29.328,4.23072 L29.796,4.23072 Z" id="Shape"></path>
                            <polygon id="Path" points="31.2 4.23072 31.2 0.06864 30.732 0.06864 30.732 4.23072"></polygon>
                            <path d="M33.09696,4.3056 C33.87072,4.3056 34.27632,3.9 34.27632,3.39456 C34.27632,2.22144 32.41056,2.652 32.41056,1.9968 C32.41056,1.72848 32.6664,1.52256 33.07824,1.52256 C33.47136,1.52256 33.79584,1.6848 33.9768,1.9032 L34.1952,1.57872 C33.95808,1.33536 33.59616,1.14192 33.07824,1.14192 C32.36064,1.14192 31.96128,1.53504 31.96128,2.00928 C31.96128,3.12624 33.82704,2.67696 33.82704,3.40704 C33.82704,3.70656 33.5712,3.92496 33.10944,3.92496 C32.6976,3.92496 32.31696,3.72528 32.11728,3.4944 L31.88016,3.83136 C32.18592,4.1496 32.59776,4.3056 33.09696,4.3056 Z" id="Path"></path>
                        </g>
                        <g id="chevron-right-(7)-2" transform="translate(37.225959, 0.727034)" stroke="#919EAB" stroke-linecap="round" stroke-linejoin="round" stroke-width="0.6">
                            <g id="chevron-right-(7)">
                                <polyline id="Path" points="0 3.85009862 1.92222222 1.92504931 0 0"></polyline>
                            </g>
                        </g>
                    </g>
                    <line x1="-2.7126392e-17" y1="32.0089947" x2="148.011111" y2="32.0089947" id="Line" stroke="#E2E2E2" stroke-width="0.6" stroke-linecap="square"></line>
                    <line x1="-5.33446741e-17" y1="0.240631164" x2="148.011111" y2="0.240631164" id="Line" stroke="#E2E2E2" stroke-width="0.6" stroke-linecap="square"></line>
                    <g id="$185" transform="translate(131.049226, 9.672860)" fill="#1B2125" fill-rule="nonzero">
                        <path d="M1.6416,6.2496 L2.0808,6.2496 L2.0808,5.6088 C3.1968,5.5296 3.6144,4.8528 3.6144,4.2048 C3.6144,3.2616 2.8224,2.988 2.0808,2.7792 L2.0808,1.2096 C2.484,1.2672 2.8584,1.4472 3.1464,1.764 L3.5064,1.3248 C3.1536,0.9576 2.6784,0.7128 2.0808,0.6624 L2.0808,0 L1.6416,0 L1.6416,0.6552 C0.7776,0.72 0.1512,1.2456 0.1512,1.9872 C0.1512,2.8728 0.9072,3.1176 1.6416,3.3192 L1.6416,5.0688 C1.0728,5.004 0.6336,4.716 0.36,4.392 L0,4.8528 C0.36,5.2632 0.9144,5.5656 1.6416,5.6088 L1.6416,6.2496 Z M2.9952,4.248 C2.9952,4.5936 2.7648,5.004 2.0808,5.076 L2.0808,3.4344 C2.5848,3.5856 2.9952,3.78 2.9952,4.248 Z M0.7704,1.9512 C0.7704,1.5336 1.1304,1.2312 1.6416,1.1952 L1.6416,2.664 C1.152,2.52 0.7704,2.3472 0.7704,1.9512 Z" id="Shape"></path>
                        <polygon id="Path" points="5.8392 5.5296 5.8392 0.7272 5.3136 0.7272 4.1112 1.9656 4.4712 2.3328 5.2416 1.512 5.2416 5.5296"></polygon>
                        <path d="M8.496,5.616 C9.4392,5.616 10.2168,5.1264 10.2168,4.3128 C10.2168,3.672 9.6696,3.2328 9.072,3.0528 C9.6264,2.8944 10.1448,2.5272 10.1448,1.9008 C10.1448,1.0368 9.288,0.6552 8.496,0.6552 C7.6968,0.6552 6.8544,1.0368 6.8544,1.9008 C6.8544,2.5272 7.3656,2.8944 7.92,3.0528 C7.3224,3.2328 6.7752,3.672 6.7752,4.3128 C6.7752,5.1336 7.5456,5.616 8.496,5.616 Z M8.496,2.808 C8.208,2.7576 7.4592,2.5632 7.4592,1.98 C7.4592,1.4832 7.9128,1.188 8.496,1.188 C9.072,1.188 9.54,1.4832 9.54,1.98 C9.54,2.5632 8.7912,2.7576 8.496,2.808 Z M8.496,5.0832 C7.8984,5.0832 7.38,4.7664 7.38,4.248 C7.38,3.6216 8.2008,3.3552 8.496,3.3192 C8.7912,3.3552 9.612,3.6216 9.612,4.248 C9.612,4.7664 9.0864,5.0832 8.496,5.0832 Z" id="Shape"></path>
                        <path d="M12.7584,5.616 C13.7232,5.616 14.472,5.004 14.472,4.032 C14.472,3.0384 13.7448,2.4984 12.9384,2.4984 C12.456,2.4984 12.0528,2.7 11.8152,2.9304 L11.8152,1.26 L14.1552,1.26 L14.1552,0.7272 L11.2176,0.7272 L11.2176,3.312 L11.6568,3.4632 C11.9808,3.1536 12.348,3.0168 12.7656,3.0168 C13.4136,3.0168 13.8672,3.42 13.8672,4.0536 C13.8672,4.6368 13.4136,5.0832 12.7584,5.0832 C12.1752,5.0832 11.7504,4.8528 11.4336,4.4424 L11.0664,4.8456 C11.4264,5.3208 11.952,5.616 12.7584,5.616 Z" id="Path"></path>
                    </g>
                </g>
            </g>
            <g id="Book-Now" transform="translate(66.910634, 194.275747)" fill="#FFFFFF" fill-rule="nonzero">
                <path d="M3.12768,5.76288 C4.2336,5.76288 4.80384,5.07168 4.80384,4.19904 C4.80384,3.48192 4.32,2.88576 3.69792,2.79072 C4.24224,2.6784 4.69152,2.18592 4.69152,1.4688 C4.69152,0.69984 4.12992,0 3.03264,0 L0,0 L0,5.76288 L3.12768,5.76288 Z M2.7648,2.2896 L1.22688,2.2896 L1.22688,1.08 L2.7648,1.08 C3.17952,1.08 3.43872,1.33056 3.43872,1.6848 C3.43872,2.05632 3.17952,2.2896 2.7648,2.2896 Z M2.81664,4.68288 L1.22688,4.68288 L1.22688,3.3696 L2.81664,3.3696 C3.29184,3.3696 3.55104,3.66336 3.55104,4.02624 C3.55104,4.44096 3.27456,4.68288 2.81664,4.68288 Z" id="Shape"></path>
                <path d="M7.63776,5.86656 C9.02016,5.86656 9.8496,4.85568 9.8496,3.672 C9.8496,2.48832 9.02016,1.48608 7.63776,1.48608 C6.264,1.48608 5.43456,2.48832 5.43456,3.672 C5.43456,4.85568 6.264,5.86656 7.63776,5.86656 Z M7.63776,4.89024 C6.9552,4.89024 6.57504,4.32864 6.57504,3.672 C6.57504,3.024 6.9552,2.4624 7.63776,2.4624 C8.32896,2.4624 8.70912,3.024 8.70912,3.672 C8.70912,4.32864 8.32896,4.89024 7.63776,4.89024 Z" id="Shape"></path>
                <path d="M12.60576,5.86656 C13.98816,5.86656 14.8176,4.85568 14.8176,3.672 C14.8176,2.48832 13.98816,1.48608 12.60576,1.48608 C11.232,1.48608 10.40256,2.48832 10.40256,3.672 C10.40256,4.85568 11.232,5.86656 12.60576,5.86656 Z M12.60576,4.89024 C11.9232,4.89024 11.54304,4.32864 11.54304,3.672 C11.54304,3.024 11.9232,2.4624 12.60576,2.4624 C13.29696,2.4624 13.67712,3.024 13.67712,3.672 C13.67712,4.32864 13.29696,4.89024 12.60576,4.89024 Z" id="Shape"></path>
                <polygon id="Path" points="19.71648 5.76288 18.0144 3.48192 19.66464 1.58976 18.3168 1.58976 16.73568 3.44736 16.73568 0 15.6384 0 15.6384 5.76288 16.73568 5.76288 16.73568 4.69152 17.2368 4.15584 18.34272 5.76288"></polygon>
                <polygon id="Path" points="27.67392 5.76288 27.67392 0 26.44704 0 26.44704 3.62016 23.77728 0 22.51584 0 22.51584 5.76288 23.74272 5.76288 23.74272 2.00448 26.49024 5.76288"></polygon>
                <path d="M30.72384,5.86656 C32.10624,5.86656 32.93568,4.85568 32.93568,3.672 C32.93568,2.48832 32.10624,1.48608 30.72384,1.48608 C29.35008,1.48608 28.52064,2.48832 28.52064,3.672 C28.52064,4.85568 29.35008,5.86656 30.72384,5.86656 Z M30.72384,4.89024 C30.04128,4.89024 29.66112,4.32864 29.66112,3.672 C29.66112,3.024 30.04128,2.4624 30.72384,2.4624 C31.41504,2.4624 31.7952,3.024 31.7952,3.672 C31.7952,4.32864 31.41504,4.89024 30.72384,4.89024 Z" id="Shape"></path>
                <polygon id="Path" points="38.59488 5.76288 39.86496 1.58976 38.71584 1.58976 37.93824 4.39776 37.0224 1.58976 36.04608 1.58976 35.13024 4.39776 34.35264 1.58976 33.21216 1.58976 34.48224 5.76288 35.65728 5.76288 36.53856 2.92032 37.41984 5.76288"></polygon>
            </g>
            <g id="Next-available-time:" transform="translate(34.261831, 221.631056)" fill="#000000" fill-rule="nonzero">
                <polygon id="Path" points="3.9744 4.8744 3.9744 0.072 3.3768 0.072 3.3768 3.8232 0.612 0.072 0 0.072 0 4.8744 0.5976 4.8744 0.5976 1.044 3.3984 4.8744"></polygon>
                <path d="M6.6528,4.9608 C7.2144,4.9608 7.6824,4.7664 8.0352,4.4208 L7.776,4.068 C7.4952,4.356 7.0992,4.5144 6.696,4.5144 C5.9472,4.5144 5.4936,3.9672 5.4504,3.312 L8.2584,3.312 L8.2584,3.1752 C8.2584,2.1312 7.6392,1.3104 6.588,1.3104 C5.5944,1.3104 4.8744,2.124 4.8744,3.132 C4.8744,4.2192 5.616,4.9608 6.6528,4.9608 Z M7.7256,2.9088 L5.4432,2.9088 C5.472,2.3832 5.8392,1.7568 6.5808,1.7568 C7.3728,1.7568 7.7184,2.3976 7.7256,2.9088 Z" id="Shape"></path>
                <polygon id="Path" points="12.0096 4.8744 10.6704 3.0888 11.9304 1.3968 11.3112 1.3968 10.3392 2.7216 9.3744 1.3968 8.748 1.3968 10.008 3.0888 8.676 4.8744 9.2952 4.8744 10.3392 3.4488 11.3904 4.8744"></polygon>
                <path d="M13.5216,4.9608 C13.8312,4.9608 14.0256,4.8672 14.1624,4.7376 L14.004,4.3272 C13.932,4.4064 13.7952,4.4784 13.6368,4.4784 C13.4064,4.4784 13.2912,4.2912 13.2912,4.032 L13.2912,1.872 L13.9968,1.872 L13.9968,1.3968 L13.2912,1.3968 L13.2912,0.4464 L12.744,0.4464 L12.744,1.3968 L12.168,1.3968 L12.168,1.872 L12.744,1.872 L12.744,4.1472 C12.744,4.6656 13.0032,4.9608 13.5216,4.9608 Z" id="Path"></path>
                <path d="M19.332,4.8744 L19.332,2.484 C19.332,1.6416 18.7272,1.3104 17.9856,1.3104 C17.4168,1.3104 16.9704,1.4976 16.596,1.8864 L16.848,2.2608 C17.1576,1.9224 17.496,1.7784 17.9136,1.7784 C18.4176,1.7784 18.792,2.0448 18.792,2.5056 L18.792,3.132 C18.5112,2.8152 18.1152,2.664 17.64,2.664 C17.0496,2.664 16.4304,3.024 16.4304,3.8088 C16.4304,4.5648 17.0568,4.9608 17.64,4.9608 C18.108,4.9608 18.5112,4.7952 18.792,4.4784 L18.792,4.8744 L19.332,4.8744 Z M17.8416,4.572 C17.3304,4.572 16.9776,4.2552 16.9776,3.8088 C16.9776,3.3696 17.3304,3.0528 17.8416,3.0528 C18.216,3.0528 18.5832,3.1968 18.792,3.4776 L18.792,4.14 C18.5832,4.428 18.216,4.572 17.8416,4.572 Z" id="Shape"></path>
                <polygon id="Path" points="21.9384 4.8744 23.3856 1.3968 22.8024 1.3968 21.6432 4.248 20.4912 1.3968 19.9008 1.3968 21.348 4.8744"></polygon>
                <path d="M26.6616,4.8744 L26.6616,2.484 C26.6616,1.6416 26.0568,1.3104 25.3152,1.3104 C24.7464,1.3104 24.3,1.4976 23.9256,1.8864 L24.1776,2.2608 C24.4872,1.9224 24.8256,1.7784 25.2432,1.7784 C25.7472,1.7784 26.1216,2.0448 26.1216,2.5056 L26.1216,3.132 C25.8408,2.8152 25.4448,2.664 24.9696,2.664 C24.3792,2.664 23.76,3.024 23.76,3.8088 C23.76,4.5648 24.3864,4.9608 24.9696,4.9608 C25.4376,4.9608 25.8408,4.7952 26.1216,4.4784 L26.1216,4.8744 L26.6616,4.8744 Z M25.1712,4.572 C24.66,4.572 24.3072,4.2552 24.3072,3.8088 C24.3072,3.3696 24.66,3.0528 25.1712,3.0528 C25.5456,3.0528 25.9128,3.1968 26.1216,3.4776 L26.1216,4.14 C25.9128,4.428 25.5456,4.572 25.1712,4.572 Z" id="Shape"></path>
                <path d="M28.0224,0.9 C28.224,0.9 28.3824,0.7416 28.3824,0.54 C28.3824,0.3384 28.224,0.1728 28.0224,0.1728 C27.8208,0.1728 27.6552,0.3384 27.6552,0.54 C27.6552,0.7416 27.8208,0.9 28.0224,0.9 Z M28.2888,4.8744 L28.2888,1.3968 L27.7488,1.3968 L27.7488,4.8744 L28.2888,4.8744 Z" id="Shape"></path>
                <polygon id="Path" points="29.9088 4.8744 29.9088 0.072 29.3688 0.072 29.3688 4.8744"></polygon>
                <path d="M33.7032,4.8744 L33.7032,2.484 C33.7032,1.6416 33.0984,1.3104 32.3568,1.3104 C31.788,1.3104 31.3416,1.4976 30.9672,1.8864 L31.2192,2.2608 C31.5288,1.9224 31.8672,1.7784 32.2848,1.7784 C32.7888,1.7784 33.1632,2.0448 33.1632,2.5056 L33.1632,3.132 C32.8824,2.8152 32.4864,2.664 32.0112,2.664 C31.4208,2.664 30.8016,3.024 30.8016,3.8088 C30.8016,4.5648 31.428,4.9608 32.0112,4.9608 C32.4792,4.9608 32.8824,4.7952 33.1632,4.4784 L33.1632,4.8744 L33.7032,4.8744 Z M32.2128,4.572 C31.7016,4.572 31.3488,4.2552 31.3488,3.8088 C31.3488,3.3696 31.7016,3.0528 32.2128,3.0528 C32.5872,3.0528 32.9544,3.1968 33.1632,3.4776 L33.1632,4.14 C32.9544,4.428 32.5872,4.572 32.2128,4.572 Z" id="Shape"></path>
                <path d="M35.3304,3.9312 L35.3304,2.3544 C35.5176,2.052 35.9424,1.7928 36.3744,1.7928 C37.0728,1.7928 37.4904,2.3688 37.4904,3.1392 C37.4904,3.9096 37.0728,4.4784 36.3744,4.4784 C35.9424,4.4784 35.5176,4.2336 35.3304,3.9312 Z M35.3304,4.8744 L35.3304,4.356 C35.5896,4.7088 36.0144,4.9608 36.504,4.9608 C37.4112,4.9608 38.052,4.2696 38.052,3.1392 C38.052,2.0232 37.4184,1.3104 36.504,1.3104 C36.036,1.3104 35.6112,1.5408 35.3304,1.9224 L35.3304,0.072 L34.7904,0.072 L34.7904,4.8744 L35.3304,4.8744 Z" id="Shape"></path>
                <polygon id="Path" points="39.4704 4.8744 39.4704 0.072 38.9304 0.072 38.9304 4.8744"></polygon>
                <path d="M42.1272,4.9608 C42.6888,4.9608 43.1568,4.7664 43.5096,4.4208 L43.2504,4.068 C42.9696,4.356 42.5736,4.5144 42.1704,4.5144 C41.4216,4.5144 40.968,3.9672 40.9248,3.312 L43.7328,3.312 L43.7328,3.1752 C43.7328,2.1312 43.1136,1.3104 42.0624,1.3104 C41.0688,1.3104 40.3488,2.124 40.3488,3.132 C40.3488,4.2192 41.0904,4.9608 42.1272,4.9608 Z M43.2,2.9088 L40.9176,2.9088 C40.9464,2.3832 41.3136,1.7568 42.0552,1.7568 C42.8472,1.7568 43.1928,2.3976 43.2,2.9088 Z" id="Shape"></path>
                <path d="M47.3544,4.9608 C47.664,4.9608 47.8584,4.8672 47.9952,4.7376 L47.8368,4.3272 C47.7648,4.4064 47.628,4.4784 47.4696,4.4784 C47.2392,4.4784 47.124,4.2912 47.124,4.032 L47.124,1.872 L47.8296,1.872 L47.8296,1.3968 L47.124,1.3968 L47.124,0.4464 L46.5768,0.4464 L46.5768,1.3968 L46.0008,1.3968 L46.0008,1.872 L46.5768,1.872 L46.5768,4.1472 C46.5768,4.6656 46.836,4.9608 47.3544,4.9608 Z" id="Path"></path>
                <path d="M48.8592,0.9 C49.0608,0.9 49.2192,0.7416 49.2192,0.54 C49.2192,0.3384 49.0608,0.1728 48.8592,0.1728 C48.6576,0.1728 48.492,0.3384 48.492,0.54 C48.492,0.7416 48.6576,0.9 48.8592,0.9 Z M49.1256,4.8744 L49.1256,1.3968 L48.5856,1.3968 L48.5856,4.8744 L49.1256,4.8744 Z" id="Shape"></path>
                <path d="M54.9432,4.8744 L54.9432,2.3616 C54.9432,1.6632 54.6048,1.3104 53.9712,1.3104 C53.4672,1.3104 52.9992,1.6416 52.8048,1.9584 C52.704,1.5984 52.4016,1.3104 51.876,1.3104 C51.3576,1.3104 50.8968,1.6776 50.7456,1.9008 L50.7456,1.3968 L50.2056,1.3968 L50.2056,4.8744 L50.7456,4.8744 L50.7456,2.3328 C50.9328,2.052 51.3072,1.7928 51.66,1.7928 C52.1208,1.7928 52.3008,2.0736 52.3008,2.5128 L52.3008,4.8744 L52.8408,4.8744 L52.8408,2.3256 C53.0208,2.0448 53.4024,1.7928 53.7624,1.7928 C54.216,1.7928 54.4032,2.0736 54.4032,2.5128 L54.4032,4.8744 L54.9432,4.8744 Z" id="Path"></path>
                <path d="M57.6,4.9608 C58.1616,4.9608 58.6296,4.7664 58.9824,4.4208 L58.7232,4.068 C58.4424,4.356 58.0464,4.5144 57.6432,4.5144 C56.8944,4.5144 56.4408,3.9672 56.3976,3.312 L59.2056,3.312 L59.2056,3.1752 C59.2056,2.1312 58.5864,1.3104 57.5352,1.3104 C56.5416,1.3104 55.8216,2.124 55.8216,3.132 C55.8216,4.2192 56.5632,4.9608 57.6,4.9608 Z M58.6728,2.9088 L56.3904,2.9088 C56.4192,2.3832 56.7864,1.7568 57.528,1.7568 C58.32,1.7568 58.6656,2.3976 58.6728,2.9088 Z" id="Shape"></path>
                <path d="M60.3648,2.1384 C60.5808,2.1384 60.7608,1.9512 60.7608,1.7424 C60.7608,1.5264 60.5808,1.3464 60.3648,1.3464 C60.1488,1.3464 59.9688,1.5264 59.9688,1.7424 C59.9688,1.9512 60.1488,2.1384 60.3648,2.1384 Z M60.3648,4.9464 C60.5808,4.9464 60.7608,4.7664 60.7608,4.5504 C60.7608,4.3344 60.5808,4.1544 60.3648,4.1544 C60.1488,4.1544 59.9688,4.3344 59.9688,4.5504 C59.9688,4.7664 60.1488,4.9464 60.3648,4.9464 Z" id="Shape"></path>
                <polygon id="Path" points="64.3608 4.8744 64.3608 2.7936 66.7584 2.7936 66.7584 2.052 64.3608 2.052 64.3608 0.8136 66.8088 0.8136 66.8088 0.072 63.5184 0.072 63.5184 4.8744"></polygon>
                <path d="M68.3064,4.8744 L68.3064,2.5056 C68.4576,2.2536 68.8824,2.0376 69.2064,2.0376 C69.3,2.0376 69.372,2.0448 69.4368,2.0592 L69.4368,1.3104 C68.9904,1.3104 68.5728,1.5696 68.3064,1.9008 L68.3064,1.3968 L67.5504,1.3968 L67.5504,4.8744 L68.3064,4.8744 Z" id="Path"></path>
                <path d="M70.4304,0.972 C70.6896,0.972 70.8984,0.7632 70.8984,0.504 C70.8984,0.2448 70.6896,0.036 70.4304,0.036 C70.1712,0.036 69.9624,0.2448 69.9624,0.504 C69.9624,0.7632 70.1712,0.972 70.4304,0.972 Z M70.8048,4.8744 L70.8048,1.3968 L70.0488,1.3968 L70.0488,4.8744 L70.8048,4.8744 Z" id="Shape"></path>
                <path d="M72.72,4.6008 C72.72,4.1832 72.4608,3.9456 72.1656,3.9456 C71.892,3.9456 71.676,4.1688 71.676,4.4352 C71.676,4.7016 71.8632,4.896 72.1008,4.896 C72.1512,4.896 72.2088,4.8816 72.2232,4.8744 C72.18,5.1192 71.9352,5.4144 71.7048,5.5512 L72.0504,5.832 C72.4464,5.5512 72.72,5.0976 72.72,4.6008 Z" id="Path"></path>
                <polygon id="Path" points="80.4168 4.8744 80.4168 0.072 79.2288 0.072 77.9256 3.3696 76.6152 0.072 75.4272 0.072 75.4272 4.8744 76.2696 4.8744 76.2696 1.1664 77.7456 4.8744 78.1056 4.8744 79.5744 1.1664 79.5744 4.8744"></polygon>
                <path d="M84.3048,4.8744 L84.3048,2.5632 C84.3048,1.6344 83.628,1.3104 82.8504,1.3104 C82.296,1.3104 81.792,1.4832 81.3888,1.872 L81.7056,2.3976 C82.0008,2.0952 82.3464,1.9512 82.7352,1.9512 C83.2104,1.9512 83.5488,2.196 83.5488,2.5992 L83.5488,3.1176 C83.2896,2.8224 82.8936,2.6712 82.4184,2.6712 C81.8496,2.6712 81.216,3.0024 81.216,3.8088 C81.216,4.572 81.8568,4.9608 82.4184,4.9608 C82.8792,4.9608 83.2896,4.7952 83.5488,4.4928 L83.5488,4.8744 L84.3048,4.8744 Z M82.7208,4.4424 C82.296,4.4424 81.972,4.1976 81.972,3.816 C81.972,3.4416 82.296,3.1896 82.7208,3.1896 C83.0448,3.1896 83.3688,3.312 83.5488,3.5496 L83.5488,4.0824 C83.3688,4.32 83.0448,4.4424 82.7208,4.4424 Z" id="Shape"></path>
                <path d="M85.14,6.2352 C85.2408,6.264 85.4568,6.2856 85.5648,6.2856 C86.1048,6.2784 86.5152,6.0912 86.7528,5.5008 L88.4304,1.3968 L87.624,1.3968 L86.6088,4.0032 L85.5936,1.3968 L84.78,1.3968 L86.2128,4.9176 L86.04,5.3136 C85.9392,5.544 85.7808,5.616 85.536,5.616 C85.4496,5.616 85.3272,5.5944 85.248,5.5584 L85.14,6.2352 Z" id="Path"></path>
                <path d="M94.1112,4.8744 L94.1112,4.1328 L91.9872,4.1328 C93.2688,3.1608 94.0824,2.3688 94.0824,1.476 C94.0824,0.5184 93.276,0 92.3472,0 C91.6704,0 90.9936,0.252 90.5688,0.7704 L91.0584,1.3176 C91.368,0.972 91.7928,0.7488 92.3544,0.7488 C92.7936,0.7488 93.2328,0.972 93.2328,1.476 C93.2328,2.1744 92.4984,2.7936 90.6336,4.2048 L90.6336,4.8744 L94.1112,4.8744 Z" id="Path"></path>
                <path d="M98.1576,4.8744 L98.1576,2.4264 C98.1576,1.7136 97.7832,1.3104 97.0344,1.3104 C96.4872,1.3104 96.0336,1.5912 95.8032,1.8648 L95.8032,1.3968 L95.0472,1.3968 L95.0472,4.8744 L95.8032,4.8744 L95.8032,2.4408 C95.9832,2.2104 96.3144,1.98 96.696,1.98 C97.1208,1.98 97.4016,2.1528 97.4016,2.7 L97.4016,4.8744 L98.1576,4.8744 Z" id="Path"></path>
                <path d="M102.3408,4.8744 L102.3408,0.072 L101.5848,0.072 L101.5848,1.8792 C101.3112,1.5048 100.908,1.3104 100.4688,1.3104 C99.576,1.3104 98.928,2.0088 98.928,3.132 C98.928,4.284 99.5832,4.9608 100.4688,4.9608 C100.9224,4.9608 101.3184,4.7448 101.5848,4.3992 L101.5848,4.8744 L102.3408,4.8744 Z M100.692,4.2912 C100.0872,4.2912 99.7056,3.8088 99.7056,3.132 C99.7056,2.4624 100.0872,1.98 100.692,1.98 C101.0448,1.98 101.4192,2.1888 101.5848,2.448 L101.5848,3.8232 C101.4192,4.0824 101.0448,4.2912 100.692,4.2912 Z" id="Shape"></path>
            </g>
            <g id="Our-expert-technicia" transform="translate(13.422326, 45.819574)" fill="#D7D7D7" fill-rule="nonzero">
                <path d="M0,0.9612288 L0,0.9741312 C0,1.5289344 0.4064256,1.93536 0.9612288,1.93536 L4.5997056,1.93536 C5.1545088,1.93536 5.5609344,1.5289344 5.5609344,0.9741312 L5.5609344,0.9612288 C5.5609344,0.4064256 5.1545088,0 4.5997056,0 L0.9612288,0 C0.4064256,0 0,0.4064256 0,0.9612288 Z" id="Path"></path>
                <path d="M3.6255744,0.9612288 L3.6255744,0.9741312 C3.6255744,1.5289344 4.032,1.93536 4.5868032,1.93536 L8.22528,1.93536 C8.7800832,1.93536 9.1865088,1.5289344 9.1865088,0.9741312 L9.1865088,0.9612288 C9.1865088,0.4064256 8.7800832,0 8.22528,0 L4.5868032,0 C4.032,0 3.6255744,0.4064256 3.6255744,0.9612288 Z" id="Path"></path>
                <path d="M7.2511488,0.9612288 L7.2511488,0.9741312 C7.2511488,1.5289344 7.6575744,1.93536 8.2123776,1.93536 L10.0703232,1.93536 C10.6251264,1.93536 11.031552,1.5289344 11.031552,0.9741312 L11.031552,0.9612288 C11.031552,0.4064256 10.6251264,0 10.0703232,0 L8.2123776,0 C7.6575744,0 7.2511488,0.4064256 7.2511488,0.9612288 Z" id="Path"></path>
                <path d="M12.966912,0.9612288 L12.966912,0.9741312 C12.966912,1.5289344 13.3733376,1.93536 13.9281408,1.93536 L17.5666176,1.93536 C18.1214208,1.93536 18.5278464,1.5289344 18.5278464,0.9741312 L18.5278464,0.9612288 C18.5278464,0.4064256 18.1214208,0 17.5666176,0 L13.9281408,0 C13.3733376,0 12.966912,0.4064256 12.966912,0.9612288 Z" id="Path"></path>
                <path d="M16.5924864,0.9612288 L16.5924864,0.9741312 C16.5924864,1.5289344 16.998912,1.93536 17.5537152,1.93536 L21.192192,1.93536 C21.7469952,1.93536 22.1534208,1.5289344 22.1534208,0.9741312 L22.1534208,0.9612288 C22.1534208,0.4064256 21.7469952,0 21.192192,0 L17.5537152,0 C16.998912,0 16.5924864,0.4064256 16.5924864,0.9612288 Z" id="Path"></path>
                <path d="M20.2180608,0.9612288 L20.2180608,0.9741312 C20.2180608,1.5289344 20.6244864,1.93536 21.1792896,1.93536 L24.8177664,1.93536 C25.3725696,1.93536 25.7789952,1.5289344 25.7789952,0.9741312 L25.7789952,0.9612288 C25.7789952,0.4064256 25.3725696,0 24.8177664,0 L21.1792896,0 C20.6244864,0 20.2180608,0.4064256 20.2180608,0.9612288 Z" id="Path"></path>
                <path d="M23.8436352,0.9612288 L23.8436352,0.9741312 C23.8436352,1.5289344 24.2500608,1.93536 24.804864,1.93536 L28.4433408,1.93536 C28.998144,1.93536 29.4045696,1.5289344 29.4045696,0.9741312 L29.4045696,0.9612288 C29.4045696,0.4064256 28.998144,0 28.4433408,0 L24.804864,0 C24.2500608,0 23.8436352,0.4064256 23.8436352,0.9612288 Z" id="Path"></path>
                <path d="M27.4692096,0.9612288 L27.4692096,0.9741312 C27.4692096,1.5289344 27.8756352,1.93536 28.4304384,1.93536 L30.288384,1.93536 C30.8431872,1.93536 31.2496128,1.5289344 31.2496128,0.9741312 L31.2496128,0.9612288 C31.2496128,0.4064256 30.8431872,0 30.288384,0 L28.4304384,0 C27.8756352,0 27.4692096,0.4064256 27.4692096,0.9612288 Z" id="Path"></path>
                <path d="M29.3142528,0.9612288 L29.3142528,0.9741312 C29.3142528,1.5289344 29.7206784,1.93536 30.2754816,1.93536 L32.1334272,1.93536 C32.6882304,1.93536 33.094656,1.5289344 33.094656,0.9741312 L33.094656,0.9612288 C33.094656,0.4064256 32.6882304,0 32.1334272,0 L30.2754816,0 C29.7206784,0 29.3142528,0.4064256 29.3142528,0.9612288 Z" id="Path"></path>
                <path d="M35.030016,0.9612288 L35.030016,0.9741312 C35.030016,1.5289344 35.4364416,1.93536 35.9912448,1.93536 L37.8491904,1.93536 C38.4039936,1.93536 38.8104192,1.5289344 38.8104192,0.9741312 L38.8104192,0.9612288 C38.8104192,0.4064256 38.4039936,0 37.8491904,0 L35.9912448,0 C35.4364416,0 35.030016,0.4064256 35.030016,0.9612288 Z" id="Path"></path>
                <path d="M36.8750592,0.9612288 L36.8750592,0.9741312 C36.8750592,1.5289344 37.2814848,1.93536 37.836288,1.93536 L41.4747648,1.93536 C42.029568,1.93536 42.4359936,1.5289344 42.4359936,0.9741312 L42.4359936,0.9612288 C42.4359936,0.4064256 42.029568,0 41.4747648,0 L37.836288,0 C37.2814848,0 36.8750592,0.4064256 36.8750592,0.9612288 Z" id="Path"></path>
                <path d="M40.5006336,0.9612288 L40.5006336,0.9741312 C40.5006336,1.5289344 40.9070592,1.93536 41.4618624,1.93536 L45.1003392,1.93536 C45.6551424,1.93536 46.061568,1.5289344 46.061568,0.9741312 L46.061568,0.9612288 C46.061568,0.4064256 45.6551424,0 45.1003392,0 L41.4618624,0 C40.9070592,0 40.5006336,0.4064256 40.5006336,0.9612288 Z" id="Path"></path>
                <path d="M44.126208,0.9612288 L44.126208,0.9741312 C44.126208,1.5289344 44.5326336,1.93536 45.0874368,1.93536 L48.7259136,1.93536 C49.2807168,1.93536 49.6871424,1.5289344 49.6871424,0.9741312 L49.6871424,0.9612288 C49.6871424,0.4064256 49.2807168,0 48.7259136,0 L45.0874368,0 C44.5326336,0 44.126208,0.4064256 44.126208,0.9612288 Z" id="Path"></path>
                <path d="M47.7517824,0.9612288 L47.7517824,0.9741312 C47.7517824,1.5289344 48.158208,1.93536 48.7130112,1.93536 L52.351488,1.93536 C52.9062912,1.93536 53.3127168,1.5289344 53.3127168,0.9741312 L53.3127168,0.9612288 C53.3127168,0.4064256 52.9062912,0 52.351488,0 L48.7130112,0 C48.158208,0 47.7517824,0.4064256 47.7517824,0.9612288 Z" id="Path"></path>
                <path d="M51.3773568,0.9612288 L51.3773568,0.9741312 C51.3773568,1.5289344 51.7837824,1.93536 52.3385856,1.93536 L54.1965312,1.93536 C54.7513344,1.93536 55.15776,1.5289344 55.15776,0.9741312 L55.15776,0.9612288 C55.15776,0.4064256 54.7513344,0 54.1965312,0 L52.3385856,0 C51.7837824,0 51.3773568,0.4064256 51.3773568,0.9612288 Z" id="Path"></path>
                <path d="M53.2224,0.9612288 L53.2224,0.9741312 C53.2224,1.5289344 53.6288256,1.93536 54.1836288,1.93536 L57.8221056,1.93536 C58.3769088,1.93536 58.7833344,1.5289344 58.7833344,0.9741312 L58.7833344,0.9612288 C58.7833344,0.4064256 58.3769088,0 57.8221056,0 L54.1836288,0 C53.6288256,0 53.2224,0.4064256 53.2224,0.9612288 Z" id="Path"></path>
                <path d="M56.8479744,0.9612288 L56.8479744,0.9741312 C56.8479744,1.5289344 57.2544,1.93536 57.8092032,1.93536 L59.6671488,1.93536 C60.221952,1.93536 60.6283776,1.5289344 60.6283776,0.9741312 L60.6283776,0.9612288 C60.6283776,0.4064256 60.221952,0 59.6671488,0 L57.8092032,0 C57.2544,0 56.8479744,0.4064256 56.8479744,0.9612288 Z" id="Path"></path>
                <path d="M58.6930176,0.9612288 L58.6930176,0.9741312 C58.6930176,1.5289344 59.0994432,1.93536 59.6542464,1.93536 L63.2927232,1.93536 C63.8475264,1.93536 64.253952,1.5289344 64.253952,0.9741312 L64.253952,0.9612288 C64.253952,0.4064256 63.8475264,0 63.2927232,0 L59.6542464,0 C59.0994432,0 58.6930176,0.4064256 58.6930176,0.9612288 Z" id="Path"></path>
                <path d="M62.318592,0.9612288 L62.318592,0.9741312 C62.318592,1.5289344 62.7250176,1.93536 63.2798208,1.93536 L66.9182976,1.93536 C67.4731008,1.93536 67.8795264,1.5289344 67.8795264,0.9741312 L67.8795264,0.9612288 C67.8795264,0.4064256 67.4731008,0 66.9182976,0 L63.2798208,0 C62.7250176,0 62.318592,0.4064256 62.318592,0.9612288 Z" id="Path"></path>
                <path d="M65.9441664,0.9612288 L65.9441664,0.9741312 C65.9441664,1.5289344 66.350592,1.93536 66.9053952,1.93536 L70.543872,1.93536 C71.0986752,1.93536 71.5051008,1.5289344 71.5051008,0.9741312 L71.5051008,0.9612288 C71.5051008,0.4064256 71.0986752,0 70.543872,0 L66.9053952,0 C66.350592,0 65.9441664,0.4064256 65.9441664,0.9612288 Z" id="Path"></path>
                <path d="M73.4404608,0.9612288 L73.4404608,0.9741312 C73.4404608,1.5289344 73.8468864,1.93536 74.4016896,1.93536 L78.0401664,1.93536 C78.5949696,1.93536 79.0013952,1.5289344 79.0013952,0.9741312 L79.0013952,0.9612288 C79.0013952,0.4064256 78.5949696,0 78.0401664,0 L74.4016896,0 C73.8468864,0 73.4404608,0.4064256 73.4404608,0.9612288 Z" id="Path"></path>
                <path d="M77.0660352,0.9612288 L77.0660352,0.9741312 C77.0660352,1.5289344 77.4724608,1.93536 78.027264,1.93536 L79.8852096,1.93536 C80.4400128,1.93536 80.8464384,1.5289344 80.8464384,0.9741312 L80.8464384,0.9612288 C80.8464384,0.4064256 80.4400128,0 79.8852096,0 L78.027264,0 C77.4724608,0 77.0660352,0.4064256 77.0660352,0.9612288 Z" id="Path"></path>
                <path d="M78.9110784,0.9612288 L78.9110784,0.9741312 C78.9110784,1.5289344 79.317504,1.93536 79.8723072,1.93536 L83.510784,1.93536 C84.0655872,1.93536 84.4720128,1.5289344 84.4720128,0.9741312 L84.4720128,0.9612288 C84.4720128,0.4064256 84.0655872,0 83.510784,0 L79.8723072,0 C79.317504,0 78.9110784,0.4064256 78.9110784,0.9612288 Z" id="Path"></path>
                <path d="M82.5366528,0.9612288 L82.5366528,0.9741312 C82.5366528,1.5289344 82.9430784,1.93536 83.4978816,1.93536 L87.1363584,1.93536 C87.6911616,1.93536 88.0975872,1.5289344 88.0975872,0.9741312 L88.0975872,0.9612288 C88.0975872,0.4064256 87.6911616,0 87.1363584,0 L83.4978816,0 C82.9430784,0 82.5366528,0.4064256 82.5366528,0.9612288 Z" id="Path"></path>
                <path d="M86.1622272,0.9612288 L86.1622272,0.9741312 C86.1622272,1.5289344 86.5686528,1.93536 87.123456,1.93536 L88.9814016,1.93536 C89.5362048,1.93536 89.9426304,1.5289344 89.9426304,0.9741312 L89.9426304,0.9612288 C89.9426304,0.4064256 89.5362048,0 88.9814016,0 L87.123456,0 C86.5686528,0 86.1622272,0.4064256 86.1622272,0.9612288 Z" id="Path"></path>
                <path d="M88.0072704,0.9612288 L88.0072704,0.9741312 C88.0072704,1.5289344 88.413696,1.93536 88.9684992,1.93536 L92.606976,1.93536 C93.1617792,1.93536 93.5682048,1.5289344 93.5682048,0.9741312 L93.5682048,0.9612288 C93.5682048,0.4064256 93.1617792,0 92.606976,0 L88.9684992,0 C88.413696,0 88.0072704,0.4064256 88.0072704,0.9612288 Z" id="Path"></path>
                <path d="M91.6328448,0.9612288 L91.6328448,0.9741312 C91.6328448,1.5289344 92.0392704,1.93536 92.5940736,1.93536 L96.2325504,1.93536 C96.7873536,1.93536 97.1937792,1.5289344 97.1937792,0.9741312 L97.1937792,0.9612288 C97.1937792,0.4064256 96.7873536,0 96.2325504,0 L92.5940736,0 C92.0392704,0 91.6328448,0.4064256 91.6328448,0.9612288 Z" id="Path"></path>
                <path d="M99.1291392,0.9612288 L99.1291392,0.9741312 C99.1291392,1.5289344 99.5355648,1.93536 100.090368,1.93536 L101.948314,1.93536 C102.503117,1.93536 102.909542,1.5289344 102.909542,0.9741312 L102.909542,0.9612288 C102.909542,0.4064256 102.503117,0 101.948314,0 L100.090368,0 C99.5355648,0 99.1291392,0.4064256 99.1291392,0.9612288 Z" id="Path"></path>
                <path d="M100.974182,0.9612288 L100.974182,0.9741312 C100.974182,1.5289344 101.380608,1.93536 101.935411,1.93536 L105.573888,1.93536 C106.128691,1.93536 106.535117,1.5289344 106.535117,0.9741312 L106.535117,0.9612288 C106.535117,0.4064256 106.128691,0 105.573888,0 L101.935411,0 C101.380608,0 100.974182,0.4064256 100.974182,0.9612288 Z" id="Path"></path>
                <path d="M104.599757,0.9612288 L104.599757,0.9741312 C104.599757,1.5289344 105.006182,1.93536 105.560986,1.93536 L109.199462,1.93536 C109.754266,1.93536 110.160691,1.5289344 110.160691,0.9741312 L110.160691,0.9612288 C110.160691,0.4064256 109.754266,0 109.199462,0 L105.560986,0 C105.006182,0 104.599757,0.4064256 104.599757,0.9612288 Z" id="Path"></path>
                <path d="M108.225331,0.9612288 L108.225331,0.9741312 C108.225331,1.5289344 108.631757,1.93536 109.18656,1.93536 L111.044506,1.93536 C111.599309,1.93536 112.005734,1.5289344 112.005734,0.9741312 L112.005734,0.9612288 C112.005734,0.4064256 111.599309,0 111.044506,0 L109.18656,0 C108.631757,0 108.225331,0.4064256 108.225331,0.9612288 Z" id="Path"></path>
                <path d="M113.941094,0.9612288 L113.941094,0.9741312 C113.941094,1.5289344 114.34752,1.93536 114.902323,1.93536 L118.5408,1.93536 C119.095603,1.93536 119.502029,1.5289344 119.502029,0.9741312 L119.502029,0.9612288 C119.502029,0.4064256 119.095603,0 118.5408,0 L114.902323,0 C114.34752,0 113.941094,0.4064256 113.941094,0.9612288 Z" id="Path"></path>
                <path d="M117.566669,0.9612288 L117.566669,0.9741312 C117.566669,1.5289344 117.973094,1.93536 118.527898,1.93536 L122.166374,1.93536 C122.721178,1.93536 123.127603,1.5289344 123.127603,0.9741312 L123.127603,0.9612288 C123.127603,0.4064256 122.721178,0 122.166374,0 L118.527898,0 C117.973094,0 117.566669,0.4064256 117.566669,0.9612288 Z" id="Path"></path>
                <path d="M121.192243,0.9612288 L121.192243,0.9741312 C121.192243,1.5289344 121.598669,1.93536 122.153472,1.93536 L125.791949,1.93536 C126.346752,1.93536 126.753178,1.5289344 126.753178,0.9741312 L126.753178,0.9612288 C126.753178,0.4064256 126.346752,0 125.791949,0 L122.153472,0 C121.598669,0 121.192243,0.4064256 121.192243,0.9612288 Z" id="Path"></path>
                <path d="M0,9.0252288 L0,9.0381312 C0,9.5929344 0.4064256,9.99936 0.9612288,9.99936 L2.8191744,9.99936 C3.3739776,9.99936 3.7804032,9.5929344 3.7804032,9.0381312 L3.7804032,9.0252288 C3.7804032,8.4704256 3.3739776,8.064 2.8191744,8.064 L0.9612288,8.064 C0.4064256,8.064 0,8.4704256 0,9.0252288 Z" id="Path"></path>
                <path d="M1.8450432,9.0252288 L1.8450432,9.0381312 C1.8450432,9.5929344 2.2514688,9.99936 2.806272,9.99936 L6.4447488,9.99936 C6.999552,9.99936 7.4059776,9.5929344 7.4059776,9.0381312 L7.4059776,9.0252288 C7.4059776,8.4704256 6.999552,8.064 6.4447488,8.064 L2.806272,8.064 C2.2514688,8.064 1.8450432,8.4704256 1.8450432,9.0252288 Z" id="Path"></path>
                <path d="M5.4706176,9.0252288 L5.4706176,9.0381312 C5.4706176,9.5929344 5.8770432,9.99936 6.4318464,9.99936 L8.289792,9.99936 C8.8445952,9.99936 9.2510208,9.5929344 9.2510208,9.0381312 L9.2510208,9.0252288 C9.2510208,8.4704256 8.8445952,8.064 8.289792,8.064 L6.4318464,8.064 C5.8770432,8.064 5.4706176,8.4704256 5.4706176,9.0252288 Z" id="Path"></path>
                <path d="M7.3156608,9.0252288 L7.3156608,9.0381312 C7.3156608,9.5929344 7.7220864,9.99936 8.2768896,9.99936 L10.1348352,9.99936 C10.6896384,9.99936 11.096064,9.5929344 11.096064,9.0381312 L11.096064,9.0252288 C11.096064,8.4704256 10.6896384,8.064 10.1348352,8.064 L8.2768896,8.064 C7.7220864,8.064 7.3156608,8.4704256 7.3156608,9.0252288 Z" id="Path"></path>
                <path d="M9.160704,9.0252288 L9.160704,9.0381312 C9.160704,9.5929344 9.5671296,9.99936 10.1219328,9.99936 L13.7604096,9.99936 C14.3152128,9.99936 14.7216384,9.5929344 14.7216384,9.0381312 L14.7216384,9.0252288 C14.7216384,8.4704256 14.3152128,8.064 13.7604096,8.064 L10.1219328,8.064 C9.5671296,8.064 9.160704,8.4704256 9.160704,9.0252288 Z" id="Path"></path>
                <path d="M12.7862784,9.0252288 L12.7862784,9.0381312 C12.7862784,9.5929344 13.192704,9.99936 13.7475072,9.99936 L17.385984,9.99936 C17.9407872,9.99936 18.3472128,9.5929344 18.3472128,9.0381312 L18.3472128,9.0252288 C18.3472128,8.4704256 17.9407872,8.064 17.385984,8.064 L13.7475072,8.064 C13.192704,8.064 12.7862784,8.4704256 12.7862784,9.0252288 Z" id="Path"></path>
                <path d="M16.4118528,9.0252288 L16.4118528,9.0381312 C16.4118528,9.5929344 16.8182784,9.99936 17.3730816,9.99936 L19.2310272,9.99936 C19.7858304,9.99936 20.192256,9.5929344 20.192256,9.0381312 L20.192256,9.0252288 C20.192256,8.4704256 19.7858304,8.064 19.2310272,8.064 L17.3730816,8.064 C16.8182784,8.064 16.4118528,8.4704256 16.4118528,9.0252288 Z" id="Path"></path>
                <path d="M18.256896,9.0252288 L18.256896,9.0381312 C18.256896,9.5929344 18.6633216,9.99936 19.2181248,9.99936 L22.8566016,9.99936 C23.4114048,9.99936 23.8178304,9.5929344 23.8178304,9.0381312 L23.8178304,9.0252288 C23.8178304,8.4704256 23.4114048,8.064 22.8566016,8.064 L19.2181248,8.064 C18.6633216,8.064 18.256896,8.4704256 18.256896,9.0252288 Z" id="Path"></path>
                <path d="M25.7531904,9.0252288 L25.7531904,9.0381312 C25.7531904,9.5929344 26.159616,9.99936 26.7144192,9.99936 L28.5723648,9.99936 C29.127168,9.99936 29.5335936,9.5929344 29.5335936,9.0381312 L29.5335936,9.0252288 C29.5335936,8.4704256 29.127168,8.064 28.5723648,8.064 L26.7144192,8.064 C26.159616,8.064 25.7531904,8.4704256 25.7531904,9.0252288 Z" id="Path"></path>
                <path d="M27.5982336,9.0252288 L27.5982336,9.0381312 C27.5982336,9.5929344 28.0046592,9.99936 28.5594624,9.99936 L32.1979392,9.99936 C32.7527424,9.99936 33.159168,9.5929344 33.159168,9.0381312 L33.159168,9.0252288 C33.159168,8.4704256 32.7527424,8.064 32.1979392,8.064 L28.5594624,8.064 C28.0046592,8.064 27.5982336,8.4704256 27.5982336,9.0252288 Z" id="Path"></path>
                <path d="M31.223808,9.0252288 L31.223808,9.0381312 C31.223808,9.5929344 31.6302336,9.99936 32.1850368,9.99936 L34.0429824,9.99936 C34.5977856,9.99936 35.0042112,9.5929344 35.0042112,9.0381312 L35.0042112,9.0252288 C35.0042112,8.4704256 34.5977856,8.064 34.0429824,8.064 L32.1850368,8.064 C31.6302336,8.064 31.223808,8.4704256 31.223808,9.0252288 Z" id="Path"></path>
                <path d="M33.0688512,9.0252288 L33.0688512,9.0381312 C33.0688512,9.5929344 33.4752768,9.99936 34.03008,9.99936 L35.8880256,9.99936 C36.4428288,9.99936 36.8492544,9.5929344 36.8492544,9.0381312 L36.8492544,9.0252288 C36.8492544,8.4704256 36.4428288,8.064 35.8880256,8.064 L34.03008,8.064 C33.4752768,8.064 33.0688512,8.4704256 33.0688512,9.0252288 Z" id="Path"></path>
                <path d="M34.9138944,9.0252288 L34.9138944,9.0381312 C34.9138944,9.5929344 35.32032,9.99936 35.8751232,9.99936 L37.7330688,9.99936 C38.287872,9.99936 38.6942976,9.5929344 38.6942976,9.0381312 L38.6942976,9.0252288 C38.6942976,8.4704256 38.287872,8.064 37.7330688,8.064 L35.8751232,8.064 C35.32032,8.064 34.9138944,8.4704256 34.9138944,9.0252288 Z" id="Path"></path>
                <path d="M36.7589376,9.0252288 L36.7589376,9.0381312 C36.7589376,9.5929344 37.1653632,9.99936 37.7201664,9.99936 L41.3586432,9.99936 C41.9134464,9.99936 42.319872,9.5929344 42.319872,9.0381312 L42.319872,9.0252288 C42.319872,8.4704256 41.9134464,8.064 41.3586432,8.064 L37.7201664,8.064 C37.1653632,8.064 36.7589376,8.4704256 36.7589376,9.0252288 Z" id="Path"></path>
                <path d="M40.384512,9.0252288 L40.384512,9.0381312 C40.384512,9.5929344 40.7909376,9.99936 41.3457408,9.99936 L44.9842176,9.99936 C45.5390208,9.99936 45.9454464,9.5929344 45.9454464,9.0381312 L45.9454464,9.0252288 C45.9454464,8.4704256 45.5390208,8.064 44.9842176,8.064 L41.3457408,8.064 C40.7909376,8.064 40.384512,8.4704256 40.384512,9.0252288 Z" id="Path"></path>
                <path d="M44.0100864,9.0252288 L44.0100864,9.0381312 C44.0100864,9.5929344 44.416512,9.99936 44.9713152,9.99936 L46.8292608,9.99936 C47.384064,9.99936 47.7904896,9.5929344 47.7904896,9.0381312 L47.7904896,9.0252288 C47.7904896,8.4704256 47.384064,8.064 46.8292608,8.064 L44.9713152,8.064 C44.416512,8.064 44.0100864,8.4704256 44.0100864,9.0252288 Z" id="Path"></path>
                <path d="M45.8551296,9.0252288 L45.8551296,9.0381312 C45.8551296,9.5929344 46.2615552,9.99936 46.8163584,9.99936 L50.4548352,9.99936 C51.0096384,9.99936 51.416064,9.5929344 51.416064,9.0381312 L51.416064,9.0252288 C51.416064,8.4704256 51.0096384,8.064 50.4548352,8.064 L46.8163584,8.064 C46.2615552,8.064 45.8551296,8.4704256 45.8551296,9.0252288 Z" id="Path"></path>
                <path d="M49.480704,9.0252288 L49.480704,9.0381312 C49.480704,9.5929344 49.8871296,9.99936 50.4419328,9.99936 L52.2998784,9.99936 C52.8546816,9.99936 53.2611072,9.5929344 53.2611072,9.0381312 L53.2611072,9.0252288 C53.2611072,8.4704256 52.8546816,8.064 52.2998784,8.064 L50.4419328,8.064 C49.8871296,8.064 49.480704,8.4704256 49.480704,9.0252288 Z" id="Path"></path>
                <path d="M51.3257472,9.0252288 L51.3257472,9.0381312 C51.3257472,9.5929344 51.7321728,9.99936 52.286976,9.99936 L55.9254528,9.99936 C56.480256,9.99936 56.8866816,9.5929344 56.8866816,9.0381312 L56.8866816,9.0252288 C56.8866816,8.4704256 56.480256,8.064 55.9254528,8.064 L52.286976,8.064 C51.7321728,8.064 51.3257472,8.4704256 51.3257472,9.0252288 Z" id="Path"></path>
                <path d="M54.9513216,9.0252288 L54.9513216,9.0381312 C54.9513216,9.5929344 55.3577472,9.99936 55.9125504,9.99936 L57.770496,9.99936 C58.3252992,9.99936 58.7317248,9.5929344 58.7317248,9.0381312 L58.7317248,9.0252288 C58.7317248,8.4704256 58.3252992,8.064 57.770496,8.064 L55.9125504,8.064 C55.3577472,8.064 54.9513216,8.4704256 54.9513216,9.0252288 Z" id="Path"></path>
                <path d="M60.6670848,9.0252288 L60.6670848,9.0381312 C60.6670848,9.5929344 61.0735104,9.99936 61.6283136,9.99936 L63.4862592,9.99936 C64.0410624,9.99936 64.447488,9.5929344 64.447488,9.0381312 L64.447488,9.0252288 C64.447488,8.4704256 64.0410624,8.064 63.4862592,8.064 L61.6283136,8.064 C61.0735104,8.064 60.6670848,8.4704256 60.6670848,9.0252288 Z" id="Path"></path>
                <path d="M62.512128,9.0252288 L62.512128,9.0381312 C62.512128,9.5929344 62.9185536,9.99936 63.4733568,9.99936 L67.1118336,9.99936 C67.6666368,9.99936 68.0730624,9.5929344 68.0730624,9.0381312 L68.0730624,9.0252288 C68.0730624,8.4704256 67.6666368,8.064 67.1118336,8.064 L63.4733568,8.064 C62.9185536,8.064 62.512128,8.4704256 62.512128,9.0252288 Z" id="Path"></path>
                <path d="M66.1377024,9.0252288 L66.1377024,9.0381312 C66.1377024,9.5929344 66.544128,9.99936 67.0989312,9.99936 L70.737408,9.99936 C71.2922112,9.99936 71.6986368,9.5929344 71.6986368,9.0381312 L71.6986368,9.0252288 C71.6986368,8.4704256 71.2922112,8.064 70.737408,8.064 L67.0989312,8.064 C66.544128,8.064 66.1377024,8.4704256 66.1377024,9.0252288 Z" id="Path"></path>
                <path d="M69.7632768,9.0252288 L69.7632768,9.0381312 C69.7632768,9.5929344 70.1697024,9.99936 70.7245056,9.99936 L74.3629824,9.99936 C74.9177856,9.99936 75.3242112,9.5929344 75.3242112,9.0381312 L75.3242112,9.0252288 C75.3242112,8.4704256 74.9177856,8.064 74.3629824,8.064 L70.7245056,8.064 C70.1697024,8.064 69.7632768,8.4704256 69.7632768,9.0252288 Z" id="Path"></path>
                <path d="M73.3888512,9.0252288 L73.3888512,9.0381312 C73.3888512,9.5929344 73.7952768,9.99936 74.35008,9.99936 L76.2080256,9.99936 C76.7628288,9.99936 77.1692544,9.5929344 77.1692544,9.0381312 L77.1692544,9.0252288 C77.1692544,8.4704256 76.7628288,8.064 76.2080256,8.064 L74.35008,8.064 C73.7952768,8.064 73.3888512,8.4704256 73.3888512,9.0252288 Z" id="Path"></path>
                <path d="M75.2338944,9.0252288 L75.2338944,9.0381312 C75.2338944,9.5929344 75.64032,9.99936 76.1951232,9.99936 L78.0530688,9.99936 C78.607872,9.99936 79.0142976,9.5929344 79.0142976,9.0381312 L79.0142976,9.0252288 C79.0142976,8.4704256 78.607872,8.064 78.0530688,8.064 L76.1951232,8.064 C75.64032,8.064 75.2338944,8.4704256 75.2338944,9.0252288 Z" id="Path"></path>
                <path d="M80.9496576,9.0252288 L80.9496576,9.0381312 C80.9496576,9.5929344 81.3560832,9.99936 81.9108864,9.99936 L85.5493632,9.99936 C86.1041664,9.99936 86.510592,9.5929344 86.510592,9.0381312 L86.510592,9.0252288 C86.510592,8.4704256 86.1041664,8.064 85.5493632,8.064 L81.9108864,8.064 C81.3560832,8.064 80.9496576,8.4704256 80.9496576,9.0252288 Z" id="Path"></path>
                <path d="M84.575232,9.0252288 L84.575232,9.0381312 C84.575232,9.5929344 84.9816576,9.99936 85.5364608,9.99936 L89.1749376,9.99936 C89.7297408,9.99936 90.1361664,9.5929344 90.1361664,9.0381312 L90.1361664,9.0252288 C90.1361664,8.4704256 89.7297408,8.064 89.1749376,8.064 L85.5364608,8.064 C84.9816576,8.064 84.575232,8.4704256 84.575232,9.0252288 Z" id="Path"></path>
                <path d="M88.2008064,9.0252288 L88.2008064,9.0381312 C88.2008064,9.5929344 88.607232,9.99936 89.1620352,9.99936 L91.0199808,9.99936 C91.574784,9.99936 91.9812096,9.5929344 91.9812096,9.0381312 L91.9812096,9.0252288 C91.9812096,8.4704256 91.574784,8.064 91.0199808,8.064 L89.1620352,8.064 C88.607232,8.064 88.2008064,8.4704256 88.2008064,9.0252288 Z" id="Path"></path>
                <path d="M90.0458496,9.0252288 L90.0458496,9.0381312 C90.0458496,9.5929344 90.4522752,9.99936 91.0070784,9.99936 L94.6455552,9.99936 C95.2003584,9.99936 95.606784,9.5929344 95.606784,9.0381312 L95.606784,9.0252288 C95.606784,8.4704256 95.2003584,8.064 94.6455552,8.064 L91.0070784,8.064 C90.4522752,8.064 90.0458496,8.4704256 90.0458496,9.0252288 Z" id="Path"></path>
                <path d="M93.671424,9.0252288 L93.671424,9.0381312 C93.671424,9.5929344 94.0778496,9.99936 94.6326528,9.99936 L96.4905984,9.99936 C97.0454016,9.99936 97.4518272,9.5929344 97.4518272,9.0381312 L97.4518272,9.0252288 C97.4518272,8.4704256 97.0454016,8.064 96.4905984,8.064 L94.6326528,8.064 C94.0778496,8.064 93.671424,8.4704256 93.671424,9.0252288 Z" id="Path"></path>
                <path d="M95.5164672,9.0252288 L95.5164672,9.0381312 C95.5164672,9.5929344 95.9228928,9.99936 96.477696,9.99936 L100.116173,9.99936 C100.670976,9.99936 101.077402,9.5929344 101.077402,9.0381312 L101.077402,9.0252288 C101.077402,8.4704256 100.670976,8.064 100.116173,8.064 L96.477696,8.064 C95.9228928,8.064 95.5164672,8.4704256 95.5164672,9.0252288 Z" id="Path"></path>
                <path d="M99.1420416,9.0252288 L99.1420416,9.0381312 C99.1420416,9.5929344 99.5484672,9.99936 100.10327,9.99936 L103.741747,9.99936 C104.29655,9.99936 104.702976,9.5929344 104.702976,9.0381312 L104.702976,9.0252288 C104.702976,8.4704256 104.29655,8.064 103.741747,8.064 L100.10327,8.064 C99.5484672,8.064 99.1420416,8.4704256 99.1420416,9.0252288 Z" id="Path"></path>
                <path d="M102.767616,9.0252288 L102.767616,9.0381312 C102.767616,9.5929344 103.174042,9.99936 103.728845,9.99936 L107.367322,9.99936 C107.922125,9.99936 108.32855,9.5929344 108.32855,9.0381312 L108.32855,9.0252288 C108.32855,8.4704256 107.922125,8.064 107.367322,8.064 L103.728845,8.064 C103.174042,8.064 102.767616,8.4704256 102.767616,9.0252288 Z" id="Path"></path>
                <path d="M106.39319,9.0252288 L106.39319,9.0381312 C106.39319,9.5929344 106.799616,9.99936 107.354419,9.99936 L109.212365,9.99936 C109.767168,9.99936 110.173594,9.5929344 110.173594,9.0381312 L110.173594,9.0252288 C110.173594,8.4704256 109.767168,8.064 109.212365,8.064 L107.354419,8.064 C106.799616,8.064 106.39319,8.4704256 106.39319,9.0252288 Z" id="Path"></path>
                <path d="M112.108954,9.0252288 L112.108954,9.0381312 C112.108954,9.5929344 112.515379,9.99936 113.070182,9.99936 L114.928128,9.99936 C115.482931,9.99936 115.889357,9.5929344 115.889357,9.0381312 L115.889357,9.0252288 C115.889357,8.4704256 115.482931,8.064 114.928128,8.064 L113.070182,8.064 C112.515379,8.064 112.108954,8.4704256 112.108954,9.0252288 Z" id="Path"></path>
                <path d="M113.953997,9.0252288 L113.953997,9.0381312 C113.953997,9.5929344 114.360422,9.99936 114.915226,9.99936 L118.553702,9.99936 C119.108506,9.99936 119.514931,9.5929344 119.514931,9.0381312 L119.514931,9.0252288 C119.514931,8.4704256 119.108506,8.064 118.553702,8.064 L114.915226,8.064 C114.360422,8.064 113.953997,8.4704256 113.953997,9.0252288 Z" id="Path"></path>
                <path d="M117.579571,9.0252288 L117.579571,9.0381312 C117.579571,9.5929344 117.985997,9.99936 118.5408,9.99936 L122.179277,9.99936 C122.73408,9.99936 123.140506,9.5929344 123.140506,9.0381312 L123.140506,9.0252288 C123.140506,8.4704256 122.73408,8.064 122.179277,8.064 L118.5408,8.064 C117.985997,8.064 117.579571,8.4704256 117.579571,9.0252288 Z" id="Path"></path>
                <path d="M121.205146,9.0252288 L121.205146,9.0381312 C121.205146,9.5929344 121.611571,9.99936 122.166374,9.99936 L124.02432,9.99936 C124.579123,9.99936 124.985549,9.5929344 124.985549,9.0381312 L124.985549,9.0252288 C124.985549,8.4704256 124.579123,8.064 124.02432,8.064 L122.166374,8.064 C121.611571,8.064 121.205146,8.4704256 121.205146,9.0252288 Z" id="Path"></path>
                <path d="M123.050189,9.0252288 L123.050189,9.0381312 C123.050189,9.5929344 123.456614,9.99936 124.011418,9.99936 L127.649894,9.99936 C128.204698,9.99936 128.611123,9.5929344 128.611123,9.0381312 L128.611123,9.0252288 C128.611123,8.4704256 128.204698,8.064 127.649894,8.064 L124.011418,8.064 C123.456614,8.064 123.050189,8.4704256 123.050189,9.0252288 Z" id="Path"></path>
                <path d="M126.675763,9.0252288 L126.675763,9.0381312 C126.675763,9.5929344 127.082189,9.99936 127.636992,9.99936 L131.275469,9.99936 C131.830272,9.99936 132.236698,9.5929344 132.236698,9.0381312 L132.236698,9.0252288 C132.236698,8.4704256 131.830272,8.064 131.275469,8.064 L127.636992,8.064 C127.082189,8.064 126.675763,8.4704256 126.675763,9.0252288 Z" id="Path"></path>
                <path d="M130.301338,9.0252288 L130.301338,9.0381312 C130.301338,9.5929344 130.707763,9.99936 131.262566,9.99936 L133.120512,9.99936 C133.675315,9.99936 134.081741,9.5929344 134.081741,9.0381312 L134.081741,9.0252288 C134.081741,8.4704256 133.675315,8.064 133.120512,8.064 L131.262566,8.064 C130.707763,8.064 130.301338,8.4704256 130.301338,9.0252288 Z" id="Path"></path>
                <path d="M132.146381,9.0252288 L132.146381,9.0381312 C132.146381,9.5929344 132.552806,9.99936 133.10761,9.99936 L136.746086,9.99936 C137.30089,9.99936 137.707315,9.5929344 137.707315,9.0381312 L137.707315,9.0252288 C137.707315,8.4704256 137.30089,8.064 136.746086,8.064 L133.10761,8.064 C132.552806,8.064 132.146381,8.4704256 132.146381,9.0252288 Z" id="Path"></path>
                <path d="M135.771955,9.0252288 L135.771955,9.0381312 C135.771955,9.5929344 136.178381,9.99936 136.733184,9.99936 L140.371661,9.99936 C140.926464,9.99936 141.33289,9.5929344 141.33289,9.0381312 L141.33289,9.0252288 C141.33289,8.4704256 140.926464,8.064 140.371661,8.064 L136.733184,8.064 C136.178381,8.064 135.771955,8.4704256 135.771955,9.0252288 Z" id="Path"></path>
                <path d="M0,17.0892288 L0,17.1021312 C0,17.6569344 0.4064256,18.06336 0.9612288,18.06336 L4.5997056,18.06336 C5.1545088,18.06336 5.5609344,17.6569344 5.5609344,17.1021312 L5.5609344,17.0892288 C5.5609344,16.5344256 5.1545088,16.128 4.5997056,16.128 L0.9612288,16.128 C0.4064256,16.128 0,16.5344256 0,17.0892288 Z" id="Path"></path>
                <path d="M3.6255744,17.0892288 L3.6255744,17.1021312 C3.6255744,17.6569344 4.032,18.06336 4.5868032,18.06336 L6.4447488,18.06336 C6.999552,18.06336 7.4059776,17.6569344 7.4059776,17.1021312 L7.4059776,17.0892288 C7.4059776,16.5344256 6.999552,16.128 6.4447488,16.128 L4.5868032,16.128 C4.032,16.128 3.6255744,16.5344256 3.6255744,17.0892288 Z" id="Path"></path>
                <path d="M5.4706176,17.0892288 L5.4706176,17.1021312 C5.4706176,17.6569344 5.8770432,18.06336 6.4318464,18.06336 L10.0703232,18.06336 C10.6251264,18.06336 11.031552,17.6569344 11.031552,17.1021312 L11.031552,17.0892288 C11.031552,16.5344256 10.6251264,16.128 10.0703232,16.128 L6.4318464,16.128 C5.8770432,16.128 5.4706176,16.5344256 5.4706176,17.0892288 Z" id="Path"></path>
                <path d="M9.096192,17.0892288 L9.096192,17.1021312 C9.096192,17.6569344 9.5026176,18.06336 10.0574208,18.06336 L13.6958976,18.06336 C14.2507008,18.06336 14.6571264,17.6569344 14.6571264,17.1021312 L14.6571264,17.0892288 C14.6571264,16.5344256 14.2507008,16.128 13.6958976,16.128 L10.0574208,16.128 C9.5026176,16.128 9.096192,16.5344256 9.096192,17.0892288 Z" id="Path"></path>
                <path d="M12.7217664,17.0892288 L12.7217664,17.1021312 C12.7217664,17.6569344 13.128192,18.06336 13.6829952,18.06336 L17.321472,18.06336 C17.8762752,18.06336 18.2827008,17.6569344 18.2827008,17.1021312 L18.2827008,17.0892288 C18.2827008,16.5344256 17.8762752,16.128 17.321472,16.128 L13.6829952,16.128 C13.128192,16.128 12.7217664,16.5344256 12.7217664,17.0892288 Z" id="Path"></path>
                <path d="M16.3473408,17.0892288 L16.3473408,17.1021312 C16.3473408,17.6569344 16.7537664,18.06336 17.3085696,18.06336 L20.9470464,18.06336 C21.5018496,18.06336 21.9082752,17.6569344 21.9082752,17.1021312 L21.9082752,17.0892288 C21.9082752,16.5344256 21.5018496,16.128 20.9470464,16.128 L17.3085696,16.128 C16.7537664,16.128 16.3473408,16.5344256 16.3473408,17.0892288 Z" id="Path"></path>
                <path d="M19.9729152,17.0892288 L19.9729152,17.1021312 C19.9729152,17.6569344 20.3793408,18.06336 20.934144,18.06336 L24.5726208,18.06336 C25.127424,18.06336 25.5338496,17.6569344 25.5338496,17.1021312 L25.5338496,17.0892288 C25.5338496,16.5344256 25.127424,16.128 24.5726208,16.128 L20.934144,16.128 C20.3793408,16.128 19.9729152,16.5344256 19.9729152,17.0892288 Z" id="Path"></path>
                <path d="M23.5984896,17.0892288 L23.5984896,17.1021312 C23.5984896,17.6569344 24.0049152,18.06336 24.5597184,18.06336 L26.417664,18.06336 C26.9724672,18.06336 27.3788928,17.6569344 27.3788928,17.1021312 L27.3788928,17.0892288 C27.3788928,16.5344256 26.9724672,16.128 26.417664,16.128 L24.5597184,16.128 C24.0049152,16.128 23.5984896,16.5344256 23.5984896,17.0892288 Z" id="Path"></path>
                <path d="M25.4435328,17.0892288 L25.4435328,17.1021312 C25.4435328,17.6569344 25.8499584,18.06336 26.4047616,18.06336 L28.2627072,18.06336 C28.8175104,18.06336 29.223936,17.6569344 29.223936,17.1021312 L29.223936,17.0892288 C29.223936,16.5344256 28.8175104,16.128 28.2627072,16.128 L26.4047616,16.128 C25.8499584,16.128 25.4435328,16.5344256 25.4435328,17.0892288 Z" id="Path"></path>
                <path d="M27.288576,17.0892288 L27.288576,17.1021312 C27.288576,17.6569344 27.6950016,18.06336 28.2498048,18.06336 L31.8882816,18.06336 C32.4430848,18.06336 32.8495104,17.6569344 32.8495104,17.1021312 L32.8495104,17.0892288 C32.8495104,16.5344256 32.4430848,16.128 31.8882816,16.128 L28.2498048,16.128 C27.6950016,16.128 27.288576,16.5344256 27.288576,17.0892288 Z" id="Path"></path>
                <path d="M30.9141504,17.0892288 L30.9141504,17.1021312 C30.9141504,17.6569344 31.320576,18.06336 31.8753792,18.06336 L35.513856,18.06336 C36.0686592,18.06336 36.4750848,17.6569344 36.4750848,17.1021312 L36.4750848,17.0892288 C36.4750848,16.5344256 36.0686592,16.128 35.513856,16.128 L31.8753792,16.128 C31.320576,16.128 30.9141504,16.5344256 30.9141504,17.0892288 Z" id="Path"></path>
                <path d="M34.5397248,17.0892288 L34.5397248,17.1021312 C34.5397248,17.6569344 34.9461504,18.06336 35.5009536,18.06336 L37.3588992,18.06336 C37.9137024,18.06336 38.320128,17.6569344 38.320128,17.1021312 L38.320128,17.0892288 C38.320128,16.5344256 37.9137024,16.128 37.3588992,16.128 L35.5009536,16.128 C34.9461504,16.128 34.5397248,16.5344256 34.5397248,17.0892288 Z" id="Path"></path>
            </g>
            <g id="Estimate-for-Couch-R" transform="translate(13.334209, 14.985659)" fill="#1B2125" fill-rule="nonzero">
                <polygon id="Path" points="5.43744 7.90272 5.43744 6.46272 1.63584 6.46272 1.63584 4.71168 5.3568 4.71168 5.3568 3.27168 1.63584 3.27168 1.63584 1.65888 5.43744 1.65888 5.43744 0.21888 0 0.21888 0 7.90272"></polygon>
                <path d="M8.68608,8.04096 C10.22976,8.04096 11.10528,7.29216 11.10528,6.26688 C11.10528,4.02048 7.79904,4.71168 7.79904,3.89376 C7.79904,3.58272 8.14464,3.35232 8.67456,3.35232 C9.35424,3.35232 9.98784,3.65184 10.32192,3.99744 L10.90944,2.96064 C10.35648,2.52288 9.60768,2.20032 8.67456,2.20032 C7.2,2.20032 6.3936,3.01824 6.3936,3.95136 C6.3936,6.14016 9.68832,5.39136 9.68832,6.30144 C9.68832,6.64704 9.3888,6.88896 8.7552,6.88896 C8.064,6.88896 7.24608,6.5088 6.83136,6.11712 L6.19776,7.17696 C6.78528,7.7184 7.7184,8.04096 8.68608,8.04096 Z" id="Path"></path>
                <path d="M14.04288,8.04096 C14.65344,8.04096 15.04512,7.87968 15.264,7.68384 L14.95296,6.5664 C14.87232,6.65856 14.66496,6.7392 14.44608,6.7392 C14.12352,6.7392 13.9392,6.47424 13.9392,6.11712 L13.9392,3.61728 L15.06816,3.61728 L15.06816,2.33856 L13.9392,2.33856 L13.9392,0.81792 L12.47616,0.81792 L12.47616,2.33856 L11.55456,2.33856 L11.55456,3.61728 L12.47616,3.61728 L12.47616,6.5088 C12.47616,7.51104 13.0176,8.04096 14.04288,8.04096 Z" id="Path"></path>
                <path d="M16.79616,1.73952 C17.28,1.73952 17.67168,1.34784 17.67168,0.864 C17.67168,0.38016 17.28,0 16.79616,0 C16.32384,0 15.93216,0.38016 15.93216,0.864 C15.93216,1.34784 16.32384,1.73952 16.79616,1.73952 Z M17.53344,7.90272 L17.53344,2.33856 L16.0704,2.33856 L16.0704,7.90272 L17.53344,7.90272 Z" id="Shape"></path>
                <path d="M27.36,7.90272 L27.36,3.88224 C27.36,2.74176 26.74944,2.20032 25.72416,2.20032 C24.87168,2.20032 24.1344,2.7072 23.81184,3.20256 C23.616,2.58048 23.08608,2.20032 22.26816,2.20032 C21.41568,2.20032 20.68992,2.73024 20.448,3.0528 L20.448,2.33856 L18.98496,2.33856 L18.98496,7.90272 L20.448,7.90272 L20.448,4.1472 C20.66688,3.84768 21.09312,3.50208 21.6,3.50208 C22.19904,3.50208 22.42944,3.87072 22.42944,4.38912 L22.42944,7.90272 L23.904,7.90272 L23.904,4.1472 C24.11136,3.84768 24.5376,3.50208 25.056,3.50208 C25.65504,3.50208 25.88544,3.87072 25.88544,4.38912 L25.88544,7.90272 L27.36,7.90272 Z" id="Path"></path>
                <path d="M33.62688,7.90272 L33.62688,4.30848 C33.62688,2.7072 32.46336,2.20032 31.18464,2.20032 C30.30912,2.20032 29.4336,2.46528 28.75392,3.07584 L29.32992,4.10112 C29.79072,3.67488 30.34368,3.44448 30.9312,3.44448 C31.66848,3.44448 32.15232,3.81312 32.15232,4.3776 L32.15232,5.08032 C31.78368,4.64256 31.13856,4.40064 30.38976,4.40064 C29.50272,4.40064 28.46592,4.88448 28.46592,6.19776 C28.46592,7.44192 29.50272,8.04096 30.38976,8.04096 C31.11552,8.04096 31.77216,7.776 32.15232,7.3152 L32.15232,7.90272 L33.62688,7.90272 Z M30.97728,7.05024 C30.40128,7.05024 29.92896,6.75072 29.92896,6.2208 C29.92896,5.69088 30.40128,5.37984 30.97728,5.37984 C31.4496,5.37984 31.9104,5.55264 32.15232,5.8752 L32.15232,6.5664 C31.9104,6.88896 31.4496,7.05024 30.97728,7.05024 Z" id="Shape"></path>
                <path d="M36.93312,8.04096 C37.54368,8.04096 37.93536,7.87968 38.15424,7.68384 L37.8432,6.5664 C37.76256,6.65856 37.5552,6.7392 37.33632,6.7392 C37.01376,6.7392 36.82944,6.47424 36.82944,6.11712 L36.82944,3.61728 L37.9584,3.61728 L37.9584,2.33856 L36.82944,2.33856 L36.82944,0.81792 L35.3664,0.81792 L35.3664,2.33856 L34.4448,2.33856 L34.4448,3.61728 L35.3664,3.61728 L35.3664,6.5088 C35.3664,7.51104 35.90784,8.04096 36.93312,8.04096 Z" id="Path"></path>
                <path d="M41.57568,8.04096 C42.43968,8.04096 43.3152,7.776 43.86816,7.26912 L43.21152,6.30144 C42.8544,6.64704 42.20928,6.84288 41.73696,6.84288 C40.79232,6.84288 40.23936,6.2784 40.13568,5.59872 L44.27136,5.59872 L44.27136,5.25312 C44.27136,3.44448 43.15392,2.20032 41.48352,2.20032 C39.8016,2.20032 38.60352,3.50208 38.60352,5.11488 C38.60352,6.90048 39.88224,8.04096 41.57568,8.04096 Z M42.86592,4.58496 L40.12416,4.58496 C40.18176,4.032 40.57344,3.3984 41.48352,3.3984 C42.4512,3.3984 42.81984,4.05504 42.86592,4.58496 Z" id="Shape"></path>
                <path d="M50.08896,7.90272 L50.08896,3.61728 L51.21792,3.61728 L51.21792,2.33856 L50.08896,2.33856 L50.08896,2.10816 C50.08896,1.56672 50.36544,1.30176 50.78016,1.30176 C51.04512,1.30176 51.24096,1.3824 51.39072,1.52064 L51.94368,0.6336 C51.6096,0.25344 51.0336,0.10368 50.49216,0.10368 C49.37472,0.10368 48.62592,0.85248 48.62592,2.10816 L48.62592,2.33856 L47.70432,2.33856 L47.70432,3.61728 L48.62592,3.61728 L48.62592,7.90272 L50.08896,7.90272 Z" id="Path"></path>
                <path d="M54.63936,8.04096 C56.48256,8.04096 57.58848,6.69312 57.58848,5.11488 C57.58848,3.53664 56.48256,2.20032 54.63936,2.20032 C52.80768,2.20032 51.70176,3.53664 51.70176,5.11488 C51.70176,6.69312 52.80768,8.04096 54.63936,8.04096 Z M54.63936,6.7392 C53.72928,6.7392 53.2224,5.9904 53.2224,5.11488 C53.2224,4.25088 53.72928,3.50208 54.63936,3.50208 C55.56096,3.50208 56.06784,4.25088 56.06784,5.11488 C56.06784,5.9904 55.56096,6.7392 54.63936,6.7392 Z" id="Shape"></path>
                <path d="M60.14592,7.90272 L60.14592,4.22784 C60.38784,3.87072 61.03296,3.59424 61.5168,3.59424 C61.6896,3.59424 61.81632,3.60576 61.92,3.6288 L61.92,2.20032 C61.2288,2.20032 60.54912,2.60352 60.14592,3.08736 L60.14592,2.33856 L58.68288,2.33856 L58.68288,7.90272 L60.14592,7.90272 Z" id="Path"></path>
                <path d="M69.55776,8.04096 C71.23968,8.04096 72.21888,7.10784 72.76032,6.15168 L71.35488,5.472 C71.03232,6.09408 70.34112,6.58944 69.55776,6.58944 C68.15232,6.58944 67.13856,5.51808 67.13856,4.06656 C67.13856,2.61504 68.15232,1.54368 69.55776,1.54368 C70.34112,1.54368 71.03232,2.03904 71.35488,2.66112 L72.76032,1.96992 C72.21888,1.00224 71.23968,0.09216 69.55776,0.09216 C67.24224,0.09216 65.45664,1.69344 65.45664,4.06656 C65.45664,6.42816 67.24224,8.04096 69.55776,8.04096 Z" id="Path"></path>
                <path d="M76.28544,8.04096 C78.12864,8.04096 79.23456,6.69312 79.23456,5.11488 C79.23456,3.53664 78.12864,2.20032 76.28544,2.20032 C74.45376,2.20032 73.34784,3.53664 73.34784,5.11488 C73.34784,6.69312 74.45376,8.04096 76.28544,8.04096 Z M76.28544,6.7392 C75.37536,6.7392 74.86848,5.9904 74.86848,5.11488 C74.86848,4.25088 75.37536,3.50208 76.28544,3.50208 C77.20704,3.50208 77.71392,4.25088 77.71392,5.11488 C77.71392,5.9904 77.20704,6.7392 76.28544,6.7392 Z" id="Shape"></path>
                <path d="M85.54752,7.90272 L85.54752,2.33856 L84.08448,2.33856 L84.08448,6.1056 C83.83104,6.42816 83.38176,6.7392 82.81728,6.7392 C82.1952,6.7392 81.792,6.48576 81.792,5.71392 L81.792,2.33856 L80.32896,2.33856 L80.32896,6.28992 C80.32896,7.3728 80.90496,8.04096 82.12608,8.04096 C83.03616,8.04096 83.70432,7.61472 84.08448,7.2 L84.08448,7.90272 L85.54752,7.90272 Z" id="Path"></path>
                <path d="M89.59104,8.04096 C90.73152,8.04096 91.42272,7.53408 91.79136,7.0272 L90.8352,6.12864 C90.57024,6.5088 90.16704,6.7392 89.66016,6.7392 C88.77312,6.7392 88.15104,6.08256 88.15104,5.11488 C88.15104,4.1472 88.77312,3.50208 89.66016,3.50208 C90.16704,3.50208 90.57024,3.70944 90.8352,4.10112 L91.79136,3.20256 C91.42272,2.69568 90.73152,2.20032 89.59104,2.20032 C87.88608,2.20032 86.64192,3.40992 86.64192,5.11488 C86.64192,6.83136 87.88608,8.04096 89.59104,8.04096 Z" id="Path"></path>
                <path d="M97.9776,7.90272 L97.9776,3.95136 C97.9776,2.86848 97.39008,2.20032 96.16896,2.20032 C95.25888,2.20032 94.5792,2.63808 94.22208,3.0528 L94.22208,0.21888 L92.74752,0.21888 L92.74752,7.90272 L94.22208,7.90272 L94.22208,4.1472 C94.464,3.82464 94.91328,3.50208 95.48928,3.50208 C96.11136,3.50208 96.51456,3.744 96.51456,4.51584 L96.51456,7.90272 L97.9776,7.90272 Z" id="Path"></path>
                <path d="M6.23232,21.24672 L4.4928,18.32064 C5.32224,18.1248 6.18624,17.38752 6.18624,16.03968 C6.18624,14.6112 5.19552,13.56288 3.59424,13.56288 L0,13.56288 L0,21.24672 L1.63584,21.24672 L1.63584,18.51648 L2.83392,18.51648 L4.34304,21.24672 L6.23232,21.24672 Z M3.36384,17.07648 L1.63584,17.07648 L1.63584,15.00288 L3.36384,15.00288 C4.00896,15.00288 4.50432,15.39456 4.50432,16.02816 C4.50432,16.6848 4.00896,17.07648 3.36384,17.07648 Z" id="Shape"></path>
                <path d="M9.98784,21.38496 C10.85184,21.38496 11.72736,21.12 12.28032,20.61312 L11.62368,19.64544 C11.26656,19.99104 10.62144,20.18688 10.14912,20.18688 C9.20448,20.18688 8.65152,19.6224 8.54784,18.94272 L12.68352,18.94272 L12.68352,18.59712 C12.68352,16.78848 11.56608,15.54432 9.89568,15.54432 C8.21376,15.54432 7.01568,16.84608 7.01568,18.45888 C7.01568,20.24448 8.2944,21.38496 9.98784,21.38496 Z M11.27808,17.92896 L8.53632,17.92896 C8.59392,17.376 8.9856,16.7424 9.89568,16.7424 C10.86336,16.7424 11.232,17.39904 11.27808,17.92896 Z" id="Shape"></path>
                <path d="M22.1184,21.24672 L22.1184,17.22624 C22.1184,16.08576 21.50784,15.54432 20.48256,15.54432 C19.63008,15.54432 18.8928,16.0512 18.57024,16.54656 C18.3744,15.92448 17.84448,15.54432 17.02656,15.54432 C16.17408,15.54432 15.44832,16.07424 15.2064,16.3968 L15.2064,15.68256 L13.74336,15.68256 L13.74336,21.24672 L15.2064,21.24672 L15.2064,17.4912 C15.42528,17.19168 15.85152,16.84608 16.3584,16.84608 C16.95744,16.84608 17.18784,17.21472 17.18784,17.73312 L17.18784,21.24672 L18.6624,21.24672 L18.6624,17.4912 C18.86976,17.19168 19.296,16.84608 19.8144,16.84608 C20.41344,16.84608 20.64384,17.21472 20.64384,17.73312 L20.64384,21.24672 L22.1184,21.24672 Z" id="Path"></path>
                <path d="M26.1504,21.38496 C27.9936,21.38496 29.09952,20.03712 29.09952,18.45888 C29.09952,16.88064 27.9936,15.54432 26.1504,15.54432 C24.31872,15.54432 23.2128,16.88064 23.2128,18.45888 C23.2128,20.03712 24.31872,21.38496 26.1504,21.38496 Z M26.1504,20.0832 C25.24032,20.0832 24.73344,19.3344 24.73344,18.45888 C24.73344,17.59488 25.24032,16.84608 26.1504,16.84608 C27.072,16.84608 27.57888,17.59488 27.57888,18.45888 C27.57888,19.3344 27.072,20.0832 26.1504,20.0832 Z" id="Shape"></path>
                <polygon id="Path" points="33.21216 21.24672 35.44704 15.68256 33.88032 15.68256 32.41728 19.55328 30.96576 15.68256 29.39904 15.68256 31.63392 21.24672"></polygon>
                <path d="M40.91904,21.24672 L40.91904,17.65248 C40.91904,16.0512 39.75552,15.54432 38.4768,15.54432 C37.60128,15.54432 36.72576,15.80928 36.04608,16.41984 L36.62208,17.44512 C37.08288,17.01888 37.63584,16.78848 38.22336,16.78848 C38.96064,16.78848 39.44448,17.15712 39.44448,17.7216 L39.44448,18.42432 C39.07584,17.98656 38.43072,17.74464 37.68192,17.74464 C36.79488,17.74464 35.75808,18.22848 35.75808,19.54176 C35.75808,20.78592 36.79488,21.38496 37.68192,21.38496 C38.40768,21.38496 39.06432,21.12 39.44448,20.6592 L39.44448,21.24672 L40.91904,21.24672 Z M38.26944,20.39424 C37.69344,20.39424 37.22112,20.09472 37.22112,19.5648 C37.22112,19.03488 37.69344,18.72384 38.26944,18.72384 C38.74176,18.72384 39.20256,18.89664 39.44448,19.2192 L39.44448,19.9104 C39.20256,20.23296 38.74176,20.39424 38.26944,20.39424 Z" id="Shape"></path>
                <polygon id="Path" points="43.82208 21.24672 43.82208 13.56288 42.35904 13.56288 42.35904 21.24672"></polygon>
            </g>
        </g>
    </g>
</svg>