<?xml version="1.0" encoding="UTF-8"?>
<svg width="399px" height="268px" viewBox="0 0 399 268" version="1.1" xmlns="http://www.w3.org/2000/svg" xmlns:xlink="http://www.w3.org/1999/xlink">
    <title>feedback-and-reviews-5</title>
    <g id="junk-2" stroke="none" stroke-width="1" fill="none" fill-rule="evenodd">
        <g id="feedback-and-reviews-5">
            <g id="iconfinder_5296499_fb_facebook_facebook-logo_icon" transform="translate(0.000000, 2.000000)" fill-rule="nonzero">
                <path d="M52,25.6558392 C52,11.4865 40.3594141,0 26,0 C11.6405859,0 0,11.4865 0,25.6558392 C0,38.4614101 9.507875,49.075311 21.9375,51 L21.9375,33.0719802 L15.3359375,33.0719802 L15.3359375,25.6558392 L21.9375,25.6558392 L21.9375,20.0035371 C21.9375,13.5735424 25.8191172,10.0218122 31.7580859,10.0218122 C34.60275,10.0218122 37.578125,10.5229028 37.578125,10.5229028 L37.578125,16.8366445 L34.2995859,16.8366445 C31.0697969,16.8366445 30.0625,18.8142487 30.0625,20.8431645 L30.0625,25.6558392 L37.2734375,25.6558392 L36.1207031,33.0719802 L30.0625,33.0719802 L30.0625,51 C42.4922266,49.075311 52,38.4614101 52,25.6558392 Z" id="Path" fill="#3776EA"></path>
                <path d="M36.0952816,32.796466 L37.2502718,25.3950291 L30.0252229,25.3950291 L30.0252229,20.5918967 C30.0252229,18.5670036 31.0343892,16.5933204 34.2706006,16.5933204 L37.5555556,16.5933204 L37.5555556,10.2920971 C37.5555556,10.2920971 34.5742561,9.792 31.724127,9.792 C25.773536,9.792 21.8843227,13.3366882 21.8843227,19.753934 L21.8843227,25.3950291 L15.2698413,25.3950291 L15.2698413,32.796466 L21.8843227,32.796466 L21.8843227,50.6889396 C23.2105771,50.8934793 24.5700057,51 25.9547728,51 C27.3395399,51 28.6988667,50.8934793 30.0252229,50.6889396 L30.0252229,32.796466 L36.0952816,32.796466 Z" id="Path" fill="#FFFFFF"></path>
            </g>
            <g id="Group-2" transform="translate(85.000000, 22.000000)">
                <g id="Group-3" fill="#FFFFFF" fill-rule="nonzero">
                    <rect id="Rectangle" x="0" y="0" width="240" height="246" rx="6.14124872"></rect>
                </g>
                <rect id="Rectangle-9" stroke="#DFE3E8" stroke-width="0.614124872" fill="#FFFFFF" fill-rule="nonzero" x="34.4580033" y="154.80212" width="171.693567" height="27.0608751" rx="3.07062436"></rect>
                <g id="Group-3" transform="translate(34.150941, 18.757500)">
                    <rect id="Rectangle" fill="#F9FAFB" fill-rule="nonzero" x="0" y="0" width="172.307692" height="61.5" rx="6.14124872"></rect>
                    <rect id="Rectangle" fill="#D8D8D8" x="8.849059" y="31.2425" width="154" height="7" rx="2"></rect>
                    <rect id="Rectangle" fill="#D8D8D8" x="22.849059" y="42.2425" width="126" height="7" rx="2"></rect>
                </g>
                <g id="Thank-you!-Please-co" transform="translate(46.581710, 99.729220)" fill="#151515" fill-rule="nonzero">
                    <path d="M52.2904615,6.56328 L52.2904615,0.72816 L54.3778462,0.72816 L54.3778462,0 L49.3956923,0 L49.3956923,0.72816 L51.4732308,0.72816 L51.4732308,6.56328 L52.2904615,6.56328 Z M59.3895385,6.56328 L59.3895385,3.20784 C59.3895385,2.17464 58.8676923,1.69248 57.8732308,1.69248 C57.1544615,1.69248 56.5046154,2.09592 56.1796923,2.49936 L56.1796923,0 L55.4412308,0 L55.4412308,6.56328 L56.1796923,6.56328 L56.1796923,3.08976 C56.4553846,2.706 57.0067692,2.35176 57.5778462,2.35176 C58.2276923,2.35176 58.6510769,2.58792 58.6510769,3.43416 L58.6510769,6.56328 L59.3895385,6.56328 Z M64.5784615,6.56328 L64.5784615,3.2964 C64.5784615,2.14512 63.7513846,1.69248 62.7372308,1.69248 C61.9593846,1.69248 61.3489231,1.94832 60.8369231,2.47968 L61.1815385,2.99136 C61.6049231,2.52888 62.0676923,2.33208 62.6387692,2.33208 C63.328,2.33208 63.84,2.69616 63.84,3.32592 L63.84,4.182 C63.456,3.74904 62.9144615,3.5424 62.2646154,3.5424 C61.4572308,3.5424 60.6104615,4.0344 60.6104615,5.10696 C60.6104615,6.14016 61.4670769,6.68136 62.2646154,6.68136 C62.9046154,6.68136 63.456,6.45504 63.84,6.02208 L63.84,6.56328 L64.5784615,6.56328 Z M62.5403077,6.15 C61.8412308,6.15 61.3587692,5.71704 61.3587692,5.10696 C61.3587692,4.50672 61.8412308,4.07376 62.5403077,4.07376 C63.0523077,4.07376 63.5544615,4.27056 63.84,4.65432 L63.84,5.5596 C63.5544615,5.9532 63.0523077,6.15 62.5403077,6.15 Z M70.0135385,6.56328 L70.0135385,3.22752 C70.0135385,2.19432 69.4916923,1.69248 68.5070769,1.69248 C67.7883077,1.69248 67.1384615,2.09592 66.8036923,2.49936 L66.8036923,1.81056 L66.0652308,1.81056 L66.0652308,6.56328 L66.8036923,6.56328 L66.8036923,3.08976 C67.0892308,2.706 67.6307692,2.35176 68.2116923,2.35176 C68.8516923,2.35176 69.2849231,2.6076 69.2849231,3.45384 L69.2849231,6.56328 L70.0135385,6.56328 Z M75.6849231,6.56328 L73.568,3.96552 L75.6750769,1.81056 L74.7396923,1.81056 L72.2387692,4.33944 L72.2387692,0 L71.5003077,0 L71.5003077,6.56328 L72.2387692,6.56328 L72.2387692,5.20536 L73.0363077,4.428 L74.7396923,6.56328 L75.6849231,6.56328 Z M78.8553846,8.42304 C78.9833846,8.4624 79.2295385,8.49192 79.3870769,8.49192 C80.0172308,8.48208 80.4996923,8.2164 80.7852308,7.5276 L83.168,1.81056 L82.3704615,1.81056 L80.7852308,5.7072 L79.2098462,1.81056 L78.4024615,1.81056 L80.3913846,6.61248 L80.0763077,7.3308 C79.9089231,7.7244 79.6923077,7.83264 79.3673846,7.83264 C79.2492308,7.83264 79.072,7.80312 78.9636923,7.75392 L78.8553846,8.42304 Z M86.0135385,6.68136 C87.4609231,6.68136 88.3667692,5.5596 88.3667692,4.182 C88.3667692,2.8044 87.4609231,1.69248 86.0135385,1.69248 C84.5661538,1.69248 83.6603077,2.8044 83.6603077,4.182 C83.6603077,5.5596 84.5661538,6.68136 86.0135385,6.68136 Z M86.0135385,6.02208 C84.9993846,6.02208 84.4381538,5.15616 84.4381538,4.182 C84.4381538,3.21768 84.9993846,2.35176 86.0135385,2.35176 C87.0276923,2.35176 87.5889231,3.21768 87.5889231,4.182 C87.5889231,5.15616 87.0276923,6.02208 86.0135385,6.02208 Z M93.5163077,6.56328 L93.5163077,1.81056 L92.7778462,1.81056 L92.7778462,5.30376 C92.5021538,5.68752 91.9507692,6.02208 91.3796923,6.02208 C90.7298462,6.02208 90.3064615,5.77608 90.3064615,4.93968 L90.3064615,1.81056 L89.568,1.81056 L89.568,5.166 C89.568,6.18936 90.0898462,6.68136 91.0843077,6.68136 C91.7932308,6.68136 92.4135385,6.30744 92.7778462,5.89416 L92.7778462,6.56328 L93.5163077,6.56328 Z M95.6923077,4.7232 L95.8498462,0 L94.9243077,0 L95.0818462,4.7232 L95.6923077,4.7232 Z M95.3870769,6.66168 C95.6824615,6.66168 95.9286154,6.40584 95.9286154,6.12048 C95.9286154,5.82528 95.6824615,5.57928 95.3870769,5.57928 C95.0916923,5.57928 94.8455385,5.82528 94.8455385,6.12048 C94.8455385,6.40584 95.0916923,6.66168 95.3870769,6.66168 Z M0.715076923,20.70828 L0.715076923,18.42663 L2.30892308,18.42663 C3.45476923,18.42663 4.10953846,17.63451 4.10953846,16.69602 C4.10953846,15.75753 3.46338462,14.96541 2.30892308,14.96541 L0,14.96541 L0,20.70828 L0.715076923,20.70828 Z M2.22276923,17.78949 L0.715076923,17.78949 L0.715076923,15.60255 L2.22276923,15.60255 C2.90338462,15.60255 3.36861538,16.05027 3.36861538,16.69602 C3.36861538,17.34177 2.90338462,17.78949 2.22276923,17.78949 Z M5.67753846,20.70828 L5.67753846,14.96541 L5.03138462,14.96541 L5.03138462,20.70828 L5.67753846,20.70828 Z M8.85661538,20.8116 C9.52861538,20.8116 10.0886154,20.57913 10.5107692,20.16585 L10.2006154,19.74396 C9.86461538,20.08836 9.39076923,20.27778 8.90830769,20.27778 C8.01230769,20.27778 7.46953846,19.62342 7.41784615,18.83991 L10.7778462,18.83991 L10.7778462,18.67632 C10.7778462,17.42787 10.0369231,16.44633 8.77907692,16.44633 C7.59015385,16.44633 6.72861538,17.41926 6.72861538,18.62466 C6.72861538,19.92477 7.616,20.8116 8.85661538,20.8116 Z M10.1403077,18.35775 L7.40923077,18.35775 C7.44369231,17.72922 7.88307692,16.98015 8.77046154,16.98015 C9.71815385,16.98015 10.1316923,17.74644 10.1403077,18.35775 Z M15.0683077,20.70828 L15.0683077,17.84976 C15.0683077,16.84239 14.3446154,16.44633 13.4572308,16.44633 C12.7766154,16.44633 12.2424615,16.67019 11.7944615,17.13513 L12.096,17.58285 C12.4664615,17.17818 12.8713846,17.00598 13.3710769,17.00598 C13.9741538,17.00598 14.4221538,17.32455 14.4221538,17.87559 L14.4221538,18.62466 C14.0861538,18.24582 13.6123077,18.06501 13.0436923,18.06501 C12.3372308,18.06501 11.5963077,18.49551 11.5963077,19.434 C11.5963077,20.33805 12.3458462,20.8116 13.0436923,20.8116 C13.6036923,20.8116 14.0861538,20.61357 14.4221538,20.23473 L14.4221538,20.70828 L15.0683077,20.70828 Z M13.2849231,20.34666 C12.6732308,20.34666 12.2510769,19.96782 12.2510769,19.434 C12.2510769,18.90879 12.6732308,18.52995 13.2849231,18.52995 C13.7329231,18.52995 14.1723077,18.70215 14.4221538,19.03794 L14.4221538,19.83006 C14.1723077,20.17446 13.7329231,20.34666 13.2849231,20.34666 Z M17.696,20.8116 C18.7643077,20.8116 19.3243077,20.25195 19.3243077,19.55454 C19.3243077,17.93586 16.7483077,18.52995 16.7483077,17.6259 C16.7483077,17.25567 17.1015385,16.97154 17.6701538,16.97154 C18.2129231,16.97154 18.6609231,17.1954 18.9107692,17.49675 L19.2123077,17.04903 C18.8849231,16.71324 18.3852308,16.44633 17.6701538,16.44633 C16.6793846,16.44633 16.128,16.98876 16.128,17.64312 C16.128,19.18431 18.704,18.56439 18.704,19.57176 C18.704,19.98504 18.3507692,20.28639 17.7132308,20.28639 C17.1446154,20.28639 16.6190769,20.01087 16.3433846,19.6923 L16.016,20.15724 C16.4381538,20.59635 17.0067692,20.8116 17.696,20.8116 Z M22.2621538,20.8116 C22.9341538,20.8116 23.4941538,20.57913 23.9163077,20.16585 L23.6061538,19.74396 C23.2701538,20.08836 22.7963077,20.27778 22.3138462,20.27778 C21.4178462,20.27778 20.8750769,19.62342 20.8233846,18.83991 L24.1833846,18.83991 L24.1833846,18.67632 C24.1833846,17.42787 23.4424615,16.44633 22.1846154,16.44633 C20.9956923,16.44633 20.1341538,17.41926 20.1341538,18.62466 C20.1341538,19.92477 21.0215385,20.8116 22.2621538,20.8116 Z M23.5458462,18.35775 L20.8147692,18.35775 C20.8492308,17.72922 21.2886154,16.98015 22.176,16.98015 C23.1236923,16.98015 23.5372308,17.74644 23.5458462,18.35775 Z M29.2923077,20.8116 C30.0504615,20.8116 30.4984615,20.50164 30.8172308,20.08836 L30.3864615,19.6923 C30.1107692,20.06253 29.7575385,20.23473 29.3267692,20.23473 C28.448,20.23473 27.888,19.54593 27.888,18.62466 C27.888,17.70339 28.448,17.0232 29.3267692,17.0232 C29.7575385,17.0232 30.1107692,17.17818 30.3864615,17.55702 L30.8172308,17.16957 C30.4984615,16.75629 30.0504615,16.44633 29.2923077,16.44633 C28.0516923,16.44633 27.216,17.39343 27.216,18.62466 C27.216,19.85589 28.0516923,20.8116 29.2923077,20.8116 Z M33.5483077,20.8116 C34.8147692,20.8116 35.6073846,19.83006 35.6073846,18.62466 C35.6073846,17.41926 34.8147692,16.44633 33.5483077,16.44633 C32.2818462,16.44633 31.4892308,17.41926 31.4892308,18.62466 C31.4892308,19.83006 32.2818462,20.8116 33.5483077,20.8116 Z M33.5483077,20.23473 C32.6609231,20.23473 32.1698462,19.47705 32.1698462,18.62466 C32.1698462,17.78088 32.6609231,17.0232 33.5483077,17.0232 C34.4356923,17.0232 34.9267692,17.78088 34.9267692,18.62466 C34.9267692,19.47705 34.4356923,20.23473 33.5483077,20.23473 Z M40.1132308,20.70828 L40.1132308,17.78949 C40.1132308,16.88544 39.6566154,16.44633 38.7950769,16.44633 C38.1661538,16.44633 37.5975385,16.79934 37.3046154,17.15235 L37.3046154,16.54965 L36.6584615,16.54965 L36.6584615,20.70828 L37.3046154,20.70828 L37.3046154,17.66895 C37.5544615,17.33316 38.0283077,17.0232 38.5366154,17.0232 C39.0966154,17.0232 39.4756923,17.24706 39.4756923,17.98752 L39.4756923,20.70828 L40.1132308,20.70828 Z M42.7409231,20.8116 C43.8092308,20.8116 44.3692308,20.25195 44.3692308,19.55454 C44.3692308,17.93586 41.7932308,18.52995 41.7932308,17.6259 C41.7932308,17.25567 42.1464615,16.97154 42.7150769,16.97154 C43.2578462,16.97154 43.7058462,17.1954 43.9556923,17.49675 L44.2572308,17.04903 C43.9298462,16.71324 43.4301538,16.44633 42.7150769,16.44633 C41.7243077,16.44633 41.1729231,16.98876 41.1729231,17.64312 C41.1729231,19.18431 43.7489231,18.56439 43.7489231,19.57176 C43.7489231,19.98504 43.3956923,20.28639 42.7581538,20.28639 C42.1895385,20.28639 41.664,20.01087 41.3883077,19.6923 L41.0609231,20.15724 C41.4830769,20.59635 42.0516923,20.8116 42.7409231,20.8116 Z M45.7476923,15.95556 C45.9889231,15.95556 46.1784615,15.76614 46.1784615,15.52506 C46.1784615,15.28398 45.9889231,15.08595 45.7476923,15.08595 C45.5064615,15.08595 45.3083077,15.28398 45.3083077,15.52506 C45.3083077,15.76614 45.5064615,15.95556 45.7476923,15.95556 Z M46.0664615,20.70828 L46.0664615,16.54965 L45.4203077,16.54965 L45.4203077,20.70828 L46.0664615,20.70828 Z M51.0203077,20.70828 L51.0203077,14.96541 L50.3741538,14.96541 L50.3741538,17.17818 C50.0381538,16.72185 49.5298462,16.44633 48.9698462,16.44633 C47.8843077,16.44633 47.1175385,17.29872 47.1175385,18.63327 C47.1175385,19.98504 47.8843077,20.8116 48.9698462,20.8116 C49.5556923,20.8116 50.064,20.51025 50.3741538,20.08836 L50.3741538,20.70828 L51.0203077,20.70828 Z M49.1335385,20.23473 C48.2892308,20.23473 47.7895385,19.55454 47.7895385,18.63327 C47.7895385,17.712 48.2892308,17.0232 49.1335385,17.0232 C49.6418462,17.0232 50.1501538,17.33316 50.3741538,17.69478 L50.3741538,19.57176 C50.1501538,19.93338 49.6418462,20.23473 49.1335385,20.23473 Z M54.1993846,20.8116 C54.8713846,20.8116 55.4313846,20.57913 55.8535385,20.16585 L55.5433846,19.74396 C55.2073846,20.08836 54.7335385,20.27778 54.2510769,20.27778 C53.3550769,20.27778 52.8123077,19.62342 52.7606154,18.83991 L56.1206154,18.83991 L56.1206154,18.67632 C56.1206154,17.42787 55.3796923,16.44633 54.1218462,16.44633 C52.9329231,16.44633 52.0713846,17.41926 52.0713846,18.62466 C52.0713846,19.92477 52.9587692,20.8116 54.1993846,20.8116 Z M55.4830769,18.35775 L52.752,18.35775 C52.7864615,17.72922 53.2258462,16.98015 54.1132308,16.98015 C55.0609231,16.98015 55.4744615,17.74644 55.4830769,18.35775 Z M57.8092308,20.70828 L57.8092308,17.76366 C57.9987692,17.42787 58.5415385,17.10069 58.9464615,17.10069 C59.0412308,17.10069 59.1187692,17.1093 59.1963077,17.11791 L59.1963077,16.45494 C58.6276923,16.45494 58.1452308,16.78212 57.8092308,17.21262 L57.8092308,16.54965 L57.1630769,16.54965 L57.1630769,20.70828 L57.8092308,20.70828 Z M62.8836923,20.70828 L62.8836923,14.96541 L62.2375385,14.96541 L62.2375385,20.70828 L62.8836923,20.70828 Z M66.0627692,20.8116 C66.7347692,20.8116 67.2947692,20.57913 67.7169231,20.16585 L67.4067692,19.74396 C67.0707692,20.08836 66.5969231,20.27778 66.1144615,20.27778 C65.2184615,20.27778 64.6756923,19.62342 64.624,18.83991 L67.984,18.83991 L67.984,18.67632 C67.984,17.42787 67.2430769,16.44633 65.9852308,16.44633 C64.7963077,16.44633 63.9347692,17.41926 63.9347692,18.62466 C63.9347692,19.92477 64.8221538,20.8116 66.0627692,20.8116 Z M67.3464615,18.35775 L64.6153846,18.35775 C64.6498462,17.72922 65.0892308,16.98015 65.9766154,16.98015 C66.9243077,16.98015 67.3378462,17.74644 67.3464615,18.35775 Z M72.2744615,20.70828 L72.2744615,17.84976 C72.2744615,16.84239 71.5507692,16.44633 70.6633846,16.44633 C69.9827692,16.44633 69.4486154,16.67019 69.0006154,17.13513 L69.3021538,17.58285 C69.6726154,17.17818 70.0775385,17.00598 70.5772308,17.00598 C71.1803077,17.00598 71.6283077,17.32455 71.6283077,17.87559 L71.6283077,18.62466 C71.2923077,18.24582 70.8184615,18.06501 70.2498462,18.06501 C69.5433846,18.06501 68.8024615,18.49551 68.8024615,19.434 C68.8024615,20.33805 69.552,20.8116 70.2498462,20.8116 C70.8098462,20.8116 71.2923077,20.61357 71.6283077,20.23473 L71.6283077,20.70828 L72.2744615,20.70828 Z M70.4910769,20.34666 C69.8793846,20.34666 69.4572308,19.96782 69.4572308,19.434 C69.4572308,18.90879 69.8793846,18.52995 70.4910769,18.52995 C70.9390769,18.52995 71.3784615,18.70215 71.6283077,19.03794 L71.6283077,19.83006 C71.3784615,20.17446 70.9390769,20.34666 70.4910769,20.34666 Z M75.3932308,20.70828 L77.1249231,16.54965 L76.4270769,16.54965 L75.04,19.95921 L73.6615385,16.54965 L72.9550769,16.54965 L74.6867692,20.70828 L75.3932308,20.70828 Z M78.1243077,15.95556 C78.3655385,15.95556 78.5550769,15.76614 78.5550769,15.52506 C78.5550769,15.28398 78.3655385,15.08595 78.1243077,15.08595 C77.8830769,15.08595 77.6849231,15.28398 77.6849231,15.52506 C77.6849231,15.76614 77.8830769,15.95556 78.1243077,15.95556 Z M78.4430769,20.70828 L78.4430769,16.54965 L77.7969231,16.54965 L77.7969231,20.70828 L78.4430769,20.70828 Z M83.1901538,20.70828 L83.1901538,17.78949 C83.1901538,16.88544 82.7335385,16.44633 81.872,16.44633 C81.2430769,16.44633 80.6744615,16.79934 80.3815385,17.15235 L80.3815385,16.54965 L79.7353846,16.54965 L79.7353846,20.70828 L80.3815385,20.70828 L80.3815385,17.66895 C80.6313846,17.33316 81.1052308,17.0232 81.6135385,17.0232 C82.1735385,17.0232 82.5526154,17.24706 82.5526154,17.98752 L82.5526154,20.70828 L83.1901538,20.70828 Z M86.1624615,22.39584 C87.1790769,22.39584 88.1526154,21.96534 88.1526154,20.64801 L88.1526154,16.54965 L87.5064615,16.54965 L87.5064615,17.17818 C87.1704615,16.72185 86.6621538,16.44633 86.1021538,16.44633 C85.008,16.44633 84.2498462,17.27289 84.2498462,18.60744 C84.2498462,19.9506 85.0166154,20.75994 86.1021538,20.75994 C86.688,20.75994 87.1963077,20.44137 87.5064615,20.01948 L87.5064615,20.64801 C87.5064615,21.52623 86.8516923,21.86202 86.1624615,21.86202 C85.568,21.86202 85.1544615,21.70704 84.8098462,21.30237 L84.4824615,21.76731 C84.9821538,22.25808 85.4646154,22.39584 86.1624615,22.39584 Z M86.2658462,20.18307 C85.4215385,20.18307 84.9218462,19.5201 84.9218462,18.60744 C84.9218462,17.68617 85.4215385,17.0232 86.2658462,17.0232 C86.7741538,17.0232 87.2738462,17.33316 87.5064615,17.68617 L87.5064615,19.51149 C87.2738462,19.87311 86.7741538,20.18307 86.2658462,20.18307 Z M94.9243077,20.70828 L94.9243077,17.84976 C94.9243077,16.84239 94.2006154,16.44633 93.3132308,16.44633 C92.6326154,16.44633 92.0984615,16.67019 91.6504615,17.13513 L91.952,17.58285 C92.3224615,17.17818 92.7273846,17.00598 93.2270769,17.00598 C93.8301538,17.00598 94.2781538,17.32455 94.2781538,17.87559 L94.2781538,18.62466 C93.9421538,18.24582 93.4683077,18.06501 92.8996923,18.06501 C92.1932308,18.06501 91.4523077,18.49551 91.4523077,19.434 C91.4523077,20.33805 92.2018462,20.8116 92.8996923,20.8116 C93.4596923,20.8116 93.9421538,20.61357 94.2781538,20.23473 L94.2781538,20.70828 L94.9243077,20.70828 Z M93.1409231,20.34666 C92.5292308,20.34666 92.1070769,19.96782 92.1070769,19.434 C92.1070769,18.90879 92.5292308,18.52995 93.1409231,18.52995 C93.5889231,18.52995 94.0283077,18.70215 94.2781538,19.03794 L94.2781538,19.83006 C94.0283077,20.17446 93.5889231,20.34666 93.1409231,20.34666 Z M99.1027692,20.70828 L99.1027692,17.76366 C99.2923077,17.42787 99.8350769,17.10069 100.24,17.10069 C100.334769,17.10069 100.412308,17.1093 100.489846,17.11791 L100.489846,16.45494 C99.9212308,16.45494 99.4387692,16.78212 99.1027692,17.21262 L99.1027692,16.54965 L98.4566154,16.54965 L98.4566154,20.70828 L99.1027692,20.70828 Z M103.186462,20.8116 C103.858462,20.8116 104.418462,20.57913 104.840615,20.16585 L104.530462,19.74396 C104.194462,20.08836 103.720615,20.27778 103.238154,20.27778 C102.342154,20.27778 101.799385,19.62342 101.747692,18.83991 L105.107692,18.83991 L105.107692,18.67632 C105.107692,17.42787 104.366769,16.44633 103.108923,16.44633 C101.92,16.44633 101.058462,17.41926 101.058462,18.62466 C101.058462,19.92477 101.945846,20.8116 103.186462,20.8116 Z M104.470154,18.35775 L101.739077,18.35775 C101.773538,17.72922 102.212923,16.98015 103.100308,16.98015 C104.048,16.98015 104.461538,17.74644 104.470154,18.35775 Z M107.968,20.70828 L109.699692,16.54965 L109.001846,16.54965 L107.614769,19.95921 L106.236308,16.54965 L105.529846,16.54965 L107.261538,20.70828 L107.968,20.70828 Z M110.699077,15.95556 C110.940308,15.95556 111.129846,15.76614 111.129846,15.52506 C111.129846,15.28398 110.940308,15.08595 110.699077,15.08595 C110.457846,15.08595 110.259692,15.28398 110.259692,15.52506 C110.259692,15.76614 110.457846,15.95556 110.699077,15.95556 Z M111.017846,20.70828 L111.017846,16.54965 L110.371692,16.54965 L110.371692,20.70828 L111.017846,20.70828 Z M114.196923,20.8116 C114.868923,20.8116 115.428923,20.57913 115.851077,20.16585 L115.540923,19.74396 C115.204923,20.08836 114.731077,20.27778 114.248615,20.27778 C113.352615,20.27778 112.809846,19.62342 112.758154,18.83991 L116.118154,18.83991 L116.118154,18.67632 C116.118154,17.42787 115.377231,16.44633 114.119385,16.44633 C112.930462,16.44633 112.068923,17.41926 112.068923,18.62466 C112.068923,19.92477 112.956308,20.8116 114.196923,20.8116 Z M115.480615,18.35775 L112.749538,18.35775 C112.784,17.72922 113.223385,16.98015 114.110769,16.98015 C115.058462,16.98015 115.472,17.74644 115.480615,18.35775 Z M121.416615,20.70828 L122.743385,16.54965 L122.062769,16.54965 L121.046154,19.8645 L119.960615,16.54965 L119.400615,16.54965 L118.306462,19.8645 L117.289846,16.54965 L116.617846,16.54965 L117.944615,20.70828 L118.590769,20.70828 L119.676308,17.3676 L120.761846,20.70828 L121.416615,20.70828 Z M129.980308,16.44633 C131.246769,16.44633 132.039385,17.41926 132.039385,18.62466 C132.039385,19.83006 131.246769,20.8116 129.980308,20.8116 C128.713846,20.8116 127.921231,19.83006 127.921231,18.62466 C127.921231,17.41926 128.713846,16.44633 129.980308,16.44633 Z M127.102769,14.87931 C127.438769,14.87931 127.723077,14.9568 127.981538,15.19788 L127.714462,15.61116 C127.576615,15.49062 127.412923,15.41313 127.206154,15.41313 C126.775385,15.41313 126.542769,15.69726 126.542769,16.23108 L126.542769,16.54965 L127.387077,16.54965 L127.387077,17.11791 L126.542769,17.11791 L126.542769,20.70828 L125.896615,20.70828 L125.896615,17.11791 L125.207385,17.11791 L125.207385,16.54965 L125.896615,16.54965 L125.896615,16.23108 C125.896615,15.37869 126.370462,14.87931 127.102769,14.87931 Z M129.980308,17.0232 C129.092923,17.0232 128.601846,17.78088 128.601846,18.62466 C128.601846,19.47705 129.092923,20.23473 129.980308,20.23473 C130.867692,20.23473 131.358769,19.47705 131.358769,18.62466 C131.358769,17.78088 130.867692,17.0232 129.980308,17.0232 Z M133.736615,20.70828 L133.736615,17.76366 C133.926154,17.42787 134.468923,17.10069 134.873846,17.10069 C134.968615,17.10069 135.046154,17.1093 135.123692,17.11791 L135.123692,16.45494 C134.555077,16.45494 134.072615,16.78212 133.736615,17.21262 L133.736615,16.54965 L133.090462,16.54965 L133.090462,20.70828 L133.736615,20.70828 Z M141.619692,20.70828 L141.619692,16.54965 L140.973538,16.54965 L140.973538,19.6062 C140.732308,19.94199 140.249846,20.23473 139.750154,20.23473 C139.181538,20.23473 138.811077,20.01948 138.811077,19.28763 L138.811077,16.54965 L138.164923,16.54965 L138.164923,19.48566 C138.164923,20.3811 138.621538,20.8116 139.491692,20.8116 C140.112,20.8116 140.654769,20.48442 140.973538,20.1228 L140.973538,20.70828 L141.619692,20.70828 Z M144.238769,20.8116 C145.307077,20.8116 145.867077,20.25195 145.867077,19.55454 C145.867077,17.93586 143.291077,18.52995 143.291077,17.6259 C143.291077,17.25567 143.644308,16.97154 144.212923,16.97154 C144.755692,16.97154 145.203692,17.1954 145.453538,17.49675 L145.755077,17.04903 C145.427692,16.71324 144.928,16.44633 144.212923,16.44633 C143.222154,16.44633 142.670769,16.98876 142.670769,17.64312 C142.670769,19.18431 145.246769,18.56439 145.246769,19.57176 C145.246769,19.98504 144.893538,20.28639 144.256,20.28639 C143.687385,20.28639 143.161846,20.01087 142.886154,19.6923 L142.558769,20.15724 C142.980923,20.59635 143.549538,20.8116 144.238769,20.8116 Z M27.6553846,34.9566 C28.9218462,34.9566 29.7144615,33.97506 29.7144615,32.76966 C29.7144615,31.56426 28.9218462,30.59133 27.6553846,30.59133 C26.3889231,30.59133 25.5963077,31.56426 25.5963077,32.76966 C25.5963077,33.97506 26.3889231,34.9566 27.6553846,34.9566 Z M27.6553846,34.37973 C26.768,34.37973 26.2769231,33.62205 26.2769231,32.76966 C26.2769231,31.92588 26.768,31.1682 27.6553846,31.1682 C28.5427692,31.1682 29.0338462,31.92588 29.0338462,32.76966 C29.0338462,33.62205 28.5427692,34.37973 27.6553846,34.37973 Z M34.2203077,34.85328 L34.2203077,31.93449 C34.2203077,31.03044 33.7636923,30.59133 32.9021538,30.59133 C32.2732308,30.59133 31.7046154,30.94434 31.4116923,31.29735 L31.4116923,30.69465 L30.7655385,30.69465 L30.7655385,34.85328 L31.4116923,34.85328 L31.4116923,31.81395 C31.6615385,31.47816 32.1353846,31.1682 32.6436923,31.1682 C33.2036923,31.1682 33.5827692,31.39206 33.5827692,32.13252 L33.5827692,34.85328 L34.2203077,34.85328 Z M39.5704615,34.9566 C40.8369231,34.9566 41.6295385,33.97506 41.6295385,32.76966 C41.6295385,31.56426 40.8369231,30.59133 39.5704615,30.59133 C38.304,30.59133 37.5113846,31.56426 37.5113846,32.76966 C37.5113846,33.97506 38.304,34.9566 39.5704615,34.9566 Z M39.5704615,34.37973 C38.6830769,34.37973 38.192,33.62205 38.192,32.76966 C38.192,31.92588 38.6830769,31.1682 39.5704615,31.1682 C40.4578462,31.1682 40.9489231,31.92588 40.9489231,32.76966 C40.9489231,33.62205 40.4578462,34.37973 39.5704615,34.37973 Z M46.1353846,34.85328 L46.1353846,31.93449 C46.1353846,31.03044 45.6787692,30.59133 44.8172308,30.59133 C44.1883077,30.59133 43.6196923,30.94434 43.3267692,31.29735 L43.3267692,30.69465 L42.6806154,30.69465 L42.6806154,34.85328 L43.3267692,34.85328 L43.3267692,31.81395 C43.5766154,31.47816 44.0504615,31.1682 44.5587692,31.1682 C45.1187692,31.1682 45.4978462,31.39206 45.4978462,32.13252 L45.4978462,34.85328 L46.1353846,34.85328 Z M49.3230769,34.9566 C49.9950769,34.9566 50.5550769,34.72413 50.9772308,34.31085 L50.6670769,33.88896 C50.3310769,34.23336 49.8572308,34.42278 49.3747692,34.42278 C48.4787692,34.42278 47.936,33.76842 47.8843077,32.98491 L51.2443077,32.98491 L51.2443077,32.82132 C51.2443077,31.57287 50.5033846,30.59133 49.2455385,30.59133 C48.0566154,30.59133 47.1950769,31.56426 47.1950769,32.76966 C47.1950769,34.06977 48.0824615,34.9566 49.3230769,34.9566 Z M50.6067692,32.50275 L47.8756923,32.50275 C47.9101538,31.87422 48.3495385,31.12515 49.2369231,31.12515 C50.1846154,31.12515 50.5981538,31.89144 50.6067692,32.50275 Z M56.336,34.9566 C57.6024615,34.9566 58.3950769,33.97506 58.3950769,32.76966 C58.3950769,31.56426 57.6024615,30.59133 56.336,30.59133 C55.0695385,30.59133 54.2769231,31.56426 54.2769231,32.76966 C54.2769231,33.97506 55.0695385,34.9566 56.336,34.9566 Z M56.336,34.37973 C55.4486154,34.37973 54.9575385,33.62205 54.9575385,32.76966 C54.9575385,31.92588 55.4486154,31.1682 56.336,31.1682 C57.2233846,31.1682 57.7144615,31.92588 57.7144615,32.76966 C57.7144615,33.62205 57.2233846,34.37973 56.336,34.37973 Z M60.2732308,34.85328 L60.2732308,31.26291 L61.1175385,31.26291 L61.1175385,30.69465 L60.2732308,30.69465 L60.2732308,30.37608 C60.2732308,29.84226 60.5058462,29.55813 60.9366154,29.55813 C61.1433846,29.55813 61.3070769,29.63562 61.4449231,29.75616 L61.712,29.34288 C61.4535385,29.1018 61.1692308,29.02431 60.8332308,29.02431 C60.1009231,29.02431 59.6270769,29.52369 59.6270769,30.37608 L59.6270769,30.69465 L58.9378462,30.69465 L58.9378462,31.26291 L59.6270769,31.26291 L59.6270769,34.85328 L60.2732308,34.85328 Z M65.184,34.9566 C65.5544615,34.9566 65.7870769,34.84467 65.9507692,34.68969 L65.7612308,34.19892 C65.6750769,34.29363 65.5113846,34.37973 65.3218462,34.37973 C65.0461538,34.37973 64.9083077,34.15587 64.9083077,33.84591 L64.9083077,31.26291 L65.7526154,31.26291 L65.7526154,30.69465 L64.9083077,30.69465 L64.9083077,29.55813 L64.2535385,29.55813 L64.2535385,30.69465 L63.5643077,30.69465 L63.5643077,31.26291 L64.2535385,31.26291 L64.2535385,33.98367 C64.2535385,34.60359 64.5636923,34.9566 65.184,34.9566 Z M70.1206154,34.85328 L70.1206154,31.91727 C70.1206154,31.01322 69.664,30.59133 68.7938462,30.59133 C68.1649231,30.59133 67.5963077,30.94434 67.312,31.29735 L67.312,29.11041 L66.6658462,29.11041 L66.6658462,34.85328 L67.312,34.85328 L67.312,31.81395 C67.5532308,31.47816 68.0356923,31.1682 68.5353846,31.1682 C69.104,31.1682 69.4744615,31.37484 69.4744615,32.1153 L69.4744615,34.85328 L70.1206154,34.85328 Z M73.2996923,34.9566 C73.9716923,34.9566 74.5316923,34.72413 74.9538462,34.31085 L74.6436923,33.88896 C74.3076923,34.23336 73.8338462,34.42278 73.3513846,34.42278 C72.4553846,34.42278 71.9126154,33.76842 71.8609231,32.98491 L75.2209231,32.98491 L75.2209231,32.82132 C75.2209231,31.57287 74.48,30.59133 73.2221538,30.59133 C72.0332308,30.59133 71.1716923,31.56426 71.1716923,32.76966 C71.1716923,34.06977 72.0590769,34.9566 73.2996923,34.9566 Z M74.5833846,32.50275 L71.8523077,32.50275 C71.8867692,31.87422 72.3261538,31.12515 73.2135385,31.12515 C74.1612308,31.12515 74.5747692,31.89144 74.5833846,32.50275 Z M79.8215385,34.9566 C80.8898462,34.9566 81.4498462,34.39695 81.4498462,33.69954 C81.4498462,32.08086 78.8738462,32.67495 78.8738462,31.7709 C78.8738462,31.40067 79.2270769,31.11654 79.7956923,31.11654 C80.3384615,31.11654 80.7864615,31.3404 81.0363077,31.64175 L81.3378462,31.19403 C81.0104615,30.85824 80.5107692,30.59133 79.7956923,30.59133 C78.8049231,30.59133 78.2535385,31.13376 78.2535385,31.78812 C78.2535385,33.32931 80.8295385,32.70939 80.8295385,33.71676 C80.8295385,34.13004 80.4763077,34.43139 79.8387692,34.43139 C79.2701538,34.43139 78.7446154,34.15587 78.4689231,33.8373 L78.1415385,34.30224 C78.5636923,34.74135 79.1323077,34.9566 79.8215385,34.9566 Z M82.8283077,30.10056 C83.0695385,30.10056 83.2590769,29.91114 83.2590769,29.67006 C83.2590769,29.42898 83.0695385,29.23095 82.8283077,29.23095 C82.5870769,29.23095 82.3889231,29.42898 82.3889231,29.67006 C82.3889231,29.91114 82.5870769,30.10056 82.8283077,30.10056 Z M83.1470769,34.85328 L83.1470769,30.69465 L82.5009231,30.69465 L82.5009231,34.85328 L83.1470769,34.85328 Z M85.4990769,34.9566 C85.8695385,34.9566 86.1021538,34.84467 86.2658462,34.68969 L86.0763077,34.19892 C85.9901538,34.29363 85.8264615,34.37973 85.6369231,34.37973 C85.3612308,34.37973 85.2233846,34.15587 85.2233846,33.84591 L85.2233846,31.26291 L86.0676923,31.26291 L86.0676923,30.69465 L85.2233846,30.69465 L85.2233846,29.55813 L84.5686154,29.55813 L84.5686154,30.69465 L83.8793846,30.69465 L83.8793846,31.26291 L84.5686154,31.26291 L84.5686154,33.98367 C84.5686154,34.60359 84.8787692,34.9566 85.4990769,34.9566 Z M88.8590769,34.9566 C89.5310769,34.9566 90.0910769,34.72413 90.5132308,34.31085 L90.2030769,33.88896 C89.8670769,34.23336 89.3932308,34.42278 88.9107692,34.42278 C88.0147692,34.42278 87.472,33.76842 87.4203077,32.98491 L90.7803077,32.98491 L90.7803077,32.82132 C90.7803077,31.57287 90.0393846,30.59133 88.7815385,30.59133 C87.5926154,30.59133 86.7310769,31.56426 86.7310769,32.76966 C86.7310769,34.06977 87.6184615,34.9566 88.8590769,34.9566 Z M90.1427692,32.50275 L87.4116923,32.50275 C87.4461538,31.87422 87.8855385,31.12515 88.7729231,31.12515 C89.7206154,31.12515 90.1341538,31.89144 90.1427692,32.50275 Z M93.1495385,34.9566 C94.2178462,34.9566 94.7778462,34.39695 94.7778462,33.69954 C94.7778462,32.08086 92.2018462,32.67495 92.2018462,31.7709 C92.2018462,31.40067 92.5550769,31.11654 93.1236923,31.11654 C93.6664615,31.11654 94.1144615,31.3404 94.3643077,31.64175 L94.6658462,31.19403 C94.3384615,30.85824 93.8387692,30.59133 93.1236923,30.59133 C92.1329231,30.59133 91.5815385,31.13376 91.5815385,31.78812 C91.5815385,33.32931 94.1575385,32.70939 94.1575385,33.71676 C94.1575385,34.13004 93.8043077,34.43139 93.1667692,34.43139 C92.5981538,34.43139 92.0726154,34.15587 91.7969231,33.8373 L91.4695385,34.30224 C91.8916923,34.74135 92.4603077,34.9566 93.1495385,34.9566 Z M98.7064615,33.72537 L98.7064615,31.83978 C98.9304615,31.47816 99.4387692,31.1682 99.9556923,31.1682 C100.791385,31.1682 101.291077,31.857 101.291077,32.77827 C101.291077,33.69954 100.791385,34.37973 99.9556923,34.37973 C99.4387692,34.37973 98.9304615,34.08699 98.7064615,33.72537 Z M98.7064615,34.85328 L98.7064615,34.23336 C99.0166154,34.65525 99.5249231,34.9566 100.110769,34.9566 C101.196308,34.9566 101.963077,34.13004 101.963077,32.77827 C101.963077,31.44372 101.204923,30.59133 100.110769,30.59133 C99.5507692,30.59133 99.0424615,30.86685 98.7064615,31.32318 L98.7064615,29.11041 L98.0603077,29.11041 L98.0603077,34.85328 L98.7064615,34.85328 Z M104.900923,34.9566 C105.572923,34.9566 106.132923,34.72413 106.555077,34.31085 L106.244923,33.88896 C105.908923,34.23336 105.435077,34.42278 104.952615,34.42278 C104.056615,34.42278 103.513846,33.76842 103.462154,32.98491 L106.822154,32.98491 L106.822154,32.82132 C106.822154,31.57287 106.081231,30.59133 104.823385,30.59133 C103.634462,30.59133 102.772923,31.56426 102.772923,32.76966 C102.772923,34.06977 103.660308,34.9566 104.900923,34.9566 Z M106.184615,32.50275 L103.453538,32.50275 C103.488,31.87422 103.927385,31.12515 104.814769,31.12515 C105.762462,31.12515 106.176,31.89144 106.184615,32.50275 Z M108.510769,34.85328 L108.510769,29.11041 L107.864615,29.11041 L107.864615,34.85328 L108.510769,34.85328 Z M111.620923,34.9566 C112.887385,34.9566 113.68,33.97506 113.68,32.76966 C113.68,31.56426 112.887385,30.59133 111.620923,30.59133 C110.354462,30.59133 109.561846,31.56426 109.561846,32.76966 C109.561846,33.97506 110.354462,34.9566 111.620923,34.9566 Z M111.620923,34.37973 C110.733538,34.37973 110.242462,33.62205 110.242462,32.76966 C110.242462,31.92588 110.733538,31.1682 111.620923,31.1682 C112.508308,31.1682 112.999385,31.92588 112.999385,32.76966 C112.999385,33.62205 112.508308,34.37973 111.620923,34.37973 Z M118.987077,34.85328 L120.313846,30.69465 L119.633231,30.69465 L118.616615,34.0095 L117.531077,30.69465 L116.971077,30.69465 L115.876923,34.0095 L114.860308,30.69465 L114.188308,30.69465 L115.515077,34.85328 L116.161231,34.85328 L117.246769,31.5126 L118.332308,34.85328 L118.987077,34.85328 Z" id="Combined-Shape"></path>
                </g>
                <g id="Group-12-Copy" transform="translate(94.373753, 30.223721)" fill="#FEC93E" fill-rule="nonzero">
                    <g id="icon/toggle/star_border_24px" transform="translate(43.586207, 0.000000)">
                        <path d="M5.4958364,2.47068154 L4.5820359,0.296774895 C4.4176485,-0.098924965 3.8567975,-0.098924965 3.6924101,0.296774895 L2.7786096,2.47556672 L0.443341804,2.67585924 C0.0178686038,2.71005553 -0.156188596,3.24742571 0.167751204,3.53076635 L1.942168,5.08425469 L1.4103264,7.39006128 C1.313628,7.81018706 1.7632758,8.14237954 2.13073,7.9176611 L4.137223,6.69636523 L6.1437161,7.92254628 C6.5111702,8.14726472 6.9608181,7.81507224 6.8641196,7.39494647 L6.3322781,5.08425469 L8.1066948,3.53076635 C8.4306346,3.24742571 8.2614123,2.71005553 7.8359391,2.67585924 L5.4958364,2.47068154 Z" id="path-2"></path>
                    </g>
                    <g id="Mask" transform="translate(32.275862, 0.000000)">
                        <path d="M4.13793105,6.69557124 L6.14476745,7.92250198 C6.51228455,8.14735781 6.96200935,7.81496224 6.86529425,7.39457959 L6.33336175,5.08736322 L8.10808215,3.53292507 C8.43207745,3.24941119 8.25799045,2.71171246 7.83244435,2.67749527 L5.49677695,2.47708029 L4.58282005,0.296956345 C4.41840455,-0.0989854483 3.85745755,-0.0989854483 3.69304205,0.296956345 L2.77908515,2.47219212 L0.44341775,2.6726071 C0.0178716502,2.70682429 -0.15621535,3.24452302 0.16777995,3.5280369 L1.94250035,5.08247505 L1.41056785,7.38969142 C1.31385285,7.81007407 1.76357755,8.14246964 2.13109465,7.91761381 L4.13793105,6.69557124 L4.13793105,6.69557124 Z" id="path-4"></path>
                    </g>
                    <g id="icon/toggle/star_24px" transform="translate(21.517241, 0.000000)">
                        <path d="M4.13793105,6.69557124 L6.14476745,7.92250198 C6.51228455,8.14735781 6.96200935,7.81496224 6.86529435,7.39457959 L6.33336175,5.08736322 L8.10808215,3.53292507 C8.43207745,3.24941119 8.25799045,2.71171246 7.83244435,2.67749527 L5.49677695,2.47708029 L4.58282015,0.296956345 C4.41840455,-0.0989854483 3.85745755,-0.0989854483 3.69304205,0.296956345 L2.77908515,2.47219212 L0.44341775,2.6726071 C0.0178716502,2.70682429 -0.15621535,3.24452302 0.16777995,3.5280369 L1.94250035,5.08247505 L1.41056785,7.38969142 C1.31385285,7.81007407 1.76357765,8.14246964 2.13109465,7.91761381 L4.13793105,6.69557124 L4.13793105,6.69557124 Z" id="path-6"></path>
                    </g>
                    <g id="Mask" transform="translate(10.758621, 0.000000)">
                        <path d="M4.13793103,6.69557124 L6.14476753,7.92250198 C6.51228453,8.14735781 6.96200933,7.81496224 6.86529433,7.39457959 L6.33336173,5.08736322 L8.10808213,3.53292507 C8.43207743,3.24941119 8.25799043,2.71171246 7.83244443,2.67749527 L5.49677693,2.47708029 L4.58282013,0.296956345 C4.41840453,-0.0989854483 3.85745753,-0.0989854483 3.69304203,0.296956345 L2.77908523,2.47219212 L0.443417726,2.6726071 C0.0178717256,2.70682429 -0.156215374,3.24452302 0.167779926,3.5280369 L1.94250033,5.08247505 L1.41056783,7.38969142 C1.31385283,7.81007407 1.76357763,8.14246964 2.13109463,7.91761381 L4.13793103,6.69557124 L4.13793103,6.69557124 Z" id="path-8"></path>
                    </g>
                    <g id="icon/toggle/star_24px" transform="translate(0.000000, 0.000000)">
                        <path d="M4.13793103,6.69557124 L6.14476746,7.92250198 C6.51228449,8.14735781 6.96200928,7.81496224 6.86529428,7.39457959 L6.33336173,5.08736322 L8.10808214,3.53292507 C8.43207741,3.24941119 8.2579904,2.71171246 7.83244436,2.67749527 L5.4967769,2.47708029 L4.58282007,0.296956345 C4.41840456,-0.0989854483 3.85745751,-0.0989854483 3.693042,0.296956345 L2.77908516,2.47219212 L0.443417707,2.6726071 C0.0178716697,2.70682429 -0.156215346,3.24452302 0.167779933,3.5280369 L1.94250034,5.08247505 L1.41056779,7.38969142 C1.31385278,7.81007407 1.76357757,8.14246964 2.13109461,7.91761381 L4.13793103,6.69557124 L4.13793103,6.69557124 Z" id="path-10"></path>
                    </g>
                </g>
                <g id="icons8-google" transform="translate(43.381710, 162.028807)" fill-rule="nonzero">
                    <path d="M12.4927,5.06916056 L11.9846154,5.06916056 L11.9846154,5.043 L6.30769231,5.043 L6.30769231,7.5645 L9.87248462,7.5645 C9.35241538,9.03232819 7.95494615,10.086 6.30769231,10.086 C4.21763846,10.086 2.52307692,8.39249756 2.52307692,6.30375 C2.52307692,4.21500244 4.21763846,2.5215 6.30769231,2.5215 C7.27245385,2.5215 8.15016923,2.88522638 8.81846923,3.47935481 L10.6026,1.69633913 C9.47604615,0.647079938 7.96913846,0 6.30769231,0 C2.82426923,0 0,2.82250406 0,6.30375 C0,9.78499594 2.82426923,12.6075 6.30769231,12.6075 C9.79111538,12.6075 12.6153846,9.78499594 12.6153846,6.30375 C12.6153846,5.88108356 12.5718615,5.46850313 12.4927,5.06916056 Z" id="Path" fill="#FFC107"></path>
                    <path d="M0.727276923,3.36966956 L2.79966923,4.88855813 C3.36042308,3.50110275 4.71846923,2.5215 6.30769231,2.5215 C7.27245385,2.5215 8.15016923,2.88522638 8.81846923,3.47935481 L10.6026,1.69633913 C9.47604615,0.647079938 7.96913846,0 6.30769231,0 C3.88490769,0 1.78381538,1.36696819 0.727276923,3.36966956 Z" id="Path" fill="#FF3D00"></path>
                    <path d="M6.30769231,12.6075 C7.93696923,12.6075 9.41738462,11.9843743 10.5366846,10.9710465 L8.58445385,9.32009438 C7.95116154,9.79949456 7.16396154,10.086 6.30769231,10.086 C4.66706154,10.086 3.27400769,9.04052306 2.74920769,7.58152013 L0.692269231,9.16533731 C1.73619231,11.2068068 3.85620769,12.6075 6.30769231,12.6075 Z" id="Path" fill="#4CAF50"></path>
                    <path d="M12.4927,5.06916056 L11.9846154,5.06916056 L11.9846154,5.043 L6.30769231,5.043 L6.30769231,7.5645 L9.87248462,7.5645 C9.6227,8.26957444 9.16886154,8.87757113 8.58350769,9.32040956 C8.58382308,9.32009438 8.58413846,9.32009438 8.58445385,9.31977919 L10.5366846,10.9707313 C10.3985462,11.0961759 12.6153846,9.455625 12.6153846,6.30375 C12.6153846,5.88108356 12.5718615,5.46850313 12.4927,5.06916056 Z" id="Path" fill="#1976D2"></path>
                </g>
                <path d="M68.9566363,170.949883 L67.4834055,168.651013 C68.2157132,168.556303 68.9135594,168.005263 68.9135594,166.972063 C68.9135594,165.913033 68.1640209,165.207013 67.0698671,165.207013 L64.648944,165.207013 L64.648944,170.949883 L65.5104825,170.949883 L65.5104825,168.737113 L66.5874055,168.737113 L67.9572517,170.949883 L68.9566363,170.949883 Z M66.9578671,167.979433 L65.5104825,167.979433 L65.5104825,165.964693 L66.9578671,165.964693 C67.5781748,165.964693 68.0261748,166.369363 68.0261748,166.972063 C68.0261748,167.574763 67.5781748,167.979433 66.9578671,167.979433 Z M71.8514055,171.053203 C72.5234055,171.053203 73.1092517,170.837953 73.5227901,170.433283 L73.160944,169.925293 C72.8507901,170.243863 72.3683286,170.416063 71.928944,170.416063 C71.0932517,170.416063 70.5763286,169.830583 70.5160209,169.124563 L73.8070978,169.124563 L73.8070978,168.935143 C73.8070978,167.660863 73.0317132,166.687933 71.7824825,166.687933 C70.5677132,166.687933 69.6975594,167.660863 69.6975594,168.866263 C69.6975594,170.174983 70.6107901,171.053203 71.8514055,171.053203 Z M73.048944,168.564913 L70.5074055,168.564913 C70.5504825,167.996653 70.9467901,167.325073 71.7824825,167.325073 C72.6612517,167.325073 73.0317132,168.013873 73.048944,168.564913 Z M76.7190978,170.949883 L78.4335594,166.791253 L77.5978671,166.791253 L76.296944,170.054443 L74.9960209,166.791253 L74.168944,166.791253 L75.8834055,170.949883 L76.7190978,170.949883 Z M79.4415594,166.240213 C79.7172517,166.240213 79.9412517,166.016353 79.9412517,165.740833 C79.9412517,165.465313 79.7172517,165.250063 79.4415594,165.250063 C79.1744825,165.250063 78.9418671,165.465313 78.9418671,165.740833 C78.9418671,166.016353 79.1744825,166.240213 79.4415594,166.240213 Z M79.8378671,170.949883 L79.8378671,166.791253 L79.0624825,166.791253 L79.0624825,170.949883 L79.8378671,170.949883 Z M82.9652517,171.053203 C83.6372517,171.053203 84.2230978,170.837953 84.6366363,170.433283 L84.2747902,169.925293 C83.9646363,170.243863 83.4821748,170.416063 83.0427902,170.416063 C82.2070978,170.416063 81.6901748,169.830583 81.6298671,169.124563 L84.920944,169.124563 L84.920944,168.935143 C84.920944,167.660863 84.1455594,166.687933 82.8963286,166.687933 C81.6815594,166.687933 80.8114055,167.660863 80.8114055,168.866263 C80.8114055,170.174983 81.7246363,171.053203 82.9652517,171.053203 Z M84.1627902,168.564913 L81.6212517,168.564913 C81.6643286,167.996653 82.0606363,167.325073 82.8963286,167.325073 C83.7750978,167.325073 84.1455594,168.013873 84.1627902,168.564913 Z M90.3055594,170.949883 L91.6150978,166.791253 L90.8052517,166.791253 L89.8575594,169.959733 L88.8150978,166.791253 L88.1430978,166.791253 L87.1006363,169.959733 L86.152944,166.791253 L85.3430978,166.791253 L86.6526363,170.949883 L87.4538671,170.949883 L88.4790978,167.755573 L89.5043286,170.949883 L90.3055594,170.949883 Z M98.1110978,170.949883 L98.1110978,166.791253 L97.3357132,166.791253 L97.3357132,169.778923 C97.1030978,170.088883 96.6637132,170.364403 96.1812517,170.364403 C95.6470978,170.364403 95.3024825,170.157763 95.3024825,169.468963 L95.3024825,166.791253 L94.5270978,166.791253 L94.5270978,169.727263 C94.5270978,170.605483 94.9664825,171.053203 95.8538671,171.053203 C96.4914055,171.053203 97.016944,170.726023 97.3357132,170.381623 L97.3357132,170.949883 L98.1110978,170.949883 Z M100.712944,171.053203 C101.807098,171.053203 102.392944,170.493553 102.392944,169.778923 C102.392944,168.823213 101.531406,168.625183 100.807713,168.461593 C100.29079,168.341053 99.8427902,168.246343 99.8427902,167.893333 C99.8427902,167.557543 100.170175,167.316463 100.695713,167.316463 C101.221252,167.316463 101.686483,167.531713 101.927713,167.824453 L102.272329,167.282023 C101.919098,166.946233 101.402175,166.687933 100.687098,166.687933 C99.6704825,166.687933 99.1018671,167.256193 99.1018671,167.919163 C99.1018671,168.814603 99.928944,169.004023 100.635406,169.167613 C101.169559,169.288153 101.643406,169.400083 101.643406,169.796143 C101.643406,170.166373 101.333252,170.433283 100.747406,170.433283 C100.187406,170.433283 99.6360209,170.149153 99.3517132,169.839193 L98.9812517,170.407453 C99.4034055,170.837953 100.015098,171.053203 100.712944,171.053203 Z M107.441559,171.053203 C108.742483,171.053203 109.543713,170.071663 109.543713,168.866263 C109.543713,167.669473 108.742483,166.687933 107.441559,166.687933 C106.149252,166.687933 105.339406,167.669473 105.339406,168.866263 C105.339406,170.071663 106.149252,171.053203 107.441559,171.053203 Z M107.441559,170.364403 C106.614483,170.364403 106.149252,169.658383 106.149252,168.866263 C106.149252,168.082753 106.614483,167.376733 107.441559,167.376733 C108.277252,167.376733 108.733867,168.082753 108.733867,168.866263 C108.733867,169.658383 108.277252,170.364403 107.441559,170.364403 Z M114.109867,170.949883 L114.109867,168.031093 C114.109867,167.152873 113.653252,166.687933 112.774482,166.687933 C112.128329,166.687933 111.576944,167.040943 111.301252,167.376733 L111.301252,166.791253 L110.525867,166.791253 L110.525867,170.949883 L111.301252,170.949883 L111.301252,167.979433 C111.525252,167.669473 111.964636,167.376733 112.447098,167.376733 C112.981252,167.376733 113.334482,167.600593 113.334482,168.289393 L113.334482,170.949883 L114.109867,170.949883 Z M120.321559,171.061813 C121.295098,171.061813 122.087713,170.657143 122.639098,170.045833 L122.639098,167.936383 L119.933867,167.936383 L119.933867,168.694063 L121.777559,168.694063 L121.777559,169.727263 C121.501867,169.985563 120.959098,170.295523 120.321559,170.295523 C119.124021,170.295523 118.228021,169.365643 118.228021,168.082753 C118.228021,166.791253 119.124021,165.878593 120.321559,165.878593 C120.993559,165.878593 121.57079,166.214383 121.898175,166.653493 L122.596021,166.248823 C122.113559,165.603073 121.398482,165.112303 120.321559,165.112303 C118.676021,165.112303 117.340636,166.291873 117.340636,168.082753 C117.340636,169.873633 118.676021,171.061813 120.321559,171.061813 Z M125.568329,171.053203 C126.869252,171.053203 127.670482,170.071663 127.670482,168.866263 C127.670482,167.669473 126.869252,166.687933 125.568329,166.687933 C124.276021,166.687933 123.466175,167.669473 123.466175,168.866263 C123.466175,170.071663 124.276021,171.053203 125.568329,171.053203 Z M125.568329,170.364403 C124.741252,170.364403 124.276021,169.658383 124.276021,168.866263 C124.276021,168.082753 124.741252,167.376733 125.568329,167.376733 C126.404021,167.376733 126.860636,168.082753 126.860636,168.866263 C126.860636,169.658383 126.404021,170.364403 125.568329,170.364403 Z M130.496329,171.053203 C131.797252,171.053203 132.598482,170.071663 132.598482,168.866263 C132.598482,167.669473 131.797252,166.687933 130.496329,166.687933 C129.204021,166.687933 128.394175,167.669473 128.394175,168.866263 C128.394175,170.071663 129.204021,171.053203 130.496329,171.053203 Z M130.496329,170.364403 C129.669252,170.364403 129.204021,169.658383 129.204021,168.866263 C129.204021,168.082753 129.669252,167.376733 130.496329,167.376733 C131.332021,167.376733 131.788636,168.082753 131.788636,168.866263 C131.788636,169.658383 131.332021,170.364403 130.496329,170.364403 Z M135.252021,172.637443 C136.277252,172.637443 137.319713,172.215553 137.319713,170.786293 L137.319713,166.791253 L136.544329,166.791253 L136.544329,167.393953 C136.208329,166.946233 135.717252,166.687933 135.174482,166.687933 C134.097559,166.687933 133.322175,167.497273 133.322175,168.831823 C133.322175,170.192203 134.097559,170.984323 135.174482,170.984323 C135.734482,170.984323 136.225559,170.682973 136.544329,170.269693 L136.544329,170.812123 C136.544329,171.690343 135.898175,172.000303 135.252021,172.000303 C134.683405,172.000303 134.261252,171.845323 133.916636,171.449263 L133.546175,172.017523 C134.045867,172.491073 134.554175,172.637443 135.252021,172.637443 Z M135.389867,170.295523 C134.614482,170.295523 134.132021,169.692823 134.132021,168.831823 C134.132021,167.979433 134.614482,167.376733 135.389867,167.376733 C135.855098,167.376733 136.328944,167.652253 136.544329,167.988043 L136.544329,169.675603 C136.328944,170.011393 135.855098,170.295523 135.389867,170.295523 Z M139.327098,170.949883 L139.327098,165.207013 L138.551713,165.207013 L138.551713,170.949883 L139.327098,170.949883 Z M142.454482,171.053203 C143.126482,171.053203 143.712329,170.837953 144.125867,170.433283 L143.764021,169.925293 C143.453867,170.243863 142.971405,170.416063 142.532021,170.416063 C141.696329,170.416063 141.179405,169.830583 141.119098,169.124563 L144.410175,169.124563 L144.410175,168.935143 C144.410175,167.660863 143.63479,166.687933 142.385559,166.687933 C141.17079,166.687933 140.300636,167.660863 140.300636,168.866263 C140.300636,170.174983 141.213867,171.053203 142.454482,171.053203 Z M143.652021,168.564913 L141.110482,168.564913 C141.153559,167.996653 141.549867,167.325073 142.385559,167.325073 C143.264329,167.325073 143.63479,168.013873 143.652021,168.564913 Z" id="Combined-Shape" fill="#212B36" fill-rule="nonzero"></path>
                <rect id="Rectangle-9" stroke="#DFE3E8" stroke-width="0.614124872" fill="#FFFFFF" fill-rule="nonzero" x="34.4580033" y="190.93337" width="171.693567" height="27.0608751" rx="3.07062436"></rect>
                <path d="M68.9566363,207.081133 L67.4834055,204.782263 C68.2157132,204.687553 68.9135594,204.136513 68.9135594,203.103313 C68.9135594,202.044283 68.1640209,201.338263 67.0698671,201.338263 L64.648944,201.338263 L64.648944,207.081133 L65.5104825,207.081133 L65.5104825,204.868363 L66.5874055,204.868363 L67.9572517,207.081133 L68.9566363,207.081133 Z M66.9578671,204.110683 L65.5104825,204.110683 L65.5104825,202.095943 L66.9578671,202.095943 C67.5781748,202.095943 68.0261748,202.500613 68.0261748,203.103313 C68.0261748,203.706013 67.5781748,204.110683 66.9578671,204.110683 Z M71.8514055,207.184453 C72.5234055,207.184453 73.1092517,206.969203 73.5227901,206.564533 L73.160944,206.056543 C72.8507901,206.375113 72.3683286,206.547313 71.928944,206.547313 C71.0932517,206.547313 70.5763286,205.961833 70.5160209,205.255813 L73.8070978,205.255813 L73.8070978,205.066393 C73.8070978,203.792113 73.0317132,202.819183 71.7824825,202.819183 C70.5677132,202.819183 69.6975594,203.792113 69.6975594,204.997513 C69.6975594,206.306233 70.6107901,207.184453 71.8514055,207.184453 Z M73.048944,204.696163 L70.5074055,204.696163 C70.5504825,204.127903 70.9467901,203.456323 71.7824825,203.456323 C72.6612517,203.456323 73.0317132,204.145123 73.048944,204.696163 Z M76.7190978,207.081133 L78.4335594,202.922503 L77.5978671,202.922503 L76.296944,206.185693 L74.9960209,202.922503 L74.168944,202.922503 L75.8834055,207.081133 L76.7190978,207.081133 Z M79.4415594,202.371463 C79.7172517,202.371463 79.9412517,202.147603 79.9412517,201.872083 C79.9412517,201.596563 79.7172517,201.381313 79.4415594,201.381313 C79.1744825,201.381313 78.9418671,201.596563 78.9418671,201.872083 C78.9418671,202.147603 79.1744825,202.371463 79.4415594,202.371463 Z M79.8378671,207.081133 L79.8378671,202.922503 L79.0624825,202.922503 L79.0624825,207.081133 L79.8378671,207.081133 Z M82.9652517,207.184453 C83.6372517,207.184453 84.2230978,206.969203 84.6366363,206.564533 L84.2747902,206.056543 C83.9646363,206.375113 83.4821748,206.547313 83.0427902,206.547313 C82.2070978,206.547313 81.6901748,205.961833 81.6298671,205.255813 L84.920944,205.255813 L84.920944,205.066393 C84.920944,203.792113 84.1455594,202.819183 82.8963286,202.819183 C81.6815594,202.819183 80.8114055,203.792113 80.8114055,204.997513 C80.8114055,206.306233 81.7246363,207.184453 82.9652517,207.184453 Z M84.1627902,204.696163 L81.6212517,204.696163 C81.6643286,204.127903 82.0606363,203.456323 82.8963286,203.456323 C83.7750978,203.456323 84.1455594,204.145123 84.1627902,204.696163 Z M90.3055594,207.081133 L91.6150978,202.922503 L90.8052517,202.922503 L89.8575594,206.090983 L88.8150978,202.922503 L88.1430978,202.922503 L87.1006363,206.090983 L86.152944,202.922503 L85.3430978,202.922503 L86.6526363,207.081133 L87.4538671,207.081133 L88.4790978,203.886823 L89.5043286,207.081133 L90.3055594,207.081133 Z M98.1110978,207.081133 L98.1110978,202.922503 L97.3357132,202.922503 L97.3357132,205.910173 C97.1030978,206.220133 96.6637132,206.495653 96.1812517,206.495653 C95.6470978,206.495653 95.3024825,206.289013 95.3024825,205.600213 L95.3024825,202.922503 L94.5270978,202.922503 L94.5270978,205.858513 C94.5270978,206.736733 94.9664825,207.184453 95.8538671,207.184453 C96.4914055,207.184453 97.016944,206.857273 97.3357132,206.512873 L97.3357132,207.081133 L98.1110978,207.081133 Z M100.712944,207.184453 C101.807098,207.184453 102.392944,206.624803 102.392944,205.910173 C102.392944,204.954463 101.531406,204.756433 100.807713,204.592843 C100.29079,204.472303 99.8427902,204.377593 99.8427902,204.024583 C99.8427902,203.688793 100.170175,203.447713 100.695713,203.447713 C101.221252,203.447713 101.686483,203.662963 101.927713,203.955703 L102.272329,203.413273 C101.919098,203.077483 101.402175,202.819183 100.687098,202.819183 C99.6704825,202.819183 99.1018671,203.387443 99.1018671,204.050413 C99.1018671,204.945853 99.928944,205.135273 100.635406,205.298863 C101.169559,205.419403 101.643406,205.531333 101.643406,205.927393 C101.643406,206.297623 101.333252,206.564533 100.747406,206.564533 C100.187406,206.564533 99.6360209,206.280403 99.3517132,205.970443 L98.9812517,206.538703 C99.4034055,206.969203 100.015098,207.184453 100.712944,207.184453 Z M107.441559,207.184453 C108.742483,207.184453 109.543713,206.202913 109.543713,204.997513 C109.543713,203.800723 108.742483,202.819183 107.441559,202.819183 C106.149252,202.819183 105.339406,203.800723 105.339406,204.997513 C105.339406,206.202913 106.149252,207.184453 107.441559,207.184453 Z M107.441559,206.495653 C106.614483,206.495653 106.149252,205.789633 106.149252,204.997513 C106.149252,204.214003 106.614483,203.507983 107.441559,203.507983 C108.277252,203.507983 108.733867,204.214003 108.733867,204.997513 C108.733867,205.789633 108.277252,206.495653 107.441559,206.495653 Z M114.109867,207.081133 L114.109867,204.162343 C114.109867,203.284123 113.653252,202.819183 112.774482,202.819183 C112.128329,202.819183 111.576944,203.172193 111.301252,203.507983 L111.301252,202.922503 L110.525867,202.922503 L110.525867,207.081133 L111.301252,207.081133 L111.301252,204.110683 C111.525252,203.800723 111.964636,203.507983 112.447098,203.507983 C112.981252,203.507983 113.334482,203.731843 113.334482,204.420643 L113.334482,207.081133 L114.109867,207.081133 Z M118.443406,207.081133 L118.443406,204.532573 L121.381252,204.532573 L121.381252,203.774893 L118.443406,203.774893 L118.443406,202.095943 L121.441559,202.095943 L121.441559,201.338263 L117.581867,201.338263 L117.581867,207.081133 L118.443406,207.081133 Z M125.697559,207.081133 L125.697559,204.274273 C125.697559,203.215243 124.93079,202.819183 124.026175,202.819183 C123.354175,202.819183 122.785559,203.043043 122.320329,203.499373 L122.656329,204.033193 C123.02679,203.662963 123.431713,203.482153 123.905559,203.482153 C124.500021,203.482153 124.922175,203.792113 124.922175,204.308713 L124.922175,204.997513 C124.603405,204.627283 124.120944,204.446473 123.560944,204.446473 C122.863098,204.446473 122.113559,204.859753 122.113559,205.806853 C122.113559,206.719513 122.871713,207.184453 123.560944,207.184453 C124.120944,207.184453 124.59479,206.986423 124.922175,206.624803 L124.922175,207.081133 L125.697559,207.081133 Z M123.853867,206.642023 C123.293867,206.642023 122.897559,206.306233 122.897559,205.815463 C122.897559,205.324693 123.293867,204.988903 123.853867,204.988903 C124.284636,204.988903 124.689559,205.152493 124.922175,205.462453 L124.922175,206.168473 C124.689559,206.478433 124.284636,206.642023 123.853867,206.642023 Z M128.799098,207.184453 C129.583098,207.184453 130.056944,206.857273 130.358482,206.452603 L129.841559,205.979053 C129.591713,206.323453 129.255713,206.495653 128.833559,206.495653 C128.015098,206.495653 127.489559,205.858513 127.489559,204.997513 C127.489559,204.136513 128.015098,203.507983 128.833559,203.507983 C129.255713,203.507983 129.591713,203.671573 129.841559,204.024583 L130.358482,203.551033 C130.056944,203.146363 129.583098,202.819183 128.799098,202.819183 C127.541252,202.819183 126.679713,203.749063 126.679713,204.997513 C126.679713,206.245963 127.541252,207.184453 128.799098,207.184453 Z M133.10679,207.184453 C133.77879,207.184453 134.364636,206.969203 134.778175,206.564533 L134.416329,206.056543 C134.106175,206.375113 133.623713,206.547313 133.184329,206.547313 C132.348636,206.547313 131.831713,205.961833 131.771406,205.255813 L135.062483,205.255813 L135.062483,205.066393 C135.062483,203.792113 134.287098,202.819183 133.037867,202.819183 C131.823098,202.819183 130.952944,203.792113 130.952944,204.997513 C130.952944,206.306233 131.866175,207.184453 133.10679,207.184453 Z M134.304329,204.696163 L131.76279,204.696163 C131.805867,204.127903 132.202175,203.456323 133.037867,203.456323 C133.916636,203.456323 134.287098,204.145123 134.304329,204.696163 Z M136.811406,205.892953 L136.811406,204.127903 C137.018175,203.792113 137.492021,203.507983 137.965867,203.507983 C138.741252,203.507983 139.223713,204.136513 139.223713,205.006123 C139.223713,205.875733 138.741252,206.495653 137.965867,206.495653 C137.492021,206.495653 137.018175,206.228743 136.811406,205.892953 Z M136.811406,207.081133 L136.811406,206.487043 C137.121559,206.900323 137.612636,207.184453 138.172636,207.184453 C139.249559,207.184453 140.024944,206.366503 140.024944,205.006123 C140.024944,203.671573 139.258175,202.819183 138.172636,202.819183 C137.629867,202.819183 137.13879,203.077483 136.811406,203.525203 L136.811406,201.338263 L136.036021,201.338263 L136.036021,207.081133 L136.811406,207.081133 Z M142.859406,207.184453 C144.160329,207.184453 144.961559,206.202913 144.961559,204.997513 C144.961559,203.800723 144.160329,202.819183 142.859406,202.819183 C141.567098,202.819183 140.757252,203.800723 140.757252,204.997513 C140.757252,206.202913 141.567098,207.184453 142.859406,207.184453 Z M142.859406,206.495653 C142.032329,206.495653 141.567098,205.789633 141.567098,204.997513 C141.567098,204.214003 142.032329,203.507983 142.859406,203.507983 C143.695098,203.507983 144.151713,204.214003 144.151713,204.997513 C144.151713,205.789633 143.695098,206.495653 142.859406,206.495653 Z M147.787406,207.184453 C149.088329,207.184453 149.889559,206.202913 149.889559,204.997513 C149.889559,203.800723 149.088329,202.819183 147.787406,202.819183 C146.495098,202.819183 145.685252,203.800723 145.685252,204.997513 C145.685252,206.202913 146.495098,207.184453 147.787406,207.184453 Z M147.787406,206.495653 C146.960329,206.495653 146.495098,205.789633 146.495098,204.997513 C146.495098,204.214003 146.960329,203.507983 147.787406,203.507983 C148.623098,203.507983 149.079713,204.214003 149.079713,204.997513 C149.079713,205.789633 148.623098,206.495653 147.787406,206.495653 Z M154.645252,207.081133 L152.836021,204.808093 L154.628021,202.922503 L153.654483,202.922503 L151.647098,205.031953 L151.647098,201.338263 L150.871713,201.338263 L150.871713,207.081133 L151.647098,207.081133 L151.647098,205.927393 L152.276021,205.290253 L153.663098,207.081133 L154.645252,207.081133 Z" id="Combined-Shape" fill="#212B36" fill-rule="nonzero"></path>
                <g id="iconfinder_5296499_fb_facebook_facebook-logo_icon" transform="translate(43.381710, 198.160057)" fill-rule="nonzero">
                    <path d="M12.6153846,6.30375 C12.6153846,2.82228245 9.79133714,0 6.30769231,0 C2.82404748,0 0,2.82228245 0,6.30375 C0,9.45013384 2.30664423,12.0580149 5.32211538,12.5309193 L5.32211538,8.12592773 L3.72055288,8.12592773 L3.72055288,6.30375 L5.32211538,6.30375 L5.32211538,4.91495508 C5.32211538,3.33507773 6.2638095,2.46240234 7.7046244,2.46240234 C8.39475,2.46240234 9.11658654,2.58552246 9.11658654,2.58552246 L9.11658654,4.13683594 L8.32120132,4.13683594 C7.53764303,4.13683594 7.29326923,4.62274179 7.29326923,5.12125515 L7.29326923,6.30375 L9.04266827,6.30375 L8.76301082,8.12592773 L7.29326923,8.12592773 L7.29326923,12.5309193 C10.308765,12.0580149 12.6153846,9.45013384 12.6153846,6.30375 Z" id="Path" fill="#3776EA"></path>
                    <path d="M8.76301082,8.12592773 L9.04266827,6.30375 L7.29326923,6.30375 L7.29326923,5.12125515 C7.29326923,4.62274179 7.53761839,4.13683594 8.32120132,4.13683594 L9.11658654,4.13683594 L9.11658654,2.58552246 C9.11658654,2.58552246 8.39472536,2.46240234 7.7046244,2.46240234 C6.2638095,2.46240234 5.32211538,3.33507773 5.32211538,4.91495508 L5.32211538,6.30375 L3.72055288,6.30375 L3.72055288,8.12592773 L5.32211538,8.12592773 L5.32211538,12.5309193 C5.64324099,12.5812754 5.97239904,12.6075 6.30769231,12.6075 C6.64298558,12.6075 6.97211899,12.5812754 7.29326923,12.5309193 L7.29326923,8.12592773 L8.76301082,8.12592773 Z" id="Path" fill="#FFFFFF"></path>
                </g>
            </g>
            <g id="icons8-google" transform="translate(340.000000, 0.000000)" fill-rule="nonzero">
                <path d="M43.5721,17.6913 L41.8,17.6913 L41.8,17.6 L22,17.6 L22,26.4 L34.4333,26.4 C32.6194,31.5227 27.7453,35.2 22,35.2 C14.7103,35.2 8.8,29.2897 8.8,22 C8.8,14.7103 14.7103,8.8 22,8.8 C25.3649,8.8 28.4262,10.0694 30.7571,12.1429 L36.9798,5.9202 C33.0506,2.2583 27.7948,0 22,0 C9.8505,0 0,9.8505 0,22 C0,34.1495 9.8505,44 22,44 C34.1495,44 44,34.1495 44,22 C44,20.5249 43.8482,19.085 43.5721,17.6913 Z" id="Path" fill="#FFC107"></path>
                <path d="M2.44444444,11.7946414 L9.71166775,17.1111111 C11.6780539,12.2546887 16.4402915,8.82584712 22.0131934,8.82584712 C25.3963065,8.82584712 28.4741763,10.0989756 30.8176927,12.1785658 L37.0740741,5.93758865 C33.1236066,2.26493302 27.8393587,0 22.0131934,0 C13.5172552,0 6.14939013,4.78471237 2.44444444,11.7946414 Z" id="Path" fill="#FF3D00"></path>
                <path d="M21.9653859,44 C27.6292547,44 32.7756349,41.8280377 36.6666667,38.2959897 L29.8801108,32.5414431 C27.6785915,34.2124369 24.9420417,35.2110781 21.9653859,35.2110781 C16.2620477,35.2110781 11.4193631,31.5669714 9.59499655,26.4814815 L2.44444444,32.002023 C6.07344283,39.1177539 13.4432698,44 21.9653859,44 Z" id="Path" fill="#4CAF50"></path>
                <path d="M43.5721,17.6101126 L41.8,17.6101126 L41.8,17.5185185 L22,17.5185185 L22,26.3468649 L34.4333,26.3468649 C33.5621,28.8154912 31.9792,30.9442262 29.9376,32.4947046 C29.9387,32.493601 29.9398,32.493601 29.9409,32.4924975 L36.7499,38.2728573 C36.2681,38.7120675 44,32.9681246 44,21.9326917 C44,20.4528401 43.8482,19.008302 43.5721,17.6101126 Z" id="Path" fill="#1976D2"></path>
            </g>
            <g id="nextdoor_Business_Logo_green-(1)" transform="translate(369.000000, 89.000000)" fill-rule="nonzero">
                <path d="M15,0 C6.71572875,0 0,6.71572875 0,15 C0,23.2842712 6.71572875,30 15,30 C23.2842712,30 30,23.2842712 30,15 C29.9909945,6.71946182 23.2805382,0.00900548725 15,0 Z" id="Path" fill="#76D40E"></path>
                <path d="M8.92156863,8.99698341 C8.92156863,10.8823529 10.2350427,12.2649573 12.0211161,12.2649573 L12.0211161,15.4072398 C8.42508798,15.4072398 5.49899447,12.5842132 5.49899447,8.99698341 L8.92156863,8.99698341 Z" id="Path" fill="#FFFFFF"></path>
                <path d="M18.2478632,21.271996 L18.2478632,14.3011564 C18.2478632,12.918552 17.2335344,11.7873303 15.8597285,11.7873303 C14.4859226,11.7873303 13.4715938,12.918552 13.4715938,14.3011564 L13.4715938,21.271996 L10.0377074,21.271996 L10.0377074,13.9819005 C10.0377074,10.7868276 12.3202614,8.72171946 15.8534439,8.72171946 C19.3866264,8.72171946 21.6691805,10.7868276 21.6691805,13.9819005 L21.6691805,21.271996 L18.2478632,21.271996 Z" id="Path" fill="#FFFFFF"></path>
            </g>
            <g id="181354" transform="translate(18.000000, 112.000000)" fill-rule="nonzero">
                <path d="M16.5,0 C25.6134972,0 33,7.38763669 33,16.5 C33,25.6134975 25.6134972,33 16.5,33 C7.38763663,33 0,25.6134975 0,16.5 C0,7.38763669 7.38763663,0 16.5,0" id="Path" fill="#009FD9"></path>
                <path d="M14.4634389,15.5236753 C15.4057454,14.2820082 16.5260808,13.7660642 18.2904956,13.6572058 L18.2904956,22.0744624 C18.2904956,24.4863583 17.6498177,26.0818157 16.400213,27.998179 C15.1982338,26.15779 14.4634389,24.6394406 14.4634389,22.0744624 L14.4634389,15.5236753" id="Path" fill="#FFFFFF"></path>
                <polyline id="Path" fill="#FFFFFF" points="8.34581812 8.58961594 24.7426293 8.58961594 24.7426293 12.0390695 8.34581812 12.0390695 8.34581812 8.58961594"></polyline>
            </g>
            <g id="icons8-homeadvisor" transform="translate(340.000000, 165.000000)" fill-rule="nonzero">
                <path d="M19.4993478,11.0458348 L11.4443478,3.03305629 L5.2173913,9.22717059 L5.2173913,15.8475242 C5.2173913,16.7623792 5.97065217,17.513496 6.88956522,17.513496 L14.2702174,17.5232423 L20.1926087,24 L20.2173913,17.5433847 L23.07,17.5232423 C23.9882609,17.5232423 24.7421739,16.7727753 24.7421739,15.8572705 L24.7421739,11.0458348 L19.4993478,11.0458348 Z" id="Path" fill="#455A64"></path>
                <polygon id="Path" fill="#FB8C00" points="19.968913 0 10.031087 0 0 9.74632482 2.84934783 9.74632482 11.4443478 1.19684869 20.0393478 9.74632482 30 9.74632482"></polygon>
            </g>
        </g>
    </g>
</svg>