<?xml version="1.0" encoding="UTF-8"?>
<svg width="391px" height="488px" viewBox="0 0 391 488" version="1.1" xmlns="http://www.w3.org/2000/svg" xmlns:xlink="http://www.w3.org/1999/xlink">
    <title>Group 3</title>
    <g id="great-booking-page-illustrations-2022" stroke="none" stroke-width="1" fill="none" fill-rule="evenodd">
        <g id="Desktop-Copy-19" transform="translate(-870.000000, -70.000000)">
            <g id="Group-3" transform="translate(870.126335, 70.800000)">
                <g id="Home-Cleaning" transform="translate(263.500000, 205.000000)">
                    <circle id="Oval" fill="#C2F9D8" cx="63.5" cy="63.5" r="63.5"></circle>
                    <path d="M42.1925469,85.131068 C34.4159199,77.354441 29.6570884,68.0689161 28.341639,59.4024263 L47.2222062,51.3162817 L76.0073332,80.1014087 L67.9211887,98.9819759 C59.2546988,97.6665266 49.969174,92.9076951 42.1925469,85.131068 Z" id="Shape" fill="#3EC876" fill-rule="nonzero"></path>
                    <path d="M99.6467319,33.1708186 L77.516231,55.2626298 C81.6560275,61.2208416 82.2363728,68.3784336 78.754301,73.021196 L54.3024189,48.569314 C58.9451813,45.0872421 66.1027734,45.6675874 72.0609852,49.8073839 L94.1527964,27.6768831 L99.6467319,33.1708186 Z" id="Path" fill="#93E7AE" fill-rule="nonzero"></path>
                </g>
                <g id="plumbing" transform="translate(209.000000, 56.000000)">
                    <circle id="Oval" fill="#436BEB" cx="60.5" cy="60.5" r="60.5"></circle>
                    <path d="M72.6606608,50.0855363 L72.6606608,56.1849753 L48.262905,56.1849753 L48.262905,50.0855363 L54.3623439,50.0855363 L54.3623439,47.0358168 L36.0640271,47.0358168 L36.0640271,53.1352558 L29.9645881,53.1352558 L29.9645881,28.7375 L36.0640271,28.7375 L36.0640271,34.8369389 L60.4617829,34.8369389 C63.83041,34.8369389 66.5612218,37.5677508 66.5612218,40.9363779 L66.5612218,50.0855363 L72.6606608,50.0855363 L72.6606608,50.0855363 Z" id="Shape" fill="#FFFFFF" fill-rule="nonzero"></path>
                    <path d="M54.3623439,68.3838532 L54.3623439,77.5330116 C54.3623439,80.9016387 57.0931557,83.6324505 60.4617829,83.6324505 L84.8595387,83.6324505 L84.8595387,89.7318895 L90.9589776,89.7318895 L90.9589776,65.3341337 L84.8595387,65.3341337 L84.8595387,71.4335726 L66.5612218,71.4335726 L66.5612218,68.3838532 L72.6606608,68.3838532 L72.6606608,62.2844142 L48.262905,62.2844142 L48.262905,68.3838532 L54.3623439,68.3838532 Z" id="Path" fill="#9AB1F4"></path>
                </g>
                <g id="hvac" transform="translate(199.000000, 332.000000)">
                    <circle id="Oval" fill="#C2D2FA" cx="43.5" cy="43.5" r="43.5"></circle>
                    <path d="M43.5406784,40.7442358 C42.2082616,40.7442358 41.1281244,41.824373 41.1281244,43.1567898 C41.1281244,44.4892066 42.2082616,45.5693438 43.5406784,45.5693438 C44.8730951,45.5693438 45.9532323,44.4892066 45.9532323,43.1567898 C45.9532323,41.824373 44.8730951,40.7442358 43.5406784,40.7442358 L43.5406784,40.7442358 Z M44.7469553,19.03125 C55.6034483,19.03125 55.8688292,27.6440677 50.1752018,30.4908814 C47.7867734,31.6730329 46.7252496,34.2062145 46.2668644,36.4498897 C47.4248903,36.9324005 48.4381629,37.6802923 49.2101802,38.6453139 C58.1366299,33.8202059 67.7385948,35.7261235 67.7385948,44.3630668 C67.7385948,55.2195597 59.1257771,55.4608151 56.2789634,49.7430622 C55.0726864,47.3546337 52.5153792,46.29311 50.271704,45.8347247 C49.7891932,46.9927506 49.0413014,47.9818978 48.0762798,48.8021661 C52.8772623,57.7044903 50.9713446,67.2823296 42.3344014,67.2823296 C31.4779085,67.2823296 31.2607786,58.6453864 36.954406,55.7985727 C39.3187089,54.6164212 40.3802326,52.1073651 40.8627434,49.8878154 C39.680592,49.4053046 38.6431938,48.6332873 37.8711765,47.6682657 C28.9688523,52.4451226 19.4151386,50.5633305 19.4151386,41.9505128 C19.4151386,31.0940199 28.0038307,30.828639 30.8506444,36.5463919 C32.0569214,38.9348203 34.5901031,39.9722185 36.8337783,40.4306038 C37.2921635,39.2725779 38.0641808,38.2593052 39.053328,37.4872879 C34.2523455,28.5849638 36.1582632,19.03125 44.7469553,19.03125 Z" id="Shape" fill="#436BEB" fill-rule="nonzero"></path>
                </g>
                <g id="Group-5" transform="translate(88.000000, 105.000000)">
                    <circle id="Oval" fill="#FCF4B2" cx="47" cy="47" r="47"></circle>
                    <g id="Group-4" transform="translate(28.262343, 12.998760)">
                        <g id="noun_power-plug_721098" fill="#FDD760" fill-rule="nonzero">
                            <path d="M50.812454,20.5254218 L45.4110674,15.1240352 L34.0689958,26.4653429 L24.3463472,16.7426943 L35.6891827,5.40062271 L30.2870322,0 L18.9449606,11.3420716 L14.0836363,6.48074726 L6.52123674,14.0431468 C-1.19088305,21.7552666 -1.77601417,33.8879527 4.75209357,42.2791607 L3.01121391,44.0200403 C1.00374057,46.0259859 -0.00228773002,48.68352 0,51.3127907 C-0.00228773002,53.9397697 1.00374057,56.5973038 3.01045003,58.6040133 L12.7338626,68.3274258 L16.5142985,64.5469899 L16.5142985,64.546226 L6.79088593,54.8228135 C5.82687096,53.8580347 5.34868286,52.5991625 5.34639123,51.3120268 C5.34868286,50.0233634 5.82763484,48.7652551 6.79088593,47.8012401 L8.53252947,46.0588327 C16.9229736,52.5877043 29.0571874,52.0018093 36.7685433,44.2912173 L44.3309429,36.7288177 L39.4696186,31.8674934 L50.812454,20.5254218 Z" id="Shape"></path>
                        </g>
                        <polygon id="Path" fill="#E5A03E" points="14.0836363 43.2103289 17.4080366 34.6518314 9.76161036 34.5685686 21.645272 22.684907 18.1467073 31.4206243 25.9657701 31.328195"></polygon>
                    </g>
                </g>
                <g id="Group" transform="translate(159.000000, 226.000000)">
                    <g id="Group-5" fill="#C8EEFF">
                        <circle id="Oval" cx="39.5" cy="39.5" r="39.5"></circle>
                    </g>
                    <g id="icons8-paint-roller-96" transform="translate(17.775000, 20.021293)" fill-rule="nonzero">
                        <path d="M34.7062054,17.3531027 L4.33827567,17.3531027 C1.94137836,17.3531027 0,15.4117243 0,13.014827 L0,4.33827567 C0,1.94137836 1.94137836,0 4.33827567,0 L34.7062054,0 C37.1031027,0 39.0444811,1.94137836 39.0444811,4.33827567 L39.0444811,13.014827 C39.0444811,15.4117243 37.1031027,17.3531027 34.7062054,17.3531027 Z" id="Path" fill="#007593"></path>
                        <path d="M13.014827,39.0444811 L13.014827,30.3679297 C13.014827,29.1705656 13.9866008,28.1987919 15.1839649,28.1987919 L19.5222405,28.1987919 C20.7196046,28.1987919 21.6913784,29.1705656 21.6913784,30.3679297 L21.6913784,39.0444811 C21.6913784,40.2418451 20.7196046,41.2136189 19.5222405,41.2136189 L15.1839649,41.2136189 C13.9866008,41.2136189 13.014827,40.2418451 13.014827,39.0444811 Z" id="Path" fill="#007593"></path>
                        <path d="M19.5222405,28.2356672 L15.1839649,28.2356672 L15.1839649,26.0079627 C15.1839649,23.6154036 17.1296815,21.669687 19.5222405,21.669687 L39.1117243,21.669687 L39.0444811,6.50741351 L41.2808622,6.50741351 C42.4803954,6.50741351 43.45,7.47918726 43.45,8.67655135 L43.45,21.669687 C43.45,24.062246 41.5042834,26.0079627 39.1117243,26.0079627 L19.5222405,26.0079627 L19.5222405,28.2356672 Z" id="Path" fill="#36C6E8"></path>
                    </g>
                </g>
                <g id="Appliance-Repair" transform="translate(0.000000, 213.500000)">
                    <circle id="Oval" fill="#00229A" cx="66" cy="66" r="66"></circle>
                    <path d="M64.4273942,66.9021295 C69.335967,71.8107022 69.335967,79.8028656 64.4273942,84.7114383 C59.5188215,89.6200111 51.5266581,89.6200111 46.6180854,84.7114383 L64.4273942,66.9021295 L64.4273942,66.9021295 Z M66.8190799,38.047854 C64.7098773,44.8129313 66.5562362,52.4029484 71.775462,57.6221742 C74.3241589,60.1708711 77.4117027,61.9078239 80.6948201,62.77406 L80.6949078,94.6859099 C80.6949078,98.161461 77.8774169,100.978952 74.4018658,100.978952 L36.6436138,100.978952 C33.1680627,100.978952 30.3505718,98.161461 30.3505718,94.6859099 L30.3505718,44.3415739 C30.3505718,40.8660228 33.1680627,38.0485319 36.6436138,38.0485319 Z M55.5227398,56.9276579 C45.0960864,56.9276579 36.6436138,65.3801305 36.6436138,75.8067839 C36.6436138,86.2334373 45.0960864,94.6859099 55.5227398,94.6859099 C65.9493932,94.6859099 74.4018658,86.2334373 74.4018658,75.8067839 C74.4018658,65.3801305 65.9493932,56.9276579 55.5227398,56.9276579 Z M39.7901348,44.3415739 C38.0523593,44.3415739 36.6436138,45.7503194 36.6436138,47.4880949 C36.6436138,49.2258705 38.0523593,50.6346159 39.7901348,50.6346159 C41.5279104,50.6346159 42.9366558,49.2258705 42.9366558,47.4880949 C42.9366558,45.7503194 41.5279104,44.3415739 39.7901348,44.3415739 Z M49.2296978,44.3415739 C47.4919222,44.3415739 46.0831768,45.7503194 46.0831768,47.4880949 C46.0831768,49.2258705 47.4919222,50.6346159 49.2296978,50.6346159 C50.9674734,50.6346159 52.3762188,49.2258705 52.3762188,47.4880949 C52.3762188,45.7503194 50.9674734,44.3415739 49.2296978,44.3415739 Z" id="Combined-Shape" fill="#436BEB" fill-rule="nonzero"></path>
                    <path d="M115.923396,66.7138099 L97.7780744,48.5684884 C99.5726666,43.9823083 98.5756709,38.5985316 94.7870873,34.809948 C90.7991046,30.8219653 84.8171305,30.0243687 80.0315512,32.2177592 L88.6057141,40.7919221 L82.62374,46.7738962 L73.850178,38.1997333 C71.4573883,42.9853126 72.454384,48.9672867 76.4423668,52.9552694 C80.2309504,56.743853 85.614727,57.7408487 90.2009072,55.9462565 L108.346229,74.0915779 C109.143825,74.8891745 110.34022,74.8891745 111.137817,74.0915779 L115.723997,69.5053978 C116.720992,68.7078012 116.720992,67.3120073 115.923396,66.7138099 Z" id="Path" fill="#C2D2FA"></path>
                </g>
                <g id="carpet_cleaning" transform="translate(296.500000, 393.000000)">
                    <circle id="Oval" fill="#FFCFDD" cx="47" cy="47" r="47"></circle>
                    <path d="M26.4566407,15.146343 C30.6927876,15.146343 34.1015049,18.5546788 34.1015049,22.791213 L34.1015049,56.8995167 C32.2305261,54.7562563 29.5138731,53.3706929 26.4566407,53.3706929 C23.3994093,53.3706929 20.6827552,54.7562563 18.8117775,56.8995167 L18.8117775,22.791213 C18.8117775,18.5546788 22.2204947,15.146343 26.4566407,15.146343 Z" id="Shape" fill="#EF3D7E" fill-rule="nonzero"></path>
                    <path d="M36.6497926,22.791213 L67.2292475,22.791213 L67.2292475,71.208787 L33.1209996,71.208787 C35.2642629,69.3378044 36.6497926,66.6210945 36.6497926,63.5639171 L36.6497926,22.791213 Z" id="Shape" fill="#EF3D7E" fill-rule="nonzero"></path>
                    <path d="M26.4566407,55.9239591 C22.2215898,55.9239591 18.8167463,59.3288276 18.8167463,63.5638207 C18.8167463,67.7989102 22.2215898,71.2086907 26.4566407,71.2086907 C30.6916665,71.2086907 34.0965351,67.7989102 34.0965351,63.5638207 C34.0965351,59.3288276 30.6916665,55.9239591 26.4566407,55.9239591 Z M26.4566407,59.7414334 C27.4705675,59.7409012 28.4431202,60.1434432 29.1600794,60.8603939 C29.8770386,61.5773446 30.2795926,62.549893 30.2790728,63.5638207 C30.2796181,64.5777651 29.8770754,65.5503384 29.1601135,66.2673099 C28.4431515,66.9842814 27.4705842,67.3868366 26.4566407,67.3863039 C25.4426972,67.3868366 24.4701299,66.9842814 23.7531679,66.2673099 C23.036206,65.5503384 22.6336632,64.5777651 22.634208,63.5638207 C22.6336888,62.549893 23.0362428,61.5773446 23.753202,60.8603939 C24.4701612,60.1434432 25.4427139,59.7409012 26.4566407,59.7414334 L26.4566407,59.7414334 Z" id="Shape" fill="#EF3D7E" fill-rule="nonzero"></path>
                    <path d="M69.7974384,22.7889978 L69.7974384,25.3372556 L73.5800652,25.3372556 C75.3030903,25.3661496 75.3030903,22.7646305 73.5800652,22.7889978 L69.7974384,22.7889978 Z" id="Shape" fill="#F799BB"></path>
                    <path d="M78.6965949,24.0653419 C78.6965949,24.4032802 78.5623857,24.7273846 78.3234349,24.9663505 C78.0844842,25.2053164 77.7603885,25.3395672 77.4224505,25.3395672 C77.0845127,25.3395672 76.7604172,25.205316 76.5214667,24.9663502 C76.2825162,24.7273843 76.1483071,24.40328 76.1483071,24.0653419 C76.1483071,23.3616575 76.7187668,22.791213 77.4224505,22.791213 C78.1261346,22.791213 78.6965949,23.3616572 78.6965949,24.0653419 L78.6965949,24.0653419 Z" id="Shape" fill="#F799BB" fill-rule="nonzero"></path>
                    <path d="M69.7974384,27.8856098 L69.7974384,30.4338677 L73.5800652,30.4338677 C75.3030903,30.4627617 75.3030903,27.8612426 73.5800652,27.8856098 L69.7974384,27.8856098 Z" id="Shape" fill="#F799BB"></path>
                    <path d="M78.6965949,29.161954 C78.6965949,29.8656387 78.1261346,30.4360829 77.4224505,30.4360829 C76.7187668,30.4360829 76.1483071,29.8656384 76.1483071,29.161954 C76.1483071,28.4582696 76.7187668,27.8878251 77.4224505,27.8878251 C78.1261346,27.8878251 78.6965949,28.4582692 78.6965949,29.161954 L78.6965949,29.161954 Z" id="Shape" fill="#F799BB" fill-rule="nonzero"></path>
                    <path d="M69.7974384,32.9821256 L69.7974384,35.5304798 L73.5800652,35.5304798 C75.3030903,35.5593738 75.3030903,32.9578547 73.5800652,32.9821256 L69.7974384,32.9821256 Z" id="Shape" fill="#F799BB"></path>
                    <path d="M78.6965949,34.2585661 C78.6965949,34.9622508 78.1261346,35.532695 77.4224505,35.532695 C76.7187668,35.532695 76.1483071,34.9622505 76.1483071,34.2585661 C76.1483071,33.5548817 76.7187668,32.9844371 77.4224505,32.9844371 C78.1261346,32.9844371 78.6965949,33.5548813 78.6965949,34.2585661 L78.6965949,34.2585661 Z" id="Shape" fill="#F799BB" fill-rule="nonzero"></path>
                    <path d="M69.7974384,38.0787377 L69.7974384,40.6269956 L73.5800652,40.6269956 C75.3030903,40.6558896 75.3030903,38.0543704 73.5800652,38.0787377 L69.7974384,38.0787377 Z" id="Shape" fill="#F799BB"></path>
                    <path d="M78.6965949,39.3551782 C78.6965949,40.0588629 78.1261346,40.6293071 77.4224505,40.6293071 C76.7187668,40.6293071 76.1483071,40.0588626 76.1483071,39.3551782 C76.1483071,39.0172401 76.2825162,38.6931358 76.5214667,38.4541699 C76.7604172,38.215204 77.0845127,38.0809529 77.4224505,38.0809529 C77.7603885,38.0809529 78.0844842,38.2152037 78.3234349,38.4541696 C78.5623857,38.6931355 78.6965949,39.0172399 78.6965949,39.3551782 L78.6965949,39.3551782 Z" id="Shape" fill="#F799BB" fill-rule="nonzero"></path>
                    <path d="M69.7974384,43.1753498 L69.7974384,45.7236077 L73.5800652,45.7236077 C75.3030903,45.7525017 75.3030903,43.1509825 73.5800652,43.1753498 L69.7974384,43.1753498 Z" id="Shape" fill="#F799BB"></path>
                    <path d="M78.6965949,44.451694 C78.6965949,45.1553787 78.1261346,45.7258229 77.4224505,45.7258229 C76.7187668,45.7258229 76.1483071,45.1553783 76.1483071,44.451694 C76.1483071,43.7480096 76.7187668,43.177565 77.4224505,43.177565 C78.1261346,43.177565 78.6965949,43.7480092 78.6965949,44.451694 L78.6965949,44.451694 Z" id="Shape" fill="#F799BB" fill-rule="nonzero"></path>
                    <path d="M69.7974384,48.2718656 L69.7974384,50.8202198 L73.5800652,50.8202198 C75.3030903,50.8491138 75.3030903,48.2475946 73.5800652,48.2718656 L69.7974384,48.2718656 Z" id="Shape" fill="#F799BB"></path>
                    <path d="M78.6965949,49.548306 C78.6965949,50.2519908 78.1261346,50.822435 77.4224505,50.822435 C76.7187668,50.822435 76.1483071,50.2519904 76.1483071,49.548306 C76.1483071,48.8446217 76.7187668,48.2741771 77.4224505,48.2741771 C78.1261346,48.2741771 78.6965949,48.8446213 78.6965949,49.548306 L78.6965949,49.548306 Z" id="Shape" fill="#F799BB" fill-rule="nonzero"></path>
                    <path d="M69.7974384,53.3684777 L69.7974384,55.9167356 L73.5800652,55.9167356 C75.3030903,55.9456296 75.3030903,53.3441104 73.5800652,53.3684777 L69.7974384,53.3684777 Z" id="Shape" fill="#F799BB"></path>
                    <path d="M78.6965949,54.6449181 C78.6965949,55.3486029 78.1261346,55.9190471 77.4224505,55.9190471 C76.7187668,55.9190471 76.1483071,55.3486025 76.1483071,54.6449181 C76.1483071,54.3069801 76.2825162,53.9828758 76.5214667,53.7439099 C76.7604172,53.504944 77.0845127,53.3706929 77.4224505,53.3706929 C77.7603885,53.3706929 78.0844842,53.5049436 78.3234349,53.7439095 C78.5623857,53.9828754 78.6965949,54.3069799 78.6965949,54.6449181 L78.6965949,54.6449181 Z" id="Shape" fill="#F799BB" fill-rule="nonzero"></path>
                    <path d="M69.7974384,58.4650898 L69.7974384,61.0133477 L73.5800652,61.0133477 C75.3030903,61.0422416 75.3030903,58.4407225 73.5800652,58.4650898 L69.7974384,58.4650898 Z" id="Shape" fill="#F799BB"></path>
                    <path d="M78.6965949,59.7414339 C78.6965949,60.4451187 78.1261346,61.0155629 77.4224505,61.0155629 C76.7187668,61.0155629 76.1483071,60.4451183 76.1483071,59.7414339 C76.1483071,59.0377495 76.7187668,58.467305 77.4224505,58.467305 C78.1261346,58.467305 78.6965949,59.0377492 78.6965949,59.7414339 L78.6965949,59.7414339 Z" id="Shape" fill="#F799BB" fill-rule="nonzero"></path>
                    <path d="M69.7974384,63.5616055 L69.7974384,66.1099597 L73.5800652,66.1099597 C75.3030903,66.1388537 75.3030903,63.5373346 73.5800652,63.5616055 L69.7974384,63.5616055 Z" id="Shape" fill="#F799BB"></path>
                    <path d="M78.6965949,64.838046 C78.6965949,65.5417308 78.1261346,66.1121749 77.4224505,66.1121749 C76.7187668,66.1121749 76.1483071,65.5417304 76.1483071,64.838046 C76.1483071,64.1343616 76.7187668,63.5639171 77.4224505,63.5639171 C78.1261346,63.5639171 78.6965949,64.1343613 78.6965949,64.838046 L78.6965949,64.838046 Z" id="Shape" fill="#F799BB" fill-rule="nonzero"></path>
                    <path d="M69.7974384,68.6582176 L69.7974384,71.2064755 L73.5800652,71.2064755 C75.3030903,71.2353695 75.3030903,68.6338504 73.5800652,68.6582176 L69.7974384,68.6582176 Z" id="Shape" fill="#F799BB"></path>
                    <path d="M78.6965949,69.9346581 C78.6965949,70.6383428 78.1261346,71.208787 77.4224505,71.208787 C76.7187668,71.208787 76.1483071,70.6383425 76.1483071,69.9346581 C76.1483071,69.59672 76.2825162,69.2726157 76.5214667,69.0336498 C76.7604172,68.794684 77.0845127,68.6604328 77.4224505,68.6604328 C77.7603885,68.6604328 78.0844842,68.7946836 78.3234349,69.0336495 C78.5623857,69.2726154 78.6965949,69.5967198 78.6965949,69.9346581 L78.6965949,69.9346581 Z" id="Shape" fill="#F799BB" fill-rule="nonzero"></path>
                </g>
                <g id="phone-repair" transform="translate(122.000000, 0.000000)">
                    <circle id="Oval" fill="#E9E3FF" cx="40" cy="40" r="40"></circle>
                    <path d="M62.4930176,50.8281919 L51.3085391,39.6437135 C52.4146963,36.8168672 51.8001645,33.4983956 49.4649437,31.1631748 C47.0068166,28.7050477 43.3196259,28.2134223 40.3698733,29.5653922 L45.6548467,34.8503655 L41.967656,38.5375562 L36.5597763,33.2525829 C35.0849,36.2023355 35.6994318,39.8895262 38.1575589,42.3476533 C40.4927797,44.6828741 43.8112513,45.2974059 46.6380975,44.1912487 L57.822576,55.3757271 C58.3142014,55.8673526 59.0516396,55.8673526 59.543265,55.3757271 L62.3701112,52.5488809 C62.984643,52.0572555 62.984643,51.196911 62.4930176,50.8281919 Z" id="Path" fill="#7758E1"></path>
                    <path d="M47.8087278,17.6294843 L27.8907289,17.6294843 C25.6906475,17.6294843 23.9071291,19.4130027 23.9071291,21.6130841 L23.9071291,27.5884838 L27.8907289,27.5884838 L27.8907289,23.604884 L47.8087278,23.604884 L47.8087278,55.4736823 L27.8907289,55.4736823 L27.8907289,51.4900825 L23.9071291,51.4900825 L23.9071291,57.4654822 C23.9071291,59.6655636 25.6906475,61.449082 27.8907289,61.449082 L47.8087278,61.449082 C50.0088092,61.449082 51.7923276,59.6655636 51.7923276,57.4654822 L51.7923276,21.6130841 C51.7923276,19.4130027 50.0088092,17.6294843 47.8087278,17.6294843 Z" id="Shape" fill="#C7B7FF" fill-rule="nonzero" transform="translate(37.849728, 39.539283) scale(-1, 1) translate(-37.849728, -39.539283) "></path>
                </g>
                <g id="Group-2" transform="translate(83.000000, 360.000000)">
                    <g id="Home-Cleaning" fill="#D9F9DE">
                        <circle id="Oval" cx="47" cy="47" r="47"></circle>
                    </g>
                    <g id="icons8-gardening-tools-48" transform="translate(23.500000, 22.123194)" fill-rule="nonzero">
                        <path d="M40.9229,1.3765125 L40.9229,1.3765125 C39.08755,-0.4588375 36.11245,-0.4588375 34.2771,1.3765125 L34.2771,1.3765125 C30.3855,5.2681125 28.2,10.5438625 28.2,16.0475625 L28.2,26.2536125 C28.2,28.8480125 30.30325,30.9536125 32.9,30.9536125 L35.25,30.9536125 L35.25,35.6536125 C35.25,36.9531625 36.30045,38.0036125 37.6,38.0036125 C38.89955,38.0036125 39.95,36.9531625 39.95,35.6536125 L39.95,30.9536125 L42.3,30.9536125 C44.89675,30.9536125 47,28.8480125 47,26.2536125 L47,16.0475625 C47,10.5438625 44.8145,5.2681125 40.9229,1.3765125 Z" id="Path" fill="#93E7AE"></path>
                        <path d="M21.15,0.4036125 C19.85045,0.4036125 18.8,1.4540625 18.8,2.7536125 L18.8,14.5036125 C18.8,17.5633125 16.82835,20.1483125 14.1,21.1212125 L14.1,2.7536125 C14.1,1.4540625 13.04955,0.4036125 11.75,0.4036125 C10.45045,0.4036125 9.4,1.4540625 9.4,2.7536125 L9.4,21.1212125 C6.67165,20.1483125 4.7,17.5633125 4.7,14.5036125 L4.7,2.7536125 C4.7,1.4540625 3.64955,0.4036125 2.35,0.4036125 C1.05045,0.4036125 0,1.4540625 0,2.7536125 L0,14.5036125 C0,20.1765125 4.04435,24.9235125 9.4,26.0162625 L9.4,33.9545625 C10.09325,33.5527125 10.8899,33.3036125 11.75,33.3036125 C12.6101,33.3036125 13.40675,33.5527125 14.1,33.9545625 L14.1,26.0162625 C19.45565,24.9235125 23.5,20.1788625 23.5,14.5036125 L23.5,2.7536125 C23.5,1.4540625 22.44955,0.4036125 21.15,0.4036125 Z" id="Path" fill="#93E7AE"></path>
                        <path d="M11.75,49.7536125 C9.15325,49.7536125 7.05,47.6503625 7.05,45.0536125 L7.05,38.0036125 C7.05,35.4068625 9.15325,33.3036125 11.75,33.3036125 C14.34675,33.3036125 16.45,35.4068625 16.45,38.0036125 L16.45,45.0536125 C16.45,47.6503625 14.34675,49.7536125 11.75,49.7536125 Z" id="Path" fill="#3EC876"></path>
                        <path d="M37.6,49.7536125 L37.6,49.7536125 C35.00325,49.7536125 32.9,47.6503625 32.9,45.0536125 L32.9,38.0036125 C32.9,35.4068625 35.00325,33.3036125 37.6,33.3036125 L37.6,33.3036125 C40.19675,33.3036125 42.3,35.4068625 42.3,38.0036125 L42.3,45.0536125 C42.3,47.6503625 40.19675,49.7536125 37.6,49.7536125 Z" id="Path" fill="#3EC876"></path>
                    </g>
                </g>
            </g>
        </g>
    </g>
</svg>