<svg id="eOcSTVKwRaj1" xmlns="http://www.w3.org/2000/svg" xmlns:xlink="http://www.w3.org/1999/xlink" viewBox="0 0 303 422" shape-rendering="geometricPrecision" text-rendering="geometricPrecision" project-id="c146cf4fee8641c0965108a5bb71de69" export-id="635c769e0c314ce196a7d6c8d781a4f6" cached="false">
<style><![CDATA[
#eOcSTVKwRaj42_to {animation: eOcSTVKwRaj42_to__to 5900ms linear infinite normal forwards}@keyframes eOcSTVKwRaj42_to__to { 0% {transform: translate(14.9185px,285.81495px)} 35.59322% {transform: translate(14.9185px,285.81495px)} 40.677966% {transform: translate(15.5px,348.123116px)} 100% {transform: translate(15.5px,348.123116px)}} #eOcSTVKwRaj59 {animation-name: eOcSTVKwRaj59_f_p, eOcSTVKwRaj59_s_p;animation-duration: 5900ms;animation-fill-mode: forwards;animation-timing-function: linear;animation-direction: normal;animation-iteration-count: infinite;}@keyframes eOcSTVKwRaj59_f_p { 0% {fill: #fff} 10.169492% {fill: #fff} 13.559322% {fill: #5856d6} 100% {fill: #5856d6}}@keyframes eOcSTVKwRaj59_s_p { 0% {stroke: #d4d4d4} 10.169492% {stroke: #d4d4d4} 13.559322% {stroke: #5856d6} 100% {stroke: #5856d6}} #eOcSTVKwRaj64 {animation: eOcSTVKwRaj64_c_o 5900ms linear infinite normal forwards}@keyframes eOcSTVKwRaj64_c_o { 0% {opacity: 0} 35.59322% {opacity: 0} 38.983051% {opacity: 1} 100% {opacity: 1}} #eOcSTVKwRaj67 {animation: eOcSTVKwRaj67_c_o 5900ms linear infinite normal forwards}@keyframes eOcSTVKwRaj67_c_o { 0% {opacity: 1} 54.237288% {opacity: 1} 55.932203% {opacity: 0} 100% {opacity: 0}} #eOcSTVKwRaj85 {animation-name: eOcSTVKwRaj85_f_p, eOcSTVKwRaj85_s_p;animation-duration: 5900ms;animation-fill-mode: forwards;animation-timing-function: linear;animation-direction: normal;animation-iteration-count: infinite;}@keyframes eOcSTVKwRaj85_f_p { 0% {fill: #fcfcff} 32.20339% {fill: #fcfcff} 35.59322% {fill: #5856d6} 100% {fill: #5856d6}}@keyframes eOcSTVKwRaj85_s_p { 0% {stroke: #d4d4d4} 32.20339% {stroke: #d4d4d4} 35.59322% {stroke: #5856d6} 100% {stroke: #5856d6}} #eOcSTVKwRaj98_to {animation: eOcSTVKwRaj98_to__to 5900ms linear infinite normal forwards}@keyframes eOcSTVKwRaj98_to__to { 0% {transform: translate(15px,226.700002px)} 35.59322% {transform: translate(15px,226.700002px)} 40.677966% {transform: translate(15.5815px,289.008168px)} 100% {transform: translate(15.5815px,289.008168px)}} #eOcSTVKwRaj130_to {animation: eOcSTVKwRaj130_to__to 5900ms linear infinite normal forwards}@keyframes eOcSTVKwRaj130_to__to { 0% {transform: translate(-42.644427px,237.11558px)} 55.932203% {transform: translate(-42.644427px,237.11558px)} 69.491525% {transform: translate(82.106945px,238.347565px)} 100% {transform: translate(82.106945px,238.347565px)}} #eOcSTVKwRaj131_to {animation: eOcSTVKwRaj131_to__to 5900ms linear infinite normal forwards}@keyframes eOcSTVKwRaj131_to__to { 0% {offset-distance: 0%} 8.474576% {offset-distance: 66.447986%} 18.644068% {offset-distance: 67.393251%} 28.813559% {offset-distance: 100%} 100% {offset-distance: 100%}} #eOcSTVKwRaj133_ts {animation: eOcSTVKwRaj133_ts__ts 5900ms linear infinite normal forwards}@keyframes eOcSTVKwRaj133_ts__ts { 0% {transform: translate(156.8352px,125.289596px) scale(1,1)} 8.474576% {transform: translate(156.8352px,125.289596px) scale(1,1)} 15.254237% {transform: translate(156.8352px,125.289596px) scale(3,3)} 100% {transform: translate(156.8352px,125.289596px) scale(3,3)}} #eOcSTVKwRaj133 {animation: eOcSTVKwRaj133_c_o 5900ms linear infinite normal forwards}@keyframes eOcSTVKwRaj133_c_o { 0% {opacity: 0} 10.169492% {opacity: 0} 11.864407% {opacity: 0.96} 15.254237% {opacity: 0} 100% {opacity: 0}} #eOcSTVKwRaj141_ts {animation: eOcSTVKwRaj141_ts__ts 5900ms linear infinite normal forwards}@keyframes eOcSTVKwRaj141_ts__ts { 0% {transform: translate(130.312344px,193.105029px) scale(1,1)} 28.813559% {transform: translate(130.312344px,193.105029px) scale(1,1)} 35.59322% {transform: translate(130.312344px,193.105029px) scale(3,3)} 100% {transform: translate(130.312344px,193.105029px) scale(3,3)}} #eOcSTVKwRaj141 {animation: eOcSTVKwRaj141_c_o 5900ms linear infinite normal forwards}@keyframes eOcSTVKwRaj141_c_o { 0% {opacity: 0} 30.508475% {opacity: 0} 32.20339% {opacity: 0.96} 35.59322% {opacity: 0} 100% {opacity: 0}}
]]></style>
<g transform="translate(-.187551 4.028799)"><g transform="translate(15.2936 18.7308)"><polygon points="11.7012,13.2692 11.7012,0.196 8.918,0.196 8.918,8.4084 2.8616,0.196 0,0.196 0,13.2692 2.7832,13.2692 2.7832,4.7432 9.016,13.2692" fill="#1b2125"/><path d="M22.4224,13.2692v-6.1152c0-2.7244-1.9796-3.5868-4.1552-3.5868-1.4896,0-2.9792.4508-4.1356,1.4896l.98,1.7444c.784-.7252,1.7248-1.1172,2.7244-1.1172c1.2544,0,2.0776.6272,2.0776,1.5876v1.1956c-.6272-.7448-1.7248-1.1564-2.9988-1.1564-1.5092,0-3.2732.8232-3.2732,3.0576c0,2.1168,1.764,3.136,3.2732,3.136c1.2348,0,2.352-.4508,2.9988-1.2348v.9996h2.5088Zm-4.508-1.4504c-.98,0-1.7836-.5096-1.7836-1.4112s.8036-1.4308,1.7836-1.4308c.8036,0,1.5876.294,1.9992.8428v1.176c-.4116.5488-1.1956.8232-1.9992.8232Z" fill="#1b2125"/><path d="M28.0476,13.5044c1.0388,0,1.7052-.2744,2.0776-.6076l-.5292-1.9012c-.1372.1568-.49.294-.8624.294-.5488,0-.8624-.4508-.8624-1.0584v-4.2532h1.9208v-2.1756h-1.9208v-2.5872h-2.4892v2.5872h-1.568v2.1756h1.568v4.9196c0,1.7052.9212,2.6068,2.6656,2.6068Z" fill="#1b2125"/><path d="M40.376,13.2692v-9.4668h-2.4892v6.4092c-.4312.5488-1.1956,1.078-2.156,1.078-1.0584,0-1.7444-.4312-1.7444-1.7444v-5.7428h-2.4892v6.7228c0,1.8424.98,2.9792,3.0576,2.9792c1.5484,0,2.6852-.7252,3.332-1.4308v1.1956h2.4892Z" fill="#1b2125"/><path d="M45.3348,13.2692v-6.2524c.4116-.6076,1.5092-1.078,2.3324-1.078.294,0,.5096.0196.686.0588v-2.4304c-1.176,0-2.3324.686-3.0184,1.5092v-1.274h-2.4892v9.4668h2.4892Z" fill="#1b2125"/><path d="M54.3508,13.5044c1.47,0,2.9596-.4508,3.9004-1.3132L57.134,10.5448c-.6076.588-1.7052.9212-2.5088.9212-1.6072,0-2.548-.9604-2.7244-2.1168h7.0364v-.588c0-3.0772-1.9012-5.194-4.7432-5.194-2.8616,0-4.9,2.2148-4.9,4.9588c0,3.038,2.1756,4.9784,5.0568,4.9784Zm2.1952-5.88h-4.6648c.098-.9408.7644-2.0188,2.3128-2.0188c1.6464,0,2.2736,1.1172,2.352,2.0188Z" fill="#1b2125"/><path d="M70.168,13.5044c3.136,0,5.0176-2.2932,5.0176-4.9784s-1.8816-4.9588-5.0176-4.9588c-3.1164,0-4.998,2.2736-4.998,4.9588s1.8816,4.9784,4.998,4.9784Zm0-2.2148c-1.5484,0-2.4108-1.274-2.4108-2.7636c0-1.47.8624-2.744,2.4108-2.744c1.568,0,2.4304,1.274,2.4304,2.744c0,1.4896-.8624,2.7636-2.4304,2.7636Z" fill="#1b2125"/><path d="M80.1052,13.2692v-7.2912h1.9208v-2.1756h-1.9208v-.392c0-.9212.4704-1.372,1.176-1.372.4508,0,.784.1372,1.0388.3724l.9408-1.5092C82.6924,0.2548,81.7124,0,80.7912,0C78.89,0,77.616,1.274,77.616,3.4104v.392h-1.568v2.1756h1.568v7.2912h2.4892Z" fill="#1b2125"/><path d="M91.336,13.2692v-4.6648h3.332c2.8224,0,4.3904-1.9208,4.3904-4.1944c0-2.2932-1.5484-4.214-4.3904-4.214h-6.1152v13.0732h2.7832Zm2.94-7.1148h-2.94v-3.5084h2.94c1.0976,0,1.9404.6664,1.9404,1.764c0,1.078-.8428,1.7444-1.9404,1.7444Z" fill="#1b2125"/><path d="M103.2332,13.2692v-6.2524c.4116-.6076,1.5092-1.078,2.3324-1.078.294,0,.5096.0196.686.0588v-2.4304c-1.176,0-2.3324.686-3.0184,1.5092v-1.274h-2.4892v9.4668h2.4892Z" fill="#1b2125"/><path d="M112.1904,13.5044c3.136,0,5.0176-2.2932,5.0176-4.9784s-1.8816-4.9588-5.0176-4.9588c-3.1164,0-4.998,2.2736-4.998,4.9588s1.8816,4.9784,4.998,4.9784Zm0-2.2148c-1.5484,0-2.4108-1.274-2.4108-2.7636c0-1.47.8624-2.744,2.4108-2.744c1.568,0,2.4304,1.274,2.4304,2.744c0,1.4896-.8624,2.7636-2.4304,2.7636Z" fill="#1b2125"/><path d="M121.5592,10.2312v-3.3516c.4312-.6272,1.3328-1.0976,2.156-1.0976c1.4308,0,2.3912,1.1172,2.3912,2.744c0,1.6464-.9604,2.7636-2.3912,2.7636-.8232,0-1.7248-.4508-2.156-1.0584Zm0,3.038v-1.2152c.7448.9408,1.7836,1.4504,2.9204,1.4504c2.3912,0,4.1944-1.8032,4.1944-4.9784c0-3.0772-1.7836-4.9588-4.1944-4.9588-1.1172,0-2.1756.4704-2.9204,1.4504v-4.8216h-2.4892v13.0732h2.4892Z" fill="#1b2125"/><polygon points="133.0448,13.2692 133.0448,0.196 130.5556,0.196 130.5556,13.2692" fill="#1b2125"/><path d="M139.9636,13.5044c1.47,0,2.9596-.4508,3.9004-1.3132l-1.1172-1.6464c-.6076.588-1.7052.9212-2.5088.9212-1.6072,0-2.548-.9604-2.7244-2.1168h7.0364v-.588c0-3.0772-1.9012-5.194-4.7432-5.194-2.8616,0-4.9,2.2148-4.9,4.9588c0,3.038,2.1756,4.9784,5.0568,4.9784Zm2.1952-5.88h-4.6648c.098-.9408.7644-2.0188,2.3128-2.0188c1.6464,0,2.2736,1.1172,2.352,2.0188Z" fill="#1b2125"/><path d="M160.6024,13.2692v-6.8404c0-1.9404-1.0388-2.8616-2.7832-2.8616-1.4504,0-2.7048.8624-3.2536,1.7052-.3332-1.0584-1.2348-1.7052-2.6264-1.7052-1.4504,0-2.6852.9016-3.0968,1.4504v-1.2152h-2.4892v9.4668h2.4892v-6.3896c.3724-.5096,1.0976-1.0976,1.96-1.0976c1.0192,0,1.4112.6272,1.4112,1.5092v5.978h2.5088v-6.3896c.3528-.5096,1.078-1.0976,1.96-1.0976c1.0192,0,1.4112.6272,1.4112,1.5092v5.978h2.5088Z" fill="#1b2125"/></g><g transform="translate(15 57.900001)"><path d="M267,0.5c1.518783,0,2.893783.615608,3.889087,1.610913s1.610913,2.370304,1.610913,3.889087v34c0,1.518783-.615608,2.893783-1.610913,3.889087s-2.370304,1.610913-3.889087,1.610913h-261c-1.518783,0-2.893783-.615608-3.889087-1.610913s-1.610913-2.370304-1.610913-3.889087v-34c0-1.518783.615608-2.893783,1.610913-3.889087s2.370304-1.610913,3.889087-1.610913h261Z" fill="#fff" fill-rule="evenodd" stroke="#e2e2e2"/><g transform="translate(43.9392 18.129)"><polygon points="7.176,8.671 7.176,0 6.097,0 6.097,6.773 1.105,0 0,0 0,8.671 1.079,8.671 1.079,1.755 6.136,8.671"/><path d="M11.908,8.827c1.911,0,3.107-1.482,3.107-3.302s-1.196-3.289-3.107-3.289-3.107,1.469-3.107,3.289s1.196,3.302,3.107,3.302Zm0-.871c-1.339,0-2.08-1.144-2.08-2.431c0-1.274.741-2.418,2.08-2.418s2.08,1.144,2.08,2.418c0,1.287-.741,2.431-2.08,2.431Z"/><path d="M18.2,8.827c.559,0,.91-.169,1.157-.403l-.286-.741c-.13.143-.377.273-.663.273-.416,0-.624-.338-.624-.806v-3.9h1.274v-.858h-1.274v-1.716h-.988v1.716h-1.04v.858h1.04v4.108c0,.936.468,1.469,1.404,1.469Z"/><path d="M26.637,8.827c1.014,0,1.859-.351,2.496-.975l-.468-.637c-.507.52-1.222.806-1.95.806-1.352,0-2.171-.988-2.249-2.171h5.07v-.247c0-1.885-1.118-3.367-3.016-3.367-1.794,0-3.094,1.469-3.094,3.289c0,1.963,1.339,3.302,3.211,3.302Zm1.937-3.705h-4.121c.052-.949.715-2.08,2.054-2.08c1.43,0,2.054,1.157,2.067,2.08Z"/><path d="M36.322,8.671v-4.407c0-1.365-.689-2.028-1.989-2.028-.949,0-1.807.533-2.249,1.066v-.91h-.975v6.279h.975v-4.589c.377-.507,1.092-.975,1.859-.975.845,0,1.417.338,1.417,1.456v4.108h.962Z"/><path d="M41.028,8.827c1.911,0,3.107-1.482,3.107-3.302s-1.196-3.289-3.107-3.289-3.107,1.469-3.107,3.289s1.196,3.302,3.107,3.302Zm0-.871c-1.339,0-2.08-1.144-2.08-2.431c0-1.274.741-2.418,2.08-2.418s2.08,1.144,2.08,2.418c0,1.287-.741,2.431-2.08,2.431Z"/><path d="M50.934,8.671v-6.279h-.975v4.615c-.364.507-1.092.949-1.846.949-.858,0-1.417-.325-1.417-1.43v-4.134h-.975v4.433c0,1.352.689,2.002,2.002,2.002.936,0,1.755-.494,2.236-1.04v.884h.975Z"/><path d="M55.406,11.219c1.534,0,3.003-.65,3.003-2.639v-6.188h-.975v.949c-.507-.689-1.274-1.105-2.119-1.105-1.651,0-2.795,1.248-2.795,3.263c0,2.028,1.157,3.25,2.795,3.25.884,0,1.651-.481,2.119-1.118v.949c0,1.326-.988,1.833-2.028,1.833-.897,0-1.521-.234-2.041-.845l-.494.702c.754.741,1.482.949,2.535.949Zm.156-3.341c-1.274,0-2.028-1.001-2.028-2.379c0-1.391.754-2.392,2.028-2.392.767,0,1.521.468,1.872,1.001v2.756c-.351.546-1.105,1.014-1.872,1.014Z"/><path d="M65.585,8.671v-4.433c0-1.365-.689-2.002-2.002-2.002-.949,0-1.807.533-2.236,1.066v-3.302h-.975v8.671h.975v-4.589c.364-.507,1.092-.975,1.846-.975.858,0,1.417.312,1.417,1.43v4.134h.975Z"/><path d="M76.128,8.671v-4.433c0-1.365-.689-2.002-2.002-2.002-.949,0-1.807.533-2.236,1.066v-3.302h-.975v8.671h.975v-4.589c.364-.507,1.092-.975,1.846-.975.858,0,1.417.312,1.417,1.43v4.134h.975Z"/><path d="M80.821,8.827c1.911,0,3.107-1.482,3.107-3.302s-1.196-3.289-3.107-3.289-3.107,1.469-3.107,3.289s1.196,3.302,3.107,3.302Zm0-.871c-1.339,0-2.08-1.144-2.08-2.431c0-1.274.741-2.418,2.08-2.418s2.08,1.144,2.08,2.418c0,1.287-.741,2.431-2.08,2.431Z"/><path d="M87.113,8.827c.559,0,.91-.169,1.157-.403l-.286-.741c-.13.143-.377.273-.663.273-.416,0-.624-.338-.624-.806v-3.9h1.274v-.858h-1.274v-1.716h-.988v1.716h-1.04v.858h1.04v4.108c0,.936.468,1.469,1.404,1.469Z"/><polygon points="99.125,8.671 101.127,2.392 100.1,2.392 98.566,7.397 96.928,2.392 96.083,2.392 94.432,7.397 92.898,2.392 91.884,2.392 93.886,8.671 94.861,8.671 96.499,3.627 98.137,8.671"/><path d="M107.146,8.671v-4.316c0-1.521-1.092-2.119-2.431-2.119-1.027,0-1.833.338-2.509,1.04l.455.676c.559-.611,1.17-.871,1.924-.871.91,0,1.586.481,1.586,1.313v1.131c-.507-.572-1.222-.845-2.08-.845-1.066,0-2.184.65-2.184,2.067c0,1.365,1.131,2.08,2.184,2.08.845,0,1.573-.299,2.08-.871v.715h.975Zm-2.691-.546c-.923,0-1.56-.572-1.56-1.378c0-.793.637-1.365,1.56-1.365.676,0,1.339.26,1.716.767v1.196c-.377.52-1.04.78-1.716.78Z"/><path d="M110.708,8.827c.559,0,.91-.169,1.157-.403l-.286-.741c-.13.143-.377.273-.663.273-.416,0-.624-.338-.624-.806v-3.9h1.274v-.858h-1.274v-1.716h-.988v1.716h-1.04v.858h1.04v4.108c0,.936.468,1.469,1.404,1.469Z"/><path d="M115.778,8.827c1.014,0,1.859-.351,2.496-.975l-.468-.637c-.507.52-1.222.806-1.95.806-1.352,0-2.171-.988-2.249-2.171h5.07v-.247c0-1.885-1.118-3.367-3.016-3.367-1.794,0-3.094,1.469-3.094,3.289c0,1.963,1.339,3.302,3.211,3.302Zm1.937-3.705h-4.121c.052-.949.715-2.08,2.054-2.08c1.43,0,2.054,1.157,2.067,2.08Z"/><path d="M121.225,8.671v-4.446c.286-.507,1.105-1.001,1.716-1.001.143,0,.26.013.377.026v-1.001c-.858,0-1.586.494-2.093,1.144v-1.001h-.975v6.279h.975Z"/></g><rect width="18" height="18" rx="3" ry="3" transform="translate(14.07 14.3)" fill="#fff" fill-rule="evenodd" stroke="#d4d4d4"/><g transform="translate(17.07 19.3)"><path d="M4.103731,7.035635l6.576991-6.7951C10.835931,0.080178,11.017008,0,11.223954,0s.388023.080178.543232.240535.232814.350779.232814.571269-.077605.410913-.232814.57127L4.646964,8.759465C4.491755,8.919822,4.310677,9,4.103731,9s-.388023-.080178-.543232-.240535L0.223501,5.311804c-.155209-.160356-.22958-.350779-.223113-.571269s.087305-.410914.242514-.57127.339521-.240534.552933-.240534.397724.080178.552933.240534l2.754963,2.86637Z" fill="#fff"/></g></g><g id="eOcSTVKwRaj42_to" transform="translate(14.9185,285.81495)"><g transform="translate(0,0)"><g><path d="M4,0h154c2.209139,0,4,1.790861,4,4v32c0,2.209139-1.790861,4-4,4L4,40c-2.209139,0-4-1.790861-4-4L0,4C0,1.790861,1.790861,0,4,0Z" fill="#5856d6" fill-rule="evenodd"/></g><rect width="102" height="12.6" rx="4.2" ry="4.2" transform="translate(30 13.7)" fill="#fff" fill-opacity="0.5" fill-rule="evenodd"/></g></g><g transform="translate(15 114.7)"><path d="M267,0.5c1.518783,0,2.893783.615608,3.889087,1.610913s1.610913,2.370304,1.610913,3.889087v34c0,1.518783-.615608,2.893783-1.610913,3.889087s-2.370304,1.610913-3.889087,1.610913h-261c-1.518783,0-2.893783-.615608-3.889087-1.610913s-1.610913-2.370304-1.610913-3.889087v-34c0-1.518783.615608-2.893783,1.610913-3.889087s2.370304-1.610913,3.889087-1.610913h261Z" fill="#fff" fill-rule="evenodd" stroke="#e2e2e2"/><g transform="translate(43.9392 18.129)"><polygon points="7.176,8.671 7.176,0 6.097,0 6.097,6.773 1.105,0 0,0 0,8.671 1.079,8.671 1.079,1.755 6.136,8.671"/><path d="M11.908,8.827c1.911,0,3.107-1.482,3.107-3.302s-1.196-3.289-3.107-3.289-3.107,1.469-3.107,3.289s1.196,3.302,3.107,3.302Zm0-.871c-1.339,0-2.08-1.144-2.08-2.431c0-1.274.741-2.418,2.08-2.418s2.08,1.144,2.08,2.418c0,1.287-.741,2.431-2.08,2.431Z"/><path d="M25.194,8.671v-4.433c0-1.365-.689-2.002-2.002-2.002-.949,0-1.807.533-2.236,1.066v-3.302h-.975v8.671h.975v-4.589c.364-.507,1.092-.975,1.846-.975.858,0,1.417.312,1.417,1.43v4.134h.975Z"/><path d="M29.887,8.827c1.911,0,3.107-1.482,3.107-3.302s-1.196-3.289-3.107-3.289-3.107,1.469-3.107,3.289s1.196,3.302,3.107,3.302Zm0-.871c-1.339,0-2.08-1.144-2.08-2.431c0-1.274.741-2.418,2.08-2.418s2.08,1.144,2.08,2.418c0,1.287-.741,2.431-2.08,2.431Z"/><path d="M36.179,8.827c.559,0,.91-.169,1.157-.403l-.286-.741c-.13.143-.377.273-.663.273-.416,0-.624-.338-.624-.806v-3.9h1.274v-.858h-1.274v-1.716h-.988v1.716h-1.04v.858h1.04v4.108c0,.936.468,1.469,1.404,1.469Z"/><polygon points="48.191,8.671 50.193,2.392 49.166,2.392 47.632,7.397 45.994,2.392 45.149,2.392 43.498,7.397 41.964,2.392 40.95,2.392 42.952,8.671 43.927,8.671 45.565,3.627 47.203,8.671"/><path d="M56.212,8.671v-4.316c0-1.521-1.092-2.119-2.431-2.119-1.027,0-1.833.338-2.509,1.04l.455.676c.559-.611,1.17-.871,1.924-.871.91,0,1.586.481,1.586,1.313v1.131c-.507-.572-1.222-.845-2.08-.845-1.066,0-2.184.65-2.184,2.067c0,1.365,1.131,2.08,2.184,2.08.845,0,1.573-.299,2.08-.871v.715h.975Zm-2.691-.546c-.923,0-1.56-.572-1.56-1.378c0-.793.637-1.365,1.56-1.365.676,0,1.339.26,1.716.767v1.196c-.377.52-1.04.78-1.716.78Z"/><path d="M59.774,8.827c.559,0,.91-.169,1.157-.403l-.286-.741c-.13.143-.377.273-.663.273-.416,0-.624-.338-.624-.806v-3.9h1.274v-.858h-1.274v-1.716h-.988v1.716h-1.04v.858h1.04v4.108c0,.936.468,1.469,1.404,1.469Z"/><path d="M64.844,8.827c1.014,0,1.859-.351,2.496-.975l-.468-.637c-.507.52-1.222.806-1.95.806-1.352,0-2.171-.988-2.249-2.171h5.07v-.247c0-1.885-1.118-3.367-3.016-3.367-1.794,0-3.094,1.469-3.094,3.289c0,1.963,1.339,3.302,3.211,3.302Zm1.937-3.705h-4.121c.052-.949.715-2.08,2.054-2.08c1.43,0,2.054,1.157,2.067,2.08Z"/><path d="M70.291,8.671v-4.446c.286-.507,1.105-1.001,1.716-1.001.143,0,.26.013.377.026v-1.001c-.858,0-1.586.494-2.093,1.144v-1.001h-.975v6.279h.975Z"/></g><rect id="eOcSTVKwRaj59" width="18" height="18" rx="3" ry="3" transform="translate(14.07 14.3)" fill="#fff" fill-rule="evenodd" stroke="#d4d4d4"/><g transform="translate(17.07 19.3)"><path d="M4.103731,7.035635l6.576991-6.7951C10.835931,0.080178,11.017008,0,11.223954,0s.388023.080178.543232.240535.232814.350779.232814.571269-.077605.410913-.232814.57127L4.646964,8.759465C4.491755,8.919822,4.310677,9,4.103731,9s-.388023-.080178-.543232-.240535L0.223501,5.311804c-.155209-.160356-.22958-.350779-.223113-.571269s.087305-.410914.242514-.57127.339521-.240534.552933-.240534.397724.080178.552933.240534l2.754963,2.86637Z" fill="#fff"/></g></g><g transform="translate(1 1.000001)"><path d="M281,170.2c1.518783,0,2.893783.554047,3.889087,1.449822s1.610913,2.133273,1.610913,3.500178v35.1c0,1.366905-.615608,2.604405-1.610913,3.500178s-2.370304,1.449822-3.889087,1.449822h-261c-1.518783,0-2.893783-.554047-3.889087-1.449822s-1.610913-2.133273-1.610913-3.500178v-35.1c0-1.366905.615609-2.604405,1.610913-3.500178s2.370304-1.449822,3.889087-1.449822h261Z" transform="translate(0 0.529363)" fill="#fff" fill-rule="evenodd" stroke="#e2e2e2"/><g id="eOcSTVKwRaj64" transform="translate(0 0.000001)" opacity="0"><path d="M286.5,214.2v56.5c0,1.518783-.615608,2.893783-1.610913,3.889087s-2.370304,1.610913-3.889087,1.610913h-261c-1.518783,0-2.893783-.615608-3.889087-1.610913s-1.610913-2.370304-1.610913-3.889087v-56.5h272Z" fill="#f6f5f5" fill-rule="evenodd" stroke="#e2e2e2"/><rect width="247" height="45" rx="3" ry="3" transform="translate(28.07 223)" fill="#fff" fill-rule="evenodd" stroke="#5856d6"/><g id="eOcSTVKwRaj67" transform="translate(34.667199 231.012004)"><g transform="translate(-35-231)"><g transform="translate(35.928 231.663)"><path d="M2.508,7.337c2.288,0,3.762-1.573,3.762-3.663C6.27,1.595,4.796,0,2.508,0L0,0v7.337h2.508Zm0-.814h-1.595v-5.709h1.595c1.815,0,2.816,1.276,2.816,2.86c0,1.573-1.034,2.849-2.816,2.849Z" fill="#a1a1a1"/><path d="M10.076,7.469c.858,0,1.573-.297,2.112-.825l-.396-.539c-.429.44-1.034.682-1.65.682-1.144,0-1.837-.836-1.903-1.837h4.29v-.209c0-1.595-.946-2.849-2.552-2.849-1.518,0-2.618,1.243-2.618,2.783c0,1.661,1.133,2.794,2.717,2.794Zm1.639-3.135h-3.487c.044-.803.605-1.76,1.738-1.76c1.21,0,1.738.979,1.749,1.76Z" fill="#a1a1a1"/><path d="M15.554,7.469c1.364,0,2.079-.715,2.079-1.606c0-2.068-3.289-1.309-3.289-2.464c0-.473.451-.836,1.177-.836.693,0,1.265.286,1.584.671l.385-.572c-.418-.429-1.056-.77-1.969-.77-1.265,0-1.969.693-1.969,1.529c0,1.969,3.289,1.177,3.289,2.464c0,.528-.451.913-1.265.913-.726,0-1.397-.352-1.749-.759l-.418.594c.539.561,1.265.836,2.145.836Z" fill="#a1a1a1"/><path d="M21.318,7.469c.968,0,1.54-.396,1.947-.924l-.55-.506c-.352.473-.803.693-1.353.693-1.122,0-1.837-.88-1.837-2.057s.715-2.046,1.837-2.046c.55,0,1.001.198,1.353.682l.55-.495c-.407-.528-.979-.924-1.947-.924-1.584,0-2.651,1.21-2.651,2.783s1.067,2.794,2.651,2.794Z" fill="#a1a1a1"/><path d="M25.256,7.337v-3.762c.242-.429.935-.847,1.452-.847.121,0,.22.011.319.022v-.847c-.726,0-1.342.418-1.771.968v-.847h-.825v5.313h.825Z" fill="#a1a1a1"/><path d="M28.479,1.265c.308,0,.55-.242.55-.55s-.242-.561-.55-.561-.561.253-.561.561.253.55.561.55Zm.407,6.072v-5.313h-.825v5.313h.825Z" fill="#a1a1a1"/><path d="M31.361,5.896v-2.409c.286-.462.935-.858,1.595-.858c1.067,0,1.705.88,1.705,2.057s-.638,2.046-1.705,2.046c-.66,0-1.309-.374-1.595-.836Zm0,1.441v-.792c.396.539,1.045.924,1.793.924c1.386,0,2.365-1.056,2.365-2.783c0-1.705-.968-2.794-2.365-2.794-.715,0-1.364.352-1.793.935v-2.827h-.825v7.337h.825Z" fill="#a1a1a1"/><path d="M39.27,7.469c.858,0,1.573-.297,2.112-.825l-.396-.539c-.429.44-1.034.682-1.65.682-1.144,0-1.837-.836-1.903-1.837h4.29v-.209c0-1.595-.946-2.849-2.552-2.849-1.518,0-2.618,1.243-2.618,2.783c0,1.661,1.133,2.794,2.717,2.794Zm1.639-3.135h-3.487c.044-.803.605-1.76,1.738-1.76c1.21,0,1.738.979,1.749,1.76Z" fill="#a1a1a1"/><path d="M47.256,7.469c.473,0,.77-.143.979-.341l-.242-.627c-.11.121-.319.231-.561.231-.352,0-.528-.286-.528-.682v-3.3h1.078v-.726h-1.078v-1.452h-.836v1.452h-.88v.726h.88v3.476c0,.792.396,1.243,1.188,1.243Z" fill="#a1a1a1"/><path d="M53.559,7.337v-3.751c0-1.155-.583-1.694-1.694-1.694-.803,0-1.529.451-1.892.902v-2.794h-.825v7.337h.825v-3.883c.308-.429.924-.825,1.562-.825.726,0,1.199.264,1.199,1.21v3.498h.825Z" fill="#a1a1a1"/><path d="M57.618,7.469c.858,0,1.573-.297,2.112-.825l-.396-.539c-.429.44-1.034.682-1.65.682-1.144,0-1.837-.836-1.903-1.837h4.29v-.209c0-1.595-.946-2.849-2.552-2.849-1.518,0-2.618,1.243-2.618,2.783c0,1.661,1.133,2.794,2.717,2.794Zm1.639-3.135h-3.487c.044-.803.605-1.76,1.738-1.76c1.21,0,1.738.979,1.749,1.76Z" fill="#a1a1a1"/><polygon points="65.076,7.337 65.076,0 64.251,0 64.251,7.337" fill="#a1a1a1"/><path d="M69.135,7.469c.858,0,1.573-.297,2.112-.825l-.396-.539c-.429.44-1.034.682-1.65.682-1.144,0-1.837-.836-1.903-1.837h4.29v-.209c0-1.595-.946-2.849-2.552-2.849-1.518,0-2.618,1.243-2.618,2.783c0,1.661,1.133,2.794,2.717,2.794Zm1.639-3.135h-3.487c.044-.803.605-1.76,1.738-1.76c1.21,0,1.738.979,1.749,1.76Z" fill="#a1a1a1"/><path d="M77.066,7.337v-3.652c0-1.287-.924-1.793-2.057-1.793-.869,0-1.551.286-2.123.88l.385.572c.473-.517.99-.737,1.628-.737.77,0,1.342.407,1.342,1.111v.957c-.429-.484-1.034-.715-1.76-.715-.902,0-1.848.55-1.848,1.749c0,1.155.957,1.76,1.848,1.76.715,0,1.331-.253,1.76-.737v.605h.825Zm-2.277-.462c-.781,0-1.32-.484-1.32-1.166c0-.671.539-1.155,1.32-1.155.572,0,1.133.22,1.452.649v1.012c-.319.44-.88.66-1.452.66Z" fill="#a1a1a1"/><polygon points="83.402,7.337 81.037,4.433 83.391,2.024 82.346,2.024 79.552,4.851 79.552,0 78.727,0 78.727,7.337 79.552,7.337 79.552,5.819 80.443,4.95 82.346,7.337" fill="#a1a1a1"/></g></g></g></g><rect id="eOcSTVKwRaj85" width="18" height="18" rx="3" ry="3" transform="translate(29.1076 184)" fill="#fcfcff" fill-rule="evenodd" stroke="#d4d4d4"/><g transform="translate(32.07 188)"><path d="M4.103731,7.035635l6.576991-6.7951C10.835931,0.080178,11.017008,0,11.223954,0s.388023.080178.543232.240535.232814.350779.232814.571269-.077605.410913-.232814.57127L4.646964,8.759465C4.491755,8.919822,4.310677,9,4.103731,9s-.388023-.080178-.543232-.240535L0.223501,5.311804c-.155209-.160356-.22958-.350779-.223113-.571269s.087305-.410914.242514-.57127.339521-.240534.552933-.240534.397724.080178.552933.240534l2.754963,2.86637Z" fill="#fff"/></g><g transform="translate(56.4318 187.463687)"><g transform="translate(-57-187)"><g transform="translate(57.7962 187.829)"><polygon points="5.109,8.671 5.109,7.709 1.079,7.709 1.079,0 0,0 0,8.671"/><path d="M9.36,8.827c1.014,0,1.859-.351,2.496-.975l-.468-.637c-.507.52-1.222.806-1.95.806-1.352,0-2.171-.988-2.249-2.171h5.07v-.247c0-1.885-1.118-3.367-3.016-3.367-1.794,0-3.094,1.469-3.094,3.289c0,1.963,1.339,3.302,3.211,3.302Zm1.937-3.705h-4.121c.052-.949.715-2.08,2.054-2.08c1.43,0,2.054,1.157,2.067,2.08Z"/><path d="M18.733,8.671v-4.316c0-1.521-1.092-2.119-2.431-2.119-1.027,0-1.833.338-2.509,1.04l.455.676c.559-.611,1.17-.871,1.924-.871.91,0,1.586.481,1.586,1.313v1.131c-.507-.572-1.222-.845-2.08-.845-1.066,0-2.184.65-2.184,2.067c0,1.365,1.131,2.08,2.184,2.08.845,0,1.573-.299,2.08-.871v.715h.975Zm-2.691-.546c-.923,0-1.56-.572-1.56-1.378c0-.793.637-1.365,1.56-1.365.676,0,1.339.26,1.716.767v1.196c-.377.52-1.04.78-1.716.78Z"/><polygon points="26.221,8.671 23.426,5.239 26.208,2.392 24.973,2.392 21.671,5.733 21.671,0 20.696,0 20.696,8.671 21.671,8.671 21.671,6.877 22.724,5.85 24.973,8.671"/><path d="M27.872,1.495c.364,0,.65-.286.65-.65s-.286-.663-.65-.663-.663.299-.663.663.299.65.663.65Zm.481,7.176v-6.279h-.975v6.279h.975Z"/><path d="M35.516,8.671v-4.407c0-1.365-.689-2.028-1.989-2.028-.949,0-1.807.533-2.249,1.066v-.91h-.975v6.279h.975v-4.589c.377-.507,1.092-.975,1.859-.975.845,0,1.417.338,1.417,1.456v4.108h.962Z"/><path d="M40.001,11.219c1.534,0,3.003-.65,3.003-2.639v-6.188h-.975v.949c-.507-.689-1.274-1.105-2.119-1.105-1.651,0-2.795,1.248-2.795,3.263c0,2.028,1.157,3.25,2.795,3.25.884,0,1.651-.481,2.119-1.118v.949c0,1.326-.988,1.833-2.028,1.833-.897,0-1.521-.234-2.041-.845l-.494.702c.754.741,1.482.949,2.535.949Zm.156-3.341c-1.274,0-2.028-1.001-2.028-2.379c0-1.391.754-2.392,2.028-2.392.767,0,1.521.468,1.872,1.001v2.756c-.351.546-1.105,1.014-1.872,1.014Z"/></g></g></g></g><g id="eOcSTVKwRaj98_to" transform="translate(15,226.700002)"><g transform="translate(0,0)"><path d="M267,0.5c1.518783,0,2.893783.615608,3.889087,1.610913s1.610913,2.370304,1.610913,3.889087v34c0,1.518783-.615608,2.893783-1.610913,3.889087s-2.370304,1.610913-3.889087,1.610913h-261c-1.518783,0-2.893783-.615608-3.889087-1.610913s-1.610913-2.370304-1.610913-3.889087v-34c0-1.518783.615608-2.893783,1.610913-3.889087s2.370304-1.610913,3.889087-1.610913h261Z" fill="#fff" fill-rule="evenodd" stroke="#e2e2e2"/><g transform="translate(43.9392 18.129)"><polygon points="7.176,8.671 7.176,0 6.097,0 6.097,6.773 1.105,0 0,0 0,8.671 1.079,8.671 1.079,1.755 6.136,8.671"/><path d="M11.908,8.827c1.911,0,3.107-1.482,3.107-3.302s-1.196-3.289-3.107-3.289-3.107,1.469-3.107,3.289s1.196,3.302,3.107,3.302Zm0-.871c-1.339,0-2.08-1.144-2.08-2.431c0-1.274.741-2.418,2.08-2.418s2.08,1.144,2.08,2.418c0,1.287-.741,2.431-2.08,2.431Z"/><path d="M17.095,1.495c.364,0,.65-.286.65-.65s-.286-.663-.65-.663-.663.299-.663.663.299.65.663.65Zm.481,7.176v-6.279h-.975v6.279h.975Z"/><path d="M21.528,8.827c1.612,0,2.457-.845,2.457-1.898c0-2.444-3.887-1.547-3.887-2.912c0-.559.533-.988,1.391-.988.819,0,1.495.338,1.872.793l.455-.676c-.494-.507-1.248-.91-2.327-.91-1.495,0-2.327.819-2.327,1.807c0,2.327,3.887,1.391,3.887,2.912c0,.624-.533,1.079-1.495,1.079-.858,0-1.651-.416-2.067-.897l-.494.702c.637.663,1.495.988,2.535.988Z"/><path d="M25.233,11.128c.169.052.494.091.702.091.832-.013,1.469-.364,1.846-1.274l3.146-7.553h-1.053L27.781,7.54l-2.08-5.148h-1.066l2.626,6.344-.416.949c-.221.52-.507.663-.936.663-.156,0-.39-.039-.533-.104l-.143.884Z"/></g><rect width="18" height="18" rx="3" ry="3" transform="translate(14.07 14.3)" fill="#fff" fill-rule="evenodd" stroke="#d4d4d4"/></g></g><g mask="url(#eOcSTVKwRaj129)"><g transform="translate(35.8845 231.663)"><polygon points="0.9565,7.337 0.9565,0 0.0435,0 0.0435,7.337"/><path d="M3.9925,7.469c.473,0,.77-.143.979-.341l-.242-.627c-.11.121-.319.231-.561.231-.352,0-.528-.286-.528-.682v-3.3h1.078v-.726h-1.078v-1.452h-.836v1.452h-.88v.726h.88v3.476c0,.792.396,1.243,1.188,1.243Z"/><path d="M11.3405,7.469c1.397,0,2.365-1.078,2.365-2.794c0-1.727-.968-2.783-2.365-2.783-.748,0-1.408.385-1.793.924v-.792h-.825v7.337h.825v-2.827c.44.583,1.067.935,1.793.935Zm-.209-.737c-.649,0-1.298-.396-1.584-.858v-2.398c.286-.462.935-.847,1.584-.847c1.067,0,1.705.869,1.705,2.046s-.638,2.057-1.705,2.057Z"/><path d="M17.3355,7.469c1.617,0,2.629-1.254,2.629-2.794s-1.012-2.783-2.629-2.783-2.629,1.243-2.629,2.783s1.012,2.794,2.629,2.794Zm0-.737c-1.133,0-1.76-.968-1.76-2.057c0-1.078.627-2.046,1.76-2.046s1.76.968,1.76,2.046c0,1.089-.627,2.057-1.76,2.057Z"/><path d="M23.6275,7.469c1.617,0,2.629-1.254,2.629-2.794s-1.012-2.783-2.629-2.783-2.629,1.243-2.629,2.783s1.012,2.794,2.629,2.794Zm0-.737c-1.133,0-1.76-.968-1.76-2.057c0-1.078.627-2.046,1.76-2.046s1.76.968,1.76,2.046c0,1.089-.627,2.057-1.76,2.057Z"/><polygon points="28.4235,7.337 28.4235,0 27.5985,0 27.5985,7.337"/><path d="M31.7675,7.469c1.364,0,2.079-.715,2.079-1.606c0-2.068-3.289-1.309-3.289-2.464c0-.473.451-.836,1.177-.836.693,0,1.265.286,1.584.671l.385-.572c-.418-.429-1.056-.77-1.969-.77-1.265,0-1.969.693-1.969,1.529c0,1.969,3.289,1.177,3.289,2.464c0,.528-.451.913-1.265.913-.726,0-1.397-.352-1.749-.759l-.418.594c.539.561,1.265.836,2.145.836Z"/><path d="M42.1845,7.337v-3.652c0-1.287-.924-1.793-2.057-1.793-.869,0-1.551.286-2.123.88l.385.572c.473-.517.99-.737,1.628-.737.77,0,1.342.407,1.342,1.111v.957c-.429-.484-1.034-.715-1.76-.715-.902,0-1.848.55-1.848,1.749c0,1.155.957,1.76,1.848,1.76.715,0,1.331-.253,1.76-.737v.605h.825Zm-2.277-.462c-.781,0-1.32-.484-1.32-1.166c0-.671.539-1.155,1.32-1.155.572,0,1.133.22,1.452.649v1.012c-.319.44-.88.66-1.452.66Z"/><path d="M44.6705,7.337v-3.762c.242-.429.935-.847,1.452-.847.121,0,.22.011.319.022v-.847c-.726,0-1.342.418-1.771.968v-.847h-.825v5.313h.825Z"/><path d="M49.7965,7.469c1.617,0,2.629-1.254,2.629-2.794s-1.012-2.783-2.629-2.783-2.629,1.243-2.629,2.783s1.012,2.794,2.629,2.794Zm0-.737c-1.133,0-1.76-.968-1.76-2.057c0-1.078.627-2.046,1.76-2.046s1.76.968,1.76,2.046c0,1.089-.627,2.057-1.76,2.057Z"/><path d="M58.1785,7.337v-5.313h-.825v3.905c-.308.429-.924.803-1.562.803-.726,0-1.199-.275-1.199-1.21v-3.498h-.825v3.751c0,1.144.583,1.694,1.694,1.694.792,0,1.485-.418,1.892-.88v.748h.825Z"/><path d="M64.2395,7.337v-3.729c0-1.155-.583-1.716-1.683-1.716-.803,0-1.529.451-1.903.902v-.77h-.825v5.313h.825v-3.883c.319-.429.924-.825,1.573-.825.715,0,1.199.286,1.199,1.232v3.476h.814Z"/><path d="M70.5755,7.337v-7.337h-.825v2.827c-.429-.583-1.078-.935-1.793-.935-1.386,0-2.365,1.089-2.365,2.794c0,1.727.979,2.783,2.365,2.783.748,0,1.397-.385,1.793-.924v.792h.825Zm-2.409-.605c-1.078,0-1.716-.869-1.716-2.046s.638-2.057,1.716-2.057c.649,0,1.298.396,1.584.858v2.398c-.286.462-.935.847-1.584.847Z"/><path d="M76.4275,7.469c.473,0,.77-.143.979-.341l-.242-.627c-.11.121-.319.231-.561.231-.352,0-.528-.286-.528-.682v-3.3h1.078v-.726h-1.078v-1.452h-.836v1.452h-.88v.726h.88v3.476c0,.792.396,1.243,1.188,1.243Z"/><path d="M82.7305,7.337v-3.751c0-1.155-.583-1.694-1.694-1.694-.803,0-1.529.451-1.892.902v-2.794h-.825v7.337h.825v-3.883c.308-.429.924-.825,1.562-.825.726,0,1.199.264,1.199,1.21v3.498h.825Z"/><path d="M86.7895,7.469c.858,0,1.573-.297,2.112-.825l-.396-.539c-.429.44-1.034.682-1.65.682-1.144,0-1.837-.836-1.903-1.837h4.29v-.209c0-1.595-.946-2.849-2.552-2.849-1.518,0-2.618,1.243-2.618,2.783c0,1.661,1.133,2.794,2.717,2.794Zm1.639-3.135h-3.487c.044-.803.605-1.76,1.738-1.76c1.21,0,1.738.979,1.749,1.76Z"/><path d="M94.2475,5.896v-2.409c.286-.462.935-.858,1.595-.858c1.067,0,1.705.88,1.705,2.057s-.638,2.046-1.705,2.046c-.66,0-1.309-.374-1.595-.836Zm0,1.441v-.792c.396.539,1.045.924,1.793.924c1.386,0,2.365-1.056,2.365-2.783c0-1.705-.968-2.794-2.365-2.794-.715,0-1.364.352-1.793.935v-2.827h-.825v7.337h.825Z"/><path d="M103.8945,7.337v-3.652c0-1.287-.924-1.793-2.057-1.793-.869,0-1.551.286-2.123.88l.385.572c.473-.517.99-.737,1.628-.737.77,0,1.342.407,1.342,1.111v.957c-.429-.484-1.034-.715-1.76-.715-.902,0-1.848.55-1.848,1.749c0,1.155.957,1.76,1.848,1.76.715,0,1.331-.253,1.76-.737v.605h.825Zm-2.277-.462c-.781,0-1.32-.484-1.32-1.166c0-.671.539-1.155,1.32-1.155.572,0,1.133.22,1.452.649v1.012c-.319.44-.88.66-1.452.66Z"/><path d="M107.2495,7.469c1.364,0,2.079-.715,2.079-1.606c0-2.068-3.289-1.309-3.289-2.464c0-.473.451-.836,1.177-.836.693,0,1.265.286,1.584.671l.385-.572c-.418-.429-1.056-.77-1.969-.77-1.265,0-1.969.693-1.969,1.529c0,1.969,3.289,1.177,3.289,2.464c0,.528-.451.913-1.265.913-.726,0-1.397-.352-1.749-.759l-.418.594c.539.561,1.265.836,2.145.836Z"/><path d="M113.0795,7.469c.858,0,1.573-.297,2.112-.825l-.396-.539c-.429.44-1.034.682-1.65.682-1.144,0-1.837-.836-1.903-1.837h4.29v-.209c0-1.595-.946-2.849-2.552-2.849-1.518,0-2.618,1.243-2.618,2.783c0,1.661,1.133,2.794,2.717,2.794Zm1.639-3.135h-3.487c.044-.803.605-1.76,1.738-1.76c1.21,0,1.738.979,1.749,1.76Z"/></g><mask id="eOcSTVKwRaj129"><g id="eOcSTVKwRaj130_to" transform="translate(-42.644427,237.11558)"><rect width="109.5416" height="22.2" rx="0" ry="0" transform="scale(1.373629,0.759937) translate(-55.1496,-12.984446)" fill="#fff" stroke-width="0"/></g></mask></g></g><g id="eOcSTVKwRaj131_to" style="offset-path:path('M232.42328,305.099546C245.790908,242.380366,213.979849,159.380696,166.8352,144.784596Q169.3352,146.284596,167.544444,144.940596C181.303125,194.192711,167.010367,214.667237,135.3352,208.284597');offset-rotate:0deg"><g transform="translate(-10,-16)"><path d="M18.959856,14.909377L2.947231,0.788264C1.326254,-0.641429,0,-0.071484,0,2.053735v21.252188c0,2.125219,1.630934,3.145324,3.626289,2.266256l4.458683-1.966793l3.136411,6.696371C11.721218,31.370162,12.806516,32,13.941598,32c.412214,0,.832394-.083077,1.234651-.260822c1.501494-.662682,2.164622-2.378313,1.481581-3.836986l-3.136412-6.69444l4.75938-2.100102c1.993364-.879068,2.298044-2.766649.679058-4.198273Z"/></g></g><g id="eOcSTVKwRaj133_ts" transform="translate(156.8352,125.289596) scale(1,1)"><g id="eOcSTVKwRaj133" transform="translate(-12.5,-11.5)" opacity="0"><g><path d="M11.216441,5c.671475,0,1.21644-.373333,1.21644-.833333v-3.333334c0-.46-.544965-.833333-1.21644-.833333s-1.216441.373333-1.216441.833333v3.333334C10,4.626667,10.544965,5,11.216441,5Z"/><path d="M20,13.216441c0,.671475.373333,1.21644.833333,1.21644h3.333334c.46,0,.833333-.544965.833333-1.21644s-.373333-1.216441-.833333-1.216441h-3.333334C20.373333,12,20,12.544965,20,13.216441Z"/><path d="M5,13.216441C5,12.544965,4.626667,12,4.166667,12h-3.333334C0.373333,12,0,12.544965,0,13.216441s.373333,1.21644.833333,1.21644h3.333334c.46,0,.833333-.544965.833333-1.21644Z"/><path d="M18.767933,8.695684L21.697236,5.76845c.403685-.405755.403685-1.059931,0-1.465686-.405755-.403685-1.059931-.403685-1.465686,0L17.304316,7.232067c-.405755.403685-.405755,1.059932,0,1.463617.403685.405755,1.057862.405755,1.463617,0Z"/><path d="M5.231335,18.304316L2.302889,21.23155c-.403852.405755-.403852,1.059931,0,1.465686.403852.403685,1.060371.403685,1.464223,0l2.928446-2.929303c.405923-.403685.405923-1.059932,0-1.463617-.403852-.405755-1.0583-.405755-1.464223,0Z"/><path d="M3.767112,4.302858c-.403852-.403811-1.060371-.403811-1.464223,0-.403852.405881-.403852,1.060261,0,1.466142L5.231335,8.697142c.405923.403811,1.060371.403811,1.464223,0c.405923-.40381.405923-1.060261,0-1.464071L3.767112,4.302858Z"/></g></g></g><g id="eOcSTVKwRaj141_ts" transform="translate(130.312344,193.105029) scale(1,1)"><g id="eOcSTVKwRaj141" transform="translate(-12.43288,-13.216428)" opacity="0"><g><path d="M11.216441,5c.671475,0,1.21644-.373333,1.21644-.833333v-3.333334c0-.46-.544965-.833333-1.21644-.833333s-1.216441.373333-1.216441.833333v3.333334C10,4.626667,10.544965,5,11.216441,5Z"/><path d="M20,13.216441c0,.671475.373333,1.21644.833333,1.21644h3.333334c.46,0,.833333-.544965.833333-1.21644s-.373333-1.216441-.833333-1.216441h-3.333334C20.373333,12,20,12.544965,20,13.216441Z"/><path d="M5,13.216441C5,12.544965,4.626667,12,4.166667,12h-3.333334C0.373333,12,0,12.544965,0,13.216441s.373333,1.21644.833333,1.21644h3.333334c.46,0,.833333-.544965.833333-1.21644Z"/><path d="M18.767933,8.695684L21.697236,5.76845c.403685-.405755.403685-1.059931,0-1.465686-.405755-.403685-1.059931-.403685-1.465686,0L17.304316,7.232067c-.405755.403685-.405755,1.059932,0,1.463617.403685.405755,1.057862.405755,1.463617,0Z"/><path d="M5.231335,18.304316L2.302889,21.23155c-.403852.405755-.403852,1.059931,0,1.465686.403852.403685,1.060371.403685,1.464223,0l2.928446-2.929303c.405923-.403685.405923-1.059932,0-1.463617-.403852-.405755-1.0583-.405755-1.464223,0Z"/><path d="M3.767112,4.302858c-.403852-.403811-1.060371-.403811-1.464223,0-.403852.405881-.403852,1.060261,0,1.466142L5.231335,8.697142c.405923.403811,1.060371.403811,1.464223,0c.405923-.40381.405923-1.060261,0-1.464071L3.767112,4.302858Z"/></g></g></g><g transform="translate(-154.101436-115.888118)" clip-path="url(#eOcSTVKwRaj154)"><g transform="translate(186.583 351.488921)"><g transform="translate(-35-231)"><g transform="translate(35.928 231.663)"><path d="M0.913,7.337v-7.337L0,0v7.337h.913Zm3.036.132c.473,0,.77-.143.979-.341l-.242-.627c-.11.121-.319.231-.561.231-.352,0-.528-.286-.528-.682v-3.3h1.078v-.726h-1.078v-1.452h-.836v1.452h-.88v.726h.88v3.476c0,.792.396,1.243,1.188,1.243Zm7.348,0c1.397,0,2.365-1.078,2.365-2.794c0-1.727-.968-2.783-2.365-2.783-.748,0-1.408.385-1.793.924v-.792h-.825v7.337h.825v-2.827c.44.583,1.067.935,1.793.935Zm-.209-.737c-.649,0-1.298-.396-1.584-.858v-2.398c.286-.462.935-.847,1.584-.847c1.067,0,1.705.869,1.705,2.046s-.638,2.057-1.705,2.057Zm6.204.737c1.617,0,2.629-1.254,2.629-2.794s-1.012-2.783-2.629-2.783-2.629,1.243-2.629,2.783s1.012,2.794,2.629,2.794Zm0-.737c-1.133,0-1.76-.968-1.76-2.057c0-1.078.627-2.046,1.76-2.046s1.76.968,1.76,2.046c0,1.089-.627,2.057-1.76,2.057Zm6.292.737c1.617,0,2.629-1.254,2.629-2.794s-1.012-2.783-2.629-2.783-2.629,1.243-2.629,2.783s1.012,2.794,2.629,2.794Zm0-.737c-1.133,0-1.76-.968-1.76-2.057c0-1.078.627-2.046,1.76-2.046s1.76.968,1.76,2.046c0,1.089-.627,2.057-1.76,2.057Zm4.796.605v-7.337h-.825v7.337h.825Zm3.344.132c1.364,0,2.079-.715,2.079-1.606c0-2.068-3.289-1.309-3.289-2.464c0-.473.451-.836,1.177-.836.693,0,1.265.286,1.584.671l.385-.572c-.418-.429-1.056-.77-1.969-.77-1.265,0-1.969.693-1.969,1.529c0,1.969,3.289,1.177,3.289,2.464c0,.528-.451.913-1.265.913-.726,0-1.397-.352-1.749-.759l-.418.594c.539.561,1.265.836,2.145.836Zm10.417-.132v-3.652c0-1.287-.924-1.793-2.057-1.793-.869,0-1.551.286-2.123.88l.385.572c.473-.517.99-.737,1.628-.737.77,0,1.342.407,1.342,1.111v.957c-.429-.484-1.034-.715-1.76-.715-.902,0-1.848.55-1.848,1.749c0,1.155.957,1.76,1.848,1.76.715,0,1.331-.253,1.76-.737v.605h.825Zm-2.277-.462c-.781,0-1.32-.484-1.32-1.166c0-.671.539-1.155,1.32-1.155.572,0,1.133.22,1.452.649v1.012c-.319.44-.88.66-1.452.66Zm4.763.462v-3.762c.242-.429.935-.847,1.452-.847.121,0,.22.011.319.022v-.847c-.726,0-1.342.418-1.771.968v-.847h-.825v5.313h.825Zm5.126.132c1.617,0,2.629-1.254,2.629-2.794s-1.012-2.783-2.629-2.783-2.629,1.243-2.629,2.783s1.012,2.794,2.629,2.794Zm0-.737c-1.133,0-1.76-.968-1.76-2.057c0-1.078.627-2.046,1.76-2.046s1.76.968,1.76,2.046c0,1.089-.627,2.057-1.76,2.057Zm8.382.605v-5.313h-.825v3.905c-.308.429-.924.803-1.562.803-.726,0-1.199-.275-1.199-1.21v-3.498h-.825v3.751c0,1.144.583,1.694,1.694,1.694.792,0,1.485-.418,1.892-.88v.748h.825Zm6.061,0v-3.729c0-1.155-.583-1.716-1.683-1.716-.803,0-1.529.451-1.903.902v-.77h-.825v5.313h.825v-3.883c.319-.429.924-.825,1.573-.825.715,0,1.199.286,1.199,1.232v3.476h.814Zm6.336,0v-7.337h-.825v2.827c-.429-.583-1.078-.935-1.793-.935-1.386,0-2.365,1.089-2.365,2.794c0,1.727.979,2.783,2.365,2.783.748,0,1.397-.385,1.793-.924v.792h.825Zm-2.409-.605c-1.078,0-1.716-.869-1.716-2.046s.638-2.057,1.716-2.057c.649,0,1.298.396,1.584.858v2.398c-.286.462-.935.847-1.584.847Zm8.261.737c.473,0,.77-.143.979-.341l-.242-.627c-.11.121-.319.231-.561.231-.352,0-.528-.286-.528-.682v-3.3h1.078v-.726h-1.078v-1.452h-.836v1.452h-.88v.726h.88v3.476c0,.792.396,1.243,1.188,1.243Zm6.303-.132v-3.751c0-1.155-.583-1.694-1.694-1.694-.803,0-1.529.451-1.892.902v-2.794h-.825v7.337h.825v-3.883c.308-.429.924-.825,1.562-.825.726,0,1.199.264,1.199,1.21v3.498h.825Zm4.059.132c.858,0,1.573-.297,2.112-.825l-.396-.539c-.429.44-1.034.682-1.65.682-1.144,0-1.837-.836-1.903-1.837h4.29v-.209c0-1.595-.946-2.849-2.552-2.849-1.518,0-2.618,1.243-2.618,2.783c0,1.661,1.133,2.794,2.717,2.794Zm1.639-3.135h-3.487c.044-.803.605-1.76,1.738-1.76c1.21,0,1.738.979,1.749,1.76Zm5.819,1.562v-2.409c.286-.462.935-.858,1.595-.858c1.067,0,1.705.88,1.705,2.057s-.638,2.046-1.705,2.046c-.66,0-1.309-.374-1.595-.836Zm0,1.441v-.792c.396.539,1.045.924,1.793.924c1.386,0,2.365-1.056,2.365-2.783c0-1.705-.968-2.794-2.365-2.794-.715,0-1.364.352-1.793.935v-2.827h-.825v7.337h.825Zm9.647,0v-3.652c0-1.287-.924-1.793-2.057-1.793-.869,0-1.551.286-2.123.88l.385.572c.473-.517.99-.737,1.628-.737.77,0,1.342.407,1.342,1.111v.957c-.429-.484-1.034-.715-1.76-.715-.902,0-1.848.55-1.848,1.749c0,1.155.957,1.76,1.848,1.76.715,0,1.331-.253,1.76-.737v.605h.825Zm-2.277-.462c-.781,0-1.32-.484-1.32-1.166c0-.671.539-1.155,1.32-1.155.572,0,1.133.22,1.452.649v1.012c-.319.44-.88.66-1.452.66Zm5.632.594c1.364,0,2.079-.715,2.079-1.606c0-2.068-3.289-1.309-3.289-2.464c0-.473.451-.836,1.177-.836.693,0,1.265.286,1.584.671l.385-.572c-.418-.429-1.056-.77-1.969-.77-1.265,0-1.969.693-1.969,1.529c0,1.969,3.289,1.177,3.289,2.464c0,.528-.451.913-1.265.913-.726,0-1.397-.352-1.749-.759l-.418.594c.539.561,1.265.836,2.145.836Zm5.83,0c.858,0,1.573-.297,2.112-.825l-.396-.539c-.429.44-1.034.682-1.65.682-1.144,0-1.837-.836-1.903-1.837h4.29v-.209c0-1.595-.946-2.849-2.552-2.849-1.518,0-2.618,1.243-2.618,2.783c0,1.661,1.133,2.794,2.717,2.794Zm1.639-3.135h-3.487c.044-.803.605-1.76,1.738-1.76c1.21,0,1.738.979,1.749,1.76Z"/></g></g></g><clipPath id="eOcSTVKwRaj154"><rect width="115.489" height="24.377461" rx="0" ry="0" transform="matrix(.999992 0 0 1.103566 68.134149 345.249778)" fill="#d2dbed" stroke-width="0"/></clipPath></g></svg>
