<?xml version="1.0" encoding="UTF-8"?>
<svg width="102px" height="41px" viewBox="0 0 102 41" version="1.1" xmlns="http://www.w3.org/2000/svg" xmlns:xlink="http://www.w3.org/1999/xlink">
    <title>Group</title>
    <g id="Page-60" stroke="none" stroke-width="1" fill="none" fill-rule="evenodd">
        <g id="Group" transform="translate(0.000000, 0.139779)" fill="#FFFFFF" fill-rule="nonzero">
            <g id="MaidUp" transform="translate(0.000000, 13.956154)">
                <path d="M20.5399177,0.839506173 L17.0139918,0.839506173 L10.2699588,10.9975309 L3.49794239,0.839506173 L0,0.839506173 L0,19.8683128 L4.72921811,19.8683128 L4.70123457,10.2699588 L8.95473251,16.8460905 L8.95473251,16.8740741 L11.5851852,16.8740741 L11.5851852,16.8460905 L15.8106996,10.3259259 L15.8106996,19.8683128 L20.5399177,19.8683128 L20.5399177,0.839506173 Z M38.1415638,6.2962963 L33.6082305,6.2962963 L33.6082305,7.02386831 C32.600823,6.38024691 31.3695473,5.98847737 29.8864198,5.98847737 C26.2205761,5.98847737 23.1423868,9.01069959 23.1423868,13.0683128 C23.1423868,17.0979424 26.2205761,20.1481481 29.8864198,20.1481481 C31.3695473,20.1481481 32.600823,19.7563786 33.6082305,19.1127572 L33.6082305,19.8683128 L38.1415638,19.8683128 L38.1415638,6.2962963 Z M30.781893,16.4263374 C28.9349794,16.4263374 27.5917695,14.9432099 27.5917695,13.0683128 C27.5917695,11.1934156 28.9349794,9.68230453 30.781893,9.68230453 C31.7893004,9.68230453 32.7687243,9.99012346 33.6082305,10.9695473 L33.6082305,15.1670782 C32.7687243,16.1465021 31.7893004,16.4263374 30.781893,16.4263374 Z M45.8650206,6.2962963 L41.3316872,6.2962963 L41.3316872,19.8683128 L45.8650206,19.8683128 L45.8650206,6.2962963 Z M63.4106996,0 L58.8773663,0 L58.8773663,7.07983539 C57.8699588,6.43621399 56.6386831,6.04444444 55.1555556,6.04444444 C51.4897119,6.04444444 48.4115226,9.06666667 48.4115226,13.0962963 C48.4115226,17.1539095 51.4897119,20.2041152 55.1555556,20.2041152 C56.6386831,20.2041152 57.8699588,19.8123457 58.8773663,19.1687243 L58.8773663,19.8683128 L63.4106996,19.8683128 L63.4106996,0 Z M56.0510288,16.4823045 C54.2041152,16.4823045 52.8609053,14.999177 52.8609053,13.0962963 C52.8609053,11.2493827 54.2041152,9.7382716 56.0510288,9.7382716 C57.0584362,9.7382716 58.0378601,10.0460905 58.8773663,11.0255144 L58.8773663,15.2230453 C58.0378601,16.2024691 57.0584362,16.4823045 56.0510288,16.4823045 Z M84.0625514,0.839506173 L79.3053498,0.839506173 L79.3053498,11.0814815 C79.3053498,13.9917695 77.6823045,15.8666667 75.1917695,15.8666667 C72.7012346,15.8666667 71.1061728,13.9917695 71.1061728,11.0814815 L71.1061728,0.839506173 L66.3489712,0.839506173 L66.3489712,10.9975309 C66.3489712,16.9020576 69.762963,20.2880658 75.1917695,20.2880658 C80.6485597,20.2880658 84.0625514,16.9020576 84.0625514,10.9975309 L84.0625514,0.839506173 Z M95.2559671,5.98847737 C93.7728395,5.98847737 92.5415638,6.38024691 91.5341564,7.02386831 L91.5341564,6.2962963 L87.000823,6.2962963 L87.000823,26.1646091 L91.5341564,26.1646091 L91.5341564,19.1127572 C92.5415638,19.7563786 93.7728395,20.1481481 95.2559671,20.1481481 C98.9218107,20.1481481 102,17.0979424 102,13.0683128 C102,9.01069959 98.9218107,5.98847737 95.2559671,5.98847737 Z M94.3604938,16.4263374 C93.3530864,16.4263374 92.3736626,16.1465021 91.5341564,15.1670782 L91.5341564,10.9695473 C92.3736626,9.99012346 93.3530864,9.68230453 94.3604938,9.68230453 C96.2074074,9.68230453 97.5506173,11.1934156 97.5506173,13.0683128 C97.5506173,14.9432099 96.2074074,16.4263374 94.3604938,16.4263374 Z" id="Combined-Shape"></path>
            </g>
            <path d="M53.6932348,7.58699316 C51.7886072,7.58699316 50.2446015,9.13099886 50.2446015,11.0356264 C50.2446015,12.940254 51.7886072,14.4842597 53.6932348,14.4842597 C55.5978624,14.4842597 57.1418681,12.940254 57.1418681,11.0356264 C57.1418681,9.13099886 55.5978624,7.58699316 53.6932348,7.58699316 Z M56.1565443,11.5282883 C55.8844546,11.5282883 55.6638824,11.3077161 55.6638824,11.0356264 C55.6638824,9.94726781 54.7815934,9.06497884 53.6932348,9.06497884 C53.4211452,9.06497884 53.2005729,8.84440659 53.2005729,8.57231694 C53.2005729,8.30022729 53.4211452,8.07965505 53.6932348,8.07965505 C56.3979486,8.07965505 57.3487861,11.5282883 56.1565443,11.5282883 Z M45.8309421,0 C43.9263145,0 42.3823088,1.5440057 42.3823088,3.44863325 C42.3823088,5.35326081 43.9263145,6.89726651 45.8309421,6.89726651 C47.7355696,6.89726651 49.2795753,5.35326081 49.2795753,3.44863325 C49.2795753,1.5440057 47.7355696,0 45.8309421,0 L45.8309421,0 Z M45.8309421,2.06917995 C45.069091,2.06917995 44.4514888,2.68678223 44.4514888,3.44863325 C44.4514888,3.82955876 44.1426876,4.1383599 43.7617621,4.1383599 C42.3202334,4.1383599 43.1961863,0.689726651 45.8309421,0.689726651 C46.2118676,0.689726651 46.5206687,0.998527791 46.5206687,1.3794533 C46.5206687,1.76037881 46.2118676,2.06917995 45.8309421,2.06917995 Z M34.7953157,9.65617311 C35.9380922,9.65617311 36.8644956,8.72976969 36.8644956,7.58699316 C36.8644956,6.44421662 35.9380922,5.5178132 34.7953157,5.5178132 C33.6525391,5.5178132 32.7261357,6.44421662 32.7261357,7.58699316 C32.7261357,8.72976969 33.6525391,9.65617311 34.7953157,9.65617311 Z M43.6983754,10.4893928 C45.8682554,10.4893928 47.6625793,12.1168029 47.6625793,14.3284114 C47.6625793,16.4982914 45.8682554,18.1257015 43.6983754,18.1257015 C41.4867669,18.1257015 39.7341714,16.4982914 39.7341714,14.3284114 C39.7341714,12.1168029 41.4867669,10.4893928 43.6983754,10.4893928 Z M46.4331818,13.3704042 C46.1236798,13.3704042 45.8674515,13.598496 45.8234224,13.8957539 L45.8167386,13.9868474 L45.8167386,14.1761935 C45.8167386,15.2781238 44.9234476,16.1714148 43.8215173,16.1714148 C43.4810651,16.1714148 43.2050741,16.4474059 43.2050741,16.787858 C43.2050741,17.1283102 43.4810651,17.4043012 43.8215173,17.4043012 C45.5449241,17.4043012 46.9528984,16.0537738 47.0448484,14.3533107 L47.049625,14.1761935 L47.049625,13.9868474 C47.049625,13.6463952 46.773634,13.3704042 46.4331818,13.3704042 Z" id="Combined-Shape"></path>
        </g>
    </g>
</svg>