<?xml version="1.0" encoding="UTF-8"?>
<svg width="279px" height="178px" viewBox="0 0 279 178" version="1.1" xmlns="http://www.w3.org/2000/svg" xmlns:xlink="http://www.w3.org/1999/xlink">
    <title>Group</title>
    <g id="logos" stroke="none" stroke-width="1" fill="none" fill-rule="evenodd">
        <g id="Group" transform="translate(0.689349, 0.448588)" fill="#45B154">
            <path d="M66.2126299,70.3022444 L51.4526299,70.3022444 L57.2846299,40.4222444 L57.0686299,40.4222444 L45.1886299,70.3022444 L35.5406299,70.3022444 L34.5326299,40.4222444 L34.2446299,40.4222444 L29.7086299,70.3022444 L16.1726299,70.3022444 L25.0286299,19.3262444 L42.8846299,19.3262444 L44.3966299,46.8302444 L44.6846299,46.8302444 L55.2686299,19.3262444 L75.0686299,19.3262444 L66.2126299,70.3022444 Z M89.1086299,70.3022444 L73.8446299,70.3022444 L82.7006299,19.3262444 L97.9646299,19.3262444 L89.1086299,70.3022444 Z M130.14863,43.8782444 L136.77263,70.3022444 L119.70863,70.3022444 L115.96463,47.9102444 L115.67663,47.9102444 L111.78863,70.3022444 L96.7406299,70.3022444 L105.59663,19.3262444 L120.64463,19.3262444 L117.11663,39.5582444 L117.47663,39.5582444 L128.20463,19.3262444 L145.41263,19.3262444 L130.14863,43.8782444 Z M174.21263,32.5742444 L162.18863,32.5742444 L161.10863,38.3342444 L172.19663,38.3342444 L170.10863,50.6462444 L159.02063,50.6462444 L157.94063,56.8382444 L171.33263,56.8382444 L169.02863,70.3022444 L141.23663,70.3022444 L150.09263,19.3262444 L176.51663,19.3262444 L174.21263,32.5742444 Z M187.31663,38.4782444 L178.17263,38.4782444 L185.37263,19.3262444 L195.59663,19.3262444 L187.31663,38.4782444 Z M221.51663,34.4462444 C220.748626,33.6782405 219.788636,33.030247 218.63663,32.5022444 C217.484624,31.9742417 216.356635,31.7102444 215.25263,31.7102444 C214.820628,31.7102444 214.376632,31.7582439 213.92063,31.8542444 C213.464628,31.9502448 213.044632,32.130243 212.66063,32.3942444 C212.276628,32.6582457 211.964631,32.9942423 211.72463,33.4022444 C211.484629,33.8102464 211.36463,34.3262412 211.36463,34.9502444 C211.36463,35.8142487 211.676627,36.5102417 212.30063,37.0382444 C212.924633,37.566247 214.004622,38.2862398 215.54063,39.1982444 C216.404634,39.6782468 217.352625,40.3022405 218.38463,41.0702444 C219.416635,41.8382482 220.400625,42.7742388 221.33663,43.8782444 C222.272635,44.9822499 223.052627,46.3022367 223.67663,47.8382444 C224.300633,49.374252 224.61263,51.1502343 224.61263,53.1662444 C224.61263,56.3822604 224.036636,59.1422328 222.88463,61.4462444 C221.732624,63.7502559 220.232639,65.6462369 218.38463,67.1342444 C216.536621,68.6222518 214.448642,69.7142409 212.12063,70.4102444 C209.792618,71.1062478 207.476641,71.4542444 205.17263,71.4542444 C201.668612,71.4542444 198.488644,70.9502494 195.63263,69.9422444 C192.776616,68.9342393 190.532638,67.6862518 188.90063,66.1982444 L197.54063,54.7502444 C198.500635,55.5662484 199.640623,56.2502416 200.96063,56.8022444 C202.280636,57.3542471 203.612623,57.6302444 204.95663,57.6302444 C205.916635,57.6302444 206.792626,57.3782469 207.58463,56.8742444 C208.376634,56.3702418 208.77263,55.5662499 208.77263,54.4622444 C208.77263,53.6462403 208.460633,52.8902478 207.83663,52.1942444 C207.212627,51.4982409 206.060638,50.6702492 204.38063,49.7102444 C203.276624,49.0862412 202.196635,48.3782483 201.14063,47.5862444 C200.084625,46.7942404 199.148634,45.8822495 198.33263,44.8502444 C197.516626,43.8182392 196.868632,42.6062513 196.38863,41.2142444 C195.908627,39.8222374 195.66863,38.2142535 195.66863,36.3902444 C195.66863,33.9422321 196.112625,31.6142554 197.00063,29.4062444 C197.888634,27.1982333 199.172621,25.2662526 200.85263,23.6102444 C202.532638,21.9542361 204.572618,20.6342493 206.97263,19.6502444 C209.372642,18.6662394 212.084615,18.1742444 215.10863,18.1742444 C218.468647,18.1742444 221.468617,18.6662394 224.10863,19.6502444 C226.748643,20.6342493 228.764623,21.8702369 230.15663,23.3582444 L221.51663,34.4462444 Z" id="MIKE’S" transform="translate(123.164630, 44.814244) rotate(-10.000000) translate(-123.164630, -44.814244) "></path>
            <path d="M40.1860741,125.772162 L25.1380741,125.772162 L28.5940741,106.044162 L21.0340741,106.044162 L17.5780741,125.772162 L2.60207411,125.772162 L11.4580741,74.796162 L26.3620741,74.796162 L23.2660741,92.508162 L30.8980741,92.508162 L33.9220741,74.796162 L49.0420741,74.796162 L40.1860741,125.772162 Z M71.4340741,118.284162 L62.2900741,118.284162 L59.6260741,125.772162 L43.9300741,125.772162 L65.3860741,74.796162 L84.0340741,74.796162 L86.6980741,125.772162 L71.4340741,125.772162 L71.4340741,118.284162 Z M65.8900741,106.836162 L71.6500741,106.836162 L71.6500741,90.060162 L71.3620741,90.060162 L65.8900741,106.836162 Z M129.322074,105.900162 C128.794071,108.924177 128.086079,111.732149 127.198074,114.324162 C126.31007,116.916175 125.074082,119.160152 123.490074,121.056162 C121.906066,122.952171 119.902086,124.452156 117.478074,125.556162 C115.054062,126.660167 112.090092,127.212162 108.586074,127.212162 C105.75406,127.212162 103.270085,126.828166 101.134074,126.060162 C98.9980634,125.292158 97.2100813,124.224169 95.7700741,122.856162 C94.3300669,121.488155 93.2380778,119.856171 92.4940741,117.960162 C91.7500704,116.064152 91.3780741,113.988173 91.3780741,111.732162 C91.3780741,110.772157 91.4260736,109.800167 91.5220741,108.816162 C91.6180746,107.832157 91.7620731,106.836167 91.9540741,105.828162 L97.3540741,74.796162 L112.546074,74.796162 L107.362074,104.748162 C107.218073,105.564166 107.098075,106.320158 107.002074,107.016162 C106.906074,107.712165 106.858074,108.348159 106.858074,108.924162 C106.858074,110.076168 107.086072,110.988159 107.542074,111.660162 C107.998076,112.332165 108.706069,112.668162 109.666074,112.668162 C111.298082,112.668162 112.414071,111.960169 113.014074,110.544162 C113.614077,109.128155 114.130072,107.196174 114.562074,104.748162 L119.746074,74.796162 L134.794074,74.796162 L129.322074,105.900162 Z M160.714074,125.772162 L132.346074,125.772162 L141.202074,74.796162 L156.394074,74.796162 L149.986074,111.876162 L163.162074,111.876162 L160.714074,125.772162 Z M180.658074,125.772162 L165.394074,125.772162 L174.250074,74.796162 L189.514074,74.796162 L180.658074,125.772162 Z M225.658074,125.772162 L209.962074,125.772162 L205.714074,100.788162 L205.498074,100.788162 L201.682074,125.772162 L188.290074,125.772162 L197.146074,74.796162 L213.202074,74.796162 L217.234074,100.500162 L217.522074,100.500162 L221.554074,74.796162 L234.514074,74.796162 L225.658074,125.772162 Z M265.978074,90.708162 C265.258071,89.8921579 264.454079,89.2321645 263.566074,88.728162 C262.67807,88.2241594 261.490082,87.972162 260.002074,87.972162 C258.226065,87.972162 256.678081,88.5121566 255.358074,89.592162 C254.038068,90.6721674 252.946078,92.0401537 252.082074,93.696162 C251.21807,95.3521702 250.570076,97.176152 250.138074,99.168162 C249.706072,101.160172 249.490074,103.044153 249.490074,104.820162 C249.490074,105.924167 249.598073,106.968157 249.814074,107.952162 C250.030075,108.936167 250.378072,109.788158 250.858074,110.508162 C251.338077,111.228166 251.97407,111.80416 252.766074,112.236162 C253.558078,112.668164 254.554068,112.884162 255.754074,112.884162 C256.282077,112.884162 256.786072,112.836162 257.266074,112.740162 C257.746077,112.644161 258.154072,112.476163 258.490074,112.236162 L259.426074,107.196162 L253.666074,107.196162 L255.970074,94.020162 L274.978074,94.020162 L269.938074,122.892162 C267.874064,124.284169 265.570087,125.352158 263.026074,126.096162 C260.482061,126.840166 257.62609,127.212162 254.458074,127.212162 C251.194058,127.212162 248.338086,126.708167 245.890074,125.700162 C243.442062,124.692157 241.414082,123.276171 239.806074,121.452162 C238.198066,119.628153 236.998078,117.456175 236.206074,114.936162 C235.41407,112.416149 235.018074,109.668177 235.018074,106.692162 C235.018074,102.22814 235.642068,97.992182 236.890074,93.984162 C238.13808,89.9761419 239.902063,86.4361773 242.182074,83.364162 C244.462086,80.2921466 247.174058,77.856171 250.318074,76.056162 C253.46209,74.256153 256.906055,73.356162 260.650074,73.356162 C262.618084,73.356162 264.406066,73.5241603 266.014074,73.860162 C267.622082,74.1961636 269.038068,74.6401592 270.262074,75.192162 C271.48608,75.7441647 272.54207,76.3801584 273.430074,77.100162 C274.318079,77.8201656 275.050071,78.5641581 275.626074,79.332162 L265.978074,90.708162 Z" id="HAULING" transform="translate(139.114074, 100.284162) rotate(-10.000000) translate(-139.114074, -100.284162) "></path>
            <path d="M111.995681,137.647412 C111.483678,137.13541 110.843685,136.703414 110.075681,136.351412 C109.307677,135.99941 108.555684,135.823412 107.819681,135.823412 C107.531679,135.823412 107.235682,135.855412 106.931681,135.919412 C106.627679,135.983413 106.347682,136.103411 106.091681,136.279412 C105.835679,136.455413 105.627682,136.679411 105.467681,136.951412 C105.30768,137.223414 105.227681,137.56741 105.227681,137.983412 C105.227681,138.559415 105.435679,139.02341 105.851681,139.375412 C106.267683,139.727414 106.987676,140.207409 108.011681,140.815412 C108.587684,141.135414 109.219677,141.55141 109.907681,142.063412 C110.595684,142.575415 111.251678,143.199409 111.875681,143.935412 C112.499684,144.671416 113.019679,145.551407 113.435681,146.575412 C113.851683,147.599417 114.059681,148.783406 114.059681,150.127412 C114.059681,152.271423 113.675685,154.111405 112.907681,155.647412 C112.139677,157.18342 111.139687,158.447407 109.907681,159.439412 C108.675675,160.431417 107.283688,161.15941 105.731681,161.623412 C104.179673,162.087415 102.635688,162.319412 101.099681,162.319412 C98.763669,162.319412 96.6436902,161.983416 94.7396807,161.311412 C92.8356712,160.639409 91.3396862,159.807417 90.2516807,158.815412 L96.0116807,151.183412 C96.6516839,151.727415 97.4116763,152.18341 98.2916807,152.551412 C99.1716851,152.919414 100.059676,153.103412 100.955681,153.103412 C101.595684,153.103412 102.179678,152.935414 102.707681,152.599412 C103.235683,152.263411 103.499681,151.727416 103.499681,150.991412 C103.499681,150.44741 103.291683,149.943415 102.875681,149.479412 C102.459679,149.01541 101.691686,148.463415 100.571681,147.823412 C99.835677,147.40741 99.1156842,146.935415 98.4116807,146.407412 C97.7076772,145.87941 97.0836834,145.271416 96.5396807,144.583412 C95.995678,143.895409 95.5636823,143.087417 95.2436807,142.159412 C94.9236791,141.231408 94.7636807,140.159418 94.7636807,138.943412 C94.7636807,137.311404 95.0596778,135.75942 95.6516807,134.287412 C96.2436837,132.815405 97.0996751,131.527418 98.2196807,130.423412 C99.3396863,129.319407 100.699673,128.439416 102.299681,127.783412 C103.899689,127.127409 105.707671,126.799412 107.723681,126.799412 C109.963692,126.799412 111.963672,127.127409 113.723681,127.783412 C115.48369,128.439416 116.827676,129.263407 117.755681,130.255412 L111.995681,137.647412 Z M137.627681,136.399412 L129.611681,136.399412 L128.891681,140.239412 L136.283681,140.239412 L134.891681,148.447412 L127.499681,148.447412 L126.779681,152.575412 L135.707681,152.575412 L134.171681,161.551412 L115.643681,161.551412 L121.547681,127.567412 L139.163681,127.567412 L137.627681,136.399412 Z M165.659681,137.119412 C165.659681,139.583425 165.171686,141.663404 164.195681,143.359412 C163.219676,145.055421 161.83569,146.287408 160.043681,147.055412 L163.259681,161.551412 L152.651681,161.551412 L150.827681,149.167412 L149.579681,149.167412 L147.419681,161.551412 L137.819681,161.551412 L143.723681,127.567412 L155.483681,127.567412 C158.779697,127.567412 161.299672,128.367404 163.043681,129.967412 C164.787689,131.56742 165.659681,133.951396 165.659681,137.119412 L165.659681,137.119412 Z M155.531681,138.415412 C155.531681,137.423407 155.267683,136.767414 154.739681,136.447412 C154.211678,136.127411 153.707683,135.967412 153.227681,135.967412 L151.883681,135.967412 L150.779681,142.255412 L151.835681,142.255412 C152.795686,142.255412 153.651677,141.967415 154.403681,141.391412 C155.155684,140.815409 155.531681,139.823419 155.531681,138.415412 L155.531681,138.415412 Z M183.419681,161.551412 L170.699681,161.551412 L168.539681,127.567412 L179.291681,127.567412 L179.291681,149.455412 L179.435681,149.455412 L186.587681,127.567412 L197.579681,127.567412 L183.419681,161.551412 Z M204.251681,161.551412 L194.075681,161.551412 L199.979681,127.567412 L210.155681,127.567412 L204.251681,161.551412 Z M230.603681,138.271412 C230.219679,137.79141 229.787683,137.367414 229.307681,136.999412 C228.827678,136.63141 228.107686,136.447412 227.147681,136.447412 C226.187676,136.447412 225.331684,136.791409 224.579681,137.479412 C223.827677,138.167416 223.179683,139.047407 222.635681,140.119412 C222.091678,141.191418 221.675682,142.375406 221.387681,143.671412 C221.099679,144.967419 220.955681,146.223406 220.955681,147.439412 C220.955681,149.00742 221.243678,150.271407 221.819681,151.231412 C222.395684,152.191417 223.339674,152.671412 224.651681,152.671412 C225.419685,152.671412 226.075678,152.503414 226.619681,152.167412 C227.163683,151.831411 227.659678,151.471414 228.107681,151.087412 L232.427681,158.815412 C231.371675,159.839417 230.043689,160.711409 228.443681,161.431412 C226.843673,162.151416 224.987691,162.511412 222.875681,162.511412 C220.859671,162.511412 219.083688,162.183416 217.547681,161.527412 C216.011673,160.871409 214.723686,159.951418 213.683681,158.767412 C212.643676,157.583406 211.851683,156.159421 211.307681,154.495412 C210.763678,152.831404 210.491681,150.975422 210.491681,148.927412 C210.491681,145.983398 210.899677,143.159426 211.715681,140.455412 C212.531685,137.751399 213.683673,135.375422 215.171681,133.327412 C216.659688,131.279402 218.44367,129.647418 220.523681,128.431412 C222.603691,127.215406 224.891668,126.607412 227.387681,126.607412 C228.763688,126.607412 229.971676,126.719411 231.011681,126.943412 C232.051686,127.167413 232.963677,127.47141 233.747681,127.855412 C234.531685,128.239414 235.203678,128.67141 235.763681,129.151412 C236.323684,129.631415 236.827678,130.12741 237.275681,130.639412 L230.603681,138.271412 Z M256.379681,136.399412 L248.363681,136.399412 L247.643681,140.239412 L255.035681,140.239412 L253.643681,148.447412 L246.251681,148.447412 L245.531681,152.575412 L254.459681,152.575412 L252.923681,161.551412 L234.395681,161.551412 L240.299681,127.567412 L257.915681,127.567412 L256.379681,136.399412 Z" id="SERVICE" transform="translate(174.083681, 144.559412) rotate(-10.000000) translate(-174.083681, -144.559412) "></path>
        </g>
    </g>
</svg>