<?xml version="1.0" encoding="UTF-8"?>
<svg width="114px" height="57px" viewBox="0 0 114 57" version="1.1" xmlns="http://www.w3.org/2000/svg" xmlns:xlink="http://www.w3.org/1999/xlink">
    <title>Artboard</title>
    <g id="Artboard" stroke="none" stroke-width="1" fill="none" fill-rule="evenodd">
        <path d="M15.592,30 L15.592,16.428 C15.592,16.164 15.598,15.864 15.61,15.528 C15.622,15.192 15.652,14.868 15.7,14.556 C15.748,14.196 15.796,13.824 15.844,13.44 L12.28,27.48 L10.192,27.48 L6.628,13.44 C6.652,13.824 6.688,14.196 6.736,14.556 C6.784,14.868 6.82,15.192 6.844,15.528 C6.868,15.864 6.88,16.164 6.88,16.428 L6.88,30 L2.92,30 L2.92,2.496 L6.808,2.496 L11.128,17.688 C11.152,17.76 11.164,17.862 11.164,17.994 C11.164,18.126 11.176,18.264 11.2,18.408 C11.2,18.576 11.212,18.756 11.236,18.948 C11.236,18.756 11.248,18.576 11.272,18.408 C11.272,18.12 11.296,17.88 11.344,17.688 L15.664,2.496 L19.552,2.496 L19.552,30 L15.592,30 Z M30.112,19.668 L30.112,15.6 L26.944,15.672 L26.944,30 L22.912,30 L22.912,12.252 L26.944,12.252 L26.944,12.9 L30.616,12.324 C30.832,12.276 31.054,12.24 31.282,12.216 C31.51,12.192 31.72,12.18 31.912,12.18 C33.376,12.18 34.108,12.9 34.108,14.34 L34.108,19.668 L30.112,19.668 Z M58.144,27.48 C58.144,29.16 57.304,30 55.624,30 L47.056,30 C45.424,30 44.608,29.16 44.608,27.48 L44.608,5.016 C44.608,3.336 45.424,2.496 47.056,2.496 L55.624,2.496 C57.304,2.496 58.144,3.336 58.144,5.016 L58.144,11.46 L54.04,11.46 L54.04,6.024 L48.712,6.024 L48.712,26.472 L54.04,26.472 L54.04,20.676 L58.144,20.676 L58.144,27.48 Z M61.576,30 L61.576,2.496 L65.536,2.496 L65.536,30 L61.576,30 Z M80.308,27.804 C80.308,29.268 79.552,30 78.04,30 L71.092,30 C69.58,30 68.824,29.268 68.824,27.804 L68.824,14.448 C68.824,12.984 69.58,12.252 71.092,12.252 L78.04,12.252 C79.552,12.252 80.308,12.984 80.308,14.448 L80.308,20.964 L79.192,22.08 L72.676,22.08 L72.676,27.048 L76.456,27.048 L76.456,24.096 L80.308,24.096 L80.308,27.804 Z M76.456,15.204 L72.676,15.204 L72.676,19.452 L76.456,19.452 L76.456,15.204 Z M91.12,30 L91.12,29.388 L86.872,29.928 C86.608,29.976 86.386,30.012 86.206,30.036 C86.026,30.06 85.84,30.072 85.648,30.072 C84.184,30.072 83.452,29.352 83.452,27.912 L83.452,21.504 C83.452,20.04 84.208,19.308 85.72,19.308 L91.156,19.308 L91.156,15.24 L87.304,15.24 L87.304,17.76 L83.668,17.76 L83.668,14.448 C83.668,12.984 84.424,12.252 85.936,12.252 L92.74,12.252 C94.228,12.252 94.972,12.984 94.972,14.448 L94.972,30 L91.12,30 Z M91.156,22.044 L87.304,22.044 L87.304,26.94 L91.156,26.796 L91.156,22.044 Z M105.964,30 L105.964,15.6 L102.184,15.672 L102.184,30 L98.152,30 L98.152,12.252 L102.184,12.252 L102.184,12.9 L106.432,12.324 C106.672,12.276 106.912,12.24 107.152,12.216 C107.392,12.192 107.608,12.18 107.8,12.18 C109.264,12.18 109.996,12.9 109.996,14.34 L109.996,30 L105.964,30 Z M23.44,49.376 C23.44,50.3093333 22.9733333,50.776 22.04,50.776 L17.28,50.776 C16.3733333,50.776 15.92,50.3093333 15.92,49.376 L15.92,36.896 C15.92,35.9626667 16.3733333,35.496 17.28,35.496 L22.04,35.496 C22.9733333,35.496 23.44,35.9626667 23.44,36.896 L23.44,40.476 L21.16,40.476 L21.16,37.456 L18.2,37.456 L18.2,48.816 L21.16,48.816 L21.16,45.596 L23.44,45.596 L23.44,49.376 Z M29.24,50.776 L29.24,50.436 L26.88,50.736 C26.7333333,50.7626667 26.61,50.7826667 26.51,50.796 C26.41,50.8093333 26.3066667,50.816 26.2,50.816 C25.3866667,50.816 24.98,50.416 24.98,49.616 L24.98,46.056 C24.98,45.2426667 25.4,44.836 26.24,44.836 L29.26,44.836 L29.26,42.576 L27.12,42.576 L27.12,43.976 L25.1,43.976 L25.1,42.136 C25.1,41.3226667 25.52,40.916 26.36,40.916 L30.14,40.916 C30.9666667,40.916 31.38,41.3226667 31.38,42.136 L31.38,50.776 L29.24,50.776 Z M29.26,46.356 L27.12,46.356 L27.12,49.076 L29.26,48.996 L29.26,46.356 Z M36.88,45.036 L36.88,42.776 L35.12,42.816 L35.12,50.776 L32.88,50.776 L32.88,40.916 L35.12,40.916 L35.12,41.276 L37.16,40.956 C37.28,40.9293333 37.4033333,40.9093333 37.53,40.896 C37.6566667,40.8826667 37.7733333,40.876 37.88,40.876 C38.6933333,40.876 39.1,41.276 39.1,42.076 L39.1,45.036 L36.88,45.036 Z M46.84,48.796 C46.84,49.396 46.66,49.876 46.3,50.236 C45.94,50.596 45.4333333,50.776 44.78,50.776 L42.5,50.776 L42.5,54.376 L40.26,54.376 L40.26,40.916 L42.5,40.916 L42.5,41.276 L44.9,40.956 C45.02,40.9293333 45.1433333,40.9093333 45.27,40.896 C45.3966667,40.8826667 45.5133333,40.876 45.62,40.876 C46.4333333,40.876 46.84,41.276 46.84,42.076 L46.84,48.796 Z M44.6,42.776 L42.5,42.816 L42.5,48.916 L43.88,48.916 C44.1466667,48.916 44.3333333,48.856 44.44,48.736 C44.5466667,48.616 44.6,48.4293333 44.6,48.176 L44.6,42.776 Z M54.7,49.556 C54.7,50.3693333 54.28,50.776 53.44,50.776 L49.58,50.776 C48.74,50.776 48.32,50.3693333 48.32,49.556 L48.32,42.136 C48.32,41.3226667 48.74,40.916 49.58,40.916 L53.44,40.916 C54.28,40.916 54.7,41.3226667 54.7,42.136 L54.7,45.756 L54.08,46.376 L50.46,46.376 L50.46,49.136 L52.56,49.136 L52.56,47.496 L54.7,47.496 L54.7,49.556 Z M52.56,42.556 L50.46,42.556 L50.46,44.916 L52.56,44.916 L52.56,42.556 Z M58,50.776 C57.1733333,50.776 56.76,50.3693333 56.76,49.556 L56.76,42.816 L55.7,42.816 L55.7,40.916 L56.76,40.916 L56.76,38.236 L58.98,38.236 L58.98,40.916 L60.42,40.916 L60.42,42.816 L58.98,42.816 L58.98,48.876 L60.48,48.876 L60.48,50.776 L58,50.776 Z M73.28,49.376 C73.28,50.3093333 72.8133333,50.776 71.88,50.776 L67.12,50.776 C66.2133333,50.776 65.76,50.3093333 65.76,49.376 L65.76,36.896 C65.76,35.9626667 66.2133333,35.496 67.12,35.496 L71.88,35.496 C72.8133333,35.496 73.28,35.9626667 73.28,36.896 L73.28,40.476 L71,40.476 L71,37.456 L68.04,37.456 L68.04,48.816 L71,48.816 L71,45.596 L73.28,45.596 L73.28,49.376 Z M79.08,50.776 L79.08,50.436 L76.72,50.736 C76.5733333,50.7626667 76.45,50.7826667 76.35,50.796 C76.25,50.8093333 76.1466667,50.816 76.04,50.816 C75.2266667,50.816 74.82,50.416 74.82,49.616 L74.82,46.056 C74.82,45.2426667 75.24,44.836 76.08,44.836 L79.1,44.836 L79.1,42.576 L76.96,42.576 L76.96,43.976 L74.94,43.976 L74.94,42.136 C74.94,41.3226667 75.36,40.916 76.2,40.916 L79.98,40.916 C80.8066667,40.916 81.22,41.3226667 81.22,42.136 L81.22,50.776 L79.08,50.776 Z M79.1,46.356 L76.96,46.356 L76.96,49.076 L79.1,48.996 L79.1,46.356 Z M86.72,45.036 L86.72,42.776 L84.96,42.816 L84.96,50.776 L82.72,50.776 L82.72,40.916 L84.96,40.916 L84.96,41.276 L87,40.956 C87.12,40.9293333 87.2433333,40.9093333 87.37,40.896 C87.4966667,40.8826667 87.6133333,40.876 87.72,40.876 C88.5333333,40.876 88.94,41.276 88.94,42.076 L88.94,45.036 L86.72,45.036 Z M96.48,49.556 C96.48,50.3693333 96.06,50.776 95.22,50.776 L91.36,50.776 C90.52,50.776 90.1,50.3693333 90.1,49.556 L90.1,42.136 C90.1,41.3226667 90.52,40.916 91.36,40.916 L95.22,40.916 C96.06,40.916 96.48,41.3226667 96.48,42.136 L96.48,45.756 L95.86,46.376 L92.24,46.376 L92.24,49.136 L94.34,49.136 L94.34,47.496 L96.48,47.496 L96.48,49.556 Z M94.34,42.556 L92.24,42.556 L92.24,44.916 L94.34,44.916 L94.34,42.556 Z" id="Combined-Shape" fill="#3F54AD" fill-rule="nonzero"></path>
    </g>
</svg>