<svg xmlns="http://www.w3.org/2000/svg" width="102" height="53" fill="#fff" fill-rule="evenodd" xmlns:v="https://vecta.io/nano"><path d="M102 17.94v11.675L.068 52.327V39.993L102 17.94zM8.494 43.48c0-1.225-.839-1.876-2.233-1.563h0l-2.487.557c-.057.013-.094.059-.094.115h0v6.218c0 .057.038.086.094.073h0l1.197-.268c.057-.013.094-.059.094-.115h0v-2.139c0-.038.019-.061.057-.069h0l1.14-.255c1.385-.31 2.233-1.348 2.233-2.554zm2.543-2.633l-1.197.268c-.057.013-.094.059-.094.115v6.218c0 .057.038.086.094.073l4.174-.935c.057-.013.094-.059.094-.115v-1.046c0-.057-.038-.086-.094-.073l-2.827.633c-.038.008-.057-.006-.057-.044V40.92c0-.057-.038-.086-.094-.073zm8.818-1.975l-1.197.268c-.057.013-.094.059-.094.115v3.995c0 .763-.424 1.292-1.065 1.435-.65.146-1.074-.193-1.074-.956v-3.995c0-.057-.038-.086-.094-.073l-1.197.268c-.057.013-.094.059-.094.115v3.957c0 1.592 1.018 2.231 2.459 1.908 1.432-.321 2.45-1.416 2.45-3.008v-3.957c0-.057-.038-.086-.094-.073zM6.176 43.133c.584-.131.933.14.933.658s-.349.935-.933 1.066h0l-1.055.236c-.038.008-.057-.006-.057-.044h0v-1.611c0-.038.019-.061.057-.069h0zm21.205-5.947l-1.102.247c-.075.017-.122.056-.151.128l-1.592 4.012-.038.008-1.621-3.293c-.028-.06-.075-.077-.151-.06l-1.121.251c-.057.013-.094.059-.094.115v6.218c0 .057.038.086.094.073l1.065-.239c.057-.013.094-.059.094-.115v-3.609l.038-.008 1.187 2.438c.038.076.094.101.179.082l.65-.146a.24.24 0 0 0 .179-.163l1.187-2.97.038-.008v3.609c0 .057.038.086.094.073l1.065-.239c.057-.013.094-.059.094-.115v-6.218c0-.057-.038-.086-.094-.073zm6.321.289c0-1.018-.65-1.56-2.045-1.247h0l-2.497.559c-.057.013-.094.059-.094.115h0v6.218c0 .057.038.086.094.073h0l2.431-.545c1.385-.31 2.224-1.101 2.224-2.364 0-.763-.433-1.194-.857-1.278a1.88 1.88 0 0 0 .744-1.533zm2.769-2.326l-1.197.268c-.057.013-.094.059-.094.115v6.218c0 .057.038.086.094.073l1.197-.268c.057-.013.094-.059.094-.115v-6.218c0-.057-.038-.086-.094-.073zm-4.908 4.783c.565-.127.867.117.867.607 0 .499-.301.868-.867.995h0l-1.055.236c-.038.008-.057-.006-.057-.044h0v-1.489c0-.038.019-.061.057-.069h0zm11.445-6.248l-1.065.239c-.057.013-.094.059-.094.115v4.033l-.047.011-2.261-3.526c-.038-.058-.094-.073-.16-.058l-1.131.253c-.057.013-.094.059-.094.115v6.218c0 .057.038.086.094.073l1.065-.239c.057-.013.094-.059.094-.115V36.78l.047-.011 2.271 3.514c.038.058.085.075.16.058l1.121-.251c.057-.013.094-.059.094-.115v-6.218c0-.057-.038-.086-.094-.073zm4.05-1.011c-1.14.255-2.026.972-2.355 2.082-.141.474-.179.841-.179 1.793s.038 1.301.179 1.712c.33.963 1.215 1.282 2.355 1.027 1.131-.253 2.016-1.026 2.337-2.125.113-.374.16-.912.16-1.477v-.528c0-.057-.038-.086-.094-.073l-2.205.494c-.057.013-.094.059-.094.115v.904c0 .057.038.086.094.073l.867-.194c.038-.008.057.006.057.044a2.41 2.41 0 0 1-.075.648c-.132.454-.546.782-1.027.89-.556.125-.904-.061-1.046-.472-.07-.193-.099-.468-.103-1.168v-.184c0-.839.028-1.146.104-1.389.141-.474.481-.824 1.027-.946.528-.118.848.036 1.102.413.019.043.066.051.132.018l1.008-.65c.057-.041.066-.1.038-.15-.301-.705-1.084-1.123-2.28-.855zm-15.571 4.713c.528-.118.839.085.839.556s-.311.823-.839.942h0l-.98.22c-.038.008-.057-.006-.057-.044h0v-1.385c0-.038.019-.061.057-.069h0zm34.335-6.825c0-1.168-.867-1.794-2.176-1.5h0l-2.553.572c-.057.013-.094.059-.094.115h0v6.218c0 .057.038.086.094.073h0l1.197-.268c.057-.013.094-.059.094-.115h0v-2.289c0-.038.019-.061.057-.069h0l.857-.192 1.102 2.099c.028.06.057.082.141.063h0l1.338-.3c.066-.015.094-.078.066-.128h0l-1.263-2.242c.707-.469 1.14-1.216 1.14-2.036zm-10.635 2.477a1.8 1.8 0 0 0-1.413 1.739c0 .82.594 1.28 1.413 1.097.829-.186 1.423-.912 1.423-1.732 0-.829-.594-1.29-1.423-1.104zm16.702-4.373c-.33-.963-1.215-1.282-2.337-1.031s-2.007.968-2.337 2.078c-.141.474-.179.841-.179 1.793s.038 1.301.179 1.712c.33.963 1.215 1.282 2.337 1.031s2.007-.968 2.337-2.078c.141-.474.179-.841.179-1.793s-.038-1.301-.179-1.712zm-2.337.194c.528-.118.867.07 1.008.481.075.209.104.514.104 1.352l-.001.184c-.004.702-.034.99-.103 1.214-.141.474-.481.814-1.008.932s-.867-.07-1.008-.481c-.075-.209-.104-.514-.104-1.352l.001-.184c.004-.702.034-.99.103-1.214.141-.474.481-.814 1.008-.932zm8.62-1.601c-.33-.963-1.215-1.282-2.337-1.031s-2.007.968-2.337 2.078c-.141.474-.179.841-.179 1.793s.038 1.301.179 1.712c.33.963 1.215 1.282 2.337 1.031s2.007-.968 2.337-2.078c.141-.474.179-.841.179-1.793l-.001-.209c-.006-.797-.048-1.124-.178-1.503zM63.57 30.275c.528-.118.867.117.867.597 0 .49-.339.877-.867.995h0l-1.131.253c-.038.008-.057-.006-.057-.044h0v-1.479c0-.038.019-.061.057-.069h0zm12.265-2.823c.528-.118.867.07 1.008.481.075.209.104.514.104 1.352s-.028 1.156-.104 1.399c-.141.474-.481.814-1.008.932s-.867-.07-1.008-.481c-.075-.209-.104-.514-.104-1.352s.028-1.156.104-1.399c.141-.474.481-.814 1.008-.932zm8.149-2.947l-4.739 1.062c-.057.013-.094.059-.094.115v1.046c0 .057.038.086.094.073l1.621-.363c.038-.008.057.006.057.044v5.022c0 .057.038.086.094.073l1.197-.268c.057-.013.094-.059.094-.115v-5.022c0-.038.019-.061.057-.069l1.621-.363c.057-.013.094-.059.094-.115v-1.046c0-.057-.038-.086-.094-.073zm2.524-.565l-1.197.268c-.057.013-.094.059-.094.115v6.218c0 .057.038.086.094.073l1.197-.268c.057-.013.094-.059.094-.115v-6.218c0-.057-.038-.086-.094-.073zm6.538-1.465l-1.065.239c-.057.013-.094.059-.094.115v4.033l-.047.011-2.261-3.526c-.038-.058-.094-.073-.16-.058l-1.131.253c-.057.013-.094.059-.094.115v6.218c0 .057.038.086.094.073l1.065-.239c.057-.013.094-.059.094-.115v-4.023l.047-.011 2.271 3.514c.038.058.085.075.16.058l1.121-.251c.057-.013.094-.059.094-.115v-6.218c0-.057-.038-.086-.094-.073zm4.05-1.011c-1.14.255-2.026.972-2.355 2.082-.141.474-.179.841-.179 1.793s.038 1.301.179 1.712c.33.963 1.215 1.282 2.355 1.027 1.131-.253 2.016-1.026 2.337-2.125.113-.374.16-.912.16-1.477v-.528c0-.057-.038-.086-.094-.073l-2.205.494c-.057.013-.094.059-.094.115v.904c0 .057.038.086.094.073l.867-.194c.038-.008.057.006.057.044a2.41 2.41 0 0 1-.075.648c-.132.454-.546.782-1.027.89-.556.125-.904-.061-1.046-.472-.075-.209-.104-.514-.104-1.352s.028-1.146.104-1.389c.141-.474.481-.824 1.027-.946.528-.118.848.036 1.102.413.019.043.066.051.132.018l1.008-.65c.057-.041.066-.1.038-.15-.301-.705-1.084-1.123-2.28-.855zM0 35.79V14.926a.38.38 0 0 1 .316-.38l8.63-1.752c3.888-.789 6.828.163 7.966 3.378.506 1.446.664 2.679.664 5.619s-.158 4.236-.664 5.888c-1.138 3.677-4.078 5.822-7.966 6.612l-8.63 1.752C.126 36.08 0 35.979 0 35.79zm6.638-7.101c0 .126.063.177.19.151l.759-.154c1.707-.346 2.592-.905 3.003-2.253.221-.709.285-1.291.285-3.282s-.063-2.548-.285-3.167c-.411-1.181-1.296-1.381-3.003-1.034l-.759.154a.21.21 0 0 0-.19.228v9.357zm27.47.494l-5.342 1.084c-.19.038-.316-.062-.316-.252v-.759c-.885 1.065-2.118 1.884-4.078 2.282-2.561.52-4.931-.39-4.931-3.772 0-3.54 2.94-5.781 6.796-6.564l2.055-.417a.21.21 0 0 0 .19-.228v-.253c0-.759-.474-.979-2.719-.523-1.201.244-2.497.855-3.224 1.445-.158.127-.316.159-.411-.011l-1.897-3.029c-.126-.227-.095-.392.095-.557 1.486-1.282 3.762-2.281 6.322-2.801 5.785-1.174 7.776.35 7.776 4.428v9.547a.38.38 0 0 1-.316.38zm-7.429-2.412c1.296-.263 1.802-.713 1.802-1.472v-.822c0-.126-.063-.177-.19-.151l-1.486.302c-.948.192-1.486.744-1.486 1.408 0 .632.411.928 1.359.736zm18.461.362a.38.38 0 0 0 .316-.38v-4.552c0-.19-.126-.29-.316-.252l-.601.122c-.854.173-1.296-.274-1.296-1.318V6.148c0-.19-.126-.29-.316-.252l-5.69 1.155a.38.38 0 0 0-.316.38v15.363c0 4.394 1.675 5.666 5.975 4.794l2.244-.456zm10.906-2.214a.38.38 0 0 0 .316-.38v-4.552c0-.19-.126-.29-.316-.252l-.632.128c-1.138.231-1.454-.116-1.454-1.443v-4.141a.21.21 0 0 1 .19-.228l1.897-.385a.38.38 0 0 0 .316-.38V9.492c0-.19-.126-.29-.316-.252l-1.897.385c-.126.026-.19-.025-.19-.151v-3.92c0-.19-.126-.29-.316-.252l-5.627 1.142a.38.38 0 0 0-.316.38v3.92a.21.21 0 0 1-.19.228l-.822.167a.38.38 0 0 0-.316.38v3.793c0 .19.126.29.316.252l.822-.167c.126-.026.19.025.19.151v4.394c0 4.9 1.77 6.311 6.417 5.368l1.928-.391zm11.127-2.259a.38.38 0 0 0 .316-.38v-4.552c0-.19-.126-.29-.316-.252l-.632.128c-1.138.231-1.454-.116-1.454-1.443V12.02a.21.21 0 0 1 .19-.228l1.897-.385a.38.38 0 0 0 .316-.38V7.233c0-.19-.126-.29-.316-.252l-1.897.385c-.126.026-.19-.025-.19-.151v-3.92c0-.19-.126-.29-.316-.252l-5.627 1.142a.38.38 0 0 0-.316.38v3.92a.21.21 0 0 1-.19.228l-.822.167a.38.38 0 0 0-.316.38v3.793c0 .19.126.29.316.252l.822-.167c.126-.026.19.025.19.151v4.394c0 4.9 1.77 6.311 6.417 5.368l1.928-.391zm9.578-1.754c-3.54.719-6.417-.183-7.429-3.107-.379-1.061-.474-2.243-.474-3.413s.095-2.39.474-3.605c1.012-3.335 3.888-5.405 7.429-6.123s6.417.183 7.429 3.107c.379 1.061.474 2.243.474 3.413s-.095 2.39-.474 3.605c-1.012 3.335-3.888 5.405-7.429 6.123zm0-5.058c.632-.128 1.106-.446 1.328-1.155.126-.437.19-.924.19-2.22s-.063-1.757-.19-2.143c-.221-.619-.695-.744-1.328-.616s-1.106.446-1.328 1.155c-.126.437-.19.924-.19 2.22s.063 1.757.19 2.143c.221.619.695.744 1.328.616zm24.878-.371a.38.38 0 0 0 .316-.38V5.329c0-3.477-1.296-5.522-4.963-4.778-1.897.385-3.193 1.407-3.92 2.629l-.032-1.132c0-.19-.126-.29-.316-.252l-5.69 1.155a.38.38 0 0 0-.316.38V18.19c0 .19.126.29.316.252l5.69-1.155a.38.38 0 0 0 .316-.38V8.118c0-1.075.474-1.677 1.296-1.844.885-.18 1.296.306 1.296 1.318v8.788c0 .19.126.29.316.252l5.69-1.155z"/></svg>