<?xml version="1.0" encoding="UTF-8"?>
<svg width="174px" height="61px" viewBox="0 0 174 61" version="1.1" xmlns="http://www.w3.org/2000/svg" xmlns:xlink="http://www.w3.org/1999/xlink">
    <title>Renewal by Andersen</title>
    <g id="logos" stroke="none" stroke-width="1" fill="none" fill-rule="evenodd">
        <g id="Renewal-by-Andersen" fill-rule="nonzero">
            <polygon id="Path" fill="#000000" points="83.9 31.6 174 31.6 174 31.8 83.9 31.8"></polygon>
            <path d="M171.9,35.7 L172.7,35.7 L172.7,40 L173.3,40 L173.3,35.7 L174,35.7 L174,35.1 L171.9,35.1 L171.9,35.7 Z M169.4,40 L170,40 L170,37.9 L170,37.6 L170,37 L170,36.5 C170,36.5 170,36.4 170,36.4 C170,36.4 170,36.3 170,36.3 L170,36.5 C170,36.5 170,36.6 170,36.6 C170.1,36.8 170.1,37.1 170.2,37.3 C170.3,37.5 170.3,37.7 170.4,37.9 L171.1,40.1 L171.7,40.1 L171.7,35.2 L171,35.2 L171,37 C171,37.3 171,37.6 171,37.9 C171,38.2 171.1,38.6 171.1,38.9 C171,38.3 170.8,37.7 170.6,37.1 L170,35.1 L169.4,35.1 L169.4,40 L169.4,40 Z M167.1,40 L168.9,40 L168.9,39.4 L167.8,39.4 L167.8,37.8 L168.8,37.8 L168.8,37.2 L167.8,37.2 L167.8,35.6 L168.9,35.6 L168.9,35 L167.1,35 L167.1,40 Z M163.3,40 L164,40 L164.2,36.6 C164.2,36.9 164.3,37.1 164.3,37.4 C164.3,37.7 164.4,37.9 164.4,38.1 L164.8,39.9 L165.2,39.9 L165.6,37.8 L165.6,37.6 L165.7,37.2 C165.7,37.1 165.7,37.1 165.7,37 C165.7,36.9 165.7,36.8 165.8,36.7 L165.8,36.6 L165.8,36.7 L165.8,37.3 L165.8,38 L165.8,38.2 C165.8,38.3 165.8,38.3 165.8,38.4 L165.9,40.1 L166.5,40.1 L166.1,35.2 L165.5,35.2 L165.1,37.2 L165,37.5 L164.9,38 L164.8,38.6 L164.8,38.6 C164.8,38.6 164.8,38.6 164.8,38.7 C164.8,38.4 164.7,38.2 164.7,37.9 C164.7,37.6 164.6,37.4 164.6,37.1 L164.2,35.1 L163.6,35.1 L163.3,40 Z M161.3,40 L163,40 L163,39.4 L161.9,39.4 L161.9,37.8 L162.9,37.8 L162.9,37.2 L161.9,37.2 L161.9,35.6 L163,35.6 L163,35 L161.2,35 L161.3,40 Z M160.3,35 C159.8,35 159.4,35.2 159.2,35.6 C158.9,36.2 158.8,36.9 158.8,37.6 C158.8,39.2 159.3,40 160.3,40 C160.5,40 160.7,40 160.8,39.9 L160.8,39.3 C160.7,39.4 160.5,39.4 160.4,39.4 C159.8,39.4 159.5,38.8 159.5,37.6 C159.5,37.3 159.5,37 159.6,36.7 C159.6,36.5 159.7,36.3 159.8,36.1 C159.9,36 160,35.9 160.1,35.8 C160.2,35.7 160.4,35.7 160.5,35.7 C160.6,35.7 160.8,35.7 160.9,35.8 L160.9,35.2 C160.7,35.1 160.5,35.1 160.3,35 M157,38.6 L157.1,38 C157.2,37.7 157.2,37.3 157.3,37 C157.4,36.7 157.4,36.4 157.4,36.1 C157.5,36.7 157.5,37.3 157.6,37.8 L157.7,38.6 L157,38.6 L157,38.6 Z M156,40 L156.6,40 L156.8,39 L157.8,39 L158,40 L158.6,40 L157.6,35.1 L157.1,35.1 L156,40 Z M154.1,40 L155.8,40 L155.8,39.4 L154.7,39.4 L154.7,35.1 L154,35.1 L154.1,40 Z M152.3,35.7 L152.4,35.7 C152.6,35.7 152.8,35.8 152.9,35.9 C153,36.1 153.1,36.3 153,36.5 C153,36.7 153,36.9 152.8,37.1 C152.6,37.2 152.4,37.3 152.2,37.3 L152.3,35.7 L152.3,35.7 Z M151.6,40 L152.3,40 L152.3,37.8 C152.6,37.8 152.9,37.8 153.1,37.7 C153.5,37.4 153.7,36.9 153.7,36.4 C153.7,36 153.6,35.7 153.4,35.4 C153.2,35.2 152.8,35.1 152.5,35.1 L151.6,35.1 L151.6,40 Z M149.4,40 L151.2,40 L151.2,39.4 L150,39.4 L150,37.7 L151,37.7 L151,37.1 L150,37.1 L150,35.5 L151.1,35.5 L151.1,34.9 L149.3,34.9 L149.4,40 Z M147.4,35.7 L147.5,35.7 C147.6,35.7 147.7,35.7 147.8,35.7 C147.9,35.7 147.9,35.8 148,35.9 C148.1,36 148.1,36.1 148.1,36.2 C148.1,36.3 148.1,36.5 148.1,36.6 C148.1,36.8 148.1,37 147.9,37.2 C147.8,37.3 147.6,37.4 147.4,37.4 L147.4,35.7 L147.4,35.7 Z M146.7,40 L147.4,40 L147.4,37.6 L148.3,40 L149,40 L148.1,37.6 C148.3,37.6 148.5,37.4 148.6,37.2 C148.7,36.9 148.8,36.7 148.8,36.4 C148.8,36 148.7,35.7 148.5,35.4 C148.3,35.2 148,35.1 147.7,35.1 L146.8,35.1 L146.7,40 Z M143.5,35.7 L143.6,35.7 C143.7,35.7 143.8,35.7 143.9,35.7 C144,35.7 144,35.8 144.1,35.9 C144.2,36 144.2,36.1 144.2,36.2 C144.2,36.3 144.2,36.5 144.2,36.6 C144.2,36.8 144.2,37 144,37.2 C143.9,37.3 143.7,37.4 143.5,37.4 L143.5,35.7 L143.5,35.7 Z M142.8,40 L143.5,40 L143.5,37.6 L144.4,40 L145,40 L144.1,37.6 C144.3,37.6 144.5,37.4 144.6,37.2 C144.7,36.9 144.8,36.7 144.8,36.4 C144.8,36 144.7,35.7 144.5,35.4 C144.3,35.2 144,35.1 143.7,35.1 L142.8,35.1 L142.8,40 Z M141.5,39.1 C141.5,39.3 141.3,39.5 141.1,39.5 C140.9,39.5 140.7,39.3 140.6,39.1 C140.5,38.6 140.5,38.1 140.5,37.6 C140.5,37.1 140.5,36.6 140.6,36 C140.6,35.8 140.8,35.6 141.1,35.6 C141.3,35.6 141.5,35.7 141.6,36 C141.7,36.6 141.7,37.1 141.7,37.7 C141.6,38.2 141.6,38.7 141.5,39.1 M142.2,36.3 C142.2,36 142.1,35.7 141.9,35.5 C141.7,35.2 141.3,35 141,35.1 C140.6,35.1 140.2,35.3 140,35.6 C139.8,36.2 139.7,36.8 139.7,37.4 C139.7,38.1 139.8,38.8 140,39.4 C140.2,39.8 140.6,40 141,40 C141.4,40 141.8,39.8 142,39.5 C142.2,38.9 142.3,38.3 142.3,37.7 C142.3,37.2 142.3,36.7 142.2,36.3 M138.5,39.1 C138.4,39.4 138.2,39.5 137.9,39.5 C137.7,39.5 137.6,39.3 137.5,39.1 C137.4,38.6 137.4,38.1 137.4,37.6 C137.4,37.1 137.4,36.6 137.5,36 C137.5,35.8 137.7,35.6 138,35.6 C138.2,35.6 138.4,35.7 138.5,36 C138.6,36.6 138.6,37.1 138.6,37.7 C138.6,38.2 138.6,38.7 138.5,39.1 M139.2,36.3 C139.2,36 139.1,35.7 138.9,35.5 C138.7,35.2 138.3,35 138,35.1 C137.6,35.1 137.2,35.3 137,35.6 C136.8,36.2 136.7,36.8 136.7,37.4 C136.7,38.1 136.8,38.8 137,39.4 C137.2,39.8 137.6,40 138,40 C138.4,40 138.8,39.8 139,39.5 C139.2,38.9 139.3,38.3 139.3,37.7 C139.3,37.2 139.3,36.7 139.2,36.3 M134.6,35.7 L134.6,35.7 C135,35.7 135.3,35.8 135.4,36.1 C135.6,36.6 135.6,37.1 135.6,37.7 C135.6,38.2 135.6,38.7 135.4,39.1 C135.2,39.4 134.9,39.5 134.6,39.5 L134.6,35.7 Z M133.9,40 L134.4,40 C134.9,40 135.3,39.9 135.7,39.7 C135.9,39.5 136.1,39.2 136.1,39 C136.2,38.6 136.2,38.1 136.2,37.7 C136.2,37.2 136.2,36.8 136.1,36.4 C136,36.1 135.9,35.8 135.7,35.6 C135.6,35.5 135.4,35.4 135.3,35.3 C135.1,35.2 134.9,35.2 134.7,35.2 L133.9,35.2 L133.9,40 Z M131.2,39.1 C131.1,39.3 130.9,39.4 130.7,39.4 C130.5,39.4 130.4,39.3 130.3,39.2 C130.2,39.1 130.1,38.9 130.1,38.7 C130.1,38.4 130.3,38.1 130.5,37.9 L131.2,39.1 Z M130.4,36.4 C130.4,36.3 130.4,36.2 130.5,36.1 C130.6,36 130.7,36 130.8,36 C130.9,36 131,36 131,36.1 C131.1,36.2 131.1,36.3 131.1,36.4 C131.1,36.5 131.1,36.7 131,36.8 C131,36.9 130.9,36.9 130.9,37 L130.7,37.2 C130.5,36.9 130.4,36.6 130.4,36.4 M131.6,38.7 L131,37.6 C131.1,37.4 131.3,37.3 131.4,37.2 C131.5,37.1 131.6,37 131.6,36.9 C131.7,36.7 131.8,36.5 131.7,36.3 C131.7,36.1 131.6,35.8 131.5,35.7 C131.3,35.5 131.1,35.4 130.8,35.5 C130.5,35.5 130.3,35.6 130.1,35.8 C129.9,36 129.8,36.2 129.8,36.5 C129.8,36.9 130,37.3 130.2,37.7 C130,37.9 129.8,38.1 129.7,38.4 C129.6,38.6 129.5,38.8 129.6,39 C129.6,39.3 129.7,39.6 129.9,39.8 C130.1,40 130.4,40.1 130.7,40.1 C131,40.1 131.3,40 131.5,39.7 L131.7,40.1 L132.4,40.1 L131.9,39.3 L132.4,38.6 L132,38.3 L131.6,38.7 Z M125.3,40 L125.8,40 L126.2,37.9 L126.2,37.8 C126.2,37.7 126.2,37.6 126.2,37.6 L126.3,37.1 C126.3,37.1 126.3,37 126.3,37 C126.3,36.9 126.3,36.8 126.3,36.7 C126.3,36.6 126.3,36.7 126.3,36.6 C126.3,36.5 126.3,36.5 126.3,36.5 L126.3,36.7 C126.3,36.8 126.3,36.9 126.3,37 C126.3,37.1 126.3,37.1 126.3,37.2 L126.4,37.7 C126.4,37.8 126.4,37.9 126.4,38 C126.4,38.1 126.4,38.1 126.4,38.1 L126.7,40.2 L127.2,40.2 L128.1,35.3 L127.5,35.3 L127.2,37.2 L127.2,37.5 C127.2,37.7 127.1,37.9 127.1,38.2 C127.1,38.5 127,38.7 127,38.9 C127,38.7 126.9,38.4 126.9,38.2 C126.9,38 126.8,37.7 126.8,37.4 L126.5,35.4 L126,35.4 L125.6,37.5 C125.6,37.7 125.5,37.9 125.5,38.1 C125.5,38.3 125.4,38.6 125.4,38.9 L125.4,39.1 C125.4,39.1 125.4,39 125.4,39 C125.4,39 125.4,39 125.4,38.9 L125.4,38.3 C125.4,38.1 125.4,38 125.3,37.8 L125.2,37.5 L124.9,35.2 L124.3,35.2 L125.3,40 Z M123.5,39.1 C123.4,39.4 123.2,39.5 122.9,39.5 C122.7,39.5 122.6,39.3 122.5,39.1 C122.4,38.6 122.4,38.1 122.4,37.6 C122.4,37.1 122.4,36.6 122.5,36 C122.5,35.8 122.7,35.6 123,35.6 C123.2,35.6 123.4,35.7 123.5,36 C123.6,36.6 123.6,37.1 123.6,37.7 C123.6,38.2 123.6,38.7 123.5,39.1 M124.2,36.3 C124.2,36 124.1,35.7 123.9,35.5 C123.7,35.2 123.3,35 123,35.1 C122.6,35.1 122.2,35.3 122,35.6 C121.8,36.2 121.7,36.8 121.7,37.4 C121.7,38.1 121.8,38.8 122,39.4 C122.2,39.8 122.6,40 123,40 C123.4,40 123.8,39.8 124,39.5 C124.2,38.9 124.3,38.3 124.3,37.7 C124.3,37.2 124.3,36.7 124.2,36.3 M119.6,35.6 L119.6,35.6 C120,35.6 120.3,35.7 120.4,36 C120.6,36.5 120.6,37 120.6,37.6 C120.6,38.1 120.6,38.6 120.4,39 C120.2,39.3 119.9,39.4 119.6,39.4 L119.6,35.6 Z M118.9,40 L119.4,40 C119.9,40 120.3,39.9 120.7,39.7 C120.9,39.5 121.1,39.2 121.1,39 C121.2,38.6 121.2,38.1 121.2,37.7 C121.2,37.2 121.2,36.8 121.1,36.4 C121,36.1 120.9,35.8 120.7,35.6 C120.6,35.5 120.4,35.4 120.3,35.3 C120.1,35.2 119.9,35.2 119.7,35.2 L118.9,35.2 L118.9,40 Z M116,40 L116.6,40 L116.6,37.9 L116.6,37.6 L116.6,37 L116.6,36.5 C116.6,36.5 116.6,36.4 116.6,36.4 C116.6,36.4 116.6,36.3 116.6,36.3 L116.6,36.5 C116.6,36.5 116.6,36.6 116.6,36.6 C116.6,36.8 116.7,37.1 116.8,37.3 C116.9,37.5 116.9,37.7 117,37.9 L117.7,40.1 L118.3,40.1 L118.3,35.2 L117.6,35.2 L117.6,37 C117.6,37.3 117.6,37.6 117.6,37.9 C117.6,38.2 117.7,38.6 117.7,38.9 C117.6,38.3 117.4,37.7 117.2,37.1 L116.6,35.1 L116,35.1 L116,40 L116,40 Z M114.7,40 L115.4,40 L115.4,35.1 L114.7,35.1 L114.7,40 Z M111.4,40 L111.9,40 L112.3,37.9 L112.3,37.8 C112.3,37.7 112.3,37.6 112.3,37.6 L112.4,37.1 C112.4,37.1 112.4,37 112.4,37 C112.4,36.9 112.4,36.8 112.4,36.7 C112.4,36.6 112.4,36.7 112.4,36.6 C112.4,36.5 112.4,36.5 112.4,36.5 L112.4,36.7 C112.4,36.8 112.4,36.9 112.4,37 C112.4,37.1 112.4,37.1 112.4,37.2 L112.5,37.7 C112.5,37.8 112.5,37.9 112.5,38 C112.5,38.1 112.5,38.1 112.5,38.1 L112.8,40.2 L113.3,40.2 L114.2,35.3 L113.6,35.3 L113.3,37.2 L113.3,37.5 C113.3,37.7 113.2,37.9 113.2,38.2 C113.2,38.4 113.2,38.7 113.1,38.9 C113.1,38.7 113,38.4 113,38.2 C113,38 112.9,37.7 112.9,37.4 L112.6,35.4 L112.1,35.4 L111.7,37.5 C111.7,37.7 111.6,37.9 111.6,38.1 C111.6,38.3 111.5,38.6 111.5,38.9 L111.5,39.1 C111.5,39.1 111.5,39 111.5,39 C111.5,39 111.5,39 111.5,38.9 L111.5,38.3 C111.5,38.1 111.5,38 111.4,37.8 L111.4,37.5 L111.1,35.2 L110.5,35.2 L111.4,40 Z M107.1,40 L108.9,40 L108.9,39.4 L107.8,39.4 L107.8,37.8 L108.8,37.8 L108.8,37.2 L107.8,37.2 L107.8,35.6 L108.9,35.6 L108.9,35 L107.1,35 L107.1,40 Z M106.1,35 C105.6,35 105.2,35.2 105,35.6 C104.7,36.2 104.6,36.9 104.6,37.5 C104.6,39.1 105.1,39.9 106.1,39.9 C106.3,39.9 106.5,39.9 106.6,39.8 L106.6,39.3 C106.5,39.4 106.3,39.4 106.2,39.4 C105.6,39.4 105.3,38.8 105.3,37.6 C105.3,37.3 105.3,37 105.3,36.7 C105.3,36.5 105.4,36.3 105.5,36.1 C105.6,36 105.7,35.8 105.8,35.7 C105.9,35.6 106.1,35.6 106.2,35.6 C106.3,35.6 106.5,35.6 106.6,35.7 L106.6,35.1 C106.5,35 106.3,35 106.1,35 M103.4,40 L104.1,40 L104.1,35.1 L103.4,35.1 L103.4,40 Z M101.7,40 L102.2,40 L103.2,35.1 L102.6,35.1 L102.3,36.9 C102.3,36.9 102.3,37 102.3,37.1 L102.3,37.3 L102.2,38 L102.1,38.6 C102.1,38.6 102.1,38.7 102.1,38.7 C102.1,38.7 102.1,38.8 102.1,38.8 L102.1,38.6 C102.1,38.5 102.1,38.4 102.1,38.3 C102.1,38.2 102.1,38.1 102.1,38 L102,37.3 L102,37 L101.7,35.2 L101,35.2 L101.7,40 Z M99.1,35.6 L99.2,35.6 C99.3,35.6 99.4,35.6 99.5,35.6 C99.6,35.6 99.6,35.7 99.7,35.8 C99.8,35.9 99.8,36 99.8,36.1 C99.8,36.2 99.8,36.4 99.8,36.5 C99.8,36.7 99.8,36.9 99.6,37.1 C99.5,37.2 99.3,37.3 99.1,37.3 L99.1,35.6 L99.1,35.6 Z M98.5,40 L99.2,40 L99.2,37.6 L100.1,40 L100.8,40 L99.9,37.6 C100.1,37.6 100.3,37.4 100.4,37.2 C100.5,36.9 100.6,36.7 100.6,36.4 C100.6,36 100.5,35.7 100.3,35.4 C100.1,35.2 99.8,35.1 99.5,35.1 L98.6,35.1 L98.5,40 Z M96.2,40 L98,40 L98,39.4 L96.9,39.4 L96.9,37.8 L97.9,37.8 L97.9,37.2 L96.9,37.2 L96.9,35.6 L98,35.6 L98,35 L96.2,35 L96.2,40 Z M94.9,35 C94.6,35 94.3,35.1 94.1,35.3 C93.9,35.6 93.8,35.9 93.8,36.2 C93.8,36.4 93.8,36.7 93.9,36.9 C94,37 94,37.1 94.1,37.2 C94.2,37.3 94.3,37.5 94.5,37.6 C94.6,37.7 94.7,37.8 94.8,37.9 C94.9,38 94.9,38 95,38.1 C95.1,38.2 95.1,38.4 95.1,38.6 C95.1,38.8 95.1,38.9 95,39.1 C94.9,39.2 94.7,39.3 94.6,39.3 C94.4,39.3 94.1,39.2 94,39 L94,39.7 C94.2,39.9 94.5,39.9 94.7,39.9 C95,39.9 95.3,39.8 95.5,39.5 C95.7,39.2 95.8,38.9 95.8,38.6 C95.8,38.4 95.8,38.1 95.6,37.9 C95.5,37.6 95.3,37.4 95.1,37.2 L94.7,36.8 C94.6,36.7 94.6,36.6 94.5,36.6 C94.4,36.5 94.4,36.3 94.4,36.2 C94.4,36 94.4,35.9 94.6,35.7 C94.7,35.6 94.9,35.5 95,35.5 C95.2,35.5 95.4,35.6 95.5,35.7 L95.5,35.1 C95.3,35.1 95.1,35 94.9,35 M92.3,37.7 L93.4,37.7 L93.4,37.2 L92.3,37.2 L92.3,37.7 Z M91,40 L92.7,40 L92.7,39.4 L91.6,39.4 L91.6,35.1 L91,35.1 L91,40 Z M89,40 L90.7,40 L90.7,39.4 L89.6,39.4 L89.6,35.1 L89,35.1 L89,40 Z M86.1,38.5 C86.1,38.9 86.1,39.2 86.3,39.6 C86.5,39.9 86.9,40.1 87.2,40 C87.5,40 87.9,39.9 88.1,39.7 C88.3,39.4 88.4,39 88.3,38.6 L88.3,35.1 L87.7,35.1 L87.7,38.6 C87.7,38.8 87.7,39 87.6,39.2 C87.5,39.3 87.4,39.4 87.2,39.4 C87,39.4 86.9,39.4 86.8,39.2 C86.7,39 86.7,38.7 86.7,38.5 L86.7,35.1 L86,35.1 L86.1,38.5 L86.1,38.5 Z M83.9,40 L84.6,40 L84.6,37.8 L85.6,37.8 L85.6,37.2 L84.6,37.2 L84.6,35.7 L85.7,35.7 L85.7,35.1 L83.9,35.1 L83.9,40 Z" id="Shape" fill="#000000"></path>
            <polygon id="Path" fill="#000000" points="96.8 1 96.8 14.3 104.8 14.3 104.8 11.6 99.5 11.6 99.5 8.9 103.5 8.9 103.5 6.2 99.5 6.2 99.5 3.5 104.8 3.5 104.8 0.8 96.8 0.8"></polygon>
            <polygon id="Path" fill="#000000" points="108.7 0.8 108.7 14.4 111.4 14.4 111.4 7 119.4 14.6 119.4 1 116.7 1 116.7 8.4"></polygon>
            <polygon id="Path" fill="#000000" points="123.8 1 123.8 14.3 131.8 14.3 131.8 11.6 126.5 11.6 126.5 8.9 130.5 8.9 130.5 6.2 126.5 6.2 126.5 3.5 131.8 3.5 131.8 0.8 123.8 0.8"></polygon>
            <polygon id="Path" fill="#000000" points="134.5 1 139.8 14.6 142.2 8 144.7 14.6 150 1 147.1 1 144.7 7.3 142.2 1 139.7 7.3 137.2 1"></polygon>
            <path d="M156.3,0.8 L150.2,14.4 L153.1,14.4 L154,12.4 L158.6,12.4 L159.5,14.4 L162.4,14.4 L156.3,0.8 Z M155.1,10 L156.3,7.2 L157.5,10 L155.1,10 Z" id="Shape" fill="#000000"></path>
            <path d="M90.6,9.5 C91.3,9.3 91.8,8.8 92.2,8.3 C92.7,7.6 93,6.7 93,5.8 L93,5.4 C93,4.3 92.6,3.2 91.7,2.4 C90.8,1.5 89.5,1 88.2,1 L83.9,1 L83.9,14.3 L86.6,14.3 L86.6,8.4 L90.4,14.3 L93.7,14.3 L90.6,9.5 Z M88.5,7.4 L86.6,7.4 L86.6,3.7 L88.1,3.7 C88.7,3.7 89.3,3.9 89.7,4.2 C90,4.5 90.2,5 90.2,5.5 C90.3,6.5 89.5,7.3 88.5,7.4 Z" id="Shape" fill="#000000"></path>
            <polygon id="Path" fill="#000000" points="166 1 166 14.3 174 14.3 174 11.7 168.7 11.7 168.7 1"></polygon>
            <path d="M91.3,28.4 L91.4,28.3 L94.8,21.4 L94.9,21.1 L93.3,21.1 L93.2,21.2 L92,23.7 L92,23.8 L91.9,23.9 L91.9,23.9 C91.9,23.8 91.9,23.8 91.8,23.7 L91.8,23.7 L90.9,21.3 L90.9,21.2 L89.3,21.2 L89.4,21.5 L91.1,25.7 L89.9,28.2 L89.8,28.5 L91.3,28.4 Z" id="Path" fill="#000000"></path>
            <path d="M85.4,23 C85.4,22.8 85.5,22.7 85.6,22.6 C85.8,22.4 86.1,22.2 86.4,22.3 C86.6,22.3 86.7,22.3 86.9,22.4 C87.2,22.5 87.4,22.8 87.5,23.1 C87.6,23.5 87.6,23.9 87.5,24.3 C87.5,24.5 87.4,24.6 87.3,24.7 C87.1,24.9 86.8,25 86.5,25 C86.3,25 86.2,25 86.1,24.9 C86,24.8 85.8,24.7 85.8,24.6 L85.8,24.6 C85.7,24.5 85.6,24.3 85.6,24.2 C85.5,24 85.5,23.8 85.5,23.6 C85.4,23.4 85.4,23.2 85.4,23 M85.4,18.1 L83.9,18.1 L83.9,26.2 L85.4,26.2 L85.4,25.9 C85.5,26 85.6,26.1 85.8,26.1 C85.9,26.2 86.1,26.2 86.3,26.3 C86.5,26.3 86.6,26.4 86.8,26.4 C87.1,26.4 87.5,26.3 87.8,26.2 C88.1,26.1 88.3,25.9 88.6,25.6 C88.8,25.3 89,25 89.1,24.7 C89.2,24.3 89.3,24 89.3,23.6 C89.3,23.2 89.3,22.9 89.1,22.5 C89,22.2 88.8,21.9 88.6,21.6 C88.4,21.4 88.1,21.2 87.9,21 C87.6,20.9 87.3,20.8 87,20.8 C86.8,20.8 86.6,20.8 86.4,20.9 C86.2,20.9 86,21 85.9,21.1 C85.8,21.2 85.7,21.2 85.6,21.3 L85.4,18.1 Z" id="Shape" fill="#000000"></path>
            <path d="M125.1,19.6 C124.1,18.6 122.8,18.1 121.3,18.1 L118.6,18.1 L118.6,28.4 L121.3,28.4 C122.7,28.4 124.1,27.9 125.1,26.9 C126.9,24.8 126.9,21.7 125.1,19.6 Z M121.3,26.3 L120.6,26.3 L120.6,20.1 L121.3,20.1 C123,20.1 124.4,21.5 124.4,23.2 C124.4,24.9 123,26.3 121.3,26.3 L121.3,26.3 Z" id="Shape" fill="#000000"></path>
            <polygon id="Path" fill="#000000" points="128.8 18.1 128.8 28.3 135 28.3 135 26.3 130.9 26.3 130.9 24.2 134 24.2 134 22.2 130.9 22.2 130.9 20.1 135 20.1 135 18.1"></polygon>
            <path d="M150.7,26.3 C150.1,26.3 149.6,25.9 149.5,25.3 L147.5,25.7 C147.9,27.5 149.6,28.6 151.4,28.3 C152.9,28 153.9,26.8 154,25.3 C153.9,23.9 152.9,22.8 151.6,22.5 C150.9,22.3 149.7,22 149.7,21.1 C149.7,20.5 150.2,20.1 150.7,20.1 C151.2,20.1 151.7,20.6 151.7,21.1 L153.7,20.7 C153.5,19 152,17.8 150.3,17.9 C148.7,18.1 147.5,19.5 147.5,21.1 C147.6,22.4 148.6,23.6 149.9,23.9 C150.6,24.1 151.9,24.3 151.9,25.2 C151.9,25.9 151.4,26.3 150.7,26.3 L150.7,26.3 Z" id="Path" fill="#000000"></path>
            <polygon id="Path" fill="#000000" points="156.7 18.1 156.7 28.3 162.9 28.3 162.9 26.3 158.8 26.3 158.8 24.2 161.9 24.2 161.9 22.2 158.8 22.2 158.8 20.1 162.9 20.1 162.9 18.1"></polygon>
            <polygon id="Path" fill="#000000" points="165.8 17.9 165.8 28.4 167.9 28.4 167.9 22.7 174 28.6 174 18.1 172 18.1 172 23.8"></polygon>
            <path d="M101.1,17.9 L96.4,28.3 L98.6,28.3 L99.3,26.7 L102.8,26.7 L103.5,28.3 L105.7,28.3 L101.1,17.9 Z M100.1,25 L101.1,22.8 L102,25 L100.1,25 Z" id="Shape" fill="#000000"></path>
            <path d="M143.2,24.6 C143.7,24.4 144.1,24.1 144.4,23.6 C144.8,23 145.1,22.3 145,21.6 L145,21.3 C145,20.4 144.7,19.6 144,19 C143.3,18.3 142.3,18 141.3,18 L138,18 L138,28.3 L140.1,28.3 L140.1,23.7 L143.1,28.3 L145.6,28.3 L143.2,24.6 Z M141.6,23 L140.1,23 L140.1,20.2 L141.3,20.2 C141.8,20.2 142.2,20.3 142.6,20.6 C142.9,20.9 143,21.2 143,21.6 C143,22.3 142.4,22.9 141.6,23 L141.6,23 Z" id="Shape" fill="#000000"></path>
            <polygon id="Path" fill="#000000" points="107.4 17.9 107.4 28.4 109.5 28.4 109.5 22.7 115.7 28.6 115.7 18.1 113.6 18.1 113.6 23.8"></polygon>
            <polygon id="Path" fill="#FFFFFF" points="0 0 79.5 0 79.5 40.8 0 40.8"></polygon>
            <polygon id="Path" fill="#000000" points="39.7 40.1 39.7 0.8 0.7 40.1"></polygon>
            <polygon id="Path" fill="#77AD5C" points="0.7 0.8 0.7 40.1 39.7 0.8"></polygon>
            <polygon id="Path" fill="#77AD5C" points="78.7 40.1 78.7 0.8 39.7 0.8"></polygon>
            <path d="M78.7,40.1 L39.7,0.9 L39.7,6.2 L39.5,6.2 C39,6.1 38.5,6.2 37.9,6.3 C37.6,6.4 37.2,6.5 36.9,6.6 C36.2,6.9 35.5,7.3 34.8,7.7 C34.4,8 33.8,8.6 33.8,8.6 C33.6,8.8 33.4,9 33.2,9.3 C32.8,10.1 32.6,11 32.6,11.9 C32.6,12.1 32.6,12.3 32.6,12.6 C32.6,12.7 32.6,13.4 32.6,13.6 C32.6,13.7 32.7,13.8 32.8,13.9 L32.8,14.1 C32.8,14.9 33,15.7 33.3,16.5 C33.3,16.6 33.5,17 33.5,17.1 C33.7,17.6 34,18 34.4,18.4 L34.5,18.4 C34.5,18.4 34.5,19.8 34.4,20 C34.2,20.3 33.9,20.6 33.5,20.8 L31.8,21.3 C31.5,21.4 31.2,21.5 30.9,21.7 C30.9,21.7 30,21.9 29.7,22 C28.7,22.3 27.8,22.7 27,23.3 C26.5,23.7 26,24.2 25.7,24.7 C25.6,24.9 25.4,25.3 25.1,25.7 C24.9,26.1 24.7,26.5 24.4,26.9 L23.8,27.4 C23.8,27.4 23.1,28 22.9,28.2 C22.8,28.3 22.7,28.3 22.7,28.3 C22.6,28.4 22.5,28.4 22.4,28.4 C21.4,28.7 20.7,29.4 20.2,30.2 C20.1,30.4 20,30.7 19.9,30.9 L19.8,31.1 L19.8,31.2 C19.5,31.6 19.2,32 19,32.4 C18.7,33 18.4,33.6 18.2,34.2 C18.1,34.5 17.9,35.2 17.9,35.3 C17.9,35.4 17.8,35.6 17.7,35.8 C17.6,36 17.6,36.2 17.6,36.3 C17.5,36.8 17.6,37.4 17.9,37.9 C18.1,38.1 18.2,38.3 18.3,38.3 L18.7,38.7 C18.9,38.8 19.5,39.4 19.5,39.4 C20,39.8 20.5,40.1 21,40.4 C21,40.4 21.9,40.9 22.7,41.2 C24.2,41.7 25.7,42.2 27.3,42.5 C27.4,43.3 27.7,44.8 27.9,45.8 C27.7,45.8 27.4,45.9 27.2,46 C27.1,45.7 27,45.4 26.9,45.1 C26.8,44.8 26.6,44.7 26.3,44.7 C26.2,44.7 26,44.7 25.9,44.8 C25.8,44.8 25.2,45.1 25.2,45.2 C25,45.3 24.8,45.4 24.6,45.4 C24.6,45.4 23.6,45.4 23.3,45.5 C22.6,45.7 22,46 21.5,46.5 C21.4,46.6 20.8,47.4 20.7,47.5 C20.5,47.8 20.3,48.1 20.2,48.4 C20.2,48.5 20.2,48.6 20.2,48.8 C20.2,49 20.3,49.2 20.5,49.3 C20.6,49.4 20.7,49.4 20.9,49.4 C21.1,49.4 21.2,49.4 21.4,49.3 L22.3,48.6 C22.4,48.5 22.6,48.4 22.8,48.3 C22.9,48.2 23.1,48.2 23.2,48.2 C23.3,48.3 23.4,48.5 23.4,48.7 C23.3,48.9 23.2,49.1 23.2,49.3 C23.2,49.4 23.2,49.6 23.2,49.7 C23.2,49.8 23.5,50.8 23.6,50.9 C23.7,51.1 23.8,51.3 24,51.4 C24.2,52.5 25,56.2 25.1,56.6 C25.1,56.9 25.1,57.1 25.1,57.4 C25.1,57.5 25.1,57.6 25.1,57.7 C25.1,57.8 25.1,58.3 25.1,58.5 C25.1,58.8 25.2,59.1 25.3,59.3 C25.5,59.8 26,60.2 26.5,60.2 C26.7,60.2 27,60.2 27.2,60.1 C27.4,60 27.7,60 27.9,59.9 C28.3,59.7 28.9,59.2 28.4,57.8 C28.4,57.7 28.3,57.6 28.2,57.5 L28.1,57.4 L28.3,57.3 C29,57 29.8,56.7 30.5,56.4 C30.6,56.3 30.6,56.3 30.7,56.2 C30.8,56 30.9,55.8 30.9,55.6 C30.9,55.3 30.9,55 30.9,54.7 C30.9,54.4 30.9,54 30.9,54 C31,54 31,54.1 31.1,54.1 C31.3,54.2 32.7,54.7 33.5,54.9 L33.7,54.9 C33.8,54.9 33.9,54.9 34,54.9 C34.1,54.9 34.2,54.8 34.2,54.7 C34.2,54.7 34.3,54.6 34.3,54.5 L35.7,54.9 C35.7,55.2 35.9,55.4 36.2,55.5 L37.5,55.9 L38.4,56.2 C38.5,56.2 38.5,56.2 38.6,56.2 L38.7,56.2 C39,56.1 40.9,55.5 41,55.5 C41.2,55.4 41.4,55.2 41.4,54.9 L43.5,54.2 C43.6,54.3 43.6,54.4 43.7,54.5 C43.8,54.6 43.9,54.6 44.1,54.6 C44.2,54.6 44.3,54.6 44.3,54.6 L46.7,53.7 C47,53.6 47.1,53.4 47.1,53.1 L47.1,53 C47.6,52.8 48.4,52.5 49.2,52.2 C49.5,52.1 49.6,51.9 49.6,51.6 L50,47.3 L62.7,48.2 L62.8,48.2 C63.1,48.2 63.4,48 63.5,47.7 L65.3,41.7 C66.1,41.6 66.8,40.9 66.8,40 L66.8,40 L78.7,40.1 Z" id="Path" fill="#FFFFFF"></path>
            <path d="M20.1,31.6 C19.9,31.8 19.7,32.1 19.6,32.4 C19.3,33 19,33.6 18.8,34.2 C18.7,34.4 18.7,34.6 18.6,34.9 C18.5,35.2 18.4,35.6 18.3,35.9 C18.2,36 18.2,36.1 18.1,36.1 C18,36.4 18.1,36.8 18.3,37.1 C18.4,37.2 18.5,37.2 18.6,37.3 C18.7,37.4 19.1,37.8 19.3,38 C19.5,38.2 19.6,38.3 19.8,38.4 C20.4,38.8 21,39.2 21.6,39.5 C22,39.7 22.4,39.9 22.9,40.1 C23.4,40.3 23.9,40.4 24.4,40.6 C25.4,40.9 26.4,41.2 27.4,41.4 L27.8,41.5 C27.8,41.5 28.4,44.8 28.5,46 C28.1,46 27.8,46.1 27.4,46.2 C26.9,46.6 26.4,47 26,47.5 C25.8,47.7 25.6,47.9 25.4,48.1 C25.3,48.2 25.2,48.2 25,48.2 C25,48.2 24.8,47.3 24.8,47 C24.8,46.9 24.8,46.8 24.8,46.7 C24.8,46.5 24.9,46.3 25.1,46.3 C25.2,46.3 25.3,46.3 25.5,46.4 C25.7,46.4 25.8,46.5 26,46.5 C26.1,46.5 26.3,46.5 26.4,46.5 C26.5,46 26.4,45.4 26.2,44.9 L26.1,44.9 L25.7,45.1 L25.4,45.3 C25.1,45.5 24.8,45.6 24.5,45.5 L24,45.5 C23.8,45.5 23.5,45.5 23.3,45.6 C22.8,45.7 22.3,46 21.9,46.4 C21.5,46.9 21.1,47.4 20.7,48 C20.7,48 20.7,48.1 20.7,48.1 C20.7,48.1 20.8,48.1 20.8,48.1 L21,47.9 L21.5,47.5 C21.8,47.3 22.2,47.1 22.6,46.9 C22.8,46.9 23,46.9 23.2,47 C23.5,47.3 23.8,47.7 23.8,48.2 C23.8,48.3 23.8,48.3 23.8,48.4 L23.6,48.5 C23.5,48.5 23.4,48.7 23.5,48.9 C23.5,49 23.8,49.8 23.8,49.9 C23.9,50 24,50.1 24.1,50.1 L24.2,50.1 L24.2,50.3 C24.3,50.7 25.2,55.3 25.3,55.7 C25.4,55.9 25.4,56.1 25.4,56.3 C25.4,56.5 25.4,56.7 25.4,57 C25.4,57.3 25.4,57.5 25.4,57.8 C25.4,58 25.5,58.2 25.5,58.4 C25.6,58.7 25.8,58.8 26.1,58.8 C26.3,58.8 26.4,58.8 26.6,58.7 C26.8,58.7 27,58.6 27.1,58.5 C27.3,58.4 27.5,58.1 27.2,57.2 C27.1,57 27,56.9 26.9,56.7 C26.8,56.5 26.7,56.2 26.6,56 C26.5,55.6 26.4,55.5 26.3,55.1 C26.3,55.1 26.3,55.1 26.3,55 C26.5,55.2 27.1,55.8 27.4,55.8 L27.5,55.8 C27.6,55.8 29.2,55.2 29.6,54.9 C29.7,54.8 29.7,54.7 29.7,54.6 C29.7,54.3 29.7,54.1 29.7,53.8 C29.7,53.2 29.7,52.9 29.7,52.3 C29.7,52.2 29.7,51.9 29.7,51.4 C29.8,51.4 30.8,51.8 30.8,51.8 L30.8,52.4 L30.9,52.4 C30.9,52.4 32.5,53 33.3,53.2 L33.3,53.2 L33.3,53.2 L33.3,52.6 L35.9,53.4 C35.9,53.7 35.9,53.6 35.9,53.9 L38.1,54.6 C38.4,54.6 40.1,54 40.3,53.9 L40.3,53.4 C40.3,53.4 40.3,53.4 40.4,53.4 L43.7,52.4 L43.7,53 L46.1,52.1 L46.1,51.5 C46.1,51.5 47.5,51 48.7,50.6 L49.2,46.1 L62.6,47 L64.5,40.7 C65.6,40.5 65.9,40.3 65.8,39.2 C66,38.9 66.2,38.6 66.1,38.2 L66.2,38.1 C66.6,38 66.9,37.6 66.9,37.2 C66.9,37 67,36.9 67.1,36.8 C67.3,36.5 67.3,36.1 67.2,35.8 C67.1,35.7 67.1,35.5 67,35.4 C67.1,35.2 67.2,34.9 67.2,34.6 C67.2,34.4 67.3,34.1 67.3,33.9 C67.4,33.5 67.2,33.1 66.8,32.9 L66.7,32.9 L74.5,8.3 L73,5.8 L51.8,6.3 C51.8,6.3 45.5,21.2 45.3,21.7 C44.8,21.6 44.3,21.4 43.8,21.1 C43.7,21 43.7,21 43.6,20.9 C43.4,20.6 43.1,20.3 42.8,20.1 C42.7,20 42.5,19.9 42.4,19.8 C42.5,19.7 42.6,19.6 42.7,19.5 C42.8,19.4 42.9,19.3 42.9,19.2 C43,18.8 43.1,18.4 43,18 C43.3,17.2 43.5,16.4 43.6,15.5 C43.6,15.2 43.6,14.9 43.6,14.6 C43.6,14.2 43.5,13.4 43.5,13.1 C43.5,12.8 43.5,12.7 43.5,12.4 C44.1,12 44.8,11.6 45.3,11.1 C45.5,10.9 45.7,10.8 45.8,10.5 C46.2,10.1 46.3,9.5 46.1,9 C46,8.8 45.9,8.6 45.7,8.4 C45.5,8.2 45.2,8.1 45,8.1 C44.7,8.3 44,8.3 43.3,8.4 C43.2,8.4 43.1,8.4 43,8.4 C42.9,8.4 42.8,8.2 42.7,8.1 C42.4,7.8 42.1,7.6 41.8,7.4 C41.3,7.1 40.7,6.8 40.2,6.5 C39.5,6.3 38.9,6.3 38.2,6.5 C37.9,6.6 37.6,6.7 37.3,6.8 C36.6,7.1 35.9,7.5 35.2,7.9 C35.1,7.9 35,8 35,8.1 C34.8,8.3 34.6,8.4 34.4,8.6 C34.2,8.8 34,9 33.8,9.3 C33.4,10.1 33.3,10.9 33.2,11.7 C33.2,12.1 33.2,12.4 33.2,12.7 C33.2,12.9 33.2,13 33.2,13.2 C33.2,13.3 33.3,13.4 33.4,13.4 C33.4,13.5 33.4,13.6 33.4,13.8 C33.4,14.6 33.6,15.3 33.9,16 C34,16.2 34,16.4 34.1,16.6 C34.3,17 34.5,17.4 34.9,17.7 C35,17.8 35.1,17.8 35.1,17.9 C35.1,18 35.1,18.3 35.1,18.4 C35.1,18.6 35.1,18.7 35.1,18.9 C35.1,19.2 35.1,19.6 35,19.9 C34.9,20.2 34.6,20.5 34.3,20.7 C34.2,20.8 34,20.9 33.8,21 C33.6,21.1 33.4,21.1 33.2,21.2 C32.8,21.3 32.4,21.4 32,21.5 C31.7,21.6 31.5,21.7 31.2,21.8 C31.1,21.9 31,22 30.9,22 C30.5,22 30.2,22.1 29.8,22.2 C28.9,22.5 28,22.9 27.3,23.5 C26.8,23.9 26.4,24.3 26.1,24.8 C25.8,25.3 25,27 24.8,27.1 C24.6,27.2 24.4,27.4 24.2,27.6 C24,27.8 23.6,28.1 23.4,28.4 C23.3,28.5 23.2,28.6 23.1,28.6 C23,28.6 22.9,28.7 22.8,28.7 L22.5,28.8 C21.7,29 21,29.6 20.6,30.4 C20.5,30.6 20.4,30.8 20.3,31 C20.3,31.1 20.2,31.3 20.2,31.4 C20.3,31.5 20.2,31.6 20.1,31.6" id="Path" fill="#000000"></path>
            <path d="M29.4,48.5 C29.4,48.5 28,50.5 27.8,50.6 C27.7,50.7 27.6,50.8 27.5,50.8 C27.3,50.8 27.1,50.7 27,50.6 C26.9,50.5 26.2,49.6 25.9,49.3 L25.8,49.2 C25.8,49.1 25.9,49 25.9,48.9 C26.4,48.2 27,47.6 27.7,47 C27.7,47 27.7,47.1 27.8,47.1 C27.9,47.3 28,47.5 28.2,47.6 C28.3,47.7 28.4,47.8 28.5,47.9 C28.7,48.1 29,48.3 29.3,48.4 C29.3,48.5 29.4,48.5 29.4,48.5 Z" id="Path" fill="#77AD5C"></path>
            <path d="M39.9,53.8 L39.9,50.4 C39.9,50.4 39,50.6 38.6,50.7 L38.4,50.7 C38,50.7 37.1,50.5 37,50.5 C36.9,50.5 37,51.7 37,51.7 L36.7,51.7 L36.7,51.1 C36.2,51 34.1,50.3 33.6,50.2 C33.6,50.1 33.6,50 33.6,49.9 C34,50 36.4,50.7 36.8,50.7 C36.8,50.2 36.8,50.1 36.8,50.1 L38.5,50.4 L38.7,50.4 L40.3,50.1 C40.3,50.1 40.3,50.2 40.3,50.7 L40.4,50.7 C41.1,50.5 43.3,49.8 43.9,49.7 C43.9,49.7 44,49.7 44.1,49.7 C44.1,49.8 44.1,49.9 44.1,50 L40.4,51.1 C40.4,51.5 40.4,53.8 40.4,54.2 C40.3,54.2 38.7,54.7 38.7,54.7 L36.9,54.1 C36.9,54.1 36.9,53.1 36.9,53 C37,53 37.1,53 37.2,53.1 C37.2,53.1 37.2,53.7 37.2,53.9 C37.5,54 38.4,54.3 38.7,54.4 L39.9,53.8 Z" id="Path" fill="#77AD5C"></path>
            <path d="M31.4,48.7 L31.4,48.7 C31.9,48.8 32.5,49 33,49.1 C33,49.1 33,49.2 33,49.2 C33,49.7 33,52.8 33,52.8 C33,52.8 33,52.9 33,52.9 L31.4,52.3 C31.4,52.3 31.4,52.2 31.4,52.2 C31.3,51.1 31.3,50.2 31.3,48.7 C31.4,48.8 31.4,48.8 31.4,48.7 Z" id="Path" fill="#77AD5C"></path>
            <path d="M44.5,49 L46.2,48.5 L46.2,52.2 C46.2,52.2 44.7,52.8 44.7,52.8 C44.5,52.6 44.5,49.1 44.5,49 Z" id="Path" fill="#77AD5C"></path>
            <path d="M31,49.4 C30.8,49.4 29.9,49.1 29.8,49 C29.7,48.9 29.8,48.7 29.8,48.7 L31,49.1 C31,49.2 31,49.3 31,49.4 Z" id="Path" fill="#77AD5C"></path>
            <path d="M36.8,52.1 C36.8,52.1 36.9,52.1 36.9,52.1 L37.7,52.3 C37.8,52.3 37.8,52.4 37.8,52.5 C37.8,52.6 37.7,52.7 37.6,52.7 L36.7,52.5 C36.6,52.5 36.5,52.4 36.5,52.3 C36.7,52.2 36.7,52.1 36.8,52.1 Z" id="Path" fill="#77AD5C"></path>
            <path d="M48.8,48.1 L48.8,48.4 L46.6,49.2 C46.6,49.2 46.6,49 46.6,48.9 L48.8,48.1 Z" id="Path" fill="#77AD5C"></path>
            <path d="M41.5,52.4 C41.3,52.4 41.2,52.3 41.2,52.1 C41.2,51.9 41.4,51.8 41.5,51.8 C41.6,51.8 41.8,51.9 41.8,52.1 C41.8,52.2 41.7,52.3 41.5,52.4 Z" id="Path" fill="#77AD5C"></path>
            <path d="M43.5,51.6 C43.5,51.8 43.4,51.9 43.3,51.9 C43.1,51.9 43,51.8 43,51.7 C43,51.7 43,51.6 43,51.6 C43,51.5 43.1,51.3 43.3,51.3 C43.3,51.3 43.4,51.4 43.5,51.6 C43.5,51.5 43.5,51.6 43.5,51.6 Z" id="Path" fill="#77AD5C"></path>
            <path d="M39.3,52.5 C39.3,52.6 39.2,52.8 39.1,52.8 C39.1,52.8 39,52.8 39,52.8 C38.8,52.8 38.7,52.7 38.7,52.5 C38.7,52.4 38.8,52.2 39,52.2 C39.2,52.2 39.3,52.3 39.3,52.5 C39.3,52.5 39.3,52.5 39.3,52.5 Z" id="Path" fill="#77AD5C"></path>
            <path d="M36.1,8 L36.1,8 C35.8,8.3 35.6,8.5 35.3,8.7 C35.1,8.9 34.8,9.1 34.7,9.4 C34.5,9.7 34.3,10 34.2,10.3 C34.1,10.6 34,10.9 34,11.1 C34,11.3 33.9,11.5 33.9,11.7 C33.9,11.4 33.9,11 33.9,10.7 C33.9,10.4 34,10.2 34.1,9.9 C34.2,9.6 34.4,9.2 34.7,9 C34.9,8.8 35.1,8.6 35.4,8.5 C35.5,8.3 35.8,8.2 36.1,8 Z" id="Path" fill="#77AD5C"></path>
            <path d="M46.1,9.6 C46.1,9.6 45.9,9.5 45.9,9.5 C45.7,9.4 45.5,9.3 45.3,9.3 C44.5,9.2 43.8,9.3 43,9.4 C42.5,9.5 42.1,9.5 41.6,9.7 C41,9.9 40.4,10 39.9,10.1 C39.7,10.2 39.4,10.2 39.2,10.2 C40.4,9.8 41.6,9.4 42.8,9.1 L43.5,9 C43.9,8.9 44.3,8.9 44.7,8.9 L45,8.9 C45.4,9 45.7,9.1 46,9.3 C46,9.4 46.1,9.5 46.1,9.6 Z" id="Path" fill="#77AD5C"></path>
            <path d="M27.9,33.6 C27.2,31.9 25.6,30.7 23.8,30.5 C23,30.4 22.3,30.4 21.5,30.4 C21.6,30.2 21.8,30 22.1,29.9 C23.3,29.8 24.6,30 25.8,30.4 C27,30.9 27.9,32 28.3,33.2 C28.2,33.4 28,33.5 27.9,33.6 Z" id="Path" fill="#77AD5C"></path>
            <path d="M30,23.4 C30.4,23.2 30.8,23.1 31.3,23 C31.5,23 31.7,23 31.9,23 C32,23.1 32.1,23.2 32.2,23.2 C32.4,22.9 32.6,22.6 32.9,22.3 C32.8,22.3 32.7,22.3 32.5,22.3 C32.3,22.3 32.1,22.3 31.9,22.4 C31.7,22.5 31.5,22.5 31.3,22.6 C31,22.7 30.7,22.7 30.4,22.8 C30.2,22.9 30,23 29.8,23.2 C29.7,23.3 29.5,23.4 29.4,23.5 C29.3,23.6 29.2,23.7 29.2,23.8 C29.3,23.7 29.5,23.7 29.6,23.6 C29.9,23.4 30,23.4 30,23.4 Z" id="Path" fill="#77AD5C"></path>
            <path d="M28.1,30.3 C28.2,30.4 28.4,30.6 28.6,30.7 C28.6,30.4 28.5,30.1 28.3,29.8 C28.5,29.8 29,30.4 29.1,30.8 C29.2,30.9 29.2,31 29.2,31.2 C29.1,31.6 28.9,32.5 28.9,32.5 C28.5,31.5 27.9,30.6 27.1,30 C27.2,29.8 27.8,30.1 28.1,30.3 Z" id="Path" fill="#77AD5C"></path>
            <path d="M42.7,25.9 C42.3,25.7 41.8,25.5 41.5,25.2 C41.4,25.1 41.2,25 41.1,25 C41,25 40.9,25.1 40.8,25.2 C40.2,25.8 39.5,26.3 38.8,26.8 C39.1,26.5 39.4,26.1 39.7,25.8 C39.8,25.7 40,25.4 40.1,25.3 C40.5,24.9 40.8,24.4 41.1,24 L41.4,23.5 C41.7,23 41.9,22.4 42.1,21.8 C42.1,21.7 42.1,21.6 42.2,21.5 C42.3,21.4 42.2,21.1 42.3,21 L42.3,21 C42.4,21 42.6,21.2 42.7,21.3 C43,21.6 43.2,22 43.3,22.4 C43.4,23.1 43.3,23.9 43.1,24.6 C43,25 42.9,25.4 42.7,25.9 Z" id="Path" fill="#77AD5C"></path>
            <path d="M37.2,29.5 C37,29.1 36.5,27.8 36.2,26.7 C36.2,26.6 36.2,26.5 36.1,26.5 C35.9,26.1 35.6,25 35.4,24.5 C35.4,24.3 35.3,24.2 35.3,24.1 C35,23.2 34.9,22.2 34.8,21.3 C34.5,21.5 34.2,21.8 33.9,22.2 C33.4,23 32.2,25 32.4,25.4 C32.5,25.4 32.6,25.3 32.7,25.2 C32.9,25 33.1,24.8 33.3,24.7 C33.6,24.4 34,24.3 34.4,24.3 C34.7,24.4 34.9,24.7 35,24.9 C35.3,25.4 35.5,25.8 35.6,26.3 C36.2,28 36.5,29.1 36.8,30.4 C36.9,30.9 37,31.3 37.2,31.7 C37.3,30.5 37.5,29.4 37.8,28.3 C37.7,28.2 37.3,29.3 37.2,29.5 Z" id="Path" fill="#77AD5C"></path>
            <path d="M62.2,37.1 C62.1,36.8 62.1,36.4 62.2,36.1 L62.6,35.8 C62.6,35.3 62.6,35.1 63.3,35 L72.5,7.1 L52.7,7.6 L39.2,40.1 L40.2,40.5 L47,24.5 L65,25.2 C63.2,30.7 61,37.7 59.5,42.2 L48.8,41.4 C52.4,37.3 56,33.3 59.5,29.2 L59.3,29.1 L48.5,41.4 L41.2,40.9 C41.2,41 41.3,41 41.3,41.1 C41.5,41.3 41.4,41.6 41.2,41.8 C41.2,41.8 41.2,41.8 41.2,41.8 C40.9,42.1 40.5,42.3 40,42.3 L38.9,42.3 C38.9,42.3 39,42.4 39,42.4 C46.2,43 53.3,43.5 60.5,44 C61.1,42 61.8,40.1 62.4,38.1 C62.1,37.9 62,37.4 62.2,37.1 Z M70.8,8.5 L68.4,15.5 L60.1,15.3 L62.4,8.5 L70.8,8.5 Z M53.4,8.7 L61.1,8.5 L58.7,15.3 L50.8,15.2 L53.4,8.7 Z M47.4,23.3 C48.4,20.9 50.3,16.2 50.3,16.2 L58.4,16.4 L55.8,23.7 L47.4,23.3 Z M57.2,23.6 L59.7,16.4 L67.9,16.5 L65.5,23.9 L57.2,23.6 Z" id="Shape" fill="#FFFFFF"></path>
            <path d="M50.7,37.1 C53.6,33.8 56.5,30.5 59.5,27.2 L63.4,27.4 C63.5,27.1 63.6,26.7 63.7,26.4 L47.6,25.7 L41.7,39.9 L42.7,40 L48.3,26.8 L59.2,27.3 L50.5,37.1 L50.7,37.1 Z" id="Path" fill="#FFFFFF"></path>
            <polygon id="Path" fill="#FFFFFF" points="73.2 7.1 64.3 34.7 64.7 34.8 73.4 8 73.9 8.7 65.4 35.1 65.8 35.2 74.4 8.7"></polygon>
            <polygon id="Path" fill="#FFFFFF" points="62.2 45.2 61.6 44.2 63.2 38.9 62.9 38.6 61.1 44.3 62.4 46.4 63.9 40.8 63.5 40.4"></polygon>
            <path d="M66.1,36.4 C66,36.6 65.8,36.8 65.7,37 L63,36 C63,35.8 63.1,35.7 63.1,35.6 C63.3,35.5 63.6,35.5 63.8,35.6 C64,35.5 64.3,35.5 64.5,35.6 C64.9,35.7 65.3,35.8 65.7,35.9 L65.8,36.1 C66,36.1 66,35.9 66.1,35.8 C66.4,35.9 66.7,36 66.9,36.2 C67.1,36.3 67.1,36.6 67,36.7 C67,36.8 66.9,36.8 66.8,36.8 C66.6,36.9 66.3,36.9 66.1,37 L66.1,36.4 L66.1,36.4 Z" id="Path" fill="#FFFFFF"></path>
            <path d="M66,38 C66,37.8 66,37.7 65.9,37.4 C65.7,37.6 65.6,37.9 65.2,38 C64.8,37.9 64.4,37.7 64,37.4 C63.8,37.3 63.7,37.2 63.5,37.1 C63.2,36.9 62.9,36.8 62.6,36.8 C62.5,36.7 62.5,36.5 62.5,36.4 C62.6,36.3 62.7,36.2 62.8,36.2 C63,36.2 63.2,36.3 63.4,36.5 L63.6,36.5 C64.1,36.7 64.5,36.9 64.9,37.1 C65.4,37.3 66,37.4 66.5,37.3 C66.5,37.3 66.6,37.3 66.6,37.3 L66.7,37.3 C66.9,37.7 66.5,38 66,38 Z" id="Path" fill="#FFFFFF"></path>
            <path d="M65.8,38.6 C65.8,38.9 65.8,38.9 65.6,39.2 L65.5,39.2 L65.4,39.2 C65.4,39.1 65.4,38.9 65.4,38.8 L64.8,39.2 C64.5,39.2 64.3,39 64,38.9 C63.7,38.8 63.5,38.6 63.3,38.5 C63,38.4 62.8,38.2 62.6,38 L62.7,37.6 C63.1,37.4 63.2,37.7 63.4,37.8 L63.8,38 C63.9,38 63.9,38.1 64,38.2 C64.4,38.6 64.9,38.8 65.5,38.8 C65.6,38.6 65.8,38.6 65.8,38.6 Z" id="Path" fill="#FFFFFF"></path>
            <path d="M65.2,40.4 C64.8,40.4 64.5,40.2 64.2,40 C64,39.8 64,39.6 64,39.4 L63.7,39.3 C63.7,39.2 63.8,39.1 63.8,39 C64,38.9 64.1,39 64.2,39.1 C64.4,39.3 64.6,39.4 64.9,39.4 C65.1,39.4 65.3,39.6 65.4,39.8 C65.6,40.2 65.4,40.3 65.2,40.4 Z" id="Path" fill="#FFFFFF"></path>
            <path d="M66.9,34.2 C66.9,34.1 66.8,34 66.8,34 C66.8,33.9 66.9,33.9 66.9,33.8 C67.2,33.9 67.4,34.1 67.3,34.4 C67.3,34.7 67.2,35 67.1,35.4 C66.8,35.6 66.5,35.6 66.2,35.3 C66.2,34.7 66.2,34.6 66.4,34.3 L66.9,34.2 Z" id="Path" fill="#FFFFFF"></path>
            <path d="M37,44 C37,44.1 37,44.3 37.1,44.4 C37.3,44.7 37.9,45.2 37.9,45.3 C37.9,45.4 37.7,45.3 37.6,45.3 C37.4,45.2 37.1,45.1 36.9,45 L36.5,44.7 C36.3,44.6 36.2,44.4 36,44.5 C35.8,44.6 36.1,44.8 36.2,44.8 C36.3,44.9 36.4,45 36.5,45.1 C36.4,45.1 36.3,45.1 36.3,45.1 C36.2,45.1 36.1,45.1 36.1,45 C35.8,44.8 35.5,44.6 35.2,44.4 C35.1,44.3 34.9,44.2 34.9,44.4 C34.9,44.6 35.2,44.7 35.2,44.8 C35.2,44.9 35.1,44.9 35,44.8 C34.8,44.6 34.5,44.4 34.3,44.2 L34.2,44 C34.1,43.8 33.6,43.4 33.3,43.1 C32.8,42.6 32.3,42.1 31.7,41.8 C31.5,41.7 31.2,41.6 30.9,41.5 C30.6,41.4 29.6,41.1 29.4,41.1 C28.9,40.9 28.5,40.9 27.9,40.7 C27.4,40.6 26.9,40.5 26.4,40.4 C25.7,40.2 25.1,40.1 24.4,39.8 C23.7,39.5 23,39.3 22.4,39 C22,38.8 21.6,38.6 21.2,38.3 C20.4,37.9 19.7,37.4 19.1,36.7 C18.7,36.7 18.5,36.2 18.7,35.8 C18.8,35.7 18.9,35.5 19,35.4 C19.3,34.3 19.7,33.3 20.3,32.4 C20.4,32.3 20.5,32.1 20.6,32 C20.8,31.6 21.2,31.3 21.7,31.2 C22.5,31.1 23.4,31.2 24.2,31.4 C24.5,31.5 24.8,31.6 25.1,31.8 C25.3,31.9 25.4,32.1 25.6,32.3 C25.7,32.5 25.8,32.7 25.8,33 C25.8,33.1 25.7,33.3 25.7,33.4 C25.6,33.5 25.6,33.6 25.5,33.7 C25.4,33.8 25.3,33.8 25.2,33.9 C25,33.9 24.9,33.9 24.7,33.8 C24.2,33.7 23.8,33.6 23.3,33.5 C22.8,33.5 22.4,33.5 21.9,33.5 C21.7,33.5 21.5,33.5 21.3,33.6 C21.5,33.7 21.8,33.7 22,33.8 L22.2,33.9 C23.1,34.2 23.9,34.5 24.7,34.9 C25.1,35.1 25.5,35.3 25.9,35.6 C26.1,35.7 26.3,35.8 26.5,36 C27,36.3 27.4,36.6 27.9,37 C28.2,37.2 28.5,37.4 28.7,37.6 C29.2,38 29.7,38.4 30.3,38.9 C30.6,39.1 30.8,39.3 31.1,39.5 C31.8,39.9 32.6,40.4 33.3,40.8 C33.4,40.9 33.6,41 33.7,41.1 C33.8,41 33.6,40.9 33.6,40.8 C34.1,40.8 34.6,40.8 35,40.7 C35.3,40.6 35.6,40.5 35.9,40.5 C36.2,40.4 36.6,40.4 36.9,40.4 C37.1,40.4 37.3,40.5 37.4,40.6 L37.6,40.7 C37.8,40.8 37.9,40.8 38.1,40.9 L38.4,41 C38.6,41 38.8,41 39,41.1 C39.1,41.1 39.3,41.2 39.4,41.3 C39.5,41.4 39.6,41.4 39.8,41.4 C40,41.4 40.3,41.4 40.5,41.4 C40.6,41.4 40.7,41.5 40.7,41.6 C40.7,41.7 40.7,41.9 40.6,42 C40.5,42.1 40.4,42.2 40.3,42.2 C40,42.3 39.6,42.3 39.3,42.2 L38.7,42.2 C38.5,42.2 38.2,42.1 38,42.1 C37.9,42.1 37.7,42.1 37.6,42.1 C37.3,42.1 37,42.2 36.8,42.4 C37,42.7 37.3,42.9 37.6,43.2 C37.7,43.3 37.9,43.5 38.1,43.8 C38.3,44.1 38.4,44.2 38.5,44.4 C38.7,44.6 38.8,44.8 39,45 C39.1,45.2 39.1,45.3 39.2,45.5 C39.3,45.7 39.4,45.4 39.5,45.3 C39.6,45.3 39.7,45.3 39.8,45.3 C39.9,45.3 39.9,45.4 40,45.4 C40.1,45.5 40.2,45.6 40.2,45.7 C40.3,45.9 40.3,46 40.2,46.2 C39.9,46.3 39.6,46.3 39.3,46.2 L38.8,46.1 C38.7,46.1 38.6,46 38.5,45.9 C38.4,45.8 38.3,45.7 38.2,45.6 L37.4,44.6 L37,44 Z" id="Path" fill="#FFFFFF"></path>
            <path d="M42.1,13.2 C42,13.3 42,13.5 42,13.7 C42,13.9 42,14.1 42.1,14.3 C42.2,14 42.2,13.7 42.5,13.6 C42.7,13.9 43.1,14 43.4,13.9 C43.4,13.9 43.4,13.9 43.4,13.9 C43.4,14.2 43.6,14.7 43.6,14.9 C43.6,15.3 43.6,15.8 43.6,16.2 C43.5,16.6 43.5,17 43.4,17.3 C43.4,17.4 43.3,17.8 43.3,17.9 C43.3,18 43.2,18.3 43.1,18.5 C43.1,18.8 43.1,19.1 43,19.4 C42.9,19.8 42.6,20.1 42.2,20.2 C41.9,20.3 41.6,20.3 41.3,20.3 C40.5,20.3 39.8,20.1 39.1,20 C38.8,19.9 38.4,19.8 38.1,19.6 C37.8,19.5 37.5,19.3 37.2,19.2 C37,19.1 36.8,18.9 36.7,18.8 L36.3,18.3 C36.1,18 36,17.7 36,17.4 C36,17.2 36,17 35.9,16.9 C35.7,17 35.6,17.2 35.3,17.1 C35.2,17 35,16.9 34.9,16.8 C34.7,16.6 34.6,16.4 34.5,16.2 C34.4,16.1 34.4,16 34.4,15.9 C34.4,15.8 34.4,15.7 34.3,15.5 C34.2,15.3 34.2,15.3 34.2,15.2 C34.1,14.8 34,14.5 34,14.1 C34,14 34,13.9 34,13.8 C34.1,13.7 34.1,13.6 34.2,13.5 C34.3,13.5 34.4,13.5 34.5,13.5 C34.6,13.5 34.7,13.6 34.7,13.6 C34.8,13.7 35,13.9 35.1,14 C35.2,14.1 35.2,14.2 35.3,14.2 C35.4,14.2 35.4,14.5 35.5,14.6 C35.6,14.6 35.6,14.6 35.7,14.6 C35.8,14.6 36,14.6 36.1,14.6 C36.2,14.6 36.3,14.6 36.5,14.5 C36.5,14.4 36.5,14.2 36.5,14.1 C36.5,13.9 36.5,13.6 36.6,13.4 C36.6,13.3 36.7,13.2 36.8,13.2 C36.9,13.2 36.8,12.8 36.9,12.6 C37,12.4 37.9,12 38,12 C38.4,11.9 38.7,11.8 39.1,11.7 C40,11.5 40.8,11.5 41.7,11.6 C42.1,11.6 42.6,11.7 43,11.9 C43.1,12 43.2,12 43.3,12.2 C43.3,12.3 43.4,12.4 43.4,12.5 C43.4,12.6 43.4,12.8 43.4,12.9 C43.4,12.9 43,12.9 42.9,12.9 C42.5,12.8 42.2,12.9 42.1,13.2 Z M35.3,15.2 C35.1,14.7 34.8,14.3 34.4,14 L34.4,14 L34.4,14 C34.4,14.3 34.4,14.5 34.5,14.8 C34.5,14.9 34.5,15 34.5,15 C34.5,15 34.6,14.9 34.6,14.9 C34.7,15 34.8,15.1 34.8,15.2 C34.8,15.3 34.7,15.4 34.6,15.6 C34.5,15.8 34.8,15.7 34.9,15.8 C35,15.9 35,16 35,16.2 C35,16.4 35.2,16.4 35.3,16.4 C35.4,16 35.4,15.6 35.3,15.2 L35.3,15.2 Z" id="Shape" fill="#FFFFFF"></path>
            <path d="M35.8,18.9 C35.8,18.9 35.9,19 35.9,19 C36.1,19.2 36.4,19.5 36.6,19.7 C36.7,19.9 36.8,20 36.9,20.1 C36.9,20.2 37.1,20.7 37.1,20.9 C37.2,21.5 37.4,22 37.6,22.5 C37.8,23 38,23.5 38.3,24 C38.5,24.4 38.8,24.8 39.2,25.1 C39.2,24.9 39.1,24.8 39.1,24.7 L38.8,24.3 C38.6,23.8 38.4,23.3 38.4,22.7 C38.3,22 38.7,21.3 39.4,21.1 C39.5,21.1 39.5,21.1 39.6,21.1 C39.9,21.1 40.2,21.2 40.5,21.3 C40.8,21.5 41,21.9 40.7,23 C40.6,23.3 40.5,23.6 40.3,23.9 C40.2,24.1 40,24.3 39.9,24.5 C39.4,25.1 38.9,25.6 38.4,26.1 C37.5,25 36.9,23.7 36.5,22.3 C36.4,22.5 36.4,22.6 36.4,22.8 C36.4,23 36.4,23.2 36.5,23.5 C36.6,24 36.7,24.4 36.9,24.8 C37.1,25.1 37.3,25.6 37.4,26 L37.4,26 C37.1,25.9 36.9,25.7 36.8,25.4 C36.4,24.9 36.2,24.3 36,23.6 C35.9,23.1 35.7,22.7 35.7,22.2 C35.6,21.1 35.6,20 35.8,18.9 Z" id="Path" fill="#FFFFFF"></path>
            <path d="M40.9,14.1 C40.8,13.8 40.6,13.6 40.4,13.5 C40.3,13.6 40.2,13.7 40.2,13.7 L40.1,13.8 L40,13.8 C39.6,13.9 39.2,13.9 38.8,13.6 C39,13.4 39.3,13.2 39.5,13.1 C38.7,13.1 38.5,13.5 38,13.8 C38.2,13.4 38.5,13.1 38.9,12.9 C39.2,12.8 39.6,12.7 39.9,12.7 C40.4,12.7 40.7,13.1 40.8,13.5 C40.8,13.6 40.8,13.6 40.8,13.7 C40.8,13.7 40.8,13.8 40.9,13.8 C41,13.9 41,14 40.9,14.1 Z" id="Path" fill="#000000"></path>
            <path d="M42.5,15.5 C42.5,15.7 42.5,15.8 42.4,16 C42.3,16 42.2,16.1 42.1,16.1 C42,16.1 41.9,16.2 41.8,16.3 C41.8,16.3 41.7,16.5 41.6,16.4 C41.5,16.3 41.5,16.2 41.4,16.2 C41.3,16.2 41.1,16.2 40.9,16.1 C40.8,16.1 40.7,16 40.7,16 L40.5,15.8 C40.5,15.7 40.5,15.5 40.6,15.4 C40.6,15.6 40.8,15.7 41.1,15.7 C41.3,15.6 41.4,15.6 41.6,15.5 C41.7,15.5 41.7,15.5 41.8,15.5 C42.1,15.5 42.1,15.8 42.4,15.7 C42.4,15.6 42.4,15.5 42.5,15.5 Z" id="Path" fill="#000000"></path>
            <path d="M42.1,18.3 C41.9,18.7 41.4,18.8 41,18.6 C40.9,18.5 40.7,18.4 40.7,18.3 C41.1,18.3 41.6,18.3 42.1,18.3 Z" id="Path" fill="#000000"></path>
            <path d="M42.9,17.2 C42.8,17.2 42.7,17.3 42.6,17.3 C42.5,17.3 42.3,17.3 42.2,17.3 C41.8,17.2 41.3,17.2 40.8,17.3 C40.5,17.4 40.2,17.4 39.9,17.3 C39.8,17.3 39.7,17.3 39.7,17.3 C39.6,17.5 39.6,17.7 39.7,17.8 C40,17.7 40.4,17.7 40.7,17.9 C40.8,18 40.9,18 41,18 C41,18 41,18 41.1,17.9 C41.1,17.9 41,17.9 41,17.9 C40.9,17.9 40.7,17.8 40.6,17.7 C41.1,17.6 41.7,17.6 42.2,17.7 L41.9,17.9 L41.9,17.9 L42.4,17.7 C42.6,17.7 42.7,17.6 43,17.5 C43,17.5 43,17.4 42.9,17.2 Z" id="Path" fill="#000000"></path>
            <path d="M25.3,39.4 C25.1,39.4 24.9,39.4 24.6,39.3 C24.1,39.2 23.6,39 23.1,38.7 C22.4,38.4 21.7,38 21,37.6 C20.9,37.6 20.6,37.4 20.4,37.2 C20.2,37 20,36.9 20,36.7 C20,36.5 20.1,36.3 20.3,36.2 C20.4,36.2 20.4,36.2 20.5,36.2 C20.6,36.2 21.2,36.8 21.5,37 C21.6,37.1 22,37.3 22.4,37.7 C22.9,38 23.3,38.3 23.6,38.4 L24.5,38.8 C24.7,39.1 24.9,39.2 25.3,39.4 Z" id="Path" fill="#000000"></path>
            <path d="M66.6,42.6 L66.6,42.8 L67,42.8 L67,44.3 L67.3,44.3 L67.3,42.8 L67.7,42.8 L67.7,42.6 L66.6,42.6 Z M69.4,42.5 L68.8,43.8 L68.2,42.5 L67.8,44.3 L68.1,44.3 L68.3,43.3 L68.8,44.4 L69.3,43.3 L69.5,44.3 L69.8,44.3 L69.4,42.5 Z" id="Shape" fill="#000000"></path>
        </g>
    </g>
</svg>