<?xml version="1.0" encoding="UTF-8"?>
<svg width="472px" height="377px" viewBox="0 0 472 377" version="1.1" xmlns="http://www.w3.org/2000/svg" xmlns:xlink="http://www.w3.org/1999/xlink">
    <title>sms copy 2</title>
    <defs>
        <path d="M18.4171875,25 L18.4171875,20.6371094 L23.6765625,20.6371094 L23.6765625,25 L24.871875,25 L24.871875,15.4175781 L23.6765625,15.4175781 L23.6765625,19.5613281 L18.4171875,19.5613281 L18.4171875,15.4175781 L17.221875,15.4175781 L17.221875,25 L18.4171875,25 Z M27.4391875,16.3871094 C27.8774688,16.3871094 28.2360625,16.0285156 28.2360625,15.5902344 C28.2360625,15.1519531 27.8774688,14.7933594 27.4391875,14.7933594 C27.0009063,14.7933594 26.6423125,15.1519531 26.6423125,15.5902344 C26.6423125,16.0285156 27.0009063,16.3871094 27.4391875,16.3871094 Z M28.0102813,25 L28.0102813,17.8414063 L26.8680938,17.8414063 L26.8680938,25 L28.0102813,25 Z M35.6019375,25.2257812 C37.3351406,25.2257812 38.391,24.1566406 38.391,22.3304687 L38.391,15.4175781 L37.1956875,15.4175781 L37.1956875,22.3238281 C37.1956875,23.4992187 36.6179531,24.1234375 35.5952969,24.1234375 C34.6921719,24.1234375 34.0812344,23.565625 34.0546719,22.7621094 L32.866,22.7621094 C32.866,24.2296875 33.9949063,25.2257812 35.6019375,25.2257812 Z M43.3024531,25.1261719 C45.341125,25.1261719 46.6028438,23.7183594 46.6028438,21.4207031 C46.6028438,19.1164062 45.341125,17.7152344 43.3024531,17.7152344 C41.2637813,17.7152344 40.0020625,19.1164062 40.0020625,21.4207031 C40.0020625,23.7183594 41.2637813,25.1261719 43.3024531,25.1261719 Z M43.3024531,24.096875 C41.9477656,24.096875 41.1840938,23.1140625 41.1840938,21.4207031 C41.1840938,19.7207031 41.9477656,18.7445312 43.3024531,18.7445312 C44.6571406,18.7445312 45.4208125,19.7207031 45.4208125,21.4207031 C45.4208125,23.1140625 44.6571406,24.096875 43.3024531,24.096875 Z M49.2764063,25 L49.2764063,20.7632813 C49.2764063,19.5546875 49.9803125,18.7445312 51.2619531,18.7445312 C52.344375,18.7445312 52.9154688,19.3753906 52.9154688,20.64375 L52.9154688,25 L54.0576563,25 L54.0576563,20.3648438 C54.0576563,18.6847656 53.1014063,17.7152344 51.5873438,17.7152344 C50.4916406,17.7152344 49.74125,18.1800781 49.3826563,18.9703125 L49.2764063,18.9703125 L49.2764063,14.9992187 L48.1342188,14.9992187 L48.1342188,25 L49.2764063,25 Z M56.957,25 L56.957,20.7632813 C56.957,19.5082031 57.6941094,18.7445312 58.8362969,18.7445312 C59.9784844,18.7445312 60.5230156,19.3554688 60.5230156,20.64375 L60.5230156,25 L61.6652031,25 L61.6652031,20.3648438 C61.6652031,18.6648438 60.7687188,17.7152344 59.1616875,17.7152344 C58.0659844,17.7152344 57.3687188,18.1800781 57.010125,18.9703125 L56.903875,18.9703125 L56.903875,17.8414063 L55.8148125,17.8414063 L55.8148125,25 L56.957,25 Z M65.0094688,21.8125 L65.1223594,15.4109375 L63.7942344,15.4109375 L63.907125,21.8125 L65.0094688,21.8125 Z M64.4649375,25.1195312 C65.0028281,25.1195312 65.3813438,24.734375 65.3813438,24.1964844 C65.3813438,23.6519531 65.0028281,23.2667969 64.4649375,23.2667969 C63.9270469,23.2667969 63.5418906,23.6519531 63.5418906,24.1964844 C63.5418906,24.734375 63.9270469,25.1195312 64.4649375,25.1195312 Z M74.6663594,25 L74.6663594,16.4933594 L77.75425,16.4933594 L77.75425,15.4175781 L70.3831563,15.4175781 L70.3831563,16.4933594 L73.4710469,16.4933594 L73.4710469,25 L74.6663594,25 Z M80.3348438,25 L80.3348438,20.7632813 C80.3348438,19.5546875 81.03875,18.7445312 82.3203907,18.7445312 C83.4028125,18.7445312 83.9739063,19.3753906 83.9739063,20.64375 L83.9739063,25 L85.1160938,25 L85.1160938,20.3648438 C85.1160938,18.6847656 84.1598438,17.7152344 82.6457813,17.7152344 C81.5500782,17.7152344 80.7996875,18.1800781 80.4410938,18.9703125 L80.3348438,18.9703125 L80.3348438,14.9992187 L79.1926563,14.9992187 L79.1926563,25 L80.3348438,25 Z M87.4709063,16.3871094 C87.9091875,16.3871094 88.2677813,16.0285156 88.2677813,15.5902344 C88.2677813,15.1519531 87.9091875,14.7933594 87.4709063,14.7933594 C87.032625,14.7933594 86.6740313,15.1519531 86.6740313,15.5902344 C86.6740313,16.0285156 87.032625,16.3871094 87.4709063,16.3871094 Z M88.042,25 L88.042,17.8414063 L86.8998125,17.8414063 L86.8998125,25 L88.042,25 Z M92.3491563,25.1261719 C93.9761094,25.1261719 95.2179063,24.2429688 95.2179063,22.9613281 C95.2179063,21.9320312 94.567125,21.3476562 93.2190782,21.0222656 L92.1167344,20.7566406 C91.273375,20.5507812 90.8749375,20.2453125 90.8749375,19.7539062 C90.8749375,19.1164062 91.539,18.6847656 92.389,18.6847656 C93.2522813,18.6847656 93.8100938,19.0632813 93.9628282,19.634375 L95.0917344,19.634375 C94.939,18.4589844 93.8964219,17.7152344 92.3956407,17.7152344 C90.8749375,17.7152344 89.7261094,18.6117187 89.7261094,19.8003906 C89.7261094,20.8363281 90.3370469,21.4140625 91.6784532,21.7394531 L92.9069688,22.0382812 C93.6706407,22.2242188 94.0425157,22.55625 94.0425157,23.0476563 C94.0425157,23.7050781 93.3518907,24.1632812 92.389,24.1632812 C91.4725938,24.1632812 90.9015,23.778125 90.7089219,23.1738281 L89.5335313,23.1738281 C89.6597032,24.3625 90.7554063,25.1261719 92.3491563,25.1261719 Z M100.790813,16.3871094 C101.229094,16.3871094 101.587688,16.0285156 101.587688,15.5902344 C101.587688,15.1519531 101.229094,14.7933594 100.790813,14.7933594 C100.352531,14.7933594 99.9939375,15.1519531 99.9939375,15.5902344 C99.9939375,16.0285156 100.352531,16.3871094 100.790813,16.3871094 Z M101.361906,25 L101.361906,17.8414063 L100.219719,17.8414063 L100.219719,25 L101.361906,25 Z M105.669063,25.1261719 C107.296016,25.1261719 108.537813,24.2429688 108.537813,22.9613281 C108.537813,21.9320312 107.887031,21.3476562 106.538984,21.0222656 L105.436641,20.7566406 C104.593281,20.5507812 104.194844,20.2453125 104.194844,19.7539062 C104.194844,19.1164062 104.858906,18.6847656 105.708906,18.6847656 C106.572188,18.6847656 107.13,19.0632813 107.282734,19.634375 L108.411641,19.634375 C108.258906,18.4589844 107.216328,17.7152344 105.715547,17.7152344 C104.194844,17.7152344 103.046016,18.6117187 103.046016,19.8003906 C103.046016,20.8363281 103.656953,21.4140625 104.998359,21.7394531 L106.226875,22.0382812 C106.990547,22.2242188 107.362422,22.55625 107.362422,23.0476563 C107.362422,23.7050781 106.671797,24.1632812 105.708906,24.1632812 C104.7925,24.1632812 104.221406,23.778125 104.028828,23.1738281 L102.853438,23.1738281 C102.979609,24.3625 104.075313,25.1261719 105.669063,25.1261719 Z M115.50525,25.1261719 C116.4615,25.1261719 117.245094,24.7078125 117.709938,23.9441406 L117.816188,23.9441406 L117.816188,25 L118.90525,25 L118.90525,20.0992188 C118.90525,18.6117187 117.929078,17.7152344 116.182594,17.7152344 C114.65525,17.7152344 113.526344,18.4722656 113.373609,19.6210938 L114.529078,19.6210938 C114.688453,19.0566406 115.286109,18.73125 116.14275,18.73125 C117.211891,18.73125 117.763063,19.2160156 117.763063,20.0992188 L117.763063,20.75 L115.697828,20.8761719 C114.031031,20.9757812 113.088063,21.7128906 113.088063,22.9945312 C113.088063,24.3027344 114.117359,25.1261719 115.50525,25.1261719 Z M115.71775,24.1234375 C114.887672,24.1234375 114.270094,23.6984375 114.270094,22.9679687 C114.270094,22.2507813 114.748219,21.8722656 115.837281,21.7992187 L117.763063,21.6730469 L117.763063,22.3304687 C117.763063,23.353125 116.893141,24.1234375 115.71775,24.1234375 Z M125.341438,25 L125.341438,20.5640625 C125.341438,19.5546875 126.131672,18.8242188 127.220734,18.8242188 C127.446516,18.8242188 127.858234,18.8640625 127.951203,18.890625 L127.951203,17.7484375 C127.805109,17.7285156 127.566047,17.7152344 127.380109,17.7152344 C126.4305,17.7152344 125.607063,18.2066406 125.394563,18.9039063 L125.288313,18.9039063 L125.288313,17.8414063 L124.19925,17.8414063 L124.19925,25 L125.341438,25 Z M131.720469,25.1261719 C133.287656,25.1261719 134.39,24.3757813 134.735313,23.1472656 L133.593125,23.1472656 C133.294297,23.778125 132.670078,24.1167969 131.747031,24.1167969 C130.531797,24.1167969 129.741563,23.2203125 129.681797,21.8058594 L129.681797,21.7527344 L134.828281,21.7527344 L134.828281,21.3144531 C134.828281,19.0898438 133.652891,17.7152344 131.720469,17.7152344 C129.754844,17.7152344 128.493125,19.1761719 128.493125,21.4273438 C128.493125,23.6917969 129.734922,25.1261719 131.720469,25.1261719 Z M133.626328,20.8296875 L129.681797,20.8296875 C129.768125,19.5613281 130.565,18.7246094 131.707188,18.7246094 C132.842734,18.7246094 133.599766,19.5613281 133.626328,20.8296875 Z M137.435438,25 L137.435438,20.5640625 C137.435438,19.5546875 138.159266,18.7445312 139.095594,18.7445312 C139.998719,18.7445312 140.589734,19.2890625 140.589734,20.1390625 L140.589734,25 L141.731922,25 L141.731922,20.3980469 C141.731922,19.4882812 142.395984,18.7445312 143.392078,18.7445312 C144.401453,18.7445312 144.8995,19.2625 144.8995,20.3183594 L144.8995,25 L146.041688,25 L146.041688,20.0527344 C146.041688,18.5519531 145.224891,17.7152344 143.763953,17.7152344 C142.7745,17.7152344 141.957703,18.2132812 141.572547,18.9703125 L141.466297,18.9703125 C141.134266,18.2265625 140.456922,17.7152344 139.487391,17.7152344 C138.531141,17.7152344 137.813953,18.1734375 137.488563,18.9703125 L137.382313,18.9703125 L137.382313,17.8414063 L136.29325,17.8414063 L136.29325,25 L137.435438,25 Z M148.3965,16.3871094 C148.834781,16.3871094 149.193375,16.0285156 149.193375,15.5902344 C149.193375,15.1519531 148.834781,14.7933594 148.3965,14.7933594 C147.958219,14.7933594 147.599625,15.1519531 147.599625,15.5902344 C147.599625,16.0285156 147.958219,16.3871094 148.3965,16.3871094 Z M148.967594,25 L148.967594,17.8414063 L147.825406,17.8414063 L147.825406,25 L148.967594,25 Z M151.959906,25 L151.959906,20.7632813 C151.959906,19.5082031 152.697016,18.7445312 153.839203,18.7445312 C154.981391,18.7445312 155.525922,19.3554688 155.525922,20.64375 L155.525922,25 L156.668109,25 L156.668109,20.3648438 C156.668109,18.6648438 155.771625,17.7152344 154.164594,17.7152344 C153.068891,17.7152344 152.371625,18.1800781 152.013031,18.9703125 L151.906781,18.9703125 L151.906781,17.8414063 L150.817719,17.8414063 L150.817719,25 L151.959906,25 Z M161.074875,25.1261719 C162.064328,25.1261719 162.914328,24.6546875 163.365891,23.8578125 L163.472141,23.8578125 L163.472141,25 L164.561203,25 L164.561203,14.9992187 L163.419016,14.9992187 L163.419016,18.9703125 L163.319406,18.9703125 C162.914328,18.1867187 162.070969,17.7152344 161.074875,17.7152344 C159.255344,17.7152344 158.066672,19.1761719 158.066672,21.4207031 C158.066672,23.671875 159.242063,25.1261719 161.074875,25.1261719 Z M161.3405,24.096875 C160.032297,24.096875 159.248703,23.0941406 159.248703,21.4207031 C159.248703,19.7539062 160.038938,18.7445312 161.3405,18.7445312 C162.635422,18.7445312 163.445578,19.7804687 163.445578,21.4207031 C163.445578,23.0742188 162.642063,24.096875 161.3405,24.096875 Z M169.319922,25.1261719 C170.887109,25.1261719 171.989453,24.3757813 172.334766,23.1472656 L171.192578,23.1472656 C170.89375,23.778125 170.269531,24.1167969 169.346484,24.1167969 C168.13125,24.1167969 167.341016,23.2203125 167.28125,21.8058594 L167.28125,21.7527344 L172.427734,21.7527344 L172.427734,21.3144531 C172.427734,19.0898438 171.252344,17.7152344 169.319922,17.7152344 C167.354297,17.7152344 166.092578,19.1761719 166.092578,21.4273438 C166.092578,23.6917969 167.334375,25.1261719 169.319922,25.1261719 Z M171.225781,20.8296875 L167.28125,20.8296875 C167.367578,19.5613281 168.164453,18.7246094 169.306641,18.7246094 C170.442188,18.7246094 171.199219,19.5613281 171.225781,20.8296875 Z M175.034891,25 L175.034891,20.5640625 C175.034891,19.5546875 175.825125,18.8242188 176.914188,18.8242188 C177.139969,18.8242188 177.551688,18.8640625 177.644656,18.890625 L177.644656,17.7484375 C177.498563,17.7285156 177.2595,17.7152344 177.073563,17.7152344 C176.123953,17.7152344 175.300516,18.2066406 175.088016,18.9039063 L174.981766,18.9039063 L174.981766,17.8414063 L173.892703,17.8414063 L173.892703,25 L175.034891,25 Z M19.0679687,41.1261719 C20.0242187,41.1261719 20.8078125,40.7078125 21.2726563,39.9441406 L21.3789062,39.9441406 L21.3789062,41 L22.4679688,41 L22.4679688,36.0992188 C22.4679688,34.6117187 21.4917969,33.7152344 19.7453125,33.7152344 C18.2179688,33.7152344 17.0890625,34.4722656 16.9363281,35.6210938 L18.0917969,35.6210938 C18.2511719,35.0566406 18.8488281,34.73125 19.7054688,34.73125 C20.7746094,34.73125 21.3257812,35.2160156 21.3257812,36.0992188 L21.3257812,36.75 L19.2605469,36.8761719 C17.59375,36.9757812 16.6507813,37.7128906 16.6507813,38.9945312 C16.6507813,40.3027344 17.6800781,41.1261719 19.0679687,41.1261719 Z M19.2804688,40.1234375 C18.4503906,40.1234375 17.8328125,39.6984375 17.8328125,38.9679687 C17.8328125,38.2507813 18.3109375,37.8722656 19.4,37.7992187 L21.3257812,37.6730469 L21.3257812,38.3304687 C21.3257812,39.353125 20.4558594,40.1234375 19.2804688,40.1234375 Z M27.8110625,41.1261719 C29.6239531,41.1261719 30.812625,39.6585937 30.812625,37.4207031 C30.812625,35.1695313 29.6305938,33.7152344 27.8110625,33.7152344 C26.82825,33.7152344 25.9583281,34.2 25.5665313,34.9703125 L25.4602813,34.9703125 L25.4602813,30.9992187 L24.3180938,30.9992187 L24.3180938,41 L25.4071563,41 L25.4071563,39.8578125 L25.5134063,39.8578125 C25.9649688,40.6546875 26.8149688,41.1261719 27.8110625,41.1261719 Z M27.5454375,40.096875 C26.243875,40.096875 25.4337188,39.0742188 25.4337188,37.4207031 C25.4337188,35.7671875 26.243875,34.7445312 27.5454375,34.7445312 C28.8536406,34.7445312 29.6305938,35.7472656 29.6305938,37.4207031 C29.6305938,39.0941406 28.8536406,40.096875 27.5454375,40.096875 Z M35.2193906,41.1261719 C37.2580625,41.1261719 38.5197813,39.7183594 38.5197813,37.4207031 C38.5197813,35.1164062 37.2580625,33.7152344 35.2193906,33.7152344 C33.1807188,33.7152344 31.919,35.1164062 31.919,37.4207031 C31.919,39.7183594 33.1807188,41.1261719 35.2193906,41.1261719 Z M35.2193906,40.096875 C33.8647031,40.096875 33.1010313,39.1140625 33.1010313,37.4207031 C33.1010313,35.7207031 33.8647031,34.7445312 35.2193906,34.7445312 C36.5740781,34.7445312 37.33775,35.7207031 37.33775,37.4207031 C37.33775,39.1140625 36.5740781,40.096875 35.2193906,40.096875 Z M42.3620938,41.1261719 C43.4577969,41.1261719 44.2214688,40.6746094 44.5800625,39.8777344 L44.6863125,39.8777344 L44.6863125,41 L45.775375,41 L45.775375,33.8414063 L44.6331875,33.8414063 L44.6331875,38.078125 C44.6331875,39.3332031 43.9425625,40.0835938 42.6808438,40.0835938 C41.5386563,40.0835938 41.0605313,39.4859375 41.0605313,38.1976562 L41.0605313,33.8414063 L39.9183438,33.8414063 L39.9183438,38.4765625 C39.9183438,40.1699219 40.7550625,41.1261719 42.3620938,41.1261719 Z M50.1422969,41.053125 C50.3680781,41.053125 50.5872188,41.0265625 50.813,40.9867187 L50.813,40.0238281 C50.6005,40.04375 50.4876094,40.0503906 50.28175,40.0503906 C49.538,40.0503906 49.21925,39.6917969 49.21925,38.8484375 L49.21925,34.7976563 L50.813,34.7976563 L50.813,33.8414063 L49.21925,33.8414063 L49.21925,31.9886719 L48.0770625,31.9886719 L48.0770625,33.8414063 L46.9215938,33.8414063 L46.9215938,34.7976563 L48.0770625,34.7976563 L48.0770625,39.140625 C48.0770625,40.5085938 48.6680781,41.053125 50.1422969,41.053125 Z M56.3327813,43.5898438 C57.6011406,43.5898438 58.1722344,43.0984375 58.7831719,41.4382813 L61.578875,33.8414063 L60.3636406,33.8414063 L58.4046563,39.7316406 L58.2984063,39.7316406 L56.3327813,33.8414063 L55.097625,33.8414063 L57.7472344,41.0066406 L57.6144219,41.4316406 C57.3155938,42.2949219 56.957,42.6070313 56.2995781,42.6070313 C56.1402031,42.6070313 55.9609063,42.6003906 55.8214531,42.5738281 L55.8214531,43.55 C55.9808281,43.5765625 56.1800469,43.5898438 56.3327813,43.5898438 Z M65.4543906,41.1261719 C67.4930625,41.1261719 68.7547813,39.7183594 68.7547813,37.4207031 C68.7547813,35.1164062 67.4930625,33.7152344 65.4543906,33.7152344 C63.4157188,33.7152344 62.154,35.1164062 62.154,37.4207031 C62.154,39.7183594 63.4157188,41.1261719 65.4543906,41.1261719 Z M65.4543906,40.096875 C64.0997031,40.096875 63.3360313,39.1140625 63.3360313,37.4207031 C63.3360313,35.7207031 64.0997031,34.7445312 65.4543906,34.7445312 C66.8090781,34.7445312 67.57275,35.7207031 67.57275,37.4207031 C67.57275,39.1140625 66.8090781,40.096875 65.4543906,40.096875 Z M72.5970938,41.1261719 C73.6927969,41.1261719 74.4564688,40.6746094 74.8150625,39.8777344 L74.9213125,39.8777344 L74.9213125,41 L76.010375,41 L76.010375,33.8414063 L74.8681875,33.8414063 L74.8681875,38.078125 C74.8681875,39.3332031 74.1775625,40.0835938 72.9158438,40.0835938 C71.7736563,40.0835938 71.2955313,39.4859375 71.2955313,38.1976562 L71.2955313,33.8414063 L70.1533438,33.8414063 L70.1533438,38.4765625 C70.1533438,40.1699219 70.9900625,41.1261719 72.5970938,41.1261719 Z M78.976125,41 L78.976125,36.5640625 C78.976125,35.5546875 79.7663594,34.8242188 80.8554219,34.8242188 C81.0812032,34.8242188 81.4929219,34.8640625 81.5858907,34.890625 L81.5858907,33.7484375 C81.4397969,33.7285156 81.2007344,33.7152344 81.0147969,33.7152344 C80.0651875,33.7152344 79.24175,34.2066406 79.02925,34.9039063 L78.923,34.9039063 L78.923,33.8414063 L77.8339375,33.8414063 L77.8339375,41 L78.976125,41 Z M88.1880938,41.1261719 C89.1443438,41.1261719 89.9279375,40.7078125 90.3927813,39.9441406 L90.4990313,39.9441406 L90.4990313,41 L91.5880938,41 L91.5880938,36.0992188 C91.5880938,34.6117187 90.6119219,33.7152344 88.8654375,33.7152344 C87.3380938,33.7152344 86.2091875,34.4722656 86.0564532,35.6210938 L87.2119219,35.6210938 C87.3712969,35.0566406 87.9689532,34.73125 88.8255938,34.73125 C89.8947344,34.73125 90.4459063,35.2160156 90.4459063,36.0992188 L90.4459063,36.75 L88.3806719,36.8761719 C86.713875,36.9757812 85.7709063,37.7128906 85.7709063,38.9945312 C85.7709063,40.3027344 86.8002032,41.1261719 88.1880938,41.1261719 Z M88.4005938,40.1234375 C87.5705157,40.1234375 86.9529375,39.6984375 86.9529375,38.9679687 C86.9529375,38.2507813 87.4310625,37.8722656 88.520125,37.7992187 L90.4459063,37.6730469 L90.4459063,38.3304687 C90.4459063,39.353125 89.5759844,40.1234375 88.4005938,40.1234375 Z M94.514,43.390625 L94.514,39.9242187 L94.62025,39.9242187 C95.0120469,40.68125 95.8354844,41.1261719 96.8581407,41.1261719 C98.6776719,41.1261719 99.8663438,39.6585937 99.8663438,37.4207031 C99.8663438,35.1695313 98.6843125,33.7152344 96.8581407,33.7152344 C95.8819688,33.7152344 95.0253282,34.2132812 94.567125,35.0367188 L94.460875,35.0367188 L94.460875,33.8414063 L93.3718125,33.8414063 L93.3718125,43.390625 L94.514,43.390625 Z M96.585875,40.096875 C95.2975938,40.096875 94.4807969,39.0609375 94.4807969,37.4207031 C94.4807969,35.7738281 95.2975938,34.7445312 96.5925157,34.7445312 C97.9007188,34.7445312 98.6843125,35.7472656 98.6843125,37.4207031 C98.6843125,39.0941406 97.9007188,40.096875 96.585875,40.096875 Z M102.4735,43.390625 L102.4735,39.9242187 L102.57975,39.9242187 C102.971547,40.68125 103.794984,41.1261719 104.817641,41.1261719 C106.637172,41.1261719 107.825844,39.6585937 107.825844,37.4207031 C107.825844,35.1695313 106.643813,33.7152344 104.817641,33.7152344 C103.841469,33.7152344 102.984828,34.2132812 102.526625,35.0367188 L102.420375,35.0367188 L102.420375,33.8414063 L101.331313,33.8414063 L101.331313,43.390625 L102.4735,43.390625 Z M104.545375,40.096875 C103.257094,40.096875 102.440297,39.0609375 102.440297,37.4207031 C102.440297,35.7738281 103.257094,34.7445312 104.552016,34.7445312 C105.860219,34.7445312 106.643813,35.7472656 106.643813,37.4207031 C106.643813,39.0941406 105.860219,40.096875 104.545375,40.096875 Z M112.232609,41.1261719 C114.271281,41.1261719 115.533,39.7183594 115.533,37.4207031 C115.533,35.1164062 114.271281,33.7152344 112.232609,33.7152344 C110.193938,33.7152344 108.932219,35.1164062 108.932219,37.4207031 C108.932219,39.7183594 110.193938,41.1261719 112.232609,41.1261719 Z M112.232609,40.096875 C110.877922,40.096875 110.11425,39.1140625 110.11425,37.4207031 C110.11425,35.7207031 110.877922,34.7445312 112.232609,34.7445312 C113.587297,34.7445312 114.350969,35.7207031 114.350969,37.4207031 C114.350969,39.1140625 113.587297,40.096875 112.232609,40.096875 Z M117.595625,32.3871094 C118.033906,32.3871094 118.3925,32.0285156 118.3925,31.5902344 C118.3925,31.1519531 118.033906,30.7933594 117.595625,30.7933594 C117.157344,30.7933594 116.79875,31.1519531 116.79875,31.5902344 C116.79875,32.0285156 117.157344,32.3871094 117.595625,32.3871094 Z M118.166719,41 L118.166719,33.8414063 L117.024531,33.8414063 L117.024531,41 L118.166719,41 Z M121.159031,41 L121.159031,36.7632813 C121.159031,35.5082031 121.896141,34.7445312 123.038328,34.7445312 C124.180516,34.7445312 124.725047,35.3554688 124.725047,36.64375 L124.725047,41 L125.867234,41 L125.867234,36.3648438 C125.867234,34.6648438 124.97075,33.7152344 123.363719,33.7152344 C122.268016,33.7152344 121.57075,34.1800781 121.212156,34.9703125 L121.105906,34.9703125 L121.105906,33.8414063 L120.016844,33.8414063 L120.016844,41 L121.159031,41 Z M130.16775,41.053125 C130.393531,41.053125 130.612672,41.0265625 130.838453,40.9867187 L130.838453,40.0238281 C130.625953,40.04375 130.513063,40.0503906 130.307203,40.0503906 C129.563453,40.0503906 129.244703,39.6917969 129.244703,38.8484375 L129.244703,34.7976563 L130.838453,34.7976563 L130.838453,33.8414063 L129.244703,33.8414063 L129.244703,31.9886719 L128.102516,31.9886719 L128.102516,33.8414063 L126.947047,33.8414063 L126.947047,34.7976563 L128.102516,34.7976563 L128.102516,39.140625 C128.102516,40.5085938 128.693531,41.053125 130.16775,41.053125 Z M133.379203,41 L133.379203,36.5640625 C133.379203,35.5546875 134.103031,34.7445312 135.039359,34.7445312 C135.942484,34.7445312 136.5335,35.2890625 136.5335,36.1390625 L136.5335,41 L137.675688,41 L137.675688,36.3980469 C137.675688,35.4882812 138.33975,34.7445312 139.335844,34.7445312 C140.345219,34.7445312 140.843266,35.2625 140.843266,36.3183594 L140.843266,41 L141.985453,41 L141.985453,36.0527344 C141.985453,34.5519531 141.168656,33.7152344 139.707719,33.7152344 C138.718266,33.7152344 137.901469,34.2132812 137.516313,34.9703125 L137.410063,34.9703125 C137.078031,34.2265625 136.400688,33.7152344 135.431156,33.7152344 C134.474906,33.7152344 133.757719,34.1734375 133.432328,34.9703125 L133.326078,34.9703125 L133.326078,33.8414063 L132.237016,33.8414063 L132.237016,41 L133.379203,41 Z M146.611359,41.1261719 C148.178547,41.1261719 149.280891,40.3757813 149.626203,39.1472656 L148.484016,39.1472656 C148.185188,39.778125 147.560969,40.1167969 146.637922,40.1167969 C145.422688,40.1167969 144.632453,39.2203125 144.572688,37.8058594 L144.572688,37.7527344 L149.719172,37.7527344 L149.719172,37.3144531 C149.719172,35.0898438 148.543781,33.7152344 146.611359,33.7152344 C144.645734,33.7152344 143.384016,35.1761719 143.384016,37.4273438 C143.384016,39.6917969 144.625813,41.1261719 146.611359,41.1261719 Z M148.517219,36.8296875 L144.572688,36.8296875 C144.659016,35.5613281 145.455891,34.7246094 146.598078,34.7246094 C147.733625,34.7246094 148.490656,35.5613281 148.517219,36.8296875 Z M152.326328,41 L152.326328,36.7632813 C152.326328,35.5082031 153.063438,34.7445312 154.205625,34.7445312 C155.347813,34.7445312 155.892344,35.3554688 155.892344,36.64375 L155.892344,41 L157.034531,41 L157.034531,36.3648438 C157.034531,34.6648438 156.138047,33.7152344 154.531016,33.7152344 C153.435313,33.7152344 152.738047,34.1800781 152.379453,34.9703125 L152.273203,34.9703125 L152.273203,33.8414063 L151.184141,33.8414063 L151.184141,41 L152.326328,41 Z M161.335047,41.053125 C161.560828,41.053125 161.779969,41.0265625 162.00575,40.9867187 L162.00575,40.0238281 C161.79325,40.04375 161.680359,40.0503906 161.4745,40.0503906 C160.73075,40.0503906 160.412,39.6917969 160.412,38.8484375 L160.412,34.7976563 L162.00575,34.7976563 L162.00575,33.8414063 L160.412,33.8414063 L160.412,31.9886719 L159.269813,31.9886719 L159.269813,33.8414063 L158.114344,33.8414063 L158.114344,34.7976563 L159.269813,34.7976563 L159.269813,39.140625 C159.269813,40.5085938 159.860828,41.053125 161.335047,41.053125 Z M19.6191406,57.053125 C19.8449219,57.053125 20.0640625,57.0265625 20.2898437,56.9867188 L20.2898437,56.0238281 C20.0773438,56.04375 19.9644531,56.0503906 19.7585937,56.0503906 C19.0148438,56.0503906 18.6960937,55.6917969 18.6960937,54.8484375 L18.6960937,50.7976563 L20.2898437,50.7976563 L20.2898437,49.8414063 L18.6960937,49.8414063 L18.6960937,47.9886719 L17.5539063,47.9886719 L17.5539063,49.8414063 L16.3984375,49.8414063 L16.3984375,50.7976563 L17.5539063,50.7976563 L17.5539063,55.140625 C17.5539063,56.5085938 18.1449219,57.053125 19.6191406,57.053125 Z M24.5305938,57.1261719 C26.5692656,57.1261719 27.8309844,55.7183594 27.8309844,53.4207031 C27.8309844,51.1164062 26.5692656,49.7152344 24.5305938,49.7152344 C22.4919219,49.7152344 21.2302031,51.1164062 21.2302031,53.4207031 C21.2302031,55.7183594 22.4919219,57.1261719 24.5305938,57.1261719 Z M24.5305938,56.096875 C23.1759063,56.096875 22.4122344,55.1140625 22.4122344,53.4207031 C22.4122344,51.7207031 23.1759063,50.7445313 24.5305938,50.7445313 C25.8852813,50.7445313 26.6489531,51.7207031 26.6489531,53.4207031 C26.6489531,55.1140625 25.8852813,56.096875 24.5305938,56.096875 Z M30.4381406,57 L30.4381406,52.5640625 C30.4381406,51.5546875 31.1619688,50.7445313 32.0982969,50.7445313 C33.0014219,50.7445313 33.5924375,51.2890625 33.5924375,52.1390625 L33.5924375,57 L34.734625,57 L34.734625,52.3980469 C34.734625,51.4882812 35.3986875,50.7445313 36.3947813,50.7445313 C37.4041563,50.7445313 37.9022031,51.2625 37.9022031,52.3183594 L37.9022031,57 L39.0443906,57 L39.0443906,52.0527344 C39.0443906,50.5519531 38.2275938,49.7152344 36.7666563,49.7152344 C35.7772031,49.7152344 34.9604063,50.2132813 34.57525,50.9703125 L34.469,50.9703125 C34.1369688,50.2265625 33.459625,49.7152344 32.4900938,49.7152344 C31.5338438,49.7152344 30.8166563,50.1734375 30.4912656,50.9703125 L30.3850156,50.9703125 L30.3850156,49.8414063 L29.2959531,49.8414063 L29.2959531,57 L30.4381406,57 Z M41.9437344,57 L41.9437344,52.5640625 C41.9437344,51.5546875 42.6675625,50.7445313 43.6038906,50.7445313 C44.5070156,50.7445313 45.0980313,51.2890625 45.0980313,52.1390625 L45.0980313,57 L46.2402188,57 L46.2402188,52.3980469 C46.2402188,51.4882812 46.9042813,50.7445313 47.900375,50.7445313 C48.90975,50.7445313 49.4077969,51.2625 49.4077969,52.3183594 L49.4077969,57 L50.5499844,57 L50.5499844,52.0527344 C50.5499844,50.5519531 49.7331875,49.7152344 48.27225,49.7152344 C47.2827969,49.7152344 46.466,50.2132813 46.0808438,50.9703125 L45.9745938,50.9703125 C45.6425625,50.2265625 44.9652188,49.7152344 43.9956875,49.7152344 C43.0394375,49.7152344 42.32225,50.1734375 41.9968594,50.9703125 L41.8906094,50.9703125 L41.8906094,49.8414063 L40.8015469,49.8414063 L40.8015469,57 L41.9437344,57 Z M55.2489375,57.1261719 C57.2876094,57.1261719 58.5493281,55.7183594 58.5493281,53.4207031 C58.5493281,51.1164062 57.2876094,49.7152344 55.2489375,49.7152344 C53.2102656,49.7152344 51.9485469,51.1164062 51.9485469,53.4207031 C51.9485469,55.7183594 53.2102656,57.1261719 55.2489375,57.1261719 Z M55.2489375,56.096875 C53.89425,56.096875 53.1305781,55.1140625 53.1305781,53.4207031 C53.1305781,51.7207031 53.89425,50.7445313 55.2489375,50.7445313 C56.603625,50.7445313 57.3672969,51.7207031 57.3672969,53.4207031 C57.3672969,55.1140625 56.603625,56.096875 55.2489375,56.096875 Z M61.1564844,57 L61.1564844,52.5640625 C61.1564844,51.5546875 61.9467188,50.8242188 63.0357813,50.8242188 C63.2615625,50.8242188 63.6732813,50.8640625 63.76625,50.890625 L63.76625,49.7484375 C63.6201563,49.7285156 63.3810938,49.7152344 63.1951563,49.7152344 C62.2455469,49.7152344 61.4221094,50.2066406 61.2096094,50.9039062 L61.1033594,50.9039062 L61.1033594,49.8414063 L60.0142969,49.8414063 L60.0142969,57 L61.1564844,57 Z M67.6085625,57.1261719 C69.6472344,57.1261719 70.9089531,55.7183594 70.9089531,53.4207031 C70.9089531,51.1164062 69.6472344,49.7152344 67.6085625,49.7152344 C65.5698906,49.7152344 64.3081719,51.1164062 64.3081719,53.4207031 C64.3081719,55.7183594 65.5698906,57.1261719 67.6085625,57.1261719 Z M67.6085625,56.096875 C66.253875,56.096875 65.4902031,55.1140625 65.4902031,53.4207031 C65.4902031,51.7207031 66.253875,50.7445313 67.6085625,50.7445313 C68.96325,50.7445313 69.7269219,51.7207031 69.7269219,53.4207031 C69.7269219,55.1140625 68.96325,56.096875 67.6085625,56.096875 Z M74.6450156,57 L76.2387656,51.4617188 L76.3450156,51.4617188 L77.9454063,57 L79.1075156,57 L81.1129844,49.8414063 L79.9641563,49.8414063 L78.5563438,55.565625 L78.4500938,55.565625 L76.8497031,49.8414063 L75.754,49.8414063 L74.1536094,55.565625 L74.0473594,55.565625 L72.6395469,49.8414063 L71.4840781,49.8414063 L73.4895469,57 L74.6450156,57 Z M87.4429219,57 L87.4429219,50.7976563 L89.0831563,50.7976563 L89.0831563,49.8414063 L87.4429219,49.8414063 L87.4429219,49.1773438 C87.4429219,48.3738281 87.8280782,48.0285156 88.5120625,48.0285156 C88.7378438,48.0285156 88.9968282,48.0550781 89.1495625,48.0882812 L89.1495625,47.1320312 C88.8706563,47.0855469 88.6714375,47.065625 88.4456563,47.065625 C87.0644063,47.065625 86.3007344,47.6765625 86.3007344,49.1441406 L86.3007344,49.8414063 L85.1120625,49.8414063 L85.1120625,50.7976563 L86.3007344,50.7976563 L86.3007344,57 L87.4429219,57 Z M93.0582813,57.1261719 C95.0969532,57.1261719 96.3586719,55.7183594 96.3586719,53.4207031 C96.3586719,51.1164062 95.0969532,49.7152344 93.0582813,49.7152344 C91.0196094,49.7152344 89.7578907,51.1164062 89.7578907,53.4207031 C89.7578907,55.7183594 91.0196094,57.1261719 93.0582813,57.1261719 Z M93.0582813,56.096875 C91.7035938,56.096875 90.9399219,55.1140625 90.9399219,53.4207031 C90.9399219,51.7207031 91.7035938,50.7445313 93.0582813,50.7445313 C94.4129688,50.7445313 95.1766407,51.7207031 95.1766407,53.4207031 C95.1766407,55.1140625 94.4129688,56.096875 93.0582813,56.096875 Z M98.9658282,57 L98.9658282,52.5640625 C98.9658282,51.5546875 99.7560625,50.8242188 100.845125,50.8242188 C101.070906,50.8242188 101.482625,50.8640625 101.575594,50.890625 L101.575594,49.7484375 C101.4295,49.7285156 101.190438,49.7152344 101.0045,49.7152344 C100.054891,49.7152344 99.2314532,50.2066406 99.0189532,50.9039062 L98.9127032,50.9039062 L98.9127032,49.8414063 L97.8236407,49.8414063 L97.8236407,57 L98.9658282,57 Z M107.527016,57 L107.527016,52.6371094 L112.786391,52.6371094 L112.786391,57 L113.981703,57 L113.981703,47.4175781 L112.786391,47.4175781 L112.786391,51.5613281 L107.527016,51.5613281 L107.527016,47.4175781 L106.331703,47.4175781 L106.331703,57 L107.527016,57 Z M118.893156,57.1261719 C120.931828,57.1261719 122.193547,55.7183594 122.193547,53.4207031 C122.193547,51.1164062 120.931828,49.7152344 118.893156,49.7152344 C116.854484,49.7152344 115.592766,51.1164062 115.592766,53.4207031 C115.592766,55.7183594 116.854484,57.1261719 118.893156,57.1261719 Z M118.893156,56.096875 C117.538469,56.096875 116.774797,55.1140625 116.774797,53.4207031 C116.774797,51.7207031 117.538469,50.7445313 118.893156,50.7445313 C120.247844,50.7445313 121.011516,51.7207031 121.011516,53.4207031 C121.011516,55.1140625 120.247844,56.096875 118.893156,56.096875 Z M124.800703,57 L124.800703,52.5640625 C124.800703,51.5546875 125.524531,50.7445313 126.460859,50.7445313 C127.363984,50.7445313 127.955,51.2890625 127.955,52.1390625 L127.955,57 L129.097188,57 L129.097188,52.3980469 C129.097188,51.4882812 129.76125,50.7445313 130.757344,50.7445313 C131.766719,50.7445313 132.264766,51.2625 132.264766,52.3183594 L132.264766,57 L133.406953,57 L133.406953,52.0527344 C133.406953,50.5519531 132.590156,49.7152344 131.129219,49.7152344 C130.139766,49.7152344 129.322969,50.2132813 128.937813,50.9703125 L128.831563,50.9703125 C128.499531,50.2265625 127.822188,49.7152344 126.852656,49.7152344 C125.896406,49.7152344 125.179219,50.1734375 124.853828,50.9703125 L124.747578,50.9703125 L124.747578,49.8414063 L123.658516,49.8414063 L123.658516,57 L124.800703,57 Z M138.032859,57.1261719 C139.600047,57.1261719 140.702391,56.3757813 141.047703,55.1472656 L139.905516,55.1472656 C139.606688,55.778125 138.982469,56.1167969 138.059422,56.1167969 C136.844188,56.1167969 136.053953,55.2203125 135.994188,53.8058594 L135.994188,53.7527344 L141.140672,53.7527344 L141.140672,53.3144531 C141.140672,51.0898438 139.965281,49.7152344 138.032859,49.7152344 C136.067234,49.7152344 134.805516,51.1761719 134.805516,53.4273437 C134.805516,55.6917969 136.047313,57.1261719 138.032859,57.1261719 Z M139.938719,52.8296875 L135.994188,52.8296875 C136.080516,51.5613281 136.877391,50.7246094 138.019578,50.7246094 C139.155125,50.7246094 139.912156,51.5613281 139.938719,52.8296875 Z M150.120219,57.2257812 C152.158891,57.2257812 153.672953,56.0902344 153.991703,54.3304688 L152.776469,54.3304688 C152.471,55.4394531 151.454984,56.1234375 150.120219,56.1234375 C148.274125,56.1234375 147.118656,54.6160156 147.118656,52.2121094 C147.118656,49.8082031 148.274125,48.2941406 150.113578,48.2941406 C151.435063,48.2941406 152.457719,49.0710938 152.776469,50.30625 L153.991703,50.30625 C153.706156,48.4601562 152.132328,47.1917969 150.113578,47.1917969 C147.510453,47.1917969 145.890141,49.1175781 145.890141,52.2121094 C145.890141,55.3 147.517094,57.2257812 150.120219,57.2257812 Z M156.731672,57 L156.731672,46.9992187 L155.589484,46.9992187 L155.589484,57 L156.731672,57 Z M161.490391,57.1261719 C163.057578,57.1261719 164.159922,56.3757813 164.505234,55.1472656 L163.363047,55.1472656 C163.064219,55.778125 162.44,56.1167969 161.516953,56.1167969 C160.301719,56.1167969 159.511484,55.2203125 159.451719,53.8058594 L159.451719,53.7527344 L164.598203,53.7527344 L164.598203,53.3144531 C164.598203,51.0898438 163.422813,49.7152344 161.490391,49.7152344 C159.524766,49.7152344 158.263047,51.1761719 158.263047,53.4273437 C158.263047,55.6917969 159.504844,57.1261719 161.490391,57.1261719 Z M163.39625,52.8296875 L159.451719,52.8296875 C159.538047,51.5613281 160.334922,50.7246094 161.477109,50.7246094 C162.612656,50.7246094 163.369688,51.5613281 163.39625,52.8296875 Z M168.055359,57.1261719 C169.011609,57.1261719 169.795203,56.7078125 170.260047,55.9441406 L170.366297,55.9441406 L170.366297,57 L171.455359,57 L171.455359,52.0992187 C171.455359,50.6117188 170.479188,49.7152344 168.732703,49.7152344 C167.205359,49.7152344 166.076453,50.4722656 165.923719,51.6210938 L167.079188,51.6210938 C167.238563,51.0566406 167.836219,50.73125 168.692859,50.73125 C169.762,50.73125 170.313172,51.2160156 170.313172,52.0992187 L170.313172,52.75 L168.247938,52.8761719 C166.581141,52.9757812 165.638172,53.7128906 165.638172,54.9945313 C165.638172,56.3027344 166.667469,57.1261719 168.055359,57.1261719 Z M168.267859,56.1234375 C167.437781,56.1234375 166.820203,55.6984375 166.820203,54.9679687 C166.820203,54.2507813 167.298328,53.8722656 168.387391,53.7992188 L170.313172,53.6730469 L170.313172,54.3304688 C170.313172,55.353125 169.44325,56.1234375 168.267859,56.1234375 Z M174.381266,57 L174.381266,52.7632812 C174.381266,51.5082031 175.118375,50.7445313 176.260563,50.7445313 C177.40275,50.7445313 177.947281,51.3554688 177.947281,52.64375 L177.947281,57 L179.089469,57 L179.089469,52.3648437 C179.089469,50.6648438 178.192984,49.7152344 176.585953,49.7152344 C175.49025,49.7152344 174.792984,50.1800781 174.434391,50.9703125 L174.328141,50.9703125 L174.328141,49.8414063 L173.239078,49.8414063 L173.239078,57 L174.381266,57 Z M181.444281,48.3871094 C181.882563,48.3871094 182.241156,48.0285156 182.241156,47.5902344 C182.241156,47.1519531 181.882563,46.7933594 181.444281,46.7933594 C181.006,46.7933594 180.647406,47.1519531 180.647406,47.5902344 C180.647406,48.0285156 181.006,48.3871094 181.444281,48.3871094 Z M182.015375,57 L182.015375,49.8414063 L180.873188,49.8414063 L180.873188,57 L182.015375,57 Z M185.007688,57 L185.007688,52.7632812 C185.007688,51.5082031 185.744797,50.7445313 186.886984,50.7445313 C188.029172,50.7445313 188.573703,51.3554688 188.573703,52.64375 L188.573703,57 L189.715891,57 L189.715891,52.3648437 C189.715891,50.6648438 188.819406,49.7152344 187.212375,49.7152344 C186.116672,49.7152344 185.419406,50.1800781 185.060813,50.9703125 L184.954563,50.9703125 L184.954563,49.8414063 L183.8655,49.8414063 L183.8655,57 L185.007688,57 Z M194.421484,59.7492187 C196.373828,59.7492187 197.608984,58.7265625 197.608984,57.1261719 L197.608984,49.8414063 L196.519922,49.8414063 L196.519922,50.9769531 L196.413672,50.9769531 C196.001953,50.2066406 195.11875,49.7152344 194.116016,49.7152344 C192.276563,49.7152344 191.114453,51.1695312 191.114453,53.3144531 C191.114453,55.459375 192.263281,56.89375 194.116016,56.89375 C195.098828,56.89375 195.908984,56.4488281 196.360547,55.6585938 L196.466797,55.6585938 L196.466797,57.0664062 C196.466797,58.1222656 195.703125,58.753125 194.421484,58.753125 C193.392188,58.753125 192.754688,58.3746094 192.628516,57.7902344 L191.419922,57.7902344 C191.592578,58.9722656 192.694922,59.7492187 194.421484,59.7492187 Z M194.368359,55.884375 C193.040234,55.884375 192.296484,54.875 192.296484,53.3144531 C192.296484,51.7539062 193.040234,50.7445313 194.368359,50.7445313 C195.689844,50.7445313 196.493359,51.7539062 196.493359,53.3144531 C196.493359,54.875 195.696484,55.884375 194.368359,55.884375 Z M200.375516,57.0664062 C200.853641,57.0664062 201.238797,56.6746094 201.238797,56.203125 C201.238797,55.725 200.853641,55.3398438 200.375516,55.3398438 C199.904031,55.3398438 199.512234,55.725 199.512234,56.203125 C199.512234,56.6746094 199.904031,57.0664062 200.375516,57.0664062 Z M20.3363281,89 L22.5410156,81.4363281 L22.6207031,81.4363281 L24.8253906,89 L25.9542969,89 L28.5640625,79.4175781 L27.315625,79.4175781 L25.4097656,87.2070312 L25.3300781,87.2070312 L23.1851562,79.4175781 L21.9765625,79.4175781 L19.8316406,87.2070312 L19.7519531,87.2070312 L17.8460938,79.4175781 L16.5976562,79.4175781 L19.2074219,89 L20.3363281,89 Z M32.1141875,89.1261719 C33.681375,89.1261719 34.7837188,88.3757813 35.1290313,87.1472656 L33.9868438,87.1472656 C33.6880156,87.778125 33.0637969,88.1167969 32.14075,88.1167969 C30.9255156,88.1167969 30.1352813,87.2203125 30.0755156,85.8058594 L30.0755156,85.7527344 L35.222,85.7527344 L35.222,85.3144531 C35.222,83.0898438 34.0466094,81.7152344 32.1141875,81.7152344 C30.1485625,81.7152344 28.8868438,83.1761719 28.8868438,85.4273438 C28.8868438,87.6917969 30.1286406,89.1261719 32.1141875,89.1261719 Z M34.0200469,84.8296875 L30.0755156,84.8296875 C30.1618438,83.5613281 30.9587188,82.7246094 32.1009063,82.7246094 C33.2364531,82.7246094 33.9934844,83.5613281 34.0200469,84.8296875 Z M42.7339688,89 L44.3277188,83.4617188 L44.4339688,83.4617188 L46.0343594,89 L47.1964688,89 L49.2019375,81.8414063 L48.0531094,81.8414063 L46.6452969,87.565625 L46.5390469,87.565625 L44.9386563,81.8414063 L43.8429531,81.8414063 L42.2425625,87.565625 L42.1363125,87.565625 L40.7285,81.8414063 L39.5730313,81.8414063 L41.5785,89 L42.7339688,89 Z M50.9989375,80.3871094 C51.4372188,80.3871094 51.7958125,80.0285156 51.7958125,79.5902344 C51.7958125,79.1519531 51.4372188,78.7933594 50.9989375,78.7933594 C50.5606563,78.7933594 50.2020625,79.1519531 50.2020625,79.5902344 C50.2020625,80.0285156 50.5606563,80.3871094 50.9989375,80.3871094 Z M51.5700313,89 L51.5700313,81.8414063 L50.4278438,81.8414063 L50.4278438,89 L51.5700313,89 Z M54.62875,89 L54.62875,78.9992188 L53.4865625,78.9992188 L53.4865625,89 L54.62875,89 Z M57.7273125,89 L57.7273125,78.9992188 L56.585125,78.9992188 L56.585125,89 L57.7273125,89 Z M65.11975,89.1261719 C66.076,89.1261719 66.8595938,88.7078125 67.3244375,87.9441406 L67.4306875,87.9441406 L67.4306875,89 L68.51975,89 L68.51975,84.0992188 C68.51975,82.6117187 67.5435781,81.7152344 65.7970938,81.7152344 C64.26975,81.7152344 63.1408438,82.4722656 62.9881094,83.6210938 L64.1435781,83.6210938 C64.3029531,83.0566406 64.9006094,82.73125 65.75725,82.73125 C66.8263906,82.73125 67.3775625,83.2160156 67.3775625,84.0992188 L67.3775625,84.75 L65.3123281,84.8761719 C63.6455313,84.9757812 62.7025625,85.7128906 62.7025625,86.9945312 C62.7025625,88.3027344 63.7318594,89.1261719 65.11975,89.1261719 Z M65.33225,88.1234375 C64.5021719,88.1234375 63.8845938,87.6984375 63.8845938,86.9679687 C63.8845938,86.2507812 64.3627188,85.8722656 65.4517813,85.7992187 L67.3775625,85.6730469 L67.3775625,86.3304687 C67.3775625,87.353125 66.5076406,88.1234375 65.33225,88.1234375 Z M71.4456563,89 L71.4456563,84.5640625 C71.4456563,83.5546875 72.2358907,82.8242188 73.3249532,82.8242188 C73.5507344,82.8242188 73.9624532,82.8640625 74.0554219,82.890625 L74.0554219,81.7484375 C73.9093282,81.7285156 73.6702657,81.7152344 73.4843282,81.7152344 C72.5347188,81.7152344 71.7112813,82.2066406 71.4987813,82.9039063 L71.3925313,82.9039063 L71.3925313,81.8414063 L70.3034688,81.8414063 L70.3034688,89 L71.4456563,89 Z M76.4301563,89 L76.4301563,84.5640625 C76.4301563,83.5546875 77.2203907,82.8242188 78.3094532,82.8242188 C78.5352344,82.8242188 78.9469532,82.8640625 79.0399219,82.890625 L79.0399219,81.7484375 C78.8938282,81.7285156 78.6547657,81.7152344 78.4688282,81.7152344 C77.5192188,81.7152344 76.6957813,82.2066406 76.4832813,82.9039063 L76.3770313,82.9039063 L76.3770313,81.8414063 L75.2879688,81.8414063 L75.2879688,89 L76.4301563,89 Z M80.870125,80.3871094 C81.3084063,80.3871094 81.667,80.0285156 81.667,79.5902344 C81.667,79.1519531 81.3084063,78.7933594 80.870125,78.7933594 C80.4318438,78.7933594 80.07325,79.1519531 80.07325,79.5902344 C80.07325,80.0285156 80.4318438,80.3871094 80.870125,80.3871094 Z M81.4412188,89 L81.4412188,81.8414063 L80.2990313,81.8414063 L80.2990313,89 L81.4412188,89 Z M86.4854844,89 L89.1350938,81.8414063 L87.9132188,81.8414063 L85.9542344,87.7382812 L85.8479844,87.7382812 L83.889,81.8414063 L82.667125,81.8414063 L85.3167344,89 L86.4854844,89 Z M92.9375625,89.1261719 C94.50475,89.1261719 95.6070938,88.3757813 95.9524063,87.1472656 L94.8102188,87.1472656 C94.5113907,87.778125 93.8871719,88.1167969 92.964125,88.1167969 C91.7488907,88.1167969 90.9586563,87.2203125 90.8988907,85.8058594 L90.8988907,85.7527344 L96.045375,85.7527344 L96.045375,85.3144531 C96.045375,83.0898438 94.8699844,81.7152344 92.9375625,81.7152344 C90.9719375,81.7152344 89.7102188,83.1761719 89.7102188,85.4273438 C89.7102188,87.6917969 90.9520157,89.1261719 92.9375625,89.1261719 Z M94.8434219,84.8296875 L90.8988907,84.8296875 C90.9852188,83.5613281 91.7820938,82.7246094 92.9242813,82.7246094 C94.0598282,82.7246094 94.8168594,83.5613281 94.8434219,84.8296875 Z M104.58,89.1261719 C106.392891,89.1261719 107.581563,87.6585937 107.581563,85.4207031 C107.581563,83.1695313 106.399531,81.7152344 104.58,81.7152344 C103.597188,81.7152344 102.727266,82.2 102.335469,82.9703125 L102.229219,82.9703125 L102.229219,78.9992187 L101.087031,78.9992187 L101.087031,89 L102.176094,89 L102.176094,87.8578125 L102.282344,87.8578125 C102.733906,88.6546875 103.583906,89.1261719 104.58,89.1261719 Z M104.314375,88.096875 C103.012813,88.096875 102.202656,87.0742188 102.202656,85.4207031 C102.202656,83.7671875 103.012813,82.7445312 104.314375,82.7445312 C105.622578,82.7445312 106.399531,83.7472656 106.399531,85.4207031 C106.399531,87.0941406 105.622578,88.096875 104.314375,88.096875 Z M111.915281,89.1261719 C113.482469,89.1261719 114.584813,88.3757813 114.930125,87.1472656 L113.787938,87.1472656 C113.489109,87.778125 112.864891,88.1167969 111.941844,88.1167969 C110.726609,88.1167969 109.936375,87.2203125 109.876609,85.8058594 L109.876609,85.7527344 L115.023094,85.7527344 L115.023094,85.3144531 C115.023094,83.0898438 113.847703,81.7152344 111.915281,81.7152344 C109.949656,81.7152344 108.687938,83.1761719 108.687938,85.4273438 C108.687938,87.6917969 109.929734,89.1261719 111.915281,89.1261719 Z M113.821141,84.8296875 L109.876609,84.8296875 C109.962938,83.5613281 110.759813,82.7246094 111.902,82.7246094 C113.037547,82.7246094 113.794578,83.5613281 113.821141,84.8296875 Z M119.031422,89.053125 C119.257203,89.053125 119.476344,89.0265625 119.702125,88.9867187 L119.702125,88.0238281 C119.489625,88.04375 119.376734,88.0503906 119.170875,88.0503906 C118.427125,88.0503906 118.108375,87.6917969 118.108375,86.8484375 L118.108375,82.7976563 L119.702125,82.7976563 L119.702125,81.8414063 L118.108375,81.8414063 L118.108375,79.9886719 L116.966188,79.9886719 L116.966188,81.8414063 L115.810719,81.8414063 L115.810719,82.7976563 L116.966188,82.7976563 L116.966188,87.140625 C116.966188,88.5085938 117.557203,89.053125 119.031422,89.053125 Z M123.637406,89 L125.231156,83.4617188 L125.337406,83.4617188 L126.937797,89 L128.099906,89 L130.105375,81.8414063 L128.956547,81.8414063 L127.548734,87.565625 L127.442484,87.565625 L125.842094,81.8414063 L124.746391,81.8414063 L123.146,87.565625 L123.03975,87.565625 L121.631938,81.8414063 L120.476469,81.8414063 L122.481938,89 L123.637406,89 Z M133.907844,89.1261719 C135.475031,89.1261719 136.577375,88.3757813 136.922688,87.1472656 L135.7805,87.1472656 C135.481672,87.778125 134.857453,88.1167969 133.934406,88.1167969 C132.719172,88.1167969 131.928938,87.2203125 131.869172,85.8058594 L131.869172,85.7527344 L137.015656,85.7527344 L137.015656,85.3144531 C137.015656,83.0898438 135.840266,81.7152344 133.907844,81.7152344 C131.942219,81.7152344 130.6805,83.1761719 130.6805,85.4273438 C130.6805,87.6917969 131.922297,89.1261719 133.907844,89.1261719 Z M135.813703,84.8296875 L131.869172,84.8296875 C131.9555,83.5613281 132.752375,82.7246094 133.894563,82.7246094 C135.030109,82.7246094 135.787141,83.5613281 135.813703,84.8296875 Z M141.349375,89.1261719 C142.916563,89.1261719 144.018906,88.3757813 144.364219,87.1472656 L143.222031,87.1472656 C142.923203,87.778125 142.298984,88.1167969 141.375938,88.1167969 C140.160703,88.1167969 139.370469,87.2203125 139.310703,85.8058594 L139.310703,85.7527344 L144.457188,85.7527344 L144.457188,85.3144531 C144.457188,83.0898438 143.281797,81.7152344 141.349375,81.7152344 C139.38375,81.7152344 138.122031,83.1761719 138.122031,85.4273438 C138.122031,87.6917969 139.363828,89.1261719 141.349375,89.1261719 Z M143.255234,84.8296875 L139.310703,84.8296875 C139.397031,83.5613281 140.193906,82.7246094 141.336094,82.7246094 C142.471641,82.7246094 143.228672,83.5613281 143.255234,84.8296875 Z M147.064344,89 L147.064344,84.7632813 C147.064344,83.5082031 147.801453,82.7445312 148.943641,82.7445312 C150.085828,82.7445312 150.630359,83.3554688 150.630359,84.64375 L150.630359,89 L151.772547,89 L151.772547,84.3648438 C151.772547,82.6648438 150.876063,81.7152344 149.269031,81.7152344 C148.173328,81.7152344 147.476063,82.1800781 147.117469,82.9703125 L147.011219,82.9703125 L147.011219,81.8414063 L145.922156,81.8414063 L145.922156,89 L147.064344,89 Z M160.519672,89 L160.519672,79.4175781 L159.331,79.4175781 L156.781,81.2503906 L156.781,82.5121094 L159.218109,80.7457031 L159.324359,80.7457031 L159.324359,89 L160.519672,89 Z M169.249484,89 L169.249484,87.9242187 L164.760422,87.9242187 L164.760422,87.8179688 L167.064719,85.3410156 C168.638547,83.6542969 169.090109,82.8773437 169.090109,81.88125 C169.090109,80.3605469 167.775266,79.1917969 166.055344,79.1917969 C164.275656,79.1917969 162.987375,80.4136719 162.987375,82.1136719 L162.987375,82.1203125 L164.142844,82.1203125 L164.142844,82.1136719 C164.142844,80.9847656 164.899875,80.234375 166.022141,80.234375 C167.078,80.234375 167.894797,80.9714844 167.894797,81.9277344 C167.894797,82.6980469 167.595969,83.2160156 166.360813,84.5574219 L163.047141,88.1765625 L163.047141,89 L169.249484,89 Z M171.883203,82.7976563 C172.361328,82.7976563 172.746484,82.4058594 172.746484,81.934375 C172.746484,81.45625 172.361328,81.0710938 171.883203,81.0710938 C171.411719,81.0710938 171.019922,81.45625 171.019922,81.934375 C171.019922,82.4058594 171.411719,82.7976563 171.883203,82.7976563 Z M171.883203,87.9042969 C172.361328,87.9042969 172.746484,87.5125 172.746484,87.0410156 C172.746484,86.5628906 172.361328,86.1777344 171.883203,86.1777344 C171.411719,86.1777344 171.019922,86.5628906 171.019922,87.0410156 C171.019922,87.5125 171.411719,87.9042969 171.883203,87.9042969 Z M177.810672,89.2257812 C179.70325,89.2257812 181.184109,87.9972656 181.184109,86.4167969 C181.184109,85.1085937 180.393875,84.2054687 179.092313,84.0394531 L179.092313,83.9332031 C180.141531,83.6808594 180.772391,82.8441406 180.772391,81.7019531 C180.772391,80.3074219 179.437625,79.1917969 177.764188,79.1917969 C175.938016,79.1917969 174.749344,80.2144531 174.629813,81.8746094 L175.791922,81.8746094 C175.891531,80.8453125 176.615359,80.234375 177.717703,80.234375 C178.820047,80.234375 179.557156,80.8851562 179.557156,81.8613281 C179.557156,82.8574219 178.786844,83.5613281 177.697781,83.5613281 L176.535672,83.5613281 L176.535672,84.5839844 L177.750906,84.5839844 C179.112234,84.5839844 179.955594,85.2746094 179.955594,86.3835938 C179.955594,87.4328125 179.059109,88.1832031 177.797391,88.1832031 C176.562234,88.1832031 175.698953,87.5257812 175.592703,86.503125 L174.437234,86.503125 C174.523563,88.1433594 175.864969,89.2257812 177.810672,89.2257812 Z M185.995953,89.2257812 C188.147516,89.2257812 189.382672,87.40625 189.382672,84.2253906 C189.382672,81.0511719 188.127594,79.1917969 185.995953,79.1917969 C183.851031,79.1917969 182.595953,81.0445313 182.595953,84.2054687 C182.595953,87.3929687 183.83775,89.2257812 185.995953,89.2257812 Z M185.995953,88.1832031 C184.5815,88.1832031 183.797906,86.76875 183.797906,84.2054688 C183.797906,81.6753906 184.594781,80.2410156 185.995953,80.2410156 C187.397125,80.2410156 188.180719,81.6621094 188.180719,84.2054688 C188.180719,86.7753906 187.410406,88.1832031 185.995953,88.1832031 Z M18.4171875,105 L18.4171875,101.580078 L20.8277344,101.580078 C22.6273438,101.580078 23.9089844,100.311719 23.9089844,98.51875 C23.9089844,96.6925781 22.6539062,95.4175781 20.8410156,95.4175781 L17.221875,95.4175781 L17.221875,105 L18.4171875,105 Z M20.5289062,100.517578 L18.4171875,100.517578 L18.4171875,96.4800781 L20.5289062,96.4800781 C21.9167969,96.4800781 22.6804687,97.2039063 22.6804687,98.51875 C22.6804687,99.7871094 21.8902344,100.517578 20.5289062,100.517578 Z M26.6489531,105 L26.6489531,97.6820312 L26.7286406,97.6820312 L29.750125,104.933594 L30.7595,104.933594 L33.7809844,97.6820312 L33.8606719,97.6820312 L33.8606719,105 L34.9762969,105 L34.9762969,95.4175781 L33.5884063,95.4175781 L30.3079375,103.346484 L30.2016875,103.346484 L26.9212188,95.4175781 L25.5333281,95.4175781 L25.5333281,105 L26.6489531,105 Z M44.766,101.686328 L44.766,100.603906 L40.40975,100.603906 L40.40975,101.686328 L44.766,101.686328 Z M56.2490625,105 L56.2490625,103.924219 L51.76,103.924219 L51.76,103.817969 L54.0642969,101.341016 C55.638125,99.6542969 56.0896875,98.8773437 56.0896875,97.88125 C56.0896875,96.3605469 54.7748438,95.1917969 53.0549219,95.1917969 C51.2752344,95.1917969 49.9869531,96.4136719 49.9869531,98.1136719 L49.9869531,98.1203125 L51.1424219,98.1203125 L51.1424219,98.1136719 C51.1424219,96.9847656 51.8994531,96.234375 53.0217188,96.234375 C54.0775781,96.234375 54.894375,96.9714844 54.894375,97.9277344 C54.894375,98.6980469 54.5955469,99.2160156 53.3603906,100.557422 L50.0467188,104.176563 L50.0467188,105 L56.2490625,105 Z M58.8827813,98.7976563 C59.3609063,98.7976563 59.7460625,98.4058594 59.7460625,97.934375 C59.7460625,97.45625 59.3609063,97.0710938 58.8827813,97.0710938 C58.4112969,97.0710938 58.0195,97.45625 58.0195,97.934375 C58.0195,98.4058594 58.4112969,98.7976563 58.8827813,98.7976563 Z M58.8827813,103.904297 C59.3609063,103.904297 59.7460625,103.5125 59.7460625,103.041016 C59.7460625,102.562891 59.3609063,102.177734 58.8827813,102.177734 C58.4112969,102.177734 58.0195,102.562891 58.0195,103.041016 C58.0195,103.5125 58.4112969,103.904297 58.8827813,103.904297 Z M64.863375,105.225781 C67.0149375,105.225781 68.2500938,103.40625 68.2500938,100.225391 C68.2500938,97.0511719 66.9950156,95.1917969 64.863375,95.1917969 C62.7184531,95.1917969 61.463375,97.0445313 61.463375,100.205469 C61.463375,103.392969 62.7051719,105.225781 64.863375,105.225781 Z M64.863375,104.183203 C63.4489219,104.183203 62.6653281,102.76875 62.6653281,100.205469 C62.6653281,97.6753906 63.4622031,96.2410156 64.863375,96.2410156 C66.2645469,96.2410156 67.0481406,97.6621094 67.0481406,100.205469 C67.0481406,102.775391 66.2778281,104.183203 64.863375,104.183203 Z M73.1017813,105.225781 C75.2533438,105.225781 76.4885,103.40625 76.4885,100.225391 C76.4885,97.0511719 75.2334219,95.1917969 73.1017813,95.1917969 C70.9568594,95.1917969 69.7017813,97.0445313 69.7017813,100.205469 C69.7017813,103.392969 70.9435781,105.225781 73.1017813,105.225781 Z M73.1017813,104.183203 C71.6873281,104.183203 70.9037344,102.76875 70.9037344,100.205469 C70.9037344,97.6753906 71.7006094,96.2410156 73.1017813,96.2410156 C74.5029531,96.2410156 75.2865469,97.6621094 75.2865469,100.205469 C75.2865469,102.775391 74.5162344,104.183203 73.1017813,104.183203 Z M82.9778125,105 L82.9778125,101.580078 L85.3883594,101.580078 C87.1879688,101.580078 88.4696094,100.311719 88.4696094,98.51875 C88.4696094,96.6925781 87.2145313,95.4175781 85.4016407,95.4175781 L81.7825,95.4175781 L81.7825,105 L82.9778125,105 Z M85.0895313,100.517578 L82.9778125,100.517578 L82.9778125,96.4800781 L85.0895313,96.4800781 C86.4774219,96.4800781 87.2410938,97.2039063 87.2410938,98.51875 C87.2410938,99.7871094 86.4508594,100.517578 85.0895313,100.517578 Z M91.2095782,105 L91.2095782,97.6820312 L91.2892657,97.6820312 L94.31075,104.933594 L95.320125,104.933594 L98.3416094,97.6820312 L98.4212969,97.6820312 L98.4212969,105 L99.5369219,105 L99.5369219,95.4175781 L98.1490313,95.4175781 L94.8685625,103.346484 L94.7623125,103.346484 L91.4818438,95.4175781 L90.0939532,95.4175781 L90.0939532,105 L91.2095782,105 Z M102.449547,105.066406 C102.927672,105.066406 103.312828,104.674609 103.312828,104.203125 C103.312828,103.725 102.927672,103.339844 102.449547,103.339844 C101.978063,103.339844 101.586266,103.725 101.586266,104.203125 C101.586266,104.674609 101.978063,105.066406 102.449547,105.066406 Z" id="path-1"></path>
        <path d="M180.0695,139.4 L180.0695,136.976562 L182.243719,133.199609 L181.027703,133.199609 L179.553875,135.850781 L179.480828,135.850781 L178.002703,133.199609 L176.786688,133.199609 L178.960906,136.976562 L178.960906,139.4 L180.0695,139.4 Z M184.439859,139.494531 C185.548453,139.494531 186.326188,138.961719 186.528141,138.106641 L185.518375,138.106641 C185.363688,138.454688 184.998453,138.648047 184.469938,138.648047 C183.769547,138.648047 183.318375,138.158203 183.292594,137.376172 L183.292594,137.320312 L186.575406,137.320312 L186.575406,136.976562 C186.575406,135.494141 185.771891,134.604688 184.431266,134.604688 C183.069156,134.604688 182.222672,135.554297 182.222672,137.066797 C182.222672,138.579297 183.056266,139.494531 184.439859,139.494531 Z M185.509781,136.594141 L183.296891,136.594141 C183.344156,135.906641 183.791031,135.451172 184.426969,135.451172 C185.067203,135.451172 185.488297,135.898047 185.509781,136.594141 Z M189.463344,139.494531 C190.636391,139.494531 191.465688,138.892969 191.465688,137.990625 C191.465688,137.298828 191.048891,136.912109 190.150844,136.710156 L189.321547,136.521094 C188.848891,136.413672 188.625453,136.250391 188.625453,135.983984 C188.625453,135.644531 188.990688,135.4125 189.476234,135.4125 C189.974672,135.4125 190.288344,135.623047 190.365688,135.953906 L191.366859,135.953906 C191.289516,135.098828 190.589125,134.604688 189.471938,134.604688 C188.363344,134.604688 187.589906,135.193359 187.589906,136.044141 C187.589906,136.753125 188.015297,137.169922 188.917641,137.376172 L189.751234,137.569531 C190.198109,137.668359 190.400063,137.835938 190.400063,138.102344 C190.400063,138.450391 190.026234,138.686719 189.489125,138.686719 C188.956313,138.686719 188.625453,138.480469 188.522328,138.132422 L187.469594,138.132422 C187.551234,138.9875 188.290297,139.494531 189.463344,139.494531 Z M194.413781,139.421484 C194.620031,139.421484 194.817688,139.4 194.972375,139.369922 L194.972375,138.536328 C194.843469,138.549219 194.761828,138.557813 194.611438,138.557813 C194.164563,138.557813 193.966906,138.351562 193.966906,137.8875 L193.966906,135.580078 L194.972375,135.580078 L194.972375,134.729297 L193.966906,134.729297 L193.966906,133.547656 L192.905578,133.547656 L192.905578,134.729297 L192.162219,134.729297 L192.162219,135.580078 L192.905578,135.580078 L192.905578,138.145313 C192.905578,139.05625 193.335266,139.421484 194.413781,139.421484 Z M198.032188,139.494531 C199.140781,139.494531 199.918516,138.961719 200.120469,138.106641 L199.110703,138.106641 C198.956016,138.454688 198.590781,138.648047 198.062266,138.648047 C197.361875,138.648047 196.910703,138.158203 196.884922,137.376172 L196.884922,137.320312 L200.167734,137.320312 L200.167734,136.976562 C200.167734,135.494141 199.364219,134.604688 198.023594,134.604688 C196.661484,134.604688 195.815,135.554297 195.815,137.066797 C195.815,138.579297 196.648594,139.494531 198.032188,139.494531 Z M199.102109,136.594141 L196.889219,136.594141 C196.936484,135.906641 197.383359,135.451172 198.019297,135.451172 C198.659531,135.451172 199.080625,135.898047 199.102109,136.594141 Z M202.355281,139.4 L202.355281,136.684375 C202.355281,136.026953 202.836531,135.597266 203.528328,135.597266 C203.708797,135.597266 203.992391,135.627344 204.074031,135.657422 L204.074031,134.669141 C203.975203,134.639062 203.786141,134.621875 203.631453,134.621875 C203.025594,134.621875 202.518563,134.965625 202.389656,135.429688 L202.316609,135.429688 L202.316609,134.699219 L201.289656,134.699219 L201.289656,139.4 L202.355281,139.4 Z M206.583844,139.477344 C207.236969,139.477344 207.778375,139.172266 208.044781,138.656641 L208.117828,138.656641 L208.117828,139.4 L209.149078,139.4 L209.149078,132.881641 L208.083453,132.881641 L208.083453,135.446875 L208.010406,135.446875 C207.761188,134.93125 207.228375,134.621875 206.583844,134.621875 C205.397906,134.621875 204.65025,135.558594 204.65025,137.045312 C204.65025,138.540625 205.393609,139.477344 206.583844,139.477344 Z M206.914703,138.570703 C206.184234,138.570703 205.741656,137.999219 205.741656,137.049609 C205.741656,136.104297 206.188531,135.528516 206.914703,135.528516 C207.645172,135.528516 208.096344,136.112891 208.096344,137.049609 C208.096344,137.994922 207.649469,138.570703 206.914703,138.570703 Z M211.839359,139.477344 C212.453813,139.477344 212.969438,139.210938 213.231547,138.755469 L213.304594,138.755469 L213.304594,139.4 L214.331547,139.4 L214.331547,136.190234 C214.331547,135.193359 213.652641,134.604688 212.445219,134.604688 C211.328031,134.604688 210.550297,135.133203 210.464359,135.9625 L211.469828,135.9625 C211.568656,135.644531 211.903813,135.472656 212.393656,135.472656 C212.969438,135.472656 213.278813,135.730469 213.278813,136.190234 L213.278813,136.585547 L212.067094,136.658594 C210.924125,136.727344 210.283891,137.217187 210.283891,138.067969 C210.283891,138.927344 210.932719,139.477344 211.839359,139.477344 Z M212.153031,138.639453 C211.680375,138.639453 211.340922,138.403125 211.340922,138.007812 C211.340922,137.625391 211.620219,137.410547 212.217484,137.371875 L213.278813,137.303125 L213.278813,137.676953 C213.278813,138.222656 212.797563,138.639453 212.153031,138.639453 Z M216.033547,141.105859 C217.086281,141.105859 217.589016,140.719141 217.988625,139.550391 L219.685891,134.699219 L218.560109,134.699219 L217.464406,138.36875 L217.391359,138.36875 L216.291359,134.699219 L215.122609,134.699219 L216.802688,139.421484 L216.746828,139.627734 C216.609328,140.061719 216.355813,140.233594 215.904641,140.233594 C215.831594,140.233594 215.672609,140.229297 215.612453,140.216406 L215.612453,141.088672 C215.681203,141.101562 215.969094,141.105859 216.033547,141.105859 Z" id="path-2"></path>
        <path d="M16.8171875,26.6 L16.8171875,22.4496094 L21.0605469,22.4496094 L21.0605469,21.3871094 L16.8171875,21.3871094 L16.8171875,18.0933594 L21.4390625,18.0933594 L21.4390625,17.0175781 L15.621875,17.0175781 L15.621875,26.6 L16.8171875,26.6 Z M23.52825,17.9871094 C23.9665313,17.9871094 24.325125,17.6285156 24.325125,17.1902344 C24.325125,16.7519531 23.9665313,16.3933594 23.52825,16.3933594 C23.0899688,16.3933594 22.731375,16.7519531 22.731375,17.1902344 C22.731375,17.6285156 23.0899688,17.9871094 23.52825,17.9871094 Z M24.0993438,26.6 L24.0993438,19.4414062 L22.9571563,19.4414062 L22.9571563,26.6 L24.0993438,26.6 Z M28.8912656,26.7261719 C30.9299375,26.7261719 32.1916563,25.3183594 32.1916563,23.0207031 C32.1916563,20.7164062 30.9299375,19.3152344 28.8912656,19.3152344 C26.8525938,19.3152344 25.590875,20.7164062 25.590875,23.0207031 C25.590875,25.3183594 26.8525938,26.7261719 28.8912656,26.7261719 Z M28.8912656,25.696875 C27.5365781,25.696875 26.7729063,24.7140625 26.7729063,23.0207031 C26.7729063,21.3207031 27.5365781,20.3445313 28.8912656,20.3445313 C30.2459531,20.3445313 31.009625,21.3207031 31.009625,23.0207031 C31.009625,24.7140625 30.2459531,25.696875 28.8912656,25.696875 Z M34.7988125,26.6 L34.7988125,22.3632812 C34.7988125,21.1082031 35.5359219,20.3445313 36.6781094,20.3445313 C37.8202969,20.3445313 38.3648281,20.9554688 38.3648281,22.24375 L38.3648281,26.6 L39.5070156,26.6 L39.5070156,21.9648438 C39.5070156,20.2648437 38.6105313,19.3152344 37.0035,19.3152344 C35.9077969,19.3152344 35.2105313,19.7800781 34.8519375,20.5703125 L34.7456875,20.5703125 L34.7456875,19.4414062 L33.656625,19.4414062 L33.656625,26.6 L34.7988125,26.6 Z M43.2563594,26.7261719 C44.2126094,26.7261719 44.9962031,26.3078125 45.4610469,25.5441406 L45.5672969,25.5441406 L45.5672969,26.6 L46.6563594,26.6 L46.6563594,21.6992188 C46.6563594,20.2117188 45.6801875,19.3152344 43.9337031,19.3152344 C42.4063594,19.3152344 41.2774531,20.0722656 41.1247188,21.2210938 L42.2801875,21.2210938 C42.4395625,20.6566406 43.0372188,20.33125 43.8938594,20.33125 C44.963,20.33125 45.5141719,20.8160156 45.5141719,21.6992188 L45.5141719,22.35 L43.4489375,22.4761719 C41.7821406,22.5757812 40.8391719,23.3128906 40.8391719,24.5945313 C40.8391719,25.9027344 41.8684688,26.7261719 43.2563594,26.7261719 Z M43.4688594,25.7234375 C42.6387813,25.7234375 42.0212031,25.2984375 42.0212031,24.5679687 C42.0212031,23.8507812 42.4993281,23.4722656 43.5883906,23.3992188 L45.5141719,23.2730469 L45.5141719,23.9304688 C45.5141719,24.953125 44.64425,25.7234375 43.4688594,25.7234375 Z M53.5706719,26.6 L53.5706719,20.3976562 L55.2109063,20.3976562 L55.2109063,19.4414062 L53.5706719,19.4414062 L53.5706719,18.7773438 C53.5706719,17.9738281 53.9558281,17.6285156 54.6398125,17.6285156 C54.8655938,17.6285156 55.1245781,17.6550781 55.2773125,17.6882813 L55.2773125,16.7320313 C54.9984063,16.6855469 54.7991875,16.665625 54.5734063,16.665625 C53.1921563,16.665625 52.4284844,17.2765625 52.4284844,18.7441406 L52.4284844,19.4414062 L51.2398125,19.4414062 L51.2398125,20.3976562 L52.4284844,20.3976562 L52.4284844,26.6 L53.5706719,26.6 Z M57.68525,26.6 L57.68525,22.1640625 C57.68525,21.1546875 58.4754844,20.4242188 59.5645469,20.4242188 C59.7903281,20.4242188 60.2020469,20.4640625 60.2950156,20.490625 L60.2950156,19.3484375 C60.1489219,19.3285156 59.9098594,19.3152344 59.7239219,19.3152344 C58.7743125,19.3152344 57.950875,19.8066406 57.738375,20.5039062 L57.632125,20.5039062 L57.632125,19.4414062 L56.5430625,19.4414062 L56.5430625,26.6 L57.68525,26.6 Z M64.1373281,26.7261719 C66.176,26.7261719 67.4377188,25.3183594 67.4377188,23.0207031 C67.4377188,20.7164062 66.176,19.3152344 64.1373281,19.3152344 C62.0986563,19.3152344 60.8369375,20.7164062 60.8369375,23.0207031 C60.8369375,25.3183594 62.0986563,26.7261719 64.1373281,26.7261719 Z M64.1373281,25.696875 C62.7826406,25.696875 62.0189688,24.7140625 62.0189688,23.0207031 C62.0189688,21.3207031 62.7826406,20.3445313 64.1373281,20.3445313 C65.4920156,20.3445313 66.2556875,21.3207031 66.2556875,23.0207031 C66.2556875,24.7140625 65.4920156,25.696875 64.1373281,25.696875 Z M70.044875,26.6 L70.044875,22.1640625 C70.044875,21.1546875 70.7687032,20.3445313 71.7050313,20.3445313 C72.6081563,20.3445313 73.1991719,20.8890625 73.1991719,21.7390625 L73.1991719,26.6 L74.3413594,26.6 L74.3413594,21.9980469 C74.3413594,21.0882813 75.0054219,20.3445313 76.0015157,20.3445313 C77.0108907,20.3445313 77.5089375,20.8625 77.5089375,21.9183594 L77.5089375,26.6 L78.651125,26.6 L78.651125,21.6527344 C78.651125,20.1519531 77.8343282,19.3152344 76.3733907,19.3152344 C75.3839375,19.3152344 74.5671407,19.8132813 74.1819844,20.5703125 L74.0757344,20.5703125 C73.7437032,19.8265625 73.0663594,19.3152344 72.0968282,19.3152344 C71.1405782,19.3152344 70.4233907,19.7734375 70.098,20.5703125 L69.99175,20.5703125 L69.99175,19.4414062 L68.9026875,19.4414062 L68.9026875,26.6 L70.044875,26.6 Z M85.1802813,26.6 L85.1802813,19.2820313 L85.2599688,19.2820313 L88.2814532,26.5335938 L89.2908282,26.5335938 L92.3123125,19.2820313 L92.392,19.2820313 L92.392,26.6 L93.507625,26.6 L93.507625,17.0175781 L92.1197344,17.0175781 L88.8392657,24.9464844 L88.7330157,24.9464844 L85.4525469,17.0175781 L84.0646563,17.0175781 L84.0646563,26.6 L85.1802813,26.6 Z M97.4694688,26.7261719 C98.4257188,26.7261719 99.2093125,26.3078125 99.6741563,25.5441406 L99.7804063,25.5441406 L99.7804063,26.6 L100.869469,26.6 L100.869469,21.6992188 C100.869469,20.2117188 99.8932969,19.3152344 98.1468125,19.3152344 C96.6194688,19.3152344 95.4905625,20.0722656 95.3378282,21.2210938 L96.4932969,21.2210938 C96.6526719,20.6566406 97.2503282,20.33125 98.1069688,20.33125 C99.1761094,20.33125 99.7272813,20.8160156 99.7272813,21.6992188 L99.7272813,22.35 L97.6620469,22.4761719 C95.99525,22.5757812 95.0522813,23.3128906 95.0522813,24.5945313 C95.0522813,25.9027344 96.0815782,26.7261719 97.4694688,26.7261719 Z M97.6819688,25.7234375 C96.8518907,25.7234375 96.2343125,25.2984375 96.2343125,24.5679687 C96.2343125,23.8507812 96.7124375,23.4722656 97.8015,23.3992188 L99.7272813,23.2730469 L99.7272813,23.9304688 C99.7272813,24.953125 98.8573594,25.7234375 97.6819688,25.7234375 Z M103.250844,17.9871094 C103.689125,17.9871094 104.047719,17.6285156 104.047719,17.1902344 C104.047719,16.7519531 103.689125,16.3933594 103.250844,16.3933594 C102.812563,16.3933594 102.453969,16.7519531 102.453969,17.1902344 C102.453969,17.6285156 102.812563,17.9871094 103.250844,17.9871094 Z M103.821938,26.6 L103.821938,19.4414062 L102.67975,19.4414062 L102.67975,26.6 L103.821938,26.6 Z M108.321672,26.7261719 C109.311125,26.7261719 110.161125,26.2546875 110.612688,25.4578125 L110.718938,25.4578125 L110.718938,26.6 L111.808,26.6 L111.808,16.5992188 L110.665813,16.5992188 L110.665813,20.5703125 L110.566203,20.5703125 C110.161125,19.7867187 109.317766,19.3152344 108.321672,19.3152344 C106.502141,19.3152344 105.313469,20.7761719 105.313469,23.0207031 C105.313469,25.271875 106.488859,26.7261719 108.321672,26.7261719 Z M108.587297,25.696875 C107.279094,25.696875 106.4955,24.6941406 106.4955,23.0207031 C106.4955,21.3539063 107.285734,20.3445313 108.587297,20.3445313 C109.882219,20.3445313 110.692375,21.3804687 110.692375,23.0207031 C110.692375,24.6742188 109.888859,25.696875 108.587297,25.696875 Z M117.682344,26.8257812 C120.059688,26.8257812 121.487422,25.3515625 121.487422,23.30625 L121.487422,17.0175781 L120.292109,17.0175781 L120.292109,23.2265625 C120.292109,24.6742188 119.3425,25.7234375 117.682344,25.7234375 C116.022188,25.7234375 115.072578,24.6742188 115.072578,23.2265625 L115.072578,17.0175781 L113.877266,17.0175781 L113.877266,23.30625 C113.877266,25.3515625 115.305,26.8257812 117.682344,26.8257812 Z M124.632469,28.990625 L124.632469,25.5242188 L124.738719,25.5242188 C125.130516,26.28125 125.953953,26.7261719 126.976609,26.7261719 C128.796141,26.7261719 129.984813,25.2585938 129.984813,23.0207031 C129.984813,20.7695312 128.802781,19.3152344 126.976609,19.3152344 C126.000438,19.3152344 125.143797,19.8132813 124.685594,20.6367188 L124.579344,20.6367188 L124.579344,19.4414062 L123.490281,19.4414062 L123.490281,28.990625 L124.632469,28.990625 Z M126.704344,25.696875 C125.416063,25.696875 124.599266,24.6609375 124.599266,23.0207031 C124.599266,21.3738281 125.416063,20.3445313 126.710984,20.3445313 C128.019188,20.3445313 128.802781,21.3472656 128.802781,23.0207031 C128.802781,24.6941406 128.019188,25.696875 126.704344,25.696875 Z M135.557719,17.9871094 C135.996,17.9871094 136.354594,17.6285156 136.354594,17.1902344 C136.354594,16.7519531 135.996,16.3933594 135.557719,16.3933594 C135.119438,16.3933594 134.760844,16.7519531 134.760844,17.1902344 C134.760844,17.6285156 135.119438,17.9871094 135.557719,17.9871094 Z M136.128813,26.6 L136.128813,19.4414062 L134.986625,19.4414062 L134.986625,26.6 L136.128813,26.6 Z M140.435969,26.7261719 C142.062922,26.7261719 143.304719,25.8429687 143.304719,24.5613281 C143.304719,23.5320313 142.653938,22.9476563 141.305891,22.6222656 L140.203547,22.3566406 C139.360188,22.1507813 138.96175,21.8453125 138.96175,21.3539063 C138.96175,20.7164062 139.625813,20.2847656 140.475813,20.2847656 C141.339094,20.2847656 141.896906,20.6632812 142.049641,21.234375 L143.178547,21.234375 C143.025813,20.0589844 141.983234,19.3152344 140.482453,19.3152344 C138.96175,19.3152344 137.812922,20.2117188 137.812922,21.4003906 C137.812922,22.4363281 138.423859,23.0140625 139.765266,23.3394531 L140.993781,23.6382812 C141.757453,23.8242188 142.129328,24.15625 142.129328,24.6476562 C142.129328,25.3050781 141.438703,25.7632812 140.475813,25.7632812 C139.559406,25.7632812 138.988313,25.378125 138.795734,24.7738281 L137.620344,24.7738281 C137.746516,25.9625 138.842219,26.7261719 140.435969,26.7261719 Z M151.221766,26.7261719 C153.260438,26.7261719 154.522156,25.3183594 154.522156,23.0207031 C154.522156,20.7164062 153.260438,19.3152344 151.221766,19.3152344 C149.183094,19.3152344 147.921375,20.7164062 147.921375,23.0207031 C147.921375,25.3183594 149.183094,26.7261719 151.221766,26.7261719 Z M151.221766,25.696875 C149.867078,25.696875 149.103406,24.7140625 149.103406,23.0207031 C149.103406,21.3207031 149.867078,20.3445313 151.221766,20.3445313 C152.576453,20.3445313 153.340125,21.3207031 153.340125,23.0207031 C153.340125,24.7140625 152.576453,25.696875 151.221766,25.696875 Z M157.129313,26.6 L157.129313,22.3632812 C157.129313,21.1082031 157.866422,20.3445313 159.008609,20.3445313 C160.150797,20.3445313 160.695328,20.9554688 160.695328,22.24375 L160.695328,26.6 L161.837516,26.6 L161.837516,21.9648438 C161.837516,20.2648437 160.941031,19.3152344 159.334,19.3152344 C158.238297,19.3152344 157.541031,19.7800781 157.182438,20.5703125 L157.076188,20.5703125 L157.076188,19.4414062 L155.987125,19.4414062 L155.987125,26.6 L157.129313,26.6 Z M169.648313,26.653125 C169.874094,26.653125 170.093234,26.6265625 170.319016,26.5867188 L170.319016,25.6238281 C170.106516,25.64375 169.993625,25.6503906 169.787766,25.6503906 C169.044016,25.6503906 168.725266,25.2917969 168.725266,24.4484375 L168.725266,20.3976562 L170.319016,20.3976562 L170.319016,19.4414062 L168.725266,19.4414062 L168.725266,17.5886719 L167.583078,17.5886719 L167.583078,19.4414062 L166.427609,19.4414062 L166.427609,20.3976562 L167.583078,20.3976562 L167.583078,24.740625 C167.583078,26.1085937 168.174094,26.653125 169.648313,26.653125 Z M172.926172,26.6 L172.926172,22.3632812 C172.926172,21.1546875 173.630078,20.3445313 174.911719,20.3445313 C175.994141,20.3445313 176.565234,20.9753906 176.565234,22.24375 L176.565234,26.6 L177.707422,26.6 L177.707422,21.9648438 C177.707422,20.2847656 176.751172,19.3152344 175.237109,19.3152344 C174.141406,19.3152344 173.391016,19.7800781 173.032422,20.5703125 L172.926172,20.5703125 L172.926172,16.5992188 L171.783984,16.5992188 L171.783984,26.6 L172.926172,26.6 Z M182.333328,26.7261719 C183.900516,26.7261719 185.002859,25.9757812 185.348172,24.7472656 L184.205984,24.7472656 C183.907156,25.378125 183.282938,25.7167969 182.359891,25.7167969 C181.144656,25.7167969 180.354422,24.8203125 180.294656,23.4058594 L180.294656,23.3527344 L185.441141,23.3527344 L185.441141,22.9144531 C185.441141,20.6898438 184.26575,19.3152344 182.333328,19.3152344 C180.367703,19.3152344 179.105984,20.7761719 179.105984,23.0273438 C179.105984,25.2917969 180.347781,26.7261719 182.333328,26.7261719 Z M184.239188,22.4296875 L180.294656,22.4296875 C180.380984,21.1613281 181.177859,20.3246094 182.320047,20.3246094 C183.455594,20.3246094 184.212625,21.1613281 184.239188,22.4296875 Z M18.0125,42.6 L19.60625,37.0617187 L19.7125,37.0617187 L21.3128906,42.6 L22.475,42.6 L24.4804688,35.4414062 L23.3316406,35.4414062 L21.9238281,41.165625 L21.8175781,41.165625 L20.2171875,35.4414062 L19.1214844,35.4414062 L17.5210937,41.165625 L17.4148437,41.165625 L16.0070313,35.4414062 L14.8515625,35.4414062 L16.8570312,42.6 L18.0125,42.6 Z M27.4727813,42.7261719 C28.4290313,42.7261719 29.212625,42.3078125 29.6774688,41.5441406 L29.7837188,41.5441406 L29.7837188,42.6 L30.8727813,42.6 L30.8727813,37.6992188 C30.8727813,36.2117188 29.8966094,35.3152344 28.150125,35.3152344 C26.6227813,35.3152344 25.493875,36.0722656 25.3411406,37.2210938 L26.4966094,37.2210938 C26.6559844,36.6566406 27.2536406,36.33125 28.1102813,36.33125 C29.1794219,36.33125 29.7305938,36.8160156 29.7305938,37.6992188 L29.7305938,38.35 L27.6653594,38.4761719 C25.9985625,38.5757812 25.0555938,39.3128906 25.0555938,40.5945313 C25.0555938,41.9027344 26.0848906,42.7261719 27.4727813,42.7261719 Z M27.6852813,41.7234375 C26.8552031,41.7234375 26.237625,41.2984375 26.237625,40.5679687 C26.237625,39.8507812 26.71575,39.4722656 27.8048125,39.3992188 L29.7305938,39.2730469 L29.7305938,39.9304688 C29.7305938,40.953125 28.8606719,41.7234375 27.6852813,41.7234375 Z M33.0018125,45.1898438 C34.2701719,45.1898438 34.8412656,44.6984375 35.4522031,43.0382812 L38.2479063,35.4414062 L37.0326719,35.4414062 L35.0736875,41.3316406 L34.9674375,41.3316406 L33.0018125,35.4414062 L31.7666563,35.4414062 L34.4162656,42.6066406 L34.2834531,43.0316406 C33.984625,43.8949219 33.6260313,44.2070312 32.9686094,44.2070312 C32.8092344,44.2070312 32.6299375,44.2003906 32.4904844,44.1738281 L32.4904844,45.15 C32.6498594,45.1765625 32.8490781,45.1898438 33.0018125,45.1898438 Z M41.0343594,39.4125 L41.14725,33.0109375 L39.819125,33.0109375 L39.9320156,39.4125 L41.0343594,39.4125 Z M40.4898281,42.7195313 C41.0277188,42.7195313 41.4062344,42.334375 41.4062344,41.7964844 C41.4062344,41.2519531 41.0277188,40.8667969 40.4898281,40.8667969 C39.9519375,40.8667969 39.5667813,41.2519531 39.5667813,41.7964844 C39.5667813,42.334375 39.9519375,42.7195313 40.4898281,42.7195313 Z M50.69125,42.6 L50.69125,34.0933594 L53.7791406,34.0933594 L53.7791406,33.0175781 L46.4080469,33.0175781 L46.4080469,34.0933594 L49.4959375,34.0933594 L49.4959375,42.6 L50.69125,42.6 Z M56.3597344,42.6 L56.3597344,38.3632812 C56.3597344,37.1546875 57.0636406,36.3445313 58.3452813,36.3445313 C59.4277031,36.3445313 59.9987969,36.9753906 59.9987969,38.24375 L59.9987969,42.6 L61.1409844,42.6 L61.1409844,37.9648438 C61.1409844,36.2847656 60.1847344,35.3152344 58.6706719,35.3152344 C57.5749688,35.3152344 56.8245781,35.7800781 56.4659844,36.5703125 L56.3597344,36.5703125 L56.3597344,32.5992187 L55.2175469,32.5992187 L55.2175469,42.6 L56.3597344,42.6 Z M65.7668906,42.7261719 C67.3340781,42.7261719 68.4364219,41.9757812 68.7817344,40.7472656 L67.6395469,40.7472656 C67.3407188,41.378125 66.7165,41.7167969 65.7934531,41.7167969 C64.5782188,41.7167969 63.7879844,40.8203125 63.7282188,39.4058594 L63.7282188,39.3527344 L68.8747031,39.3527344 L68.8747031,38.9144531 C68.8747031,36.6898438 67.6993125,35.3152344 65.7668906,35.3152344 C63.8012656,35.3152344 62.5395469,36.7761719 62.5395469,39.0273438 C62.5395469,41.2917969 63.7813438,42.7261719 65.7668906,42.7261719 Z M67.67275,38.4296875 L63.7282188,38.4296875 C63.8145469,37.1613281 64.6114219,36.3246094 65.7536094,36.3246094 C66.8891563,36.3246094 67.6461875,37.1613281 67.67275,38.4296875 Z M70.9373281,33.9871094 C71.3756094,33.9871094 71.7342031,33.6285156 71.7342031,33.1902344 C71.7342031,32.7519531 71.3756094,32.3933594 70.9373281,32.3933594 C70.4990469,32.3933594 70.1404531,32.7519531 70.1404531,33.1902344 C70.1404531,33.6285156 70.4990469,33.9871094 70.9373281,33.9871094 Z M71.5084219,42.6 L71.5084219,35.4414062 L70.3662344,35.4414062 L70.3662344,42.6 L71.5084219,42.6 Z M74.5007344,42.6 L74.5007344,38.1640625 C74.5007344,37.1546875 75.2909688,36.4242188 76.3800313,36.4242188 C76.6058125,36.4242188 77.0175313,36.4640625 77.1105,36.490625 L77.1105,35.3484375 C76.9644063,35.3285156 76.7253438,35.3152344 76.5394063,35.3152344 C75.5897969,35.3152344 74.7663594,35.8066406 74.5538594,36.5039062 L74.4476094,36.5039062 L74.4476094,35.4414062 L73.3585469,35.4414062 L73.3585469,42.6 L74.5007344,42.6 Z M87.8033282,42.6 L87.8033282,41.5242188 L83.0619219,41.5242188 L83.0619219,38.2304688 L87.557625,38.2304688 L87.557625,37.1679688 L83.0619219,37.1679688 L83.0619219,34.0933594 L87.8033282,34.0933594 L87.8033282,33.0175781 L81.8666094,33.0175781 L81.8666094,42.6 L87.8033282,42.6 Z M93.3257188,42.6 L93.3257188,34.0933594 L96.4136094,34.0933594 L96.4136094,33.0175781 L89.0425157,33.0175781 L89.0425157,34.0933594 L92.1304063,34.0933594 L92.1304063,42.6 L93.3257188,42.6 Z M97.2942032,42.6 L98.2570938,39.8574219 L102.068813,39.8574219 L103.031703,42.6 L104.286781,42.6 L100.753969,33.0175781 L99.5719375,33.0175781 L96.039125,42.6 L97.2942032,42.6 Z M101.716859,38.8414062 L98.6090469,38.8414062 L100.109828,34.5648438 L100.216078,34.5648438 L101.716859,38.8414062 Z M109.600703,33.9871094 C110.038984,33.9871094 110.397578,33.6285156 110.397578,33.1902344 C110.397578,32.7519531 110.038984,32.3933594 109.600703,32.3933594 C109.162422,32.3933594 108.803828,32.7519531 108.803828,33.1902344 C108.803828,33.6285156 109.162422,33.9871094 109.600703,33.9871094 Z M110.171797,42.6 L110.171797,35.4414062 L109.029609,35.4414062 L109.029609,42.6 L110.171797,42.6 Z M114.478953,42.7261719 C116.105906,42.7261719 117.347703,41.8429687 117.347703,40.5613281 C117.347703,39.5320313 116.696922,38.9476563 115.348875,38.6222656 L114.246531,38.3566406 C113.403172,38.1507813 113.004734,37.8453125 113.004734,37.3539063 C113.004734,36.7164062 113.668797,36.2847656 114.518797,36.2847656 C115.382078,36.2847656 115.939891,36.6632812 116.092625,37.234375 L117.221531,37.234375 C117.068797,36.0589844 116.026219,35.3152344 114.525438,35.3152344 C113.004734,35.3152344 111.855906,36.2117188 111.855906,37.4003906 C111.855906,38.4363281 112.466844,39.0140625 113.80825,39.3394531 L115.036766,39.6382812 C115.800438,39.8242188 116.172313,40.15625 116.172313,40.6476562 C116.172313,41.3050781 115.481688,41.7632812 114.518797,41.7632812 C113.602391,41.7632812 113.031297,41.378125 112.838719,40.7738281 L111.663328,40.7738281 C111.7895,41.9625 112.885203,42.7261719 114.478953,42.7261719 Z M119.755641,37.5597656 C120.233766,37.5597656 120.618922,37.1679688 120.618922,36.6964844 C120.618922,36.2183594 120.233766,35.8332031 119.755641,35.8332031 C119.284156,35.8332031 118.892359,36.2183594 118.892359,36.6964844 C118.892359,37.1679688 119.284156,37.5597656 119.755641,37.5597656 Z M119.755641,42.6664063 C120.233766,42.6664063 120.618922,42.2746094 120.618922,41.803125 C120.618922,41.325 120.233766,40.9398438 119.755641,40.9398438 C119.284156,40.9398438 118.892359,41.325 118.892359,41.803125 C118.892359,42.2746094 119.284156,42.6664063 119.755641,42.6664063 Z M132.228156,42.6 L132.228156,41.5242188 L127.739094,41.5242188 L127.739094,41.4179688 L130.043391,38.9410156 C131.617219,37.2542969 132.068781,36.4773438 132.068781,35.48125 C132.068781,33.9605469 130.753938,32.7917969 129.034016,32.7917969 C127.254328,32.7917969 125.966047,34.0136719 125.966047,35.7136719 L125.966047,35.7203125 L127.121516,35.7203125 L127.121516,35.7136719 C127.121516,34.5847656 127.878547,33.834375 129.000813,33.834375 C130.056672,33.834375 130.873469,34.5714844 130.873469,35.5277344 C130.873469,36.2980469 130.574641,36.8160156 129.339484,38.1574219 L126.025813,41.7765625 L126.025813,42.6 L132.228156,42.6 Z M139.257969,42.6 L139.257969,40.6144531 L140.619297,40.6144531 L140.619297,39.5453125 L139.257969,39.5453125 L139.257969,33.0175781 L137.524766,33.0175781 C135.798203,35.6007812 134.2775,38.0046875 133.420859,39.5253906 L133.420859,40.6144531 L138.089219,40.6144531 L138.089219,42.6 L139.257969,42.6 Z M138.095859,39.5519531 L134.642734,39.5519531 L134.642734,39.4722656 C135.784922,37.5332031 137.033359,35.5542969 138.016172,34.1265625 L138.095859,34.1265625 L138.095859,39.5519531 Z M146.7965,42.6 L146.7965,38.1640625 C146.7965,37.1546875 147.520328,36.3445313 148.456656,36.3445313 C149.359781,36.3445313 149.950797,36.8890625 149.950797,37.7390625 L149.950797,42.6 L151.092984,42.6 L151.092984,37.9980469 C151.092984,37.0882813 151.757047,36.3445313 152.753141,36.3445313 C153.762516,36.3445313 154.260563,36.8625 154.260563,37.9183594 L154.260563,42.6 L155.40275,42.6 L155.40275,37.6527344 C155.40275,36.1519531 154.585953,35.3152344 153.125016,35.3152344 C152.135563,35.3152344 151.318766,35.8132813 150.933609,36.5703125 L150.827359,36.5703125 C150.495328,35.8265625 149.817984,35.3152344 148.848453,35.3152344 C147.892203,35.3152344 147.175016,35.7734375 146.849625,36.5703125 L146.743375,36.5703125 L146.743375,35.4414062 L145.654313,35.4414062 L145.654313,42.6 L146.7965,42.6 Z M157.757563,33.9871094 C158.195844,33.9871094 158.554438,33.6285156 158.554438,33.1902344 C158.554438,32.7519531 158.195844,32.3933594 157.757563,32.3933594 C157.319281,32.3933594 156.960688,32.7519531 156.960688,33.1902344 C156.960688,33.6285156 157.319281,33.9871094 157.757563,33.9871094 Z M158.328656,42.6 L158.328656,35.4414062 L157.186469,35.4414062 L157.186469,42.6 L158.328656,42.6 Z M161.320969,42.6 L161.320969,38.3632812 C161.320969,37.1082031 162.058078,36.3445313 163.200266,36.3445313 C164.342453,36.3445313 164.886984,36.9554688 164.886984,38.24375 L164.886984,42.6 L166.029172,42.6 L166.029172,37.9648438 C166.029172,36.2648437 165.132688,35.3152344 163.525656,35.3152344 C162.429953,35.3152344 161.732688,35.7800781 161.374094,36.5703125 L161.267844,36.5703125 L161.267844,35.4414062 L160.178781,35.4414062 L160.178781,42.6 L161.320969,42.6 Z M170.243359,42.7261719 C171.870313,42.7261719 173.112109,41.8429687 173.112109,40.5613281 C173.112109,39.5320313 172.461328,38.9476563 171.113281,38.6222656 L170.010938,38.3566406 C169.167578,38.1507813 168.769141,37.8453125 168.769141,37.3539063 C168.769141,36.7164062 169.433203,36.2847656 170.283203,36.2847656 C171.146484,36.2847656 171.704297,36.6632812 171.857031,37.234375 L172.985938,37.234375 C172.833203,36.0589844 171.790625,35.3152344 170.289844,35.3152344 C168.769141,35.3152344 167.620313,36.2117188 167.620313,37.4003906 C167.620313,38.4363281 168.23125,39.0140625 169.572656,39.3394531 L170.801172,39.6382812 C171.564844,39.8242188 171.936719,40.15625 171.936719,40.6476562 C171.936719,41.3050781 171.246094,41.7632812 170.283203,41.7632812 C169.366797,41.7632812 168.795703,41.378125 168.603125,40.7738281 L167.427734,40.7738281 C167.553906,41.9625 168.649609,42.7261719 170.243359,42.7261719 Z M175.520047,42.6664063 C175.998172,42.6664063 176.383328,42.2746094 176.383328,41.803125 C176.383328,41.325 175.998172,40.9398438 175.520047,40.9398438 C175.048563,40.9398438 174.656766,41.325 174.656766,41.803125 C174.656766,42.2746094 175.048563,42.6664063 175.520047,42.6664063 Z" id="path-3"></path>
        <path d="M182.682828,232.2 L182.682828,225.999609 L181.578531,225.999609 L179.958609,227.133984 L179.958609,228.199609 L181.501188,227.116797 L181.574234,227.116797 L181.574234,232.2 L182.682828,232.2 Z M188.802016,232.2 L188.802016,231.258984 L186.017641,231.258984 L186.017641,231.185937 L187.315297,229.883984 C188.368031,228.844141 188.707484,228.294141 188.707484,227.628125 C188.707484,226.592578 187.822328,225.844922 186.597719,225.844922 C185.325844,225.844922 184.436391,226.652734 184.436391,227.812891 L184.436391,227.830078 L185.476234,227.830078 L185.476234,227.812891 C185.476234,227.18125 185.914516,226.755859 186.563344,226.755859 C187.1735,226.755859 187.620375,227.151172 187.620375,227.696875 C187.620375,228.135156 187.409828,228.457422 186.563344,229.316797 L184.496547,231.430859 L184.496547,232.2 L188.802016,232.2 Z M190.886438,228.319922 C191.294641,228.319922 191.573938,228.032031 191.573938,227.645312 C191.573938,227.254297 191.294641,226.966406 190.886438,226.966406 C190.482531,226.966406 190.198938,227.254297 190.198938,227.645312 C190.198938,228.032031 190.482531,228.319922 190.886438,228.319922 Z M190.886438,231.542578 C191.294641,231.542578 191.573938,231.250391 191.573938,230.863672 C191.573938,230.472656 191.294641,230.184766 190.886438,230.184766 C190.482531,230.184766 190.198938,230.472656 190.198938,230.863672 C190.198938,231.250391 190.482531,231.542578 190.886438,231.542578 Z M196.97125,232.2 L196.97125,231.044141 L197.809141,231.044141 L197.809141,230.107422 L196.97125,230.107422 L196.97125,225.999609 L195.407188,225.999609 C194.311484,227.649609 193.439219,229.028906 192.880625,230.055859 L192.880625,231.044141 L195.909922,231.044141 L195.909922,232.2 L196.97125,232.2 Z M195.927109,230.133203 L193.907578,230.133203 L193.907578,230.06875 C194.629453,228.796875 195.273984,227.778516 195.866953,226.901953 L195.927109,226.901953 L195.927109,230.133203 Z M201.221297,232.354687 C202.570516,232.354687 203.567391,231.564062 203.567391,230.498437 C203.567391,229.673437 203.043172,229.097656 202.196688,228.998828 L202.196688,228.925781 C202.884188,228.779687 203.318172,228.225391 203.318172,227.499219 C203.318172,226.549609 202.420125,225.844922 201.217,225.844922 C199.927938,225.844922 199.094344,226.553906 199.038484,227.692578 L200.074031,227.692578 C200.117,227.108203 200.542391,226.747266 201.182625,226.747266 C201.831453,226.747266 202.24825,227.103906 202.24825,227.653906 C202.24825,228.208203 201.814266,228.590625 201.182625,228.590625 L200.426375,228.590625 L200.426375,229.45 L201.204109,229.45 C201.968953,229.45 202.437313,229.823828 202.437313,230.429688 C202.437313,231.014062 201.938875,231.422266 201.229891,231.422266 C200.516609,231.422266 200.026766,231.057031 199.9795,230.48125 L198.918172,230.48125 C198.974031,231.615625 199.884969,232.354687 201.221297,232.354687 Z M208.432328,232.2 L208.432328,230.167578 L209.77725,230.167578 C211.031938,230.167578 211.9085,229.325391 211.9085,228.096484 C211.9085,226.846094 211.062016,225.999609 209.824516,225.999609 L207.323734,225.999609 L207.323734,232.2 L208.432328,232.2 Z M209.528031,229.248047 L208.432328,229.248047 L208.432328,226.927734 L209.532328,226.927734 C210.331547,226.927734 210.782719,227.335938 210.782719,228.096484 C210.782719,228.835547 210.318656,229.248047 209.528031,229.248047 Z M214.212063,232.2 L214.212063,227.838672 L214.272219,227.838672 L215.986672,231.959375 L216.777297,231.959375 L218.49175,227.838672 L218.551906,227.838672 L218.551906,232.2 L219.583156,232.2 L219.583156,225.999609 L218.2855,225.999609 L216.420656,230.515625 L216.343313,230.515625 L214.478469,225.999609 L213.180813,225.999609 L213.180813,232.2 L214.212063,232.2 Z" id="path-4"></path>
    </defs>
    <g id="sms-copy-2" stroke="none" stroke-width="1" fill="none" fill-rule="evenodd">
        <g id="Mockup-/-_Assets-/-iPhone-7-/-_Linear" transform="translate(85.000000, 23.000000)" stroke-width="1.76">
            <g id="iPhone" transform="translate(0.593488, 0.000000)">
                <path d="M248.558144,0.88 C261.815195,0.88 276.222523,4.0455463 286.270493,14.0667994 C294.06517,21.8407512 299.2,33.732553 299.2,51.3848649 L299.2,51.3848649 L299.199259,561.458637 C299.157859,571.58662 297.350887,587.574049 285.897639,598.769901 C278.211173,606.283625 266.185473,611.6 247.513782,611.6 L247.513782,611.6 L52.2180974,611.6 C33.7165893,611.6 21.7770754,606.284693 14.1342925,598.763864 C2.65870784,587.471393 0.88,571.29532 0.88,561.095135 L0.88,51.3848649 C0.88,35.906926 5.0342507,22.8107084 14.1517199,13.8387247 C22.5141517,5.60973034 35.0298044,0.88 52.2180974,0.88 L52.2180974,0.88 L248.558144,0.88 Z" id="Phone" stroke="#C7C7CC" fill="#FFFFFF"></path>
                <path d="M20.3124954,77.426717 L279.767505,77.426717 C280.149619,77.426717 280.459385,77.7360682 280.459385,78.1176722 L280.459385,538.984818 C280.459385,539.366422 280.149619,539.675774 279.767505,539.675774 L20.3124954,539.675774 C19.9303806,539.675774 19.6206154,539.366422 19.6206154,538.984818 L19.6206154,78.1176722 C19.6206154,77.7360682 19.9303806,77.426717 20.3124954,77.426717 Z" id="Edge" stroke="#EFEFF4"></path>
            </g>
        </g>
        <g id="Group" transform="translate(125.500000, 123.000000)">
            <g id="Received-Message">
                <path d="M4.8,109.4 C4.8,109.6772 4.826,115.7996 4.826,115.7996 C4.826,119.1588 2.8492,122.0492 0,123.3928 C3.7212,123.3244 7.1924,122.2396 10.1512,120.4044 C12.5328,122.2788 15.5344,123.3996 18.8,123.3996 C26.532,123.3996 32.8,117.1316 32.8,109.3996 C32.8,101.6676 26.532,96.2 18.8,96.2 C11.068,96.2 4.8,101.668 4.8,109.4 Z" id="Message-Tail" fill="#E5E5EA"></path>
                <path d="M4.8,14.0035437 C4.8,6.49051398 10.8882044,0.4 18.3918851,0.4 L206.208115,0.4 C213.714706,0.4 219.8,6.48908855 219.8,14.0035437 L219.8,109.796456 C219.8,117.309486 213.711796,123.4 206.208115,123.4 L18.3918851,123.4 C10.8852942,123.4 4.8,117.310911 4.8,109.796456 L4.8,14.0035437 Z" id="Message-Shape" fill="#E5E5EA"></path>
                <g id="HiJohn!ThisisareminderaboutyourappointmenttommorowforHomeCleaning.Wewillarrivebetween12:30PM-2:00PM." fill-rule="nonzero">
                    <use fill="#000000" xlink:href="#path-1"></use>
                    <use fill="#231F20" xlink:href="#path-1"></use>
                </g>
            </g>
            <g id="Yesterday" fill-rule="nonzero">
                <use fill="#000000" xlink:href="#path-2"></use>
                <use fill="#8E8E93" xlink:href="#path-2"></use>
            </g>
            <g id="Received-Message" transform="translate(0.000000, 156.200000)">
                <path d="M4.8,46 C4.8,46.2772 4.826,52.3996 4.826,52.3996 C4.826,55.7588 2.8492,58.6492 0,59.9928 C3.7212,59.9244 7.1924,58.8396 10.1512,57.0044 C12.5328,58.8788 15.5344,59.9996 18.8,59.9996 C26.532,59.9996 32.8,53.7316 32.8,45.9996 C32.8,38.2676 26.532,32.8 18.8,32.8 C11.068,32.8 4.8,38.268 4.8,46 Z" id="Message-Tail" fill="#E5E5EA"></path>
                <path d="M4.8,13.5961802 C4.8,6.08721721 10.8882044,0 18.3918851,0 L206.208115,0 C213.714706,0 219.8,6.08330995 219.8,13.5961802 L219.8,46.4038198 C219.8,53.9127828 213.711796,60 206.208115,60 L18.3918851,60 C10.8852942,60 4.8,53.9166901 4.8,46.4038198 L4.8,13.5961802 Z" id="Message-Shape" fill="#E5E5EA"></path>
                <g id="FionafromMaidUpisontheway!TheirETAis:24mins." fill-rule="nonzero">
                    <use fill="#000000" xlink:href="#path-3"></use>
                    <use fill="#231F20" xlink:href="#path-3"></use>
                </g>
            </g>
            <g id="12:43PM" fill-rule="nonzero">
                <use fill="#000000" xlink:href="#path-4"></use>
                <use fill="#8E8E93" xlink:href="#path-4"></use>
            </g>
        </g>
    </g>
</svg>