<?xml version="1.0" encoding="UTF-8"?>
<svg width="172px" height="35px" viewBox="0 0 172 35" version="1.1" xmlns="http://www.w3.org/2000/svg" xmlns:xlink="http://www.w3.org/1999/xlink">
    <title>Group</title>
    <g id="logo-work-" stroke="none" stroke-width="1" fill="none" fill-rule="evenodd">
        <g id="Group">
            <path d="M20.74,4 L20.7407407,4.91176471 L20.7459002,5.10147376 C20.8417819,6.85957443 22.2620311,8.25490196 24,8.25490196 C25.7379689,8.25490196 27.1582181,6.85957443 27.2540998,5.10147376 L27.2592593,4.91176471 L27.2618054,4.00324595 C28.7541729,4.02934282 29.3516807,4.21230655 29.9536914,4.53426541 C30.6055433,4.88287959 31.1171204,5.39445674 31.4657346,6.04630859 C31.8143488,6.69816044 32,7.34473292 32,9.1277704 L32,29.8722296 C32,31.6552671 31.8143488,32.3018396 31.4657346,32.9536914 C31.1171204,33.6055433 30.6055433,34.1171204 29.9536914,34.4657346 C29.3018396,34.8143488 28.6552671,35 26.8722296,35 L5.1277704,35 C3.34473292,35 2.69816044,34.8143488 2.04630859,34.4657346 C1.39445674,34.1171204 0.882879593,33.6055433 0.534265408,32.9536914 C0.185651222,32.3018396 8.02470732e-17,31.6552671 -1.38112041e-16,29.8722296 L1.38112041e-16,9.1277704 C-8.02470732e-17,7.34473292 0.185651222,6.69816044 0.534265408,6.04630859 C0.882879593,5.39445674 1.39445674,4.88287959 2.04630859,4.53426541 C2.64831931,4.21230655 3.24582711,4.02934282 4.73819462,4.00324595 L4.74074074,4.91176471 L4.74590019,5.10147376 C4.84178186,6.85957443 6.26203113,8.25490196 8,8.25490196 C9.73796887,8.25490196 11.1582181,6.85957443 11.2540998,5.10147376 L11.2592593,4.91176471 L11.259,4 L20.74,4 Z M22.8515556,12.2058824 L17.9875556,12.2058824 L8.22755556,27.1405882 L8.22755556,28.6176471 L13.0915556,28.6176471 L22.8515556,13.6829412 L22.8515556,12.2058824 Z M23.1798519,23.8910588 L17.9638519,23.8910588 L14.8918519,28.6176471 L23.1798519,28.6176471 L23.1798519,23.8910588 Z M16.1872593,12.2058824 L8.66725926,12.2058824 L8.66725926,16.9324706 L13.1152593,16.9324706 L16.1872593,12.2058824 Z M8,0 C9.1045695,0 10,0.953828142 10,2.13043478 L10,4.86956522 C10,6.04617186 9.1045695,7 8,7 C6.8954305,7 6,6.04617186 6,4.86956522 L6,2.13043478 C6,0.953828142 6.8954305,0 8,0 Z M24,0 C25.1045695,0 26,0.953828142 26,2.13043478 L26,4.86956522 C26,6.04617186 25.1045695,7 24,7 C22.8954305,7 22,6.04617186 22,4.86956522 L22,2.13043478 C22,0.953828142 22.8954305,0 24,0 Z" id="Combined-Shape" fill="#1976F2"></path>
            <path d="M45.9526817,24.2748973 L52.2573282,15.0191397 L52.2573282,14.0533215 L41.2577322,14.0533215 L41.2577322,17.1117457 L46.9721565,17.1117457 L40.6406817,26.3675033 L40.6406817,27.3333215 L52.3109848,27.3333215 L52.3109848,24.2748973 L45.9526817,24.2748973 Z M66.9860555,19.9287154 C66.9860555,20.5725942 66.9055706,21.2343587 66.7446009,21.9140084 L57.4083585,21.9140084 C57.6408704,22.7546278 58.0835371,23.4029781 58.7363585,23.8590589 C59.3891799,24.3151397 60.1984999,24.5431801 61.1643181,24.5431801 C62.4699613,24.5431801 63.7040623,24.0960419 64.8666211,23.2017659 L66.369005,25.669968 C64.7950789,26.9934964 63.0244122,27.6552609 61.057005,27.6552609 C58.9643989,27.6552609 57.2295031,26.9890253 55.8523181,25.6565538 C54.4751331,24.3240823 53.7865403,22.6741429 53.7865403,20.7067356 C53.7865403,18.7572136 54.4527759,17.1117457 55.7852474,15.7703316 C57.1177189,14.4289175 58.7676583,13.7582104 60.7350656,13.7582104 C62.5772745,13.7582104 64.0796583,14.3484326 65.2422171,15.5288771 C66.4047759,16.7093215 66.9860555,18.1759344 66.9860555,19.9287154 Z M60.6009242,16.6824932 C59.8318466,16.6824932 59.1611395,16.9239478 58.5888029,17.4068568 C58.0164664,17.8897659 57.6229848,18.5425874 57.4083585,19.3653215 L63.4715504,19.3653215 C63.4536648,18.5425874 63.1674967,17.8897659 62.6130454,17.4068568 C62.0585941,16.9239478 61.387887,16.6824932 60.6009242,16.6824932 Z M77.0198333,13.7582104 C75.4280219,13.7582104 74.1313213,14.2590051 73.1297322,15.2605942 L73.1297322,14.0533215 L69.8030252,14.0533215 L69.8030252,27.3333215 L73.4248434,27.3333215 L73.4248434,19.5799478 C73.4248434,18.8108702 73.6618264,18.1893486 74.1357928,17.7153821 C74.6097593,17.2414156 75.2133957,17.0044326 75.9467019,17.0044326 C76.6800082,17.0044326 77.2747019,17.2414156 77.7307827,17.7153821 C78.1868636,18.1893486 78.414904,18.8108702 78.414904,19.5799478 L78.414904,27.3333215 L82.0098939,27.3333215 L82.0098939,19.0970387 C82.0098939,17.4873417 81.5627557,16.1951126 80.6684797,15.2203518 C79.7742038,14.245591 78.557988,13.7582104 77.0198333,13.7582104 Z M93.0899747,13.7582104 C94.9679545,13.7582104 96.5105807,14.4155033 97.7178535,15.7300892 C98.9251262,17.044675 99.5287625,18.703557 99.5287625,20.7067356 C99.5287625,22.7099142 98.9251262,24.3687962 97.7178535,25.6833821 C96.5105807,26.997968 94.9679545,27.6552609 93.0899747,27.6552609 C91.2119949,27.6552609 89.7900959,26.9934964 88.8242777,25.669968 L88.8242777,27.3333215 L85.4975706,27.3333215 L85.4975706,7.21210938 L89.1193888,7.21210938 L89.1193888,15.3410791 C90.0673213,14.2858334 91.3908502,13.7582104 93.0899747,13.7582104 Z M92.4192676,24.3553821 C93.4029714,24.3553821 94.2212341,24.0200286 94.8740555,23.3493215 C95.5268769,22.6786144 95.8532878,21.7888096 95.8532878,20.6799074 C95.8532878,19.5888904 95.5224058,18.7080286 94.8606413,18.0373215 C94.1988769,17.3666144 93.3850858,17.0312609 92.4192676,17.0312609 C91.4892203,17.0312609 90.697786,17.3487288 90.0449646,17.9836649 C89.3921432,18.6186011 89.0657322,19.5262912 89.0657322,20.7067356 C89.0657322,21.9050657 89.3966143,22.8127558 90.0583787,23.4298063 C90.7201432,24.0468568 91.507106,24.3553821 92.4192676,24.3553821 Z M108.730864,13.7582104 C110.698271,13.7582104 112.37951,14.4244459 113.774581,15.7569175 C115.169651,17.089389 115.867187,18.7303853 115.867187,20.6799074 C115.867187,22.6294294 115.169651,24.2748973 113.774581,25.6163114 C112.37951,26.9577255 110.689328,27.6284326 108.704035,27.6284326 C106.718742,27.6284326 105.041975,26.9621971 103.673732,25.6297255 C102.30549,24.297254 101.621369,22.6473146 101.621369,20.6799074 C101.621369,18.7303853 102.309961,17.089389 103.687146,15.7569175 C105.064331,14.4244459 106.745571,13.7582104 108.730864,13.7582104 Z M108.730864,17.0580892 C107.729274,17.0580892 106.90654,17.4023853 106.262662,18.0909781 C105.618783,18.7795708 105.296843,19.65149 105.296843,20.7067356 C105.296843,21.7619813 105.618783,22.6249579 106.262662,23.2956649 C106.90654,23.966372 107.729274,24.3017255 108.730864,24.3017255 C109.714567,24.3017255 110.53283,23.9619005 111.185651,23.2822508 C111.838473,22.6026011 112.164884,21.744096 112.164884,20.7067356 C112.164884,19.6693752 111.838473,18.8019276 111.185651,18.1043922 C110.53283,17.4068568 109.714567,17.0580892 108.730864,17.0580892 Z M125.04246,13.7582104 C127.009867,13.7582104 128.691106,14.4244459 130.086177,15.7569175 C131.481247,17.089389 132.178783,18.7303853 132.178783,20.6799074 C132.178783,22.6294294 131.481247,24.2748973 130.086177,25.6163114 C128.691106,26.9577255 127.000924,27.6284326 125.015631,27.6284326 C123.030338,27.6284326 121.353571,26.9621971 119.985328,25.6297255 C118.617086,24.297254 117.932965,22.6473146 117.932965,20.6799074 C117.932965,18.7303853 118.621557,17.089389 119.998742,15.7569175 C121.375927,14.4244459 123.057167,13.7582104 125.04246,13.7582104 Z M125.04246,17.0580892 C124.04087,17.0580892 123.218136,17.4023853 122.574257,18.0909781 C121.930379,18.7795708 121.608439,19.65149 121.608439,20.7067356 C121.608439,21.7619813 121.930379,22.6249579 122.574257,23.2956649 C123.218136,23.966372 124.04087,24.3017255 125.04246,24.3017255 C126.026163,24.3017255 126.844426,23.9619005 127.497247,23.2822508 C128.150069,22.6026011 128.47648,21.744096 128.47648,20.7067356 C128.47648,19.6693752 128.150069,18.8019276 127.497247,18.1043922 C126.844426,17.4068568 126.026163,17.0580892 125.04246,17.0580892 Z M147.087954,27.3333215 L140.894888,20.1886902 L146.68553,14.0533215 L142.393005,14.0533215 L137.617571,19.1979544 L137.617571,7.21210938 L133.995752,7.21210938 L133.995752,27.3333215 L137.617571,27.3333215 L137.617571,21.2527072 L142.956399,27.3333215 L147.087954,27.3333215 Z M160.467914,19.9287154 C160.467914,20.5725942 160.387429,21.2343587 160.22646,21.9140084 L150.890217,21.9140084 C151.122729,22.7546278 151.565396,23.4029781 152.218217,23.8590589 C152.871039,24.3151397 153.680359,24.5431801 154.646177,24.5431801 C155.95182,24.5431801 157.185921,24.0960419 158.34848,23.2017659 L159.850864,25.669968 C158.276937,26.9934964 156.506271,27.6552609 154.538864,27.6552609 C152.446257,27.6552609 150.711362,26.9890253 149.334177,25.6565538 C147.956992,24.3240823 147.268399,22.6741429 147.268399,20.7067356 C147.268399,18.7572136 147.934634,17.1117457 149.267106,15.7703316 C150.599577,14.4289175 152.249517,13.7582104 154.216924,13.7582104 C156.059133,13.7582104 157.561517,14.3484326 158.724076,15.5288771 C159.886634,16.7093215 160.467914,18.1759344 160.467914,19.9287154 Z M154.082783,16.6824932 C153.313705,16.6824932 152.642998,16.9239478 152.070662,17.4068568 C151.498325,17.8897659 151.104843,18.5425874 150.890217,19.3653215 L156.953409,19.3653215 C156.935523,18.5425874 156.649355,17.8897659 156.094904,17.4068568 C155.540453,16.9239478 154.869746,16.6824932 154.082783,16.6824932 Z M170.260237,13.8923518 C168.739968,13.8923518 167.523752,14.482574 166.611591,15.6630185 L166.611591,14.0533215 L163.284884,14.0533215 L163.284884,27.3333215 L166.906702,27.3333215 L166.906702,20.7067356 C166.906702,19.5620621 167.228641,18.6990859 167.87252,18.1178063 C168.516399,17.5365267 169.383847,17.2458872 170.474864,17.2458872 L171.440682,17.2458872 L171.440682,14.0533215 C171.100857,13.9460084 170.707375,13.8923518 170.260237,13.8923518 Z" id="zenbooker" fill="#212B36"></path>
        </g>
    </g>
</svg>